<svg width="20" height="20" fill="none" xmlns="http://www.w3.org/2000/svg"><path d="M18.75 6.25V3.018a1.249 1.249 0 00-.366-.884L16.616.366A1.25 1.25 0 0015.732 0H6.25A1.25 1.25 0 005 1.25v17.5A1.25 1.25 0 006.25 20h12.5A1.25 1.25 0 0020 18.75V7.5a1.25 1.25 0 00-1.25-1.25zm-7.5 10.625a.624.624 0 01-.625.625h-1.25a.625.625 0 01-.625-.625v-1.25A.625.625 0 019.375 15h1.25a.624.624 0 01.625.625v1.25zm0-5a.624.624 0 01-.625.625h-1.25a.625.625 0 01-.625-.625v-1.25A.625.625 0 019.375 10h1.25a.624.624 0 01.625.625v1.25zm5 5a.624.624 0 01-.625.625h-1.25a.624.624 0 01-.625-.625v-1.25a.624.624 0 01.625-.625h1.25a.624.624 0 01.625.625v1.25zm0-5a.624.624 0 01-.625.625h-1.25a.624.624 0 01-.625-.625v-1.25a.624.624 0 01.625-.625h1.25a.624.624 0 01.625.625v1.25zm0-4.375H7.5v-5h6.25v1.875a.625.625 0 00.625.625h1.875v2.5zM2.5 5H1.25A1.25 1.25 0 000 6.25v12.5A1.25 1.25 0 001.25 20H2.5a1.25 1.25 0 001.25-1.25V6.25A1.25 1.25 0 002.5 5z" fill="#8E6C53"/></svg>