<svg width="38" height="49" fill="none" xmlns="http://www.w3.org/2000/svg"><g clip-path="url(#clip0_390_872)" fill="#803400"><path d="M13.27 19.816H9.63c-2.26 0-4.52.023-6.78 0-2.09-.03-3.403-2.033-2.552-3.853a2.57 2.57 0 01.877-1.09 2.55 2.55 0 011.314-.466c.267-.026.538-.03.804-.03h31.29c.47-.017.939.032 1.394.145a2.663 2.663 0 011.443 1.095c.34.523.487 1.15.416 1.77a2.718 2.718 0 01-.89 1.736c-.5.447-1.147.692-1.816.686-1.835.036-3.67.01-5.506.01H24.61v25.819c0 2.008-1.143 3.367-2.996 3.605-.811.102-1.513-.128-2.699-.901-.734.61-1.579.998-2.566.9-1.805-.163-3.062-1.535-3.07-3.389-.02-3.513 0-7.027 0-10.54V20.716l-.01-.901zm9.399 12.889V19.239c0-1.142.286-1.427 1.432-1.429H34.44c.245 0 .537.081.727-.025.272-.153.643-.438.652-.676.009-.237-.335-.54-.588-.746-.127-.1-.388-.032-.59-.032H3.223c-.222 0-.509-.06-.654.054-.235.18-.526.497-.51.739.016.241.358.494.605.66.141.093.392.025.593.025H13.73c1.219 0 1.48.266 1.48 1.513v13.375l7.459.008zm-7.423 2.027c-.014.205-.034.36-.034.512v10.398c-.005.245.032.49.11.721a1.272 1.272 0 001.287.901 1.26 1.26 0 001.234-.87c.089-.278.13-.57.12-.861.007-3.399.007-6.798 0-10.197 0-.195-.027-.39-.043-.604h-2.674zm4.7 0c-.014.205-.033.36-.033.512v10.398a2.13 2.13 0 00.109.721c.084.273.256.51.489.674.233.163.513.243.797.227a1.26 1.26 0 001.234-.87c.089-.278.13-.57.12-.861.007-3.399.007-6.798 0-10.197 0-.195-.027-.39-.043-.604h-2.672zM12.607 6.259a6.402 6.402 0 011.078-3.533A6.342 6.342 0 0116.53.389a6.297 6.297 0 013.655-.356 6.322 6.322 0 013.237 1.745 6.386 6.386 0 011.73 3.26 6.411 6.411 0 01-.357 3.677 6.365 6.365 0 01-2.326 2.86 6.306 6.306 0 01-3.512 1.08 6.317 6.317 0 01-4.492-1.874 6.426 6.426 0 01-1.858-4.522zm6.316 4.402c.864 0 1.709-.257 2.428-.74a4.396 4.396 0 001.612-1.969 4.428 4.428 0 00-.932-4.793 4.35 4.35 0 00-4.756-.977 4.38 4.38 0 00-1.97 1.606 4.42 4.42 0 00-.755 2.436 4.434 4.434 0 001.274 3.13 4.38 4.38 0 003.1 1.307z"/></g><defs><clipPath id="clip0_390_872"><path fill="#fff" d="M0 0h38v49H0z"/></clipPath></defs></svg>