<svg width="45" height="49" fill="none" xmlns="http://www.w3.org/2000/svg"><path d="M41.094 26.447c-1.427-.816-3.56-1.466-6.367-1.947 2.807-.48 4.94-1.131 6.367-1.947a7.528 7.528 0 003.538-4.564 7.45 7.45 0 00-.759-5.704 7.584 7.584 0 00-4.61-3.503 7.662 7.662 0 00-5.763.751c-1.426.815-3.062 2.32-4.887 4.485.983-2.647 1.48-4.801 1.48-6.431 0-1.994-.8-3.906-2.223-5.316A7.633 7.633 0 0022.5.07a7.633 7.633 0 00-5.37 2.201 7.479 7.479 0 00-2.224 5.316c0 1.63.498 3.784 1.48 6.431-1.823-2.166-3.46-3.67-4.886-4.485a7.662 7.662 0 00-5.762-.75 7.584 7.584 0 00-4.611 3.502 7.45 7.45 0 00-.759 5.704 7.528 7.528 0 003.538 4.564c1.427.815 3.56 1.466 6.368 1.947-2.808.48-4.941 1.131-6.368 1.947A7.527 7.527 0 00.368 31.01a7.45 7.45 0 00.759 5.704 7.584 7.584 0 004.61 3.503 7.661 7.661 0 005.763-.751c1.427-.816 3.063-2.32 4.887-4.485-.983 2.647-1.48 4.801-1.48 6.431 0 1.994.8 3.906 2.224 5.316a7.633 7.633 0 005.37 2.201 7.633 7.633 0 005.369-2.201 7.479 7.479 0 002.224-5.316c0-1.63-.498-3.784-1.48-6.431 1.824 2.166 3.46 3.67 4.886 4.485a7.661 7.661 0 005.762.75 7.584 7.584 0 004.611-3.502 7.45 7.45 0 00.759-5.704 7.528 7.528 0 00-3.538-4.564zM22.5 30.137a5.737 5.737 0 01-3.164-.95 5.65 5.65 0 01-2.098-2.53 5.584 5.584 0 01-.324-3.257 5.62 5.62 0 011.559-2.886 5.714 5.714 0 012.916-1.543 5.75 5.75 0 013.29.32 5.684 5.684 0 012.557 2.077c.625.927.96 2.017.96 3.132a5.615 5.615 0 01-1.67 3.985 5.731 5.731 0 01-4.026 1.653zm11.95-18.976a5.735 5.735 0 014.321-.563c.722.191 1.4.522 1.993.972a5.656 5.656 0 011.465 1.654 5.6 5.6 0 01.57 4.279 5.616 5.616 0 01-.984 1.973 5.678 5.678 0 01-1.67 1.45c-1.858 1.06-5.362 1.847-10.166 2.283a7.5 7.5 0 00-2.612-4.473c2.785-3.902 5.225-6.514 7.082-7.575zM22.5 1.949a5.731 5.731 0 014.025 1.653 5.616 5.616 0 011.67 3.985c0 2.122-1.064 5.518-3.084 9.854a7.672 7.672 0 00-5.222 0c-2.02-4.336-3.084-7.732-3.084-9.854a5.615 5.615 0 011.67-3.985A5.731 5.731 0 0122.5 1.949zM2.77 13.224A5.695 5.695 0 016.23 10.6a5.753 5.753 0 014.32.56c1.858 1.062 4.298 3.675 7.083 7.576a7.501 7.501 0 00-2.612 4.473c-4.804-.436-8.308-1.222-10.165-2.283a5.652 5.652 0 01-2.652-3.424 5.594 5.594 0 01.567-4.278zm7.78 24.615a5.746 5.746 0 01-4.32.563 5.688 5.688 0 01-3.46-2.627 5.588 5.588 0 01-.568-4.278 5.646 5.646 0 012.654-3.423c1.857-1.061 5.36-1.847 10.165-2.283a7.502 7.502 0 002.612 4.473c-2.785 3.902-5.224 6.514-7.082 7.575zm11.95 9.212a5.731 5.731 0 01-4.025-1.653 5.615 5.615 0 01-1.67-3.985c0-2.122 1.064-5.518 3.084-9.854a7.68 7.68 0 005.222 0c2.02 4.336 3.084 7.732 3.084 9.854a5.616 5.616 0 01-1.67 3.985 5.732 5.732 0 01-4.025 1.653zm19.73-11.276a5.695 5.695 0 01-3.46 2.625 5.753 5.753 0 01-4.32-.56c-1.858-1.062-4.298-3.675-7.083-7.576a7.501 7.501 0 002.612-4.473c4.804.436 8.309 1.222 10.166 2.283a5.652 5.652 0 012.65 3.424 5.595 5.595 0 01-.566 4.277z" fill="#803400"/></svg>