<svg width="66" height="54" fill="none" xmlns="http://www.w3.org/2000/svg"><path d="M52 52l11.95-11.95c.352-.351.55-.828.55-1.325V22.312a4.688 4.688 0 00-4.688-4.687v0a4.688 4.688 0 00-4.687 4.688v14.062" stroke="#803400" stroke-width="2.5" stroke-linecap="round" stroke-linejoin="round"/><path d="M52 39.5l2.681-2.681a1.514 1.514 0 00-.393-2.425l-1.385-.691a6.25 6.25 0 00-7.212 1.169l-2.797 2.797a6.25 6.25 0 00-1.831 4.418V52M14.5 52L2.55 40.05A1.875 1.875 0 012 38.725V22.312a4.688 4.688 0 014.688-4.687v0a4.688 4.688 0 014.687 4.688v14.062" stroke="#803400" stroke-width="2.5" stroke-linecap="round" stroke-linejoin="round"/><path d="M14.5 39.5l-2.681-2.681a1.514 1.514 0 01-.444-1.072v0c0-.572.325-1.094.838-1.353l1.384-.691a6.25 6.25 0 017.212 1.169l2.797 2.797a6.25 6.25 0 011.831 4.418V52M38.46 27H28.04v-7.29h-7.29V9.29h7.29V2h10.42v7.29h7.29v10.42h-7.29V27z" stroke="#803400" stroke-width="2.5" stroke-linecap="round" stroke-linejoin="round"/></svg>