<svg width="15" height="18" fill="none" xmlns="http://www.w3.org/2000/svg"><path d="M12.494 2.33a7.41 7.41 0 011.6 2.423 7.31 7.31 0 01.541 2.753c0 .941-.18 1.859-.54 2.753a7.409 7.409 0 01-1.6 2.423l-4.8 4.8a.518.518 0 01-.377.165.518.518 0 01-.377-.165l-4.8-4.8a7.096 7.096 0 01-1.6-2.423A7.414 7.414 0 010 7.506c0-.926.18-1.843.541-2.753a7.018 7.018 0 011.612-2.424A7.281 7.281 0 014.565.73 7.294 7.294 0 017.318.19c.94 0 1.858.18 2.753.54a7.41 7.41 0 012.423 1.6zM9.012 9.2c.235-.235.408-.502.517-.8a2.57 2.57 0 00.165-.894 2.57 2.57 0 00-.165-.894 2.196 2.196 0 00-.517-.8 2.196 2.196 0 00-.8-.518 2.571 2.571 0 00-.894-.165c-.298 0-.596.055-.894.165a2.18 2.18 0 00-.8.518 2.196 2.196 0 00-.518.8 3.01 3.01 0 00-.188.894 1.84 1.84 0 00.188.894c.141.298.314.565.518.8.203.235.47.408.8.518.329.11.627.172.894.188.266.016.564-.047.894-.188a2.52 2.52 0 00.8-.518z" fill="#8E6C53"/></svg>