<svg width="541" height="71" fill="none" xmlns="http://www.w3.org/2000/svg"><path d="M145.14 20.38c.227.333.473.6.74.8.28.187.62.327 1.02.42v.4c-.64-.04-1.44-.06-2.4-.06-.72 0-1.407.02-2.06.06v-.4c.32-.013.553-.053.7-.12.147-.067.22-.167.22-.3 0-.133-.067-.293-.2-.48l-2.92-4.4c-.387-.587-.713-.967-.98-1.14-.267-.187-.64-.293-1.12-.32v5.04c0 .507.04.873.12 1.1a.72.72 0 00.44.46c.227.08.58.133 1.06.16v.4c-.613-.04-1.46-.06-2.54-.06-1.147 0-2 .02-2.56.06v-.4c.48-.027.827-.08 1.04-.16a.718.718 0 00.46-.46c.08-.227.12-.593.12-1.1V9.96c0-.507-.04-.873-.12-1.1a.718.718 0 00-.46-.46c-.213-.08-.56-.133-1.04-.16v-.4c.56.04 1.413.06 2.56.06 1.067 0 1.913-.02 2.54-.06v.4c-.48.027-.833.08-1.06.16a.72.72 0 00-.44.46c-.08.227-.12.593-.12 1.1v4.48c.973-.04 1.734-.413 2.28-1.12l1.92-2.44c.68-.84 1.02-1.48 1.02-1.92 0-.467-.413-.707-1.24-.72v-.4c.76.04 1.527.06 2.3.06.734 0 1.3-.02 1.7-.06v.4c-.44.067-.853.213-1.24.44-.387.213-.76.553-1.12 1.02l-3.26 4.18 4.64 6.5z" fill="#fff"/><path d="M158.266 20.32c.32.827.78 1.253 1.38 1.28v.4c-.534-.04-1.247-.06-2.14-.06-1.147 0-2 .02-2.56.06v-.4c.506-.027.866-.087 1.08-.18.226-.107.34-.293.34-.56 0-.227-.08-.54-.24-.94l-1.22-3.28h-4.84l-.82 2.12c-.267.72-.4 1.267-.4 1.64 0 .413.14.713.42.9.293.187.733.287 1.32.3v.4c-.76-.04-1.527-.06-2.3-.06-.6 0-1.1.02-1.5.06v-.4c.666-.16 1.193-.74 1.58-1.74l4.7-12.12h.32l4.88 12.58zm-3.52-4.08l-2.24-5.98-2.28 5.98h4.52zm8.707.04v3.6c0 .507.053.873.16 1.1.106.227.293.38.56.46.266.08.7.133 1.3.16v.4a54.62 54.62 0 00-2.94-.06c-1.147 0-2 .02-2.56.06v-.4c.48-.027.826-.08 1.04-.16a.72.72 0 00.46-.46c.08-.227.12-.593.12-1.1V9.96c0-.507-.04-.873-.12-1.1a.72.72 0 00-.46-.46c-.214-.08-.56-.133-1.04-.16v-.4c.56.04 1.373.06 2.44.06l2.16-.02c.253-.013.54-.02.86-.02 1.56 0 2.753.36 3.58 1.08.826.707 1.24 1.66 1.24 2.86 0 .733-.167 1.44-.5 2.12-.32.667-.874 1.227-1.66 1.68-.774.453-1.807.68-3.1.68h-1.54zm1.48-8.04c-.414 0-.727.047-.94.14-.2.093-.34.26-.42.5-.08.24-.12.6-.12 1.08v5.92h1.34c1.306 0 2.206-.347 2.7-1.04.506-.707.76-1.647.76-2.82 0-1.293-.26-2.247-.78-2.86-.507-.613-1.354-.92-2.54-.92zm11.839 0c-.48.027-.833.08-1.06.16a.72.72 0 00-.44.46c-.08.227-.12.593-.12 1.1v9.92c0 .507.04.873.12 1.1a.72.72 0 00.44.46c.227.08.58.133 1.06.16v.4c-.613-.04-1.46-.06-2.54-.06-1.147 0-2 .02-2.56.06v-.4c.48-.027.827-.08 1.04-.16a.718.718 0 00.46-.46c.08-.227.12-.593.12-1.1V9.96c0-.507-.04-.873-.12-1.1a.718.718 0 00-.46-.46c-.213-.08-.56-.133-1.04-.16v-.4c.56.04 1.413.06 2.56.06 1.067 0 1.913-.02 2.54-.06v.4zm12.677-.4c-.093.947-.14 1.8-.14 2.56 0 .667.02 1.213.06 1.64h-.46c-.106-1.027-.24-1.787-.4-2.28-.16-.507-.44-.873-.84-1.1-.4-.24-1.013-.36-1.84-.36h-1.08v11.38c0 .56.054.967.16 1.22a.906.906 0 00.56.52c.267.093.7.153 1.3.18v.4c-.693-.04-1.673-.06-2.94-.06-1.333 0-2.32.02-2.96.06v-.4c.6-.027 1.034-.087 1.3-.18a.9.9 0 00.56-.52c.107-.253.16-.66.16-1.22V8.3h-1.08c-.826 0-1.44.12-1.84.36-.4.227-.68.593-.84 1.1-.16.493-.293 1.253-.4 2.28h-.46c.04-.427.06-.973.06-1.64 0-.76-.046-1.613-.14-2.56 1.107.04 2.987.06 5.64.06 2.64 0 4.514-.02 5.62-.06zm13.682.4c-.467.027-.813.1-1.04.22-.227.107-.38.293-.46.56-.08.253-.12.633-.12 1.14v6.02c0 .96-.067 1.787-.2 2.48-.12.68-.327 1.267-.62 1.76-.333.573-.827 1.027-1.48 1.36-.64.333-1.367.5-2.18.5-1.467 0-2.587-.36-3.36-1.08-.587-.547-.98-1.167-1.18-1.86-.2-.693-.3-1.727-.3-3.1V9.96c0-.507-.04-.873-.12-1.1a.718.718 0 00-.46-.46c-.213-.08-.56-.133-1.04-.16v-.4c.56.04 1.413.06 2.56.06 1.08 0 1.927-.02 2.54-.06v.4c-.48.027-.833.08-1.06.16a.72.72 0 00-.44.46c-.08.227-.12.593-.12 1.1v6.62c0 1.067.073 1.953.22 2.66.147.707.447 1.273.9 1.7.467.427 1.147.64 2.04.64 1.413 0 2.407-.453 2.98-1.36s.86-2.18.86-3.82v-6.24c0-.72-.133-1.213-.4-1.48-.253-.267-.727-.413-1.42-.44v-.4c.48.04 1.16.06 2.04.06.8 0 1.42-.02 1.86-.06v.4zm6.473 0c-.48.027-.833.08-1.06.16a.72.72 0 00-.44.46c-.08.227-.12.593-.12 1.1v9.92c0 .507.04.873.12 1.1a.72.72 0 00.44.46c.227.067.58.1 1.06.1h1.46c.827 0 1.453-.113 1.88-.34.44-.24.76-.62.96-1.14.2-.52.347-1.273.44-2.26h.46c-.04.413-.06.96-.06 1.64 0 .76.047 1.613.14 2.56-.907-.04-2.433-.06-4.58-.06-2.56 0-4.493.02-5.8.06v-.4c.48-.027.827-.08 1.04-.16a.718.718 0 00.46-.46c.08-.227.12-.593.12-1.1V9.96c0-.507-.04-.873-.12-1.1a.718.718 0 00-.46-.46c-.213-.08-.56-.133-1.04-.16v-.4c.56.04 1.413.06 2.56.06 1.067 0 1.913-.02 2.54-.06v.4zm3.12 4.3V13l-5.68 3.3v-.2l-2.94 1.7v-.46l2.94-1.7v.2l5.68-3.3zm14.038 7.78c.32.827.78 1.253 1.38 1.28v.4c-.534-.04-1.247-.06-2.14-.06-1.147 0-2 .02-2.56.06v-.4c.506-.027.866-.087 1.08-.18.226-.107.34-.293.34-.56 0-.227-.08-.54-.24-.94l-1.22-3.28h-4.84l-.82 2.12c-.267.72-.4 1.267-.4 1.64 0 .413.14.713.42.9.293.187.733.287 1.32.3v.4c-.76-.04-1.527-.06-2.3-.06-.6 0-1.1.02-1.5.06v-.4c.666-.16 1.193-.74 1.58-1.74l4.7-12.12h.32l4.88 12.58zm-3.52-4.08l-2.24-5.98-2.28 5.98h4.52zM118.238 38.28v3.6c0 .507.053.873.16 1.1.106.227.293.38.56.46.266.08.7.133 1.3.16v.4a54.62 54.62 0 00-2.94-.06c-1.147 0-2 .02-2.56.06v-.4c.48-.027.826-.08 1.04-.16a.72.72 0 00.46-.46c.08-.227.12-.593.12-1.1v-9.92c0-.507-.04-.873-.12-1.1a.72.72 0 00-.46-.46c-.214-.08-.56-.133-1.04-.16v-.4c.56.04 1.373.06 2.44.06l2.16-.02c.253-.013.54-.02.86-.02 1.56 0 2.753.36 3.58 1.08.826.707 1.24 1.66 1.24 2.86 0 .733-.167 1.44-.5 2.12-.32.667-.874 1.227-1.66 1.68-.774.453-1.807.68-3.1.68h-1.54zm1.48-8.04c-.414 0-.727.047-.94.14-.2.093-.34.26-.42.5-.08.24-.12.6-.12 1.08v5.92h1.34c1.306 0 2.206-.347 2.7-1.04.506-.707.76-1.647.76-2.82 0-1.293-.26-2.247-.78-2.86-.507-.613-1.354-.92-2.54-.92zm13.319-.68c1.267 0 2.373.287 3.32.86.96.573 1.7 1.407 2.22 2.5.533 1.08.8 2.373.8 3.88 0 1.467-.273 2.767-.82 3.9-.533 1.133-1.287 2.013-2.26 2.64-.96.627-2.053.94-3.28.94-1.267 0-2.38-.287-3.34-.86-.947-.573-1.687-1.4-2.22-2.48-.52-1.093-.78-2.393-.78-3.9 0-1.467.267-2.767.8-3.9.547-1.133 1.3-2.013 2.26-2.64.973-.627 2.073-.94 3.3-.94zm-.08.36c-.853 0-1.607.3-2.26.9-.64.587-1.14 1.413-1.5 2.48-.347 1.067-.52 2.287-.52 3.66 0 1.387.193 2.607.58 3.66.4 1.053.933 1.867 1.6 2.44s1.413.86 2.24.86c.853 0 1.6-.293 2.24-.88.653-.6 1.153-1.433 1.5-2.5.36-1.067.54-2.287.54-3.66 0-1.387-.2-2.607-.6-3.66-.387-1.053-.913-1.867-1.58-2.44s-1.413-.86-2.24-.86zm6.948 17.46c.933-.027 1.62-.373 2.06-1.04.453-.667.68-1.793.68-3.38v-11c0-.507-.04-.873-.12-1.1a.72.72 0 00-.46-.46c-.214-.08-.56-.133-1.04-.16v-.4c.56.04 1.4.06 2.52.06 1.093 0 1.953-.02 2.58-.06v.4c-.48.027-.834.08-1.06.16a.718.718 0 00-.44.46c-.08.227-.12.593-.12 1.1v7.32c0 1.133-.02 2.14-.06 3.02-.04.867-.134 1.6-.28 2.2-.24.973-.734 1.76-1.48 2.36-.734.6-1.66.9-2.78.9v-.38zm18.003-5.94c0 .76.047 1.613.14 2.56-.907-.04-2.433-.06-4.58-.06-2.56 0-4.493.02-5.8.06v-.4c.48-.027.827-.08 1.04-.16a.718.718 0 00.46-.46c.08-.227.12-.593.12-1.1v-9.92c0-.507-.04-.873-.12-1.1a.718.718 0 00-.46-.46c-.213-.08-.56-.133-1.04-.16v-.4c1.307.04 3.24.06 5.8.06 1.96 0 3.353-.02 4.18-.06-.093.88-.14 1.667-.14 2.36 0 .52.02.933.06 1.24h-.46c-.093-.867-.213-1.507-.36-1.92-.147-.427-.393-.733-.74-.92-.347-.2-.873-.3-1.58-.3h-1.66c-.48 0-.833.04-1.06.12a.662.662 0 00-.44.44c-.08.227-.12.593-.12 1.1v4.72h1.32c.467 0 .827-.107 1.08-.32.253-.227.42-.487.5-.78.093-.307.167-.687.22-1.14l.06-.4h.46c-.04.56-.06 1.187-.06 1.88v.96c0 .68.04 1.627.12 2.84h-.46a99.976 99.976 0 01-.12-.96c-.067-.56-.253-.98-.56-1.26-.293-.28-.707-.42-1.24-.42h-1.32v4.8c0 .507.04.873.12 1.1a.72.72 0 00.44.46c.227.067.58.1 1.06.1h1.46c.827 0 1.453-.107 1.88-.32.44-.227.76-.58.96-1.06.2-.493.347-1.213.44-2.16h.46c-.04.36-.06.84-.06 1.44zm7.407-11.6c2.36 0 4.127.593 5.3 1.78 1.174 1.173 1.76 2.887 1.76 5.14 0 1.453-.286 2.727-.86 3.82a6.037 6.037 0 01-2.5 2.54c-1.08.587-2.373.88-3.88.88l-1.16-.02a51.122 51.122 0 00-1.64-.04c-1.093 0-1.92.02-2.48.06v-.4c.48-.027.827-.08 1.04-.16a.718.718 0 00.46-.46c.08-.227.12-.593.12-1.1v-9.92c0-.507-.04-.873-.12-1.1a.718.718 0 00-.46-.46c-.213-.08-.56-.133-1.04-.16v-.4c.467.04 1.114.06 1.94.06l1.7-.02c.907-.027 1.514-.04 1.82-.04zm-.5.36c-.413 0-.726.047-.94.14-.2.093-.34.26-.42.5-.08.24-.12.6-.12 1.08v10c0 .48.04.84.12 1.08.08.24.22.407.42.5.214.093.534.14.96.14 1.414 0 2.527-.253 3.34-.76.814-.52 1.38-1.273 1.7-2.26.334-.987.5-2.247.5-3.78s-.18-2.78-.54-3.74c-.36-.973-.946-1.7-1.76-2.18-.8-.48-1.886-.72-3.26-.72zm21.878.04c-.467.027-.814.1-1.04.22-.227.107-.38.293-.46.56-.08.253-.12.633-.12 1.14V44.1h-.46l-8.4-12.98v10.56c0 .52.04.907.12 1.16.093.253.266.44.52.56.253.107.646.173 1.18.2v.4c-.48-.04-1.16-.06-2.04-.06-.8 0-1.42.02-1.86.06v-.4c.466-.027.813-.093 1.04-.2a.924.924 0 00.46-.56c.08-.267.12-.653.12-1.16v-9.72c0-.507-.04-.873-.12-1.1a.72.72 0 00-.46-.46c-.214-.08-.56-.133-1.04-.16v-.4c.44.04 1.06.06 1.86.06.6 0 1.12-.02 1.56-.06l7.06 10.88v-8.56c0-.52-.047-.907-.14-1.16a.84.84 0 00-.5-.54c-.254-.12-.647-.193-1.18-.22v-.4c.48.04 1.16.06 2.04.06.8 0 1.42-.02 1.86-.06v.4zm11.944 12.08c.32.827.78 1.253 1.38 1.28v.4c-.534-.04-1.247-.06-2.14-.06-1.147 0-2 .02-2.56.06v-.4c.506-.027.866-.087 1.08-.18.226-.107.34-.293.34-.56 0-.227-.08-.54-.24-.94l-1.22-3.28h-4.84l-.82 2.12c-.267.72-.4 1.267-.4 1.64 0 .413.14.713.42.9.293.187.733.287 1.32.3v.4c-.76-.04-1.527-.06-2.3-.06-.6 0-1.1.02-1.5.06v-.4c.666-.16 1.193-.74 1.58-1.74l4.7-12.12h.32l4.88 12.58zm-3.52-4.08l-2.24-5.98-2.28 5.98h4.52zm17.787-8c-.467.027-.814.1-1.04.22-.227.107-.38.293-.46.56-.08.253-.12.633-.12 1.14V44.1h-.46l-8.4-12.98v10.56c0 .52.04.907.12 1.16.093.253.266.44.52.56.253.107.646.173 1.18.2v.4c-.48-.04-1.16-.06-2.04-.06-.8 0-1.42.02-1.86.06v-.4c.466-.027.813-.093 1.04-.2a.924.924 0 00.46-.56c.08-.267.12-.653.12-1.16v-9.72c0-.507-.04-.873-.12-1.1a.72.72 0 00-.46-.46c-.214-.08-.56-.133-1.04-.16v-.4c.44.04 1.06.06 1.86.06.6 0 1.12-.02 1.56-.06l7.06 10.88v-8.56c0-.52-.047-.907-.14-1.16a.84.84 0 00-.5-.54c-.254-.12-.647-.193-1.18-.22v-.4c.48.04 1.16.06 2.04.06.8 0 1.42-.02 1.86-.06v.4zm6.661 0c-.48.027-.833.08-1.06.16a.72.72 0 00-.44.46c-.08.227-.12.593-.12 1.1v9.92c0 .507.04.873.12 1.1a.72.72 0 00.44.46c.227.08.58.133 1.06.16v.4c-.613-.04-1.46-.06-2.54-.06-1.147 0-2 .02-2.56.06v-.4c.48-.027.827-.08 1.04-.16a.718.718 0 00.46-.46c.08-.227.12-.593.12-1.1v-9.92c0-.507-.04-.873-.12-1.1a.718.718 0 00-.46-.46c-.213-.08-.56-.133-1.04-.16v-.4c.56.04 1.413.06 2.56.06 1.067 0 1.913-.02 2.54-.06v.4zm12.177 12.08c.32.827.78 1.253 1.38 1.28v.4c-.533-.04-1.246-.06-2.14-.06-1.146 0-2 .02-2.56.06v-.4c.507-.027.867-.087 1.08-.18.227-.107.34-.293.34-.56 0-.227-.08-.54-.24-.94l-1.22-3.28h-4.84l-.82 2.12c-.266.72-.4 1.267-.4 1.64 0 .413.14.713.42.9.294.187.734.287 1.32.3v.4c-.76-.04-1.526-.06-2.3-.06-.6 0-1.1.02-1.5.06v-.4c.667-.16 1.194-.74 1.58-1.74l4.7-12.12h.32l4.88 12.58zm-3.52-4.08l-2.24-5.98-2.28 5.98h4.52zM6.91 60.28v3.6c0 .507.053.873.16 1.1.106.227.293.38.56.46.266.08.7.133 1.3.16v.4a54.62 54.62 0 00-2.94-.06c-1.147 0-2 .02-2.56.06v-.4c.48-.027.826-.08 1.04-.16a.719.719 0 00.46-.46c.08-.227.12-.593.12-1.1v-9.92c0-.507-.04-.873-.12-1.1a.719.719 0 00-.46-.46c-.214-.08-.56-.133-1.04-.16v-.4c.56.04 1.373.06 2.44.06l2.16-.02c.253-.013.54-.02.86-.02 1.56 0 2.753.36 3.58 1.08.826.707 1.24 1.66 1.24 2.86a4.76 4.76 0 01-.5 2.12c-.32.667-.874 1.227-1.66 1.68-.774.453-1.807.68-3.1.68H6.91zm1.48-8.04c-.414 0-.727.047-.94.14-.2.093-.34.26-.42.5-.08.24-.12.6-.12 1.08v5.92h1.34c1.306 0 2.206-.347 2.7-1.04.506-.707.76-1.647.76-2.82 0-1.293-.26-2.247-.78-2.86-.507-.613-1.354-.92-2.54-.92zm13.319-.68c1.267 0 2.373.287 3.32.86.96.573 1.7 1.407 2.22 2.5.533 1.08.8 2.373.8 3.88 0 1.467-.273 2.767-.82 3.9-.533 1.133-1.287 2.013-2.26 2.64-.96.627-2.053.94-3.28.94-1.267 0-2.38-.287-3.34-.86-.947-.573-1.687-1.4-2.22-2.48-.52-1.093-.78-2.393-.78-3.9 0-1.467.267-2.767.8-3.9.547-1.133 1.3-2.013 2.26-2.64.973-.627 2.073-.94 3.3-.94zm-.08.36c-.853 0-1.607.3-2.26.9-.64.587-1.14 1.413-1.5 2.48-.347 1.067-.52 2.287-.52 3.66 0 1.387.193 2.607.58 3.66.4 1.053.933 1.867 1.6 2.44s1.413.86 2.24.86c.853 0 1.6-.293 2.24-.88.653-.6 1.153-1.433 1.5-2.5.36-1.067.54-2.287.54-3.66 0-1.387-.2-2.607-.6-3.66-.387-1.053-.913-1.867-1.58-2.44s-1.413-.86-2.24-.86zm13.268.32c-.48.027-.834.08-1.06.16a.72.72 0 00-.44.46c-.08.227-.12.593-.12 1.1v9.92c0 .507.04.873.12 1.1a.72.72 0 00.44.46c.226.067.58.1 1.06.1h1.46c.827 0 1.453-.113 1.88-.34.44-.24.76-.62.96-1.14.2-.52.346-1.273.44-2.26h.46c-.04.413-.06.96-.06 1.64 0 .76.047 1.613.14 2.56-.907-.04-2.434-.06-4.58-.06-2.56 0-4.494.02-5.8.06v-.4c.48-.027.826-.08 1.04-.16a.72.72 0 00.46-.46c.08-.227.12-.593.12-1.1v-9.92c0-.507-.04-.873-.12-1.1a.72.72 0 00-.46-.46c-.213-.08-.56-.133-1.04-.16v-.4c.56.04 1.413.06 2.56.06 1.066 0 1.913-.02 2.54-.06v.4zm10.938-.62c.586 0 1.046.067 1.38.2.346.12.7.3 1.06.54.293.187.52.28.68.28.12 0 .213-.067.28-.2.066-.147.12-.373.16-.68h.46c-.067.773-.1 2.133-.1 4.08h-.46c-.08-1.08-.394-1.987-.94-2.72-.534-.747-1.314-1.12-2.34-1.12-.72 0-1.307.22-1.76.66-.454.427-.68.98-.68 1.66 0 .507.113.947.34 1.32.24.373.54.693.9.96s.873.607 1.54 1.02l.58.36c.84.52 1.5.98 1.98 1.38.493.387.886.833 1.18 1.34.293.507.44 1.1.44 1.78 0 1.213-.4 2.153-1.2 2.82-.8.653-1.814.98-3.04.98-.64 0-1.167-.067-1.58-.2a5.706 5.706 0 01-1.16-.54c-.294-.187-.52-.28-.68-.28-.12 0-.214.073-.28.22-.067.133-.12.353-.16.66h-.46c.053-.733.08-2.333.08-4.8h.46c.093 1.347.426 2.44 1 3.28.573.84 1.453 1.26 2.64 1.26.72 0 1.333-.22 1.84-.66.506-.453.76-1.12.76-2 0-.747-.254-1.38-.76-1.9-.494-.52-1.28-1.107-2.36-1.76a23.776 23.776 0 01-1.92-1.28 4.724 4.724 0 01-1.18-1.34c-.307-.533-.46-1.153-.46-1.86 0-1.12.36-1.973 1.08-2.56.72-.6 1.613-.9 2.68-.9zm17.001 12.76c.226.333.473.6.74.8.28.187.62.327 1.02.42v.4c-.64-.04-1.44-.06-2.4-.06-.72 0-1.407.02-2.06.06v-.4c.32-.013.553-.053.7-.12.146-.067.22-.167.22-.3 0-.133-.067-.293-.2-.48l-2.92-4.4c-.387-.587-.714-.967-.98-1.14-.267-.187-.64-.293-1.12-.32v5.04c0 .507.04.873.12 1.1a.72.72 0 00.44.46c.226.08.58.133 1.06.16v.4c-.614-.04-1.46-.06-2.54-.06-1.147 0-2 .02-2.56.06v-.4c.48-.027.826-.08 1.04-.16a.72.72 0 00.46-.46c.08-.227.12-.593.12-1.1v-9.92c0-.507-.04-.873-.12-1.1a.72.72 0 00-.46-.46c-.214-.08-.56-.133-1.04-.16v-.4c.56.04 1.413.06 2.56.06 1.066 0 1.913-.02 2.54-.06v.4c-.48.027-.834.08-1.06.16a.72.72 0 00-.44.46c-.08.227-.12.593-.12 1.1v4.48c.973-.04 1.733-.413 2.28-1.12l1.92-2.44c.68-.84 1.02-1.48 1.02-1.92 0-.467-.414-.707-1.24-.72v-.4c.76.04 1.526.06 2.3.06.733 0 1.3-.02 1.7-.06v.4a3.45 3.45 0 00-1.24.44c-.387.213-.76.553-1.12 1.02l-3.26 4.18 4.64 6.5zm8.209-12.82c1.266 0 2.373.287 3.32.86.96.573 1.7 1.407 2.22 2.5.533 1.08.8 2.373.8 3.88 0 1.467-.273 2.767-.82 3.9-.534 1.133-1.287 2.013-2.26 2.64-.96.627-2.054.94-3.28.94-1.267 0-2.38-.287-3.34-.86-.947-.573-1.687-1.4-2.22-2.48-.52-1.093-.78-2.393-.78-3.9 0-1.467.266-2.767.8-3.9.546-1.133 1.3-2.013 2.26-2.64.973-.627 2.073-.94 3.3-.94zm-.08.36c-.853 0-1.607.3-2.26.9-.64.587-1.14 1.413-1.5 2.48-.347 1.067-.52 2.287-.52 3.66 0 1.387.193 2.607.58 3.66.4 1.053.933 1.867 1.6 2.44.666.573 1.413.86 2.24.86.853 0 1.6-.293 2.24-.88.653-.6 1.153-1.433 1.5-2.5.36-1.067.54-2.287.54-3.66 0-1.387-.2-2.607-.6-3.66-.387-1.053-.913-1.867-1.58-2.44s-1.413-.86-2.24-.86zM87.05 61.2h-7.22v-1.16h7.22v1.16zm14.48-8.96c-.467.027-.814.1-1.04.22-.227.107-.38.293-.46.56-.08.253-.12.633-.12 1.14v6.02c0 .96-.067 1.787-.2 2.48-.12.68-.327 1.267-.62 1.76-.334.573-.827 1.027-1.48 1.36-.64.333-1.367.5-2.18.5-1.467 0-2.587-.36-3.36-1.08-.587-.547-.98-1.167-1.18-1.86-.2-.693-.3-1.727-.3-3.1v-6.28c0-.507-.04-.873-.12-1.1a.719.719 0 00-.46-.46c-.214-.08-.56-.133-1.04-.16v-.4c.56.04 1.413.06 2.56.06 1.08 0 1.926-.02 2.54-.06v.4c-.48.027-.834.08-1.06.16a.72.72 0 00-.44.46c-.08.227-.12.593-.12 1.1v6.62c0 1.067.073 1.953.22 2.66.146.707.446 1.273.9 1.7.466.427 1.146.64 2.04.64 1.413 0 2.406-.453 2.98-1.36.573-.907.86-2.18.86-3.82v-6.24c0-.72-.134-1.213-.4-1.48-.254-.267-.727-.413-1.42-.44v-.4c.48.04 1.16.06 2.04.06.8 0 1.42-.02 1.86-.06v.4zm11.852 12.14c.227.333.474.6.74.8.28.187.62.327 1.02.42v.4c-.64-.04-1.44-.06-2.4-.06-.72 0-1.406.02-2.06.06v-.4c.32-.013.554-.053.7-.12.147-.067.22-.167.22-.3 0-.133-.066-.293-.2-.48l-2.92-4.4c-.386-.587-.713-.967-.98-1.14-.266-.187-.64-.293-1.12-.32v5.04c0 .507.04.873.12 1.1a.72.72 0 00.44.46c.227.08.58.133 1.06.16v.4c-.613-.04-1.46-.06-2.54-.06-1.146 0-2 .02-2.56.06v-.4c.48-.027.827-.08 1.04-.16a.718.718 0 00.46-.46c.08-.227.12-.593.12-1.1v-9.92c0-.507-.04-.873-.12-1.1a.718.718 0 00-.46-.46c-.213-.08-.56-.133-1.04-.16v-.4c.56.04 1.414.06 2.56.06 1.067 0 1.914-.02 2.54-.06v.4c-.48.027-.833.08-1.06.16a.72.72 0 00-.44.46c-.08.227-.12.593-.12 1.1v4.48c.974-.04 1.734-.413 2.28-1.12l1.92-2.44c.68-.84 1.02-1.48 1.02-1.92 0-.467-.413-.707-1.24-.72v-.4c.76.04 1.527.06 2.3.06.734 0 1.3-.02 1.7-.06v.4c-.44.067-.853.213-1.24.44-.386.213-.76.553-1.12 1.02l-3.26 4.18 4.64 6.5zm14.986.62c-.307.453-.614.78-.92.98-.307.2-.714.3-1.22.3-.547 0-1-.16-1.36-.48-.347-.32-.607-.88-.78-1.68l-.44-2c-.16-.693-.314-1.227-.46-1.6a1.994 1.994 0 00-.62-.9c-.28-.227-.674-.34-1.18-.34h-1.9v4.6c0 .507.04.873.12 1.1.08.227.226.38.44.46.226.08.58.133 1.06.16v.4c-.614-.04-1.46-.06-2.54-.06-1.147 0-2 .02-2.56.06v-.4c.48-.027.826-.08 1.04-.16a.72.72 0 00.46-.46c.08-.227.12-.593.12-1.1v-9.92c0-.507-.04-.873-.12-1.1a.72.72 0 00-.46-.46c-.214-.08-.56-.133-1.04-.16v-.4c.56.04 1.373.06 2.44.06l2.16-.02c.253-.013.54-.02.86-.02 1.546 0 2.733.327 3.56.98.84.64 1.26 1.473 1.26 2.5 0 .52-.127 1.047-.38 1.58-.24.52-.654.993-1.24 1.42-.574.413-1.327.693-2.26.84l.24.04c.88.147 1.52.413 1.92.8.4.387.693 1 .88 1.84l.5 2.04c.133.613.273 1.04.42 1.28.146.24.346.36.6.36.226 0 .413-.06.56-.18.16-.12.34-.313.54-.58l.3.22zm-7.4-12.76c-.414 0-.727.047-.94.14-.2.093-.34.26-.42.5-.08.24-.12.6-.12 1.08v4.92h1.34c1.32 0 2.226-.293 2.72-.88.493-.587.74-1.4.74-2.44 0-1.093-.26-1.92-.78-2.48s-1.367-.84-2.54-.84z" fill="#fff"/><path d="M139.477 64.32c.32.827.78 1.253 1.38 1.28v.4c-.534-.04-1.247-.06-2.14-.06-1.147 0-2 .02-2.56.06v-.4c.506-.027.866-.087 1.08-.18.226-.107.34-.293.34-.56 0-.227-.08-.54-.24-.94l-1.22-3.28h-4.84l-.82 2.12c-.267.72-.4 1.267-.4 1.64 0 .413.14.713.42.9.293.187.733.287 1.32.3v.4c-.76-.04-1.527-.06-2.3-.06-.6 0-1.1.02-1.5.06v-.4c.666-.16 1.193-.74 1.58-1.74l4.7-12.12h.32l4.88 12.58zm-3.52-4.08l-2.24-5.98-2.28 5.98h4.52zm10.327-8c-.48.027-.834.08-1.06.16a.718.718 0 00-.44.46c-.08.227-.12.593-.12 1.1v9.92c0 .507.04.873.12 1.1.08.227.226.38.44.46.226.08.58.133 1.06.16v.4c-.614-.04-1.46-.06-2.54-.06-1.147 0-2 .02-2.56.06v-.4c.48-.027.826-.08 1.04-.16a.72.72 0 00.46-.46c.08-.227.12-.593.12-1.1v-9.92c0-.507-.04-.873-.12-1.1a.72.72 0 00-.46-.46c-.214-.08-.56-.133-1.04-.16v-.4c.56.04 1.413.06 2.56.06 1.066 0 1.913-.02 2.54-.06v.4zm14.237 0c-.467.027-.813.1-1.04.22-.227.107-.38.293-.46.56-.08.253-.12.633-.12 1.14V66.1h-.46l-8.4-12.98v10.56c0 .52.04.907.12 1.16.093.253.267.44.52.56.253.107.647.173 1.18.2v.4c-.48-.04-1.16-.06-2.04-.06-.8 0-1.42.02-1.86.06v-.4c.467-.027.813-.093 1.04-.2a.92.92 0 00.46-.56c.08-.267.12-.653.12-1.16v-9.72c0-.507-.04-.873-.12-1.1a.718.718 0 00-.46-.46c-.213-.08-.56-.133-1.04-.16v-.4c.44.04 1.06.06 1.86.06.6 0 1.12-.02 1.56-.06l7.06 10.88v-8.56c0-.52-.047-.907-.14-1.16a.84.84 0 00-.5-.54c-.253-.12-.647-.193-1.18-.22v-.4c.48.04 1.16.06 2.04.06.8 0 1.42-.02 1.86-.06v.4zm-3.78-4.76c.213-.133.413-.2.6-.2.253 0 .46.113.62.34.08.12.12.247.12.38 0 .293-.18.553-.54.78-.28.173-.76.387-1.44.64-1 .4-1.86.78-2.58 1.14l-.14-.26a21.906 21.906 0 001.4-1.14c.4-.36.647-.58.74-.66.493-.467.9-.807 1.22-1.02zm9.621 4.14c.587 0 1.047.067 1.38.2.347.12.7.3 1.06.54.293.187.52.28.68.28.12 0 .213-.067.28-.2.067-.147.12-.373.16-.68h.46c-.067.773-.1 2.133-.1 4.08h-.46c-.08-1.08-.393-1.987-.94-2.72-.533-.747-1.313-1.12-2.34-1.12-.72 0-1.307.22-1.76.66-.453.427-.68.98-.68 1.66 0 .507.113.947.34 1.32.24.373.54.693.9.96s.873.607 1.54 1.02l.58.36c.84.52 1.5.98 1.98 1.38.493.387.887.833 1.18 1.34.293.507.44 1.1.44 1.78 0 1.213-.4 2.153-1.2 2.82-.8.653-1.813.98-3.04.98-.64 0-1.167-.067-1.58-.2a5.698 5.698 0 01-1.16-.54c-.293-.187-.52-.28-.68-.28-.12 0-.213.073-.28.22-.067.133-.12.353-.16.66h-.46c.053-.733.08-2.333.08-4.8h.46c.093 1.347.427 2.44 1 3.28.573.84 1.453 1.26 2.64 1.26.72 0 1.333-.22 1.84-.66.507-.453.76-1.12.76-2 0-.747-.253-1.38-.76-1.9-.493-.52-1.28-1.107-2.36-1.76a23.67 23.67 0 01-1.92-1.28 4.728 4.728 0 01-1.18-1.34c-.307-.533-.46-1.153-.46-1.86 0-1.12.36-1.973 1.08-2.56.72-.6 1.613-.9 2.68-.9zm17.001 12.76c.226.333.473.6.74.8.28.187.62.327 1.02.42v.4c-.64-.04-1.44-.06-2.4-.06-.72 0-1.407.02-2.06.06v-.4c.32-.013.553-.053.7-.12.146-.067.22-.167.22-.3 0-.133-.067-.293-.2-.48l-2.92-4.4c-.387-.587-.714-.967-.98-1.14-.267-.187-.64-.293-1.12-.32v5.04c0 .507.04.873.12 1.1.08.227.226.38.44.46.226.08.58.133 1.06.16v.4c-.614-.04-1.46-.06-2.54-.06-1.147 0-2 .02-2.56.06v-.4c.48-.027.826-.08 1.04-.16a.72.72 0 00.46-.46c.08-.227.12-.593.12-1.1v-9.92c0-.507-.04-.873-.12-1.1a.72.72 0 00-.46-.46c-.214-.08-.56-.133-1.04-.16v-.4c.56.04 1.413.06 2.56.06 1.066 0 1.913-.02 2.54-.06v.4c-.48.027-.834.08-1.06.16a.718.718 0 00-.44.46c-.08.227-.12.593-.12 1.1v4.48c.973-.04 1.733-.413 2.28-1.12l1.92-2.44c.68-.84 1.02-1.48 1.02-1.92 0-.467-.414-.707-1.24-.72v-.4c.76.04 1.526.06 2.3.06.733 0 1.3-.02 1.7-.06v.4a3.45 3.45 0 00-1.24.44c-.387.213-.76.553-1.12 1.02l-3.26 4.18 4.64 6.5zm7.725-12.14c-.48.027-.833.08-1.06.16a.72.72 0 00-.44.46c-.08.227-.12.593-.12 1.1v9.92c0 .507.04.873.12 1.1a.72.72 0 00.44.46c.227.08.58.133 1.06.16v.4c-.613-.04-1.46-.06-2.54-.06-1.146 0-2 .02-2.56.06v-.4c.48-.027.827-.08 1.04-.16a.718.718 0 00.46-.46c.08-.227.12-.593.12-1.1v-9.92c0-.507-.04-.873-.12-1.1a.718.718 0 00-.46-.46c-.213-.08-.56-.133-1.04-.16v-.4c.56.04 1.414.06 2.56.06 1.067 0 1.914-.02 2.54-.06v.4zm11.918 11.2c0 .76.046 1.613.14 2.56-.907-.04-2.434-.06-4.58-.06-2.56 0-4.494.02-5.8.06v-.4c.48-.027.826-.08 1.04-.16a.72.72 0 00.46-.46c.08-.227.12-.593.12-1.1v-9.92c0-.507-.04-.873-.12-1.1a.72.72 0 00-.46-.46c-.214-.08-.56-.133-1.04-.16v-.4c1.306.04 3.24.06 5.8.06 1.96 0 3.353-.02 4.18-.06-.094.88-.14 1.667-.14 2.36 0 .52.02.933.06 1.24h-.46c-.094-.867-.214-1.507-.36-1.92-.147-.427-.394-.733-.74-.92-.347-.2-.874-.3-1.58-.3h-1.66c-.48 0-.834.04-1.06.12a.66.66 0 00-.44.44c-.08.227-.12.593-.12 1.1v4.72h1.32c.466 0 .826-.107 1.08-.32.253-.227.42-.487.5-.78a6.76 6.76 0 00.22-1.14l.06-.4h.46c-.04.56-.06 1.187-.06 1.88v.96c0 .68.04 1.627.12 2.84h-.46a58.841 58.841 0 01-.12-.96c-.067-.56-.254-.98-.56-1.26-.294-.28-.707-.42-1.24-.42h-1.32v4.8c0 .507.04.873.12 1.1.08.227.226.38.44.46.226.067.58.1 1.06.1h1.46c.826 0 1.453-.107 1.88-.32.44-.227.76-.58.96-1.06.2-.493.346-1.213.44-2.16h.46c-.04.36-.06.84-.06 1.44zm8.627-11.88c.787 0 1.433.113 1.94.34.507.213 1.06.533 1.66.96.173.133.307.2.4.2.253 0 .42-.407.5-1.22h.46c-.053.867-.08 2.4-.08 4.6h-.46a15.68 15.68 0 00-.38-1.74 3.4 3.4 0 00-.62-1.22c-.387-.48-.893-.86-1.52-1.14a4.617 4.617 0 00-1.94-.42c-.88 0-1.653.287-2.32.86-.667.573-1.18 1.393-1.54 2.46-.36 1.053-.54 2.287-.54 3.7 0 2.4.38 4.16 1.14 5.28.773 1.107 1.98 1.66 3.62 1.66.8 0 1.493-.207 2.08-.62.24-.16.393-.313.46-.46.08-.16.12-.373.12-.64v-1.92c0-.56-.053-.967-.16-1.22a.903.903 0 00-.56-.52c-.267-.093-.7-.153-1.3-.18v-.4c.693.04 1.633.06 2.82.06.907 0 1.6-.02 2.08-.06v.4c-.307.027-.533.08-.68.16-.133.08-.227.233-.28.46-.04.227-.06.593-.06 1.1V66h-.4a2.415 2.415 0 00-.16-.76c-.093-.253-.22-.38-.38-.38-.08 0-.16.02-.24.06-.08.04-.22.133-.42.28-.467.36-.953.627-1.46.8a4.66 4.66 0 01-1.66.28c-1.373 0-2.553-.28-3.54-.84-.973-.573-1.72-1.393-2.24-2.46-.52-1.067-.78-2.34-.78-3.82 0-1.52.273-2.853.82-4 .56-1.16 1.327-2.047 2.3-2.66.973-.627 2.08-.94 3.32-.94zm13.963 0c1.266 0 2.373.287 3.32.86.96.573 1.7 1.407 2.22 2.5.533 1.08.8 2.373.8 3.88 0 1.467-.274 2.767-.82 3.9-.534 1.133-1.287 2.013-2.26 2.64-.96.627-2.054.94-3.28.94-1.267 0-2.38-.287-3.34-.86-.947-.573-1.687-1.4-2.22-2.48-.52-1.093-.78-2.393-.78-3.9 0-1.467.266-2.767.8-3.9.546-1.133 1.3-2.013 2.26-2.64.973-.627 2.073-.94 3.3-.94zm-.08.36c-.854 0-1.607.3-2.26.9-.64.587-1.14 1.413-1.5 2.48-.347 1.067-.52 2.287-.52 3.66 0 1.387.193 2.607.58 3.66.4 1.053.933 1.867 1.6 2.44.666.573 1.413.86 2.24.86.853 0 1.6-.293 2.24-.88.653-.6 1.153-1.433 1.5-2.5.36-1.067.54-2.287.54-3.66 0-1.387-.2-2.607-.6-3.66-.387-1.053-.914-1.867-1.58-2.44-.667-.573-1.414-.86-2.24-.86z" fill="#fff"/><path fill-rule="evenodd" clip-rule="evenodd" d="M249 66V7h1v59h-1z" fill="#fff"/><path d="M278.2 21c-.293.44-.593.767-.9.98-.307.2-.72.3-1.24.3-.533 0-.98-.153-1.34-.46-.347-.307-.613-.873-.8-1.7l-.56-2.48c-.16-.68-.32-1.2-.48-1.56a1.745 1.745 0 00-.76-.88c-.347-.227-.84-.34-1.48-.34h-1.32v5.02c0 .507.04.873.12 1.1a.72.72 0 00.44.46c.227.08.58.133 1.06.16v.4c-.613-.04-1.46-.06-2.54-.06-1.147 0-2 .02-2.56.06v-.4c.48-.027.827-.08 1.04-.16a.718.718 0 00.46-.46c.08-.227.12-.593.12-1.1V9.96c0-.507-.04-.873-.12-1.1a.718.718 0 00-.46-.46c-.213-.08-.56-.133-1.04-.16v-.4c.56.04 1.413.06 2.56.06 1.067 0 1.913-.02 2.54-.06v.4c-.48.027-.833.08-1.06.16a.72.72 0 00-.44.46c-.08.227-.12.593-.12 1.1v4.52c.987-.013 1.773-.4 2.36-1.16l1.92-2.44c.68-.84 1.02-1.48 1.02-1.92 0-.467-.413-.707-1.24-.72v-.4c.76.04 1.527.06 2.3.06.733 0 1.3-.02 1.7-.06v.4c-.907.133-1.693.62-2.36 1.46l-3.76 4.8c1.067.04 1.933.273 2.6.7.68.413 1.14 1.14 1.38 2.18l.58 2.52c.147.64.28 1.073.4 1.3.133.227.327.34.58.34.227 0 .413-.06.56-.18.16-.12.34-.313.54-.58l.3.22zm11.695-.68c.32.827.78 1.253 1.38 1.28v.4c-.534-.04-1.247-.06-2.14-.06-1.147 0-2 .02-2.56.06v-.4c.506-.027.866-.087 1.08-.18.226-.107.34-.293.34-.56 0-.227-.08-.54-.24-.94l-1.22-3.28h-4.84l-.82 2.12c-.267.72-.4 1.267-.4 1.64 0 .413.14.713.42.9.293.187.733.287 1.32.3v.4c-.76-.04-1.527-.06-2.3-.06-.6 0-1.1.02-1.5.06v-.4c.666-.16 1.193-.74 1.58-1.74l4.7-12.12h.32l4.88 12.58zm-3.52-4.08l-2.24-5.98-2.28 5.98h4.52zm19.077-8c-.48.027-.833.08-1.06.16a.72.72 0 00-.44.46c-.08.227-.12.593-.12 1.1v9.92c0 .507.04.873.12 1.1a.72.72 0 00.44.46c.227.08.58.133 1.06.16v.4c-.56-.04-1.413-.06-2.56-.06-1.08 0-1.926.02-2.54.06v-.4c.48-.027.827-.08 1.04-.16a.718.718 0 00.46-.46c.08-.227.12-.593.12-1.1V9.96c0-.507-.04-.873-.12-1.1a.72.72 0 00-.46-.48c-.226-.093-.573-.14-1.04-.14h-3.26c-.466 0-.813.047-1.04.14a.722.722 0 00-.46.48c-.08.227-.12.593-.12 1.1v9.92c0 .507.04.873.12 1.1a.72.72 0 00.44.46c.227.08.58.133 1.06.16v.4c-.613-.04-1.46-.06-2.54-.06-1.146 0-2 .02-2.56.06v-.4c.48-.027.827-.08 1.04-.16a.718.718 0 00.46-.46c.08-.227.12-.593.12-1.1V9.96c0-.507-.04-.873-.12-1.1a.718.718 0 00-.46-.46c-.213-.08-.56-.133-1.04-.16v-.4c.56.04 1.414.06 2.56.06.667 0 1.534-.013 2.6-.04l1.6-.02 1.56.02c1.067.027 1.927.04 2.58.04 1.147 0 2-.02 2.56-.06v.4zm6.777 0c-.48.027-.833.08-1.06.16a.72.72 0 00-.44.46c-.08.227-.12.593-.12 1.1v9.92c0 .507.04.873.12 1.1a.72.72 0 00.44.46c.227.08.58.133 1.06.16v.4c-.613-.04-1.46-.06-2.54-.06-1.147 0-2 .02-2.56.06v-.4c.48-.027.827-.08 1.04-.16a.718.718 0 00.46-.46c.08-.227.12-.593.12-1.1V9.96c0-.507-.04-.873-.12-1.1a.718.718 0 00-.46-.46c-.213-.08-.56-.133-1.04-.16v-.4c.56.04 1.413.06 2.56.06 1.067 0 1.913-.02 2.54-.06v.4zm12.677-.4c-.093.947-.14 1.8-.14 2.56 0 .667.02 1.213.06 1.64h-.46c-.106-1.027-.24-1.787-.4-2.28-.16-.507-.44-.873-.84-1.1-.4-.24-1.013-.36-1.84-.36h-1.08v11.38c0 .56.054.967.16 1.22a.906.906 0 00.56.52c.267.093.7.153 1.3.18v.4c-.693-.04-1.673-.06-2.94-.06-1.333 0-2.32.02-2.96.06v-.4c.6-.027 1.034-.087 1.3-.18a.9.9 0 00.56-.52c.107-.253.16-.66.16-1.22V8.3h-1.08c-.826 0-1.44.12-1.84.36-.4.227-.68.593-.84 1.1-.16.493-.293 1.253-.4 2.28h-.46c.04-.427.06-.973.06-1.64 0-.76-.046-1.613-.14-2.56 1.107.04 2.987.06 5.64.06 2.64 0 4.514-.02 5.62-.06zm12.202.06c.6 0 1.1-.02 1.5-.06v.4c-.267.067-.527.24-.78.52-.253.267-.527.687-.82 1.26l-4.36 8.68-.82 1.66c-.293.6-.587 1.047-.88 1.34-.2.2-.433.347-.7.44a2.41 2.41 0 01-.8.14c-.413 0-.753-.107-1.02-.32-.253-.213-.38-.507-.38-.88 0-.32.1-.573.3-.76.2-.2.453-.3.76-.3.293 0 .533.087.72.26.2.16.3.387.3.68 0 .2-.053.38-.16.54-.093.147-.22.267-.38.36.027.013.067.02.12.02.347 0 .653-.127.92-.38.28-.253.547-.64.8-1.16l.54-1.12-5.36-9.84c-.24-.44-.453-.733-.64-.88-.173-.16-.347-.24-.52-.24v-.42c.52.04 1.107.06 1.76.06 1.293 0 2.227-.02 2.8-.06v.42c-.933 0-1.4.253-1.4.76 0 .2.067.433.2.7l4.08 7.6 3.14-6.3c.36-.707.54-1.28.54-1.72 0-.373-.147-.64-.44-.8-.293-.16-.733-.247-1.32-.26v-.4c.76.04 1.527.06 2.3.06zm12.824.34c-.48.027-.834.08-1.06.16a.718.718 0 00-.44.46c-.08.227-.12.593-.12 1.1v9.92c0 .507.04.873.12 1.1.08.227.226.38.44.46.226.08.58.133 1.06.16v.4c-.56-.04-1.414-.06-2.56-.06-1.254 0-2.234.02-2.94.06v-.4c.6-.027 1.033-.08 1.3-.16.266-.08.453-.233.56-.46.106-.227.16-.593.16-1.1V9.96c0-.507-.04-.873-.12-1.1a.722.722 0 00-.46-.48c-.227-.093-.574-.14-1.04-.14h-.26c-.48 0-.827.047-1.04.14-.2.08-.34.233-.42.46-.067.213-.12.587-.16 1.12a59.17 59.17 0 00-.14 1.94c-.134 2.107-.307 3.86-.52 5.26-.2 1.387-.58 2.587-1.14 3.6-.56 1.013-1.354 1.52-2.38 1.52-.507 0-.94-.107-1.3-.32-.347-.227-.52-.573-.52-1.04 0-.347.106-.62.32-.82.226-.213.513-.32.86-.32.293 0 .533.08.72.24.2.16.3.373.3.64 0 .28-.067.513-.2.7-.134.173-.354.347-.66.52.12.013.28.02.48.02.946 0 1.673-.567 2.18-1.7.506-1.133.853-2.473 1.04-4.02.186-1.56.353-3.633.5-6.22.013-.107.02-.253.02-.44 0-.347-.047-.607-.14-.78-.094-.173-.254-.293-.48-.36-.227-.067-.567-.113-1.02-.14v-.4c.56.04 1.246.06 2.06.06.2 0 .5-.013.9-.04l.86-.02 1.34.02c.613.027 1.12.04 1.52.04 1.026 0 1.82-.02 2.38-.06v.4zm12.189 12.08c.32.827.78 1.253 1.38 1.28v.4c-.533-.04-1.247-.06-2.14-.06-1.147 0-2 .02-2.56.06v-.4c.507-.027.867-.087 1.08-.18.227-.107.34-.293.34-.56 0-.227-.08-.54-.24-.94l-1.22-3.28h-4.84l-.82 2.12c-.267.72-.4 1.267-.4 1.64 0 .413.14.713.42.9.293.187.733.287 1.32.3v.4c-.76-.04-1.527-.06-2.3-.06-.6 0-1.1.02-1.5.06v-.4c.667-.16 1.193-.74 1.58-1.74l4.7-12.12h.32l4.88 12.58zm-3.52-4.08l-2.24-5.98-2.28 5.98h4.52zm-79.301 14c-.48.027-.833.08-1.06.16a.72.72 0 00-.44.46c-.08.227-.12.593-.12 1.1v9.92c0 .507.04.873.12 1.1a.72.72 0 00.44.46c.227.08.58.133 1.06.16v.4c-.56-.04-1.413-.06-2.56-.06-1.08 0-1.927.02-2.54.06v-.4c.48-.027.827-.08 1.04-.16a.718.718 0 00.46-.46c.08-.227.12-.593.12-1.1v-9.92c0-.507-.04-.873-.12-1.1a.72.72 0 00-.46-.48c-.227-.093-.573-.14-1.04-.14h-3.26c-.467 0-.813.047-1.04.14a.72.72 0 00-.46.48c-.08.227-.12.593-.12 1.1v9.92c0 .507.04.873.12 1.1a.72.72 0 00.44.46c.227.08.58.133 1.06.16v.4c-.613-.04-1.46-.06-2.54-.06-1.147 0-2 .02-2.56.06v-.4c.48-.027.827-.08 1.04-.16a.718.718 0 00.46-.46c.08-.227.12-.593.12-1.1v-9.92c0-.507-.04-.873-.12-1.1a.718.718 0 00-.46-.46c-.213-.08-.56-.133-1.04-.16v-.4c.56.04 1.413.06 2.56.06.667 0 1.533-.013 2.6-.04l1.6-.02 1.56.02c1.067.027 1.927.04 2.58.04 1.147 0 2-.02 2.56-.06v.4zm8.1-.68c1.267 0 2.374.287 3.32.86.96.573 1.7 1.407 2.22 2.5.534 1.08.8 2.373.8 3.88 0 1.467-.273 2.767-.82 3.9-.533 1.133-1.286 2.013-2.26 2.64-.96.627-2.053.94-3.28.94-1.266 0-2.38-.287-3.34-.86-.946-.573-1.686-1.4-2.22-2.48-.52-1.093-.78-2.393-.78-3.9 0-1.467.267-2.767.8-3.9.547-1.133 1.3-2.013 2.26-2.64.974-.627 2.074-.94 3.3-.94zm-.08.36c-.853 0-1.606.3-2.26.9-.64.587-1.14 1.413-1.5 2.48-.346 1.067-.52 2.287-.52 3.66 0 1.387.194 2.607.58 3.66.4 1.053.934 1.867 1.6 2.44.667.573 1.414.86 2.24.86.854 0 1.6-.293 2.24-.88.654-.6 1.154-1.433 1.5-2.5.36-1.067.54-2.287.54-3.66 0-1.387-.2-2.607-.6-3.66-.386-1.053-.913-1.867-1.58-2.44-.666-.573-1.413-.86-2.24-.86zm20.014.32c-.48.027-.833.08-1.06.16a.72.72 0 00-.44.46c-.08.227-.12.593-.12 1.1v9.92c0 .507.04.873.12 1.1a.72.72 0 00.44.46c.227.08.58.133 1.06.16v.4c-.56-.04-1.413-.06-2.56-.06-1.253 0-2.233.02-2.94.06v-.4c.6-.027 1.033-.08 1.3-.16.267-.08.453-.233.56-.46.107-.227.16-.593.16-1.1v-9.92c0-.507-.04-.873-.12-1.1a.72.72 0 00-.46-.48c-.227-.093-.573-.14-1.04-.14h-.26c-.48 0-.827.047-1.04.14-.2.08-.34.233-.42.46-.067.213-.12.587-.16 1.12-.04.413-.087 1.06-.14 1.94-.133 2.107-.307 3.86-.52 5.26-.2 1.387-.58 2.587-1.14 3.6-.56 1.013-1.353 1.52-2.38 1.52-.507 0-.94-.107-1.3-.32-.347-.227-.52-.573-.52-1.04 0-.347.107-.62.32-.82.227-.213.513-.32.86-.32.293 0 .533.08.72.24.2.16.3.373.3.64 0 .28-.067.513-.2.7-.133.173-.353.347-.66.52.12.013.28.02.48.02.947 0 1.673-.567 2.18-1.7.507-1.133.853-2.473 1.04-4.02.187-1.56.353-3.633.5-6.22.013-.107.02-.253.02-.44 0-.347-.047-.607-.14-.78-.093-.173-.253-.293-.48-.36-.227-.067-.567-.113-1.02-.14v-.4c.56.04 1.247.06 2.06.06.2 0 .5-.013.9-.04l.86-.02 1.34.02c.613.027 1.12.04 1.52.04 1.027 0 1.82-.02 2.38-.06v.4zm7.009 5.34c1.56 0 2.754.367 3.58 1.1.827.733 1.24 1.7 1.24 2.9a4.63 4.63 0 01-.5 2.1c-.32.667-.873 1.22-1.66 1.66-.773.44-1.806.66-3.1.66l-.94-.02a30.05 30.05 0 00-1.38-.04c-1.146 0-2 .02-2.56.06v-.4c.48-.027.827-.08 1.04-.16a.718.718 0 00.46-.46c.08-.227.12-.593.12-1.1v-9.92c0-.507-.04-.873-.12-1.1a.718.718 0 00-.46-.46c-.213-.08-.56-.133-1.04-.16v-.4c.56.04 1.414.06 2.56.06 1.267 0 2.247-.02 2.94-.06v.4c-.6.027-1.033.08-1.3.16-.266.08-.453.233-.56.46-.106.227-.16.593-.16 1.1v3.66l1.84-.04zm-.44 8.02c1.24 0 2.094-.34 2.56-1.02.467-.68.7-1.607.7-2.78 0-1.293-.26-2.253-.78-2.88-.506-.64-1.353-.96-2.54-.96-.6 0-1.046.007-1.34.02v5.9c0 .507.034.88.1 1.12a.742.742 0 00.38.48c.187.08.494.12.92.12zm13.302-14.04c.8 0 1.48.113 2.04.34.56.227 1.107.547 1.64.96.147.12.273.18.38.18.267 0 .44-.4.52-1.2h.46c-.053.867-.08 2.4-.08 4.6h-.46c-.147-.867-.28-1.487-.4-1.86a3.307 3.307 0 00-.6-1.1 3.61 3.61 0 00-1.54-1.16 4.96 4.96 0 00-2-.4 3.35 3.35 0 00-2.28.86c-.64.573-1.14 1.393-1.5 2.46-.36 1.053-.54 2.293-.54 3.72 0 1.453.193 2.7.58 3.74.387 1.04.92 1.833 1.6 2.38a3.74 3.74 0 002.34.8c.667 0 1.313-.127 1.94-.38s1.12-.633 1.48-1.14c.267-.373.46-.773.58-1.2.12-.427.233-1.08.34-1.96h.46c0 2.293.027 3.893.08 4.8h-.46c-.04-.427-.1-.727-.18-.9-.067-.187-.167-.28-.3-.28-.107 0-.247.053-.42.16-.6.427-1.173.753-1.72.98-.547.213-1.207.32-1.98.32-1.267 0-2.38-.287-3.34-.86-.947-.573-1.687-1.4-2.22-2.48-.52-1.093-.78-2.393-.78-3.9 0-1.467.267-2.767.8-3.9.547-1.133 1.3-2.013 2.26-2.64.973-.627 2.073-.94 3.3-.94zm12.51 6.02c1.56 0 2.753.367 3.58 1.1.826.733 1.24 1.7 1.24 2.9a4.64 4.64 0 01-.5 2.1c-.32.667-.874 1.22-1.66 1.66-.774.44-1.807.66-3.1.66l-.94-.02a30.05 30.05 0 00-1.38-.04c-1.147 0-2 .02-2.56.06v-.4c.48-.027.826-.08 1.04-.16a.72.72 0 00.46-.46c.08-.227.12-.593.12-1.1v-9.92c0-.507-.04-.873-.12-1.1a.72.72 0 00-.46-.46c-.214-.08-.56-.133-1.04-.16v-.4c.56.04 1.413.06 2.56.06 1.266 0 2.246-.02 2.94-.06v.4c-.6.027-1.034.08-1.3.16-.267.08-.454.233-.56.46-.107.227-.16.593-.16 1.1v3.66l1.84-.04zm-.44 8.02c1.24 0 2.093-.34 2.56-1.02.466-.68.7-1.607.7-2.78 0-1.293-.26-2.253-.78-2.88-.507-.64-1.354-.96-2.54-.96-.6 0-1.047.007-1.34.02v5.9c0 .507.033.88.1 1.12a.736.736 0 00.38.48c.186.08.493.12.92.12zm18.983-.6c-.293.44-.593.767-.9.98-.306.2-.72.3-1.24.3-.533 0-.98-.153-1.34-.46-.346-.307-.613-.873-.8-1.7l-.56-2.48c-.16-.68-.32-1.2-.48-1.56a1.74 1.74 0 00-.76-.88c-.346-.227-.84-.34-1.48-.34h-1.32v5.02c0 .507.04.873.12 1.1a.72.72 0 00.44.46c.227.08.58.133 1.06.16v.4c-.613-.04-1.46-.06-2.54-.06-1.146 0-2 .02-2.56.06v-.4c.48-.027.827-.08 1.04-.16a.718.718 0 00.46-.46c.08-.227.12-.593.12-1.1v-9.92c0-.507-.04-.873-.12-1.1a.718.718 0 00-.46-.46c-.213-.08-.56-.133-1.04-.16v-.4c.56.04 1.414.06 2.56.06 1.067 0 1.914-.02 2.54-.06v.4c-.48.027-.833.08-1.06.16a.72.72 0 00-.44.46c-.08.227-.12.593-.12 1.1v4.52c.987-.013 1.774-.4 2.36-1.16l1.92-2.44c.68-.84 1.02-1.48 1.02-1.92 0-.467-.413-.707-1.24-.72v-.4c.76.04 1.527.06 2.3.06.734 0 1.3-.02 1.7-.06v.4c-.906.133-1.693.62-2.36 1.46l-3.76 4.8c1.067.04 1.934.273 2.6.7.68.413 1.14 1.14 1.38 2.18l.58 2.52c.147.64.28 1.073.4 1.3.134.227.327.34.58.34.227 0 .414-.06.56-.18.16-.12.34-.313.54-.58l.3.22zm7.287-13.44c1.267 0 2.373.287 3.32.86.96.573 1.7 1.407 2.22 2.5.533 1.08.8 2.373.8 3.88 0 1.467-.273 2.767-.82 3.9-.533 1.133-1.287 2.013-2.26 2.64-.96.627-2.053.94-3.28.94-1.267 0-2.38-.287-3.34-.86-.947-.573-1.687-1.4-2.22-2.48-.52-1.093-.78-2.393-.78-3.9 0-1.467.267-2.767.8-3.9.547-1.133 1.3-2.013 2.26-2.64.973-.627 2.073-.94 3.3-.94zm-.08.36c-.853 0-1.607.3-2.26.9-.64.587-1.14 1.413-1.5 2.48-.347 1.067-.52 2.287-.52 3.66 0 1.387.193 2.607.58 3.66.4 1.053.933 1.867 1.6 2.44s1.413.86 2.24.86c.853 0 1.6-.293 2.24-.88.653-.6 1.153-1.433 1.5-2.5.36-1.067.54-2.287.54-3.66 0-1.387-.2-2.607-.6-3.66-.387-1.053-.913-1.867-1.58-2.44s-1.413-.86-2.24-.86zm16.084 9.28h-7.22v-1.16h7.22v1.16zm13.001-9.3c.6 0 1.1-.02 1.5-.06v.4c-.267.067-.527.24-.78.52-.254.267-.527.687-.82 1.26l-4.36 8.68-.82 1.66c-.294.6-.587 1.047-.88 1.34-.2.2-.434.347-.7.44-.267.093-.534.14-.8.14-.414 0-.754-.107-1.02-.32-.254-.213-.38-.507-.38-.88 0-.32.1-.573.3-.76.2-.2.453-.3.76-.3.293 0 .533.087.72.26.2.16.3.387.3.68 0 .2-.054.38-.16.54a1.1 1.1 0 01-.38.36.28.28 0 00.12.02 1.3 1.3 0 00.92-.38c.28-.253.546-.64.8-1.16l.54-1.12-5.36-9.84c-.24-.44-.454-.733-.64-.88-.174-.16-.347-.24-.52-.24v-.42c.52.04 1.106.06 1.76.06 1.293 0 2.226-.02 2.8-.06v.42c-.934 0-1.4.253-1.4.76 0 .2.066.433.2.7l4.08 7.6 3.14-6.3c.36-.707.54-1.28.54-1.72 0-.373-.147-.64-.44-.8-.294-.16-.734-.247-1.32-.26v-.4c.76.04 1.526.06 2.3.06zM409.079 43c-.294.44-.594.767-.9.98-.307.2-.72.3-1.24.3-.534 0-.98-.153-1.34-.46-.347-.307-.614-.873-.8-1.7l-.56-2.48c-.16-.68-.32-1.2-.48-1.56a1.745 1.745 0 00-.76-.88c-.347-.227-.84-.34-1.48-.34h-1.32v5.02c0 .507.04.873.12 1.1.08.227.226.38.44.46.226.08.58.133 1.06.16v.4c-.614-.04-1.46-.06-2.54-.06-1.147 0-2 .02-2.56.06v-.4c.48-.027.826-.08 1.04-.16a.72.72 0 00.46-.46c.08-.227.12-.593.12-1.1v-9.92c0-.507-.04-.873-.12-1.1a.72.72 0 00-.46-.46c-.214-.08-.56-.133-1.04-.16v-.4c.56.04 1.413.06 2.56.06 1.066 0 1.913-.02 2.54-.06v.4c-.48.027-.834.08-1.06.16a.718.718 0 00-.44.46c-.08.227-.12.593-.12 1.1v4.52c.986-.013 1.773-.4 2.36-1.16l1.92-2.44c.68-.84 1.02-1.48 1.02-1.92 0-.467-.414-.707-1.24-.72v-.4c.76.04 1.526.06 2.3.06.733 0 1.3-.02 1.7-.06v.4c-.907.133-1.694.62-2.36 1.46l-3.76 4.8c1.066.04 1.933.273 2.6.7.68.413 1.14 1.14 1.38 2.18l.58 2.52c.146.64.28 1.073.4 1.3.133.227.326.34.58.34.226 0 .413-.06.56-.18.16-.12.34-.313.54-.58l.3.22zm4.674-4.72v3.6c0 .507.054.873.16 1.1.107.227.294.38.56.46.267.08.7.133 1.3.16v.4c-.693-.04-1.673-.06-2.94-.06-1.146 0-2 .02-2.56.06v-.4c.48-.027.827-.08 1.04-.16a.718.718 0 00.46-.46c.08-.227.12-.593.12-1.1v-9.92c0-.507-.04-.873-.12-1.1a.718.718 0 00-.46-.46c-.213-.08-.56-.133-1.04-.16v-.4c.56.04 1.374.06 2.44.06l2.16-.02c.254-.013.54-.02.86-.02 1.56 0 2.754.36 3.58 1.08.827.707 1.24 1.66 1.24 2.86 0 .733-.166 1.44-.5 2.12-.32.667-.873 1.227-1.66 1.68-.773.453-1.806.68-3.1.68h-1.54zm1.48-8.04c-.413 0-.726.047-.94.14-.2.093-.34.26-.42.5-.08.24-.12.6-.12 1.08v5.92h1.34c1.307 0 2.207-.347 2.7-1.04.507-.707.76-1.647.76-2.82 0-1.293-.26-2.247-.78-2.86-.506-.613-1.353-.92-2.54-.92zm16.419 12.08c.32.827.78 1.253 1.38 1.28v.4c-.533-.04-1.246-.06-2.14-.06-1.146 0-2 .02-2.56.06v-.4c.507-.027.867-.087 1.08-.18.227-.107.34-.293.34-.56 0-.227-.08-.54-.24-.94l-1.22-3.28h-4.84l-.82 2.12c-.266.72-.4 1.267-.4 1.64 0 .413.14.713.42.9.294.187.734.287 1.32.3v.4c-.76-.04-1.526-.06-2.3-.06-.6 0-1.1.02-1.5.06v-.4c.667-.16 1.194-.74 1.58-1.74l4.7-12.12h.32l4.88 12.58zm-3.52-4.08l-2.24-5.98-2.28 5.98h4.52zm10.718-8c-.48.027-.833.08-1.06.16a.72.72 0 00-.44.46c-.08.227-.12.593-.12 1.1v9.92c0 .507.04.873.12 1.1a.72.72 0 00.44.46c.227.08.58.133 1.06.16v.4c-.613-.04-1.46-.06-2.54-.06-1.147 0-2 .02-2.56.06v-.4c.48-.027.827-.08 1.04-.16a.718.718 0 00.46-.46c.08-.227.12-.593.12-1.1v-9.92c0-.507-.04-.873-.12-1.1a.718.718 0 00-.46-.46c-.213-.08-.56-.133-1.04-.16v-.4c.56.04 1.413.06 2.56.06 1.067 0 1.913-.02 2.54-.06v.4zm-4.66-4c.307 0 .573.12.8.36.24.227.36.493.36.8 0 .32-.12.593-.36.82-.227.227-.493.34-.8.34-.32 0-.593-.113-.82-.34-.227-.227-.34-.5-.34-.82 0-.307.113-.573.34-.8.227-.24.5-.36.82-.36zm4.24 0c.307 0 .573.12.8.36.24.227.36.493.36.8 0 .32-.12.593-.36.82-.227.227-.493.34-.8.34-.32 0-.593-.113-.82-.34-.227-.227-.34-.5-.34-.82 0-.307.113-.573.34-.8.227-.24.5-.36.82-.36zm15.557 4c-.48.027-.833.08-1.06.16a.72.72 0 00-.44.46c-.08.227-.12.593-.12 1.1v9.92c0 .507.04.873.12 1.1a.72.72 0 00.44.46c.227.08.58.133 1.06.16v.4c-.56-.04-1.413-.06-2.56-.06-1.08 0-1.926.02-2.54.06v-.4c.48-.027.827-.08 1.04-.16a.718.718 0 00.46-.46c.08-.227.12-.593.12-1.1v-4.8h-6.5v4.8c0 .507.04.873.12 1.1a.72.72 0 00.44.46c.227.08.58.133 1.06.16v.4c-.613-.04-1.46-.06-2.54-.06-1.146 0-2 .02-2.56.06v-.4c.48-.027.827-.08 1.04-.16a.718.718 0 00.46-.46c.08-.227.12-.593.12-1.1v-9.92c0-.507-.04-.873-.12-1.1a.718.718 0 00-.46-.46c-.213-.08-.56-.133-1.04-.16v-.4c.56.04 1.414.06 2.56.06 1.067 0 1.914-.02 2.54-.06v.4c-.48.027-.833.08-1.06.16a.72.72 0 00-.44.46c-.08.227-.12.593-.12 1.1v4.72h6.5v-4.72c0-.507-.04-.873-.12-1.1a.718.718 0 00-.46-.46c-.213-.08-.56-.133-1.04-.16v-.4c.614.04 1.46.06 2.54.06 1.147 0 2-.02 2.56-.06v.4zm8.101-.68c.8 0 1.48.113 2.04.34.56.227 1.106.547 1.64.96.146.12.273.18.38.18.266 0 .44-.4.52-1.2h.46c-.054.867-.08 2.4-.08 4.6h-.46c-.147-.867-.28-1.487-.4-1.86a3.307 3.307 0 00-.6-1.1c-.4-.52-.914-.907-1.54-1.16a4.963 4.963 0 00-2-.4 3.35 3.35 0 00-2.28.86c-.64.573-1.14 1.393-1.5 2.46-.36 1.053-.54 2.293-.54 3.72 0 1.453.193 2.7.58 3.74.386 1.04.92 1.833 1.6 2.38a3.74 3.74 0 002.34.8 5.14 5.14 0 001.94-.38c.626-.253 1.12-.633 1.48-1.14a3.85 3.85 0 00.58-1.2c.12-.427.233-1.08.34-1.96h.46c0 2.293.026 3.893.08 4.8h-.46c-.04-.427-.1-.727-.18-.9-.067-.187-.167-.28-.3-.28-.107 0-.247.053-.42.16-.6.427-1.174.753-1.72.98-.547.213-1.207.32-1.98.32-1.267 0-2.38-.287-3.34-.86-.947-.573-1.687-1.4-2.22-2.48-.52-1.093-.78-2.393-.78-3.9 0-1.467.266-2.767.8-3.9.546-1.133 1.3-2.013 2.26-2.64.973-.627 2.073-.94 3.3-.94zm12.509 6.02c1.56 0 2.754.367 3.58 1.1.827.733 1.24 1.7 1.24 2.9a4.63 4.63 0 01-.5 2.1c-.32.667-.873 1.22-1.66 1.66-.773.44-1.806.66-3.1.66l-.94-.02a30.05 30.05 0 00-1.38-.04c-1.146 0-2 .02-2.56.06v-.4c.48-.027.827-.08 1.04-.16a.718.718 0 00.46-.46c.08-.227.12-.593.12-1.1v-9.92c0-.507-.04-.873-.12-1.1a.718.718 0 00-.46-.46c-.213-.08-.56-.133-1.04-.16v-.4c.56.04 1.414.06 2.56.06 1.267 0 2.247-.02 2.94-.06v.4c-.6.027-1.033.08-1.3.16-.266.08-.453.233-.56.46-.106.227-.16.593-.16 1.1v3.66l1.84-.04zm-.44 8.02c1.24 0 2.094-.34 2.56-1.02.467-.68.7-1.607.7-2.78 0-1.293-.26-2.253-.78-2.88-.506-.64-1.353-.96-2.54-.96-.6 0-1.046.007-1.34.02v5.9c0 .507.034.88.1 1.12a.742.742 0 00.38.48c.187.08.494.12.92.12zm18.984-.6c-.293.44-.593.767-.9.98-.306.2-.72.3-1.24.3-.533 0-.98-.153-1.34-.46-.346-.307-.613-.873-.8-1.7l-.56-2.48c-.16-.68-.32-1.2-.48-1.56a1.74 1.74 0 00-.76-.88c-.346-.227-.84-.34-1.48-.34h-1.32v5.02c0 .507.04.873.12 1.1a.72.72 0 00.44.46c.227.08.58.133 1.06.16v.4c-.613-.04-1.46-.06-2.54-.06-1.146 0-2 .02-2.56.06v-.4c.48-.027.827-.08 1.04-.16a.718.718 0 00.46-.46c.08-.227.12-.593.12-1.1v-9.92c0-.507-.04-.873-.12-1.1a.718.718 0 00-.46-.46c-.213-.08-.56-.133-1.04-.16v-.4c.56.04 1.414.06 2.56.06 1.067 0 1.914-.02 2.54-.06v.4c-.48.027-.833.08-1.06.16a.72.72 0 00-.44.46c-.08.227-.12.593-.12 1.1v4.52c.987-.013 1.774-.4 2.36-1.16l1.92-2.44c.68-.84 1.02-1.48 1.02-1.92 0-.467-.413-.707-1.24-.72v-.4c.76.04 1.527.06 2.3.06.734 0 1.3-.02 1.7-.06v.4c-.906.133-1.693.62-2.36 1.46l-3.76 4.8c1.067.04 1.934.273 2.6.7.68.413 1.14 1.14 1.38 2.18l.58 2.52c.147.64.28 1.073.4 1.3.134.227.327.34.58.34.227 0 .414-.06.56-.18.16-.12.34-.313.54-.58l.3.22zm7.287-13.44c1.266 0 2.373.287 3.32.86.96.573 1.7 1.407 2.22 2.5.533 1.08.8 2.373.8 3.88 0 1.467-.274 2.767-.82 3.9-.534 1.133-1.287 2.013-2.26 2.64-.96.627-2.054.94-3.28.94-1.267 0-2.38-.287-3.34-.86-.947-.573-1.687-1.4-2.22-2.48-.52-1.093-.78-2.393-.78-3.9 0-1.467.266-2.767.8-3.9.546-1.133 1.3-2.013 2.26-2.64.973-.627 2.073-.94 3.3-.94zm-.08.36c-.854 0-1.607.3-2.26.9-.64.587-1.14 1.413-1.5 2.48-.347 1.067-.52 2.287-.52 3.66 0 1.387.193 2.607.58 3.66.4 1.053.933 1.867 1.6 2.44.666.573 1.413.86 2.24.86.853 0 1.6-.293 2.24-.88.653-.6 1.153-1.433 1.5-2.5.36-1.067.54-2.287.54-3.66 0-1.387-.2-2.607-.6-3.66-.387-1.053-.914-1.867-1.58-2.44-.667-.573-1.414-.86-2.24-.86zm17.348-.08c-.094.947-.14 1.8-.14 2.56 0 .667.02 1.213.06 1.64h-.46c-.107-1.027-.24-1.787-.4-2.28-.16-.507-.44-.873-.84-1.1-.4-.24-1.014-.36-1.84-.36h-.46c-.48 0-.834.04-1.06.12a.66.66 0 00-.44.44c-.08.227-.12.593-.12 1.1v9.92c0 .507.053.873.16 1.1.106.227.293.38.56.46.266.08.7.133 1.3.16v.4a54.62 54.62 0 00-2.94-.06c-1.147 0-2 .02-2.56.06v-.4c.48-.027.826-.08 1.04-.16a.72.72 0 00.46-.46c.08-.227.12-.593.12-1.1v-9.92c0-.507-.04-.873-.12-1.1a.72.72 0 00-.46-.46c-.214-.08-.56-.133-1.04-.16v-.4c1.306.04 3.24.06 5.8.06 1.586 0 2.713-.02 3.38-.06zm7.966-.28c1.267 0 2.373.287 3.32.86.96.573 1.7 1.407 2.22 2.5.533 1.08.8 2.373.8 3.88 0 1.467-.273 2.767-.82 3.9-.533 1.133-1.287 2.013-2.26 2.64-.96.627-2.053.94-3.28.94-1.267 0-2.38-.287-3.34-.86-.947-.573-1.687-1.4-2.22-2.48-.52-1.093-.78-2.393-.78-3.9 0-1.467.267-2.767.8-3.9.547-1.133 1.3-2.013 2.26-2.64.973-.627 2.073-.94 3.3-.94zm-.08.36c-.853 0-1.607.3-2.26.9-.64.587-1.14 1.413-1.5 2.48-.347 1.067-.52 2.287-.52 3.66 0 1.387.193 2.607.58 3.66.4 1.053.933 1.867 1.6 2.44s1.413.86 2.24.86c.853 0 1.6-.293 2.24-.88.653-.6 1.153-1.433 1.5-2.5.36-1.067.54-2.287.54-3.66 0-1.387-.2-2.607-.6-3.66-.387-1.053-.913-1.867-1.58-2.44s-1.413-.86-2.24-.86zM279.3 52.24c-.48.027-.833.08-1.06.16a.72.72 0 00-.44.46c-.08.227-.12.593-.12 1.1v9.92c0 .507.04.873.12 1.1a.72.72 0 00.44.46c.227.08.58.133 1.06.16v.4c-.56-.04-1.413-.06-2.56-.06-1.08 0-1.927.02-2.54.06v-.4c.48-.027.827-.08 1.04-.16a.718.718 0 00.46-.46c.08-.227.12-.593.12-1.1v-9.92c0-.507-.04-.873-.12-1.1a.72.72 0 00-.46-.48c-.227-.093-.573-.14-1.04-.14h-3.26c-.467 0-.813.047-1.04.14a.72.72 0 00-.46.48c-.08.227-.12.593-.12 1.1v9.92c0 .507.04.873.12 1.1a.72.72 0 00.44.46c.227.08.58.133 1.06.16v.4c-.613-.04-1.46-.06-2.54-.06-1.147 0-2 .02-2.56.06v-.4c.48-.027.827-.08 1.04-.16a.718.718 0 00.46-.46c.08-.227.12-.593.12-1.1v-9.92c0-.507-.04-.873-.12-1.1a.718.718 0 00-.46-.46c-.213-.08-.56-.133-1.04-.16v-.4c.56.04 1.413.06 2.56.06.667 0 1.533-.013 2.6-.04l1.6-.02 1.56.02c1.067.027 1.927.04 2.58.04 1.147 0 2-.02 2.56-.06v.4zm5.157 8.04v3.6c0 .507.053.873.16 1.1.106.227.293.38.56.46.266.08.7.133 1.3.16v.4a54.62 54.62 0 00-2.94-.06c-1.147 0-2 .02-2.56.06v-.4c.48-.027.826-.08 1.04-.16a.72.72 0 00.46-.46c.08-.227.12-.593.12-1.1v-9.92c0-.507-.04-.873-.12-1.1a.72.72 0 00-.46-.46c-.214-.08-.56-.133-1.04-.16v-.4c.56.04 1.373.06 2.44.06l2.16-.02c.253-.013.54-.02.86-.02 1.56 0 2.753.36 3.58 1.08.826.707 1.24 1.66 1.24 2.86 0 .733-.167 1.44-.5 2.12-.32.667-.874 1.227-1.66 1.68-.774.453-1.807.68-3.1.68h-1.54zm1.48-8.04c-.414 0-.727.047-.94.14-.2.093-.34.26-.42.5-.08.24-.12.6-.12 1.08v5.92h1.34c1.306 0 2.206-.347 2.7-1.04.506-.707.76-1.647.76-2.82 0-1.293-.26-2.247-.78-2.86-.507-.613-1.354-.92-2.54-.92zm20.599 0c-.48.027-.834.08-1.06.16a.718.718 0 00-.44.46c-.08.227-.12.593-.12 1.1v9.92c0 .507.04.873.12 1.1.08.227.226.38.44.46.226.08.58.133 1.06.16v.4c-.56-.04-1.414-.06-2.56-.06-1.067 0-1.914.02-2.54.06v-.4c.48-.027.826-.08 1.04-.16a.72.72 0 00.46-.46c.08-.227.12-.593.12-1.1v-9.46l-6.9 9.78c.013.387.066.68.16.88a.731.731 0 00.46.38c.213.067.546.113 1 .14v.4c-.614-.04-1.46-.06-2.54-.06-1.147 0-2 .02-2.56.06v-.4c.48-.027.826-.08 1.04-.16a.72.72 0 00.46-.46c.08-.227.12-.593.12-1.1v-9.92c0-.507-.04-.873-.12-1.1a.72.72 0 00-.46-.46c-.214-.08-.56-.133-1.04-.16v-.4c.56.04 1.413.06 2.56.06 1.066 0 1.913-.02 2.54-.06v.4c-.48.027-.834.08-1.06.16a.718.718 0 00-.44.46c-.08.227-.12.593-.12 1.1v9.46l6.9-9.78c-.014-.387-.067-.673-.16-.86a.727.727 0 00-.46-.4c-.214-.067-.547-.113-1-.14v-.4c.626.04 1.473.06 2.54.06 1.146 0 2-.02 2.56-.06v.4zm17.427 0c-.48.027-.834.08-1.06.16a.718.718 0 00-.44.46c-.08.227-.12.593-.12 1.1v9.92c0 .507.04.873.12 1.1.08.227.226.38.44.46.226.08.58.133 1.06.16v.4c-.614-.04-1.46-.06-2.54-.06-1.147 0-2 .02-2.56.06v-.4c.48-.027.826-.08 1.04-.16a.72.72 0 00.46-.46c.08-.227.12-.593.12-1.1V53.16l-4.82 12.94h-.32l-5.04-12.98v10.56c0 .52.04.907.12 1.16.093.253.266.44.52.56.253.107.646.173 1.18.2v.4c-.48-.04-1.16-.06-2.04-.06-.8 0-1.42.02-1.86.06v-.4c.466-.027.813-.093 1.04-.2a.924.924 0 00.46-.56c.08-.267.12-.653.12-1.16v-9.72c0-.507-.04-.873-.12-1.1a.72.72 0 00-.46-.46c-.214-.08-.56-.133-1.04-.16v-.4c.44.04 1.06.06 1.86.06.693 0 1.26-.02 1.7-.06l4.4 11.58 4.3-11.52h.94c1.08 0 1.926-.02 2.54-.06v.4zm15.542 0c-.48.027-.834.08-1.06.16a.718.718 0 00-.44.46c-.08.227-.12.593-.12 1.1v9.92c0 .507.04.873.12 1.1.08.227.226.38.44.46.226.08.58.133 1.06.16v.4c-.56-.04-1.414-.06-2.56-.06-1.067 0-1.914.02-2.54.06v-.4c.48-.027.826-.08 1.04-.16a.72.72 0 00.46-.46c.08-.227.12-.593.12-1.1v-9.46l-6.9 9.78c.013.387.066.68.16.88a.731.731 0 00.46.38c.213.067.546.113 1 .14v.4c-.614-.04-1.46-.06-2.54-.06-1.147 0-2 .02-2.56.06v-.4c.48-.027.826-.08 1.04-.16a.72.72 0 00.46-.46c.08-.227.12-.593.12-1.1v-9.92c0-.507-.04-.873-.12-1.1a.72.72 0 00-.46-.46c-.214-.08-.56-.133-1.04-.16v-.4c.56.04 1.413.06 2.56.06 1.066 0 1.913-.02 2.54-.06v.4c-.48.027-.834.08-1.06.16a.718.718 0 00-.44.46c-.08.227-.12.593-.12 1.1v9.46l6.9-9.78c-.014-.387-.067-.673-.16-.86a.727.727 0 00-.46-.4c-.214-.067-.547-.113-1-.14v-.4c.626.04 1.473.06 2.54.06 1.146 0 2-.02 2.56-.06v.4zm5.166 8.04v3.6c0 .507.054.873.16 1.1.107.227.294.38.56.46.267.08.7.133 1.3.16v.4c-.693-.04-1.673-.06-2.94-.06-1.146 0-2 .02-2.56.06v-.4c.48-.027.827-.08 1.04-.16a.718.718 0 00.46-.46c.08-.227.12-.593.12-1.1v-9.92c0-.507-.04-.873-.12-1.1a.718.718 0 00-.46-.46c-.213-.08-.56-.133-1.04-.16v-.4c.56.04 1.374.06 2.44.06l2.16-.02c.254-.013.54-.02.86-.02 1.56 0 2.754.36 3.58 1.08.827.707 1.24 1.66 1.24 2.86 0 .733-.166 1.44-.5 2.12-.32.667-.873 1.227-1.66 1.68-.773.453-1.806.68-3.1.68h-1.54zm1.48-8.04c-.413 0-.726.047-.94.14-.2.093-.34.26-.42.5-.08.24-.12.6-.12 1.08v5.92h1.34c1.307 0 2.207-.347 2.7-1.04.507-.707.76-1.647.76-2.82 0-1.293-.26-2.247-.78-2.86-.506-.613-1.353-.92-2.54-.92zm16.98 11.2c0 .76.046 1.613.14 2.56-.907-.04-2.434-.06-4.58-.06-2.56 0-4.494.02-5.8.06v-.4c.48-.027.826-.08 1.04-.16a.72.72 0 00.46-.46c.08-.227.12-.593.12-1.1v-9.92c0-.507-.04-.873-.12-1.1a.72.72 0 00-.46-.46c-.214-.08-.56-.133-1.04-.16v-.4c1.306.04 3.24.06 5.8.06 1.96 0 3.353-.02 4.18-.06-.094.88-.14 1.667-.14 2.36 0 .52.02.933.06 1.24h-.46c-.094-.867-.214-1.507-.36-1.92-.147-.427-.394-.733-.74-.92-.347-.2-.874-.3-1.58-.3h-1.66c-.48 0-.834.04-1.06.12a.66.66 0 00-.44.44c-.08.227-.12.593-.12 1.1v4.72h1.32c.466 0 .826-.107 1.08-.32.253-.227.42-.487.5-.78a6.76 6.76 0 00.22-1.14l.06-.4h.46c-.04.56-.06 1.187-.06 1.88v.96c0 .68.04 1.627.12 2.84h-.46a58.841 58.841 0 01-.12-.96c-.067-.56-.254-.98-.56-1.26-.294-.28-.707-.42-1.24-.42h-1.32v4.8c0 .507.04.873.12 1.1.08.227.226.38.44.46.226.067.58.1 1.06.1h1.46c.826 0 1.453-.107 1.88-.32.44-.227.76-.58.96-1.06.2-.493.346-1.213.44-2.16h.46c-.04.36-.06.84-.06 1.44zm15.407-11.2c-.48.027-.833.08-1.06.16a.72.72 0 00-.44.46c-.08.227-.12.593-.12 1.1v9.92c0 .507.04.873.12 1.1a.72.72 0 00.44.46c.227.08.58.133 1.06.16v.4c-.56-.04-1.413-.06-2.56-.06-1.08 0-1.927.02-2.54.06v-.4c.48-.027.827-.08 1.04-.16a.718.718 0 00.46-.46c.08-.227.12-.593.12-1.1v-4.8h-6.5v4.8c0 .507.04.873.12 1.1a.72.72 0 00.44.46c.227.08.58.133 1.06.16v.4c-.613-.04-1.46-.06-2.54-.06-1.147 0-2 .02-2.56.06v-.4c.48-.027.827-.08 1.04-.16a.718.718 0 00.46-.46c.08-.227.12-.593.12-1.1v-9.92c0-.507-.04-.873-.12-1.1a.718.718 0 00-.46-.46c-.213-.08-.56-.133-1.04-.16v-.4c.56.04 1.413.06 2.56.06 1.067 0 1.913-.02 2.54-.06v.4c-.48.027-.833.08-1.06.16a.72.72 0 00-.44.46c-.08.227-.12.593-.12 1.1v4.72h6.5v-4.72c0-.507-.04-.873-.12-1.1a.718.718 0 00-.46-.46c-.213-.08-.56-.133-1.04-.16v-.4c.613.04 1.46.06 2.54.06 1.147 0 2-.02 2.56-.06v.4zm15.137 0c-.48.027-.833.08-1.06.16a.72.72 0 00-.44.46c-.08.227-.12.593-.12 1.1v9.92c0 .507.04.873.12 1.1a.72.72 0 00.44.46c.227.08.58.133 1.06.16v.4c-.56-.04-1.413-.06-2.56-.06-1.08 0-1.927.02-2.54.06v-.4c.48-.027.827-.08 1.04-.16a.718.718 0 00.46-.46c.08-.227.12-.593.12-1.1v-4.8h-6.5v4.8c0 .507.04.873.12 1.1a.72.72 0 00.44.46c.227.08.58.133 1.06.16v.4c-.613-.04-1.46-.06-2.54-.06-1.147 0-2 .02-2.56.06v-.4c.48-.027.827-.08 1.04-.16a.718.718 0 00.46-.46c.08-.227.12-.593.12-1.1v-9.92c0-.507-.04-.873-.12-1.1a.718.718 0 00-.46-.46c-.213-.08-.56-.133-1.04-.16v-.4c.56.04 1.413.06 2.56.06 1.067 0 1.913-.02 2.54-.06v.4c-.48.027-.833.08-1.06.16a.72.72 0 00-.44.46c-.08.227-.12.593-.12 1.1v4.72h6.5v-4.72c0-.507-.04-.873-.12-1.1a.718.718 0 00-.46-.46c-.213-.08-.56-.133-1.04-.16v-.4c.613.04 1.46.06 2.54.06 1.147 0 2-.02 2.56-.06v.4zm13.057 0c-.48.027-.834.08-1.06.16a.718.718 0 00-.44.46c-.08.227-.12.593-.12 1.1v9.92c0 .507.04.873.12 1.1.08.227.226.38.44.46.226.08.58.133 1.06.16v.4c-.56-.04-1.414-.06-2.56-.06-1.067 0-1.914.02-2.54.06v-.4c.48-.027.826-.08 1.04-.16a.72.72 0 00.46-.46c.08-.227.12-.593.12-1.1v-4.6h-2c-.507 0-.9.113-1.18.34-.28.227-.494.527-.64.9-.134.373-.28.907-.44 1.6l-.44 2c-.174.8-.44 1.36-.8 1.68-.347.32-.794.48-1.34.48-.507 0-.914-.1-1.22-.3-.307-.2-.614-.527-.92-.98l.3-.22c.2.267.373.46.52.58.16.12.353.18.58.18a.637.637 0 00.58-.34c.133-.24.266-.673.4-1.3l.46-2.04c.186-.84.493-1.453.92-1.84.426-.387 1.08-.653 1.96-.8l.26-.04c-1.347-.2-2.32-.66-2.92-1.38-.587-.733-.88-1.553-.88-2.46 0-1.027.413-1.86 1.24-2.5.84-.653 2.033-.98 3.58-.98.32 0 .606.007.86.02l2.16.02c1.066 0 1.88-.02 2.44-.06v.4zm-8.28 3.18c0 1.107.246 1.96.74 2.56.493.6 1.4.9 2.72.9h1.34v-4.92c0-.48-.04-.84-.12-1.08a.788.788 0 00-.44-.5c-.2-.093-.507-.14-.92-.14-1.16 0-2.007.273-2.54.82-.52.547-.78 1.333-.78 2.36z" fill="#fff"/></svg>