<svg width="530" height="70" fill="none" xmlns="http://www.w3.org/2000/svg"><path d="M271.734 66.838a29.418 29.418 0 01-20.033-7.906 29.658 29.658 0 01-9.344-19.472 29.692 29.692 0 016.325-20.661 29.457 29.457 0 0118.622-10.84h.185l.098.1.142.074v.278h1.999v2.008h.21l1.544 1.236a.406.406 0 00.517 0l1.544-1.236h.185v-2.04h2v-.203l.098-.099a.429.429 0 01.08-.068l.117-.074h.135a29.46 29.46 0 0118.622 10.838 29.697 29.697 0 016.326 20.659 29.666 29.666 0 01-9.341 19.472 29.42 29.42 0 01-20.031 7.91v.024zm-4.725-58.081A28.745 28.745 0 00249.037 19.5a28.967 28.967 0 00-5.973 20.13 28.928 28.928 0 009.183 18.87 28.697 28.697 0 0019.484 7.636 28.7 28.7 0 0019.485-7.636 28.937 28.937 0 009.183-18.87 28.973 28.973 0 00-5.974-20.13 28.74 28.74 0 00-17.971-10.744v.37h-2v1.996h-.652l-1.348 1.094a1.128 1.128 0 01-1.421 0l-1.348-1.094h-.676v-2.02h-1.976l-.024-.346z" fill="#fff" stroke="#fff" stroke-width=".2" stroke-miterlimit="10"/><path d="M271.742 69.735a32.294 32.294 0 01-21.936-8.587 32.554 32.554 0 01-10.34-21.242 32.598 32.598 0 016.726-22.657A32.343 32.343 0 01266.426 5.16l.935-.154-.892 1.106a.415.415 0 000 .519l1.132 1.402.13.068v.278h1.999v2.008h.209l1.545 1.236a.405.405 0 00.517 0l1.544-1.236h.185V8.38h1.999v-.204l.099-.099 1.175-1.452a.405.405 0 00.09-.256.405.405 0 00-.09-.256l-.886-1.106.935.154a32.344 32.344 0 0120.208 12.096 32.604 32.604 0 016.716 22.642 32.56 32.56 0 01-10.323 21.228 32.298 32.298 0 01-21.911 8.603v.006zm-6.03-63.716a31.631 31.631 0 00-19.327 12.178 31.884 31.884 0 00-6.152 22.064 31.834 31.834 0 0010.223 20.485 31.576 31.576 0 0021.283 8.26 31.58 31.58 0 0021.284-8.26 31.833 31.833 0 0010.222-20.485 31.879 31.879 0 00-6.151-22.064 31.636 31.636 0 00-19.328-12.178 1.133 1.133 0 01-.203 1.063l-1.095 1.353v.685h-2v2.002h-.658l-1.348 1.093a1.128 1.128 0 01-1.421 0l-1.348-1.093h-.676v-2.02h-1.976v-.65l-1.107-1.371a1.14 1.14 0 01-.222-1.063z" fill="#fff" stroke="#fff" stroke-width=".2" stroke-miterlimit="10"/><path d="M271.75 12.457c-.26 0-.512-.09-.714-.254l-1.347-1.081h-.314a.36.36 0 01-.357-.358V9.1h-1.643a.357.357 0 01-.356-.358v-.29l-1.108-1.372a1.142 1.142 0 010-1.427l1.126-1.366v-.29a.36.36 0 01.357-.359h1.643V1.99a.358.358 0 01.357-.358h.289l1.36-1.112a1.132 1.132 0 011.421 0l1.341 1.106h.289a.357.357 0 01.357.358V3.64h1.643a.357.357 0 01.357.359v.284l1.108 1.372a1.135 1.135 0 010 1.427l-1.108 1.372v.284a.357.357 0 01-.357.358h-1.643v1.656a.358.358 0 01-.357.359h-.289l-1.347 1.093c-.2.163-.45.253-.708.254zm-2.018-2.07h.086a.35.35 0 01.228.08l1.446 1.174a.405.405 0 00.517 0l1.446-1.174a.354.354 0 01.227-.08h.056V8.742a.358.358 0 01.356-.358h1.643v-.056c0-.09.033-.175.093-.241l1.175-1.452a.411.411 0 000-.513l-1.169-1.464a.358.358 0 01-.093-.241v-.056h-1.642a.357.357 0 01-.357-.358V2.348h-.056a.357.357 0 01-.252-.105l-1.434-1.168a.414.414 0 00-.516 0l-1.434 1.168a.357.357 0 01-.252.105h-.056v1.65a.358.358 0 01-.357.358h-1.642v.056a.36.36 0 01-.105.253l-1.163 1.44a.415.415 0 000 .519l1.175 1.445a.36.36 0 01.105.254v.055h1.643a.357.357 0 01.357.359l-.025 1.65zm-22.213 43.43h-.093a.35.35 0 01-.212-.162.346.346 0 01-.034-.265c1.354-4.986 4.344-23.232 4.455-23.992.111-.76 1.034-4.863 2.769-6.488 2.08-1.94 5.322-4.492 12.041-7.05s14.817-.34 15.155-.24c.129.03 3.526.901 5.772 5.412 2.246 4.51 6.036 18.759 6.977 24.048a16.728 16.728 0 002.505 6.506c.104.142.193.296.264.458a.352.352 0 01-.218.441.348.348 0 01-.44-.22c0-.036-.105-.178-.185-.302a17.6 17.6 0 01-2.603-6.766c-1.021-5.709-4.824-19.655-6.916-23.856-2.092-4.202-5.297-5.042-5.328-5.048-.031-.006-8.202-2.268-14.73.222-6.529 2.49-9.784 5.011-11.814 6.908-1.483 1.384-2.425 5.135-2.554 6.074-.11.766-3.107 19.062-4.473 24.097a.351.351 0 01-.338.223z" fill="#fff" stroke="#fff" stroke-width=".2" stroke-miterlimit="10"/><path d="M254.733 61.308h-.043a.343.343 0 01-.293-.253.347.347 0 01-.009-.136l1.908-14.527a8.837 8.837 0 00-.296-3.547l-3.144-10.75a8.102 8.102 0 01-.049-4.37 8.737 8.737 0 013.692-5.084c2.676-1.736 6.768-3.497 10.915-2.008 6.584 2.354 14.041 9.836 18.145 18.196 3.741 7.619 11.236 12.877 11.31 12.926a.35.35 0 01-.134.63.346.346 0 01-.26-.055c-.074-.056-7.722-5.413-11.537-13.198-4.067-8.236-11.365-15.558-17.788-17.857-3.908-1.396-7.766.284-10.307 1.934a8.034 8.034 0 00-3.384 4.684 7.452 7.452 0 00.049 3.991l3.138 10.751a9.52 9.52 0 01.32 3.831L255.059 61a.347.347 0 01-.326.309z" fill="#fff" stroke="#fff" stroke-width=".2" stroke-miterlimit="10"/><path d="M293.542 56.976a.345.345 0 01-.345-.315c-.32-.804-5.156-8.65-9.051-14.935-3.359-5.437-6.257-10.127-6.768-11.078-1.126-2.15-4.682-6.309-4.719-6.352a.349.349 0 01.037-.494.346.346 0 01.492.037c.148.173 3.642 4.263 4.805 6.481.486.933 3.52 5.84 6.732 11.036 2.215 3.583 4.504 7.285 6.245 10.151 3.076 5.08 3.076 5.098 2.806 5.358a.346.346 0 01-.234.11z" fill="#fff" stroke="#fff" stroke-width=".2" stroke-miterlimit="10"/><path d="M272.577 57.845a17.199 17.199 0 01-4.393-.68c-1.846-.513-5.212-1.767-7.131-4.387-1.083-1.477-2.462-5.419-2.72-6.401a895.373 895.373 0 00-2.08-7.415c-.018-.05-.4-1.588 2.283-2.743 2.406-1.038 13.967-4.585 18.754-4.251-.449-1.57-.757-2.614-.769-2.651a.35.35 0 01.234-.433.345.345 0 01.431.235c.166.556 4.067 13.686 4.184 17.066.123 3.59-5.335 10.634-7.384 11.499a3.98 3.98 0 01-1.409.16zm4.024-25.216c-4.922 0-15.598 3.275-17.794 4.22-2.08.896-1.889 1.91-1.883 1.922a1371.5 1371.5 0 012.086 7.414c.24.896 1.575 4.752 2.609 6.18 3.076 4.182 10.749 5.214 12.09 4.652 1.846-.767 7.076-7.631 6.965-10.832-.08-2.249-1.975-9.268-3.181-13.52a8.232 8.232 0 00-.867-.036h-.025z" fill="#fff" stroke="#fff" stroke-width=".2" stroke-miterlimit="10"/><path d="M256.603 38.625a.347.347 0 01-.339-.265c-1.126-4.517-2.528-11.58-1.784-12.513 2.923-3.67 12.786-4.906 13.186-4.943a.349.349 0 01.382.31.363.363 0 01-.075.255.352.352 0 01-.233.127c-.099 0-9.974 1.236-12.718 4.69-.29.525.215 5.073 1.919 11.907a.343.343 0 01-.252.42l-.086.012zm18.056 24.597c-5.224 0-14.152-4.943-18.828-11.925a.32.32 0 01.086-.439.315.315 0 01.437.087c4.781 7.199 14.152 12.148 19.043 11.604 1.698-.192 10.522-9.478 9.562-19.426a.312.312 0 01.043-.263.321.321 0 01.228-.135.312.312 0 01.325.201.31.31 0 01.019.135c.554 5.715-2.166 11.023-3.833 13.674-2.394 3.818-5.119 6.29-6.276 6.444-.268.03-.537.044-.806.043zm-5.343-24.838h-.093a.31.31 0 01-.209-.39 3.582 3.582 0 011.908-2.156c1.002-.402 2.196-.204 3.556.58a.315.315 0 01.144.189.31.31 0 01-.337.388.313.313 0 01-.115-.039c-1.181-.685-2.19-.87-3.009-.543a2.997 2.997 0 00-1.544 1.76.316.316 0 01-.301.21z" fill="#fff" stroke="#fff" stroke-width=".2" stroke-miterlimit="10"/><path d="M271.697 37.994a1.03 1.03 0 001.028-1.032c0-.57-.46-1.031-1.028-1.031a1.03 1.03 0 00-1.027 1.032c0 .57.46 1.031 1.027 1.031zm-12.876 3.496h-.037a.306.306 0 01-.265-.22.29.29 0 01-.011-.12 2.535 2.535 0 011.113-1.75c.911-.586 2.215-.617 3.883 0a.328.328 0 01.189.161.327.327 0 01-.14.437.32.32 0 01-.246.02c-1.477-.5-2.597-.518-3.341-.043a1.9 1.9 0 00-.843 1.298.317.317 0 01-.302.216z" fill="#fff" stroke="#fff" stroke-width=".2" stroke-miterlimit="10"/><path d="M260.883 41.444a1.032 1.032 0 00-.403-2.024 1.032 1.032 0 00.403 2.024zm5.503 5.336a2.26 2.26 0 01-.351 0 1.468 1.468 0 01-1.034-.686c-1.009-1.539-.092-5.252-.049-5.413a3.72 3.72 0 00.055-1.928.344.344 0 01.419-.477c.086.03.157.092.197.174.387.791.037 2.237 0 2.398-.247.989-.745 3.8-.043 4.869a.803.803 0 00.572.383 1.993 1.993 0 001.79-.79c.105-.335.56-.68 1.514-.68a.34.34 0 010 .68c-.615 0-.831.154-.874.215a2.573 2.573 0 01-2.196 1.254zm.411 4.002a.331.331 0 01-.347-.227.335.335 0 01.144-.39l1.169-.922a.377.377 0 01.21-.074 2.675 2.675 0 001.544-.482c.098-.086.258-.234 2.153-.086a.334.334 0 11-.049.667 11.818 11.818 0 00-1.71-.037 3.267 3.267 0 01-1.846.618l-1.083.853a.332.332 0 01-.185.08z" fill="#fff" stroke="#fff" stroke-width=".2" stroke-miterlimit="10"/><path d="M268.746 50.624a3.07 3.07 0 01-1.342-.358.346.346 0 01-.193-.328.344.344 0 01.489-.29 1.893 1.893 0 001.489.21 1.736 1.736 0 00.929-1.044.332.332 0 01.616.003.335.335 0 01-.001.257 2.367 2.367 0 01-1.304 1.402 1.916 1.916 0 01-.683.148zm.204 3.398a.331.331 0 01-.326-.351.334.334 0 01.055-.168 3.396 3.396 0 013.52-1.162.33.33 0 01.201.143.331.331 0 01-.085.453.33.33 0 01-.239.06 2.754 2.754 0 00-2.849.883.334.334 0 01-.277.142z" fill="#fff" stroke="#fff" stroke-width=".2" stroke-miterlimit="10"/><path d="M10.143 11.894c.662.28 1.283.65 1.846 1.1a.737.737 0 00.437.204c.303 0 .509-.46.615-1.378h.523c-.061.997-.092 2.756-.092 5.277h-.523c-.108-.724-.26-1.44-.455-2.144a3.85 3.85 0 00-.683-1.236 4.223 4.223 0 00-1.748-1.36 5.86 5.86 0 00-2.295-.444 3.775 3.775 0 00-2.59.988 6.424 6.424 0 00-1.723 2.812 13.38 13.38 0 00-.615 4.282 12.405 12.405 0 00.652 4.288A6.025 6.025 0 005.338 27a4.17 4.17 0 002.658.933c.76 0 1.512-.15 2.215-.438a3.736 3.736 0 001.692-1.31c.3-.417.525-.883.664-1.378.182-.74.311-1.491.388-2.25h.523c0 2.633.03 4.468.092 5.506h-.529a4.085 4.085 0 00-.197-1.044c-.082-.206-.2-.309-.357-.309a.995.995 0 00-.48.185 9.611 9.611 0 01-1.962 1.113 6.043 6.043 0 01-2.265.377 7.206 7.206 0 01-3.802-.99 6.565 6.565 0 01-2.535-2.854 10.176 10.176 0 01-.899-4.455c-.03-1.541.286-3.07.923-4.473a7.196 7.196 0 012.585-3.028 6.747 6.747 0 013.76-1.081 6.19 6.19 0 012.331.39zm15.479 13.438a4.566 4.566 0 01-1.545 2.168 4.234 4.234 0 01-2.732.909 5.183 5.183 0 01-2.812-.748 4.807 4.807 0 01-1.846-2.088 7.255 7.255 0 01-.615-3.09 8.62 8.62 0 01.616-3.466 5.125 5.125 0 011.802-2.262 4.723 4.723 0 012.72-.79 3.997 3.997 0 013.163 1.235c.738.824 1.107 2.09 1.107 3.8h-7.107c-.048.489-.07.98-.067 1.47-.02.905.147 1.803.492 2.64a4.206 4.206 0 001.304 1.73c.485.39 1.084.607 1.705.617a3.594 3.594 0 001.944-.525 3.952 3.952 0 001.415-1.767l.456.167zm-6.307-7.91a6.197 6.197 0 00-.96 3.121h5.008a6.611 6.611 0 00-.516-2.984 1.785 1.785 0 00-1.655-1.193 2.252 2.252 0 00-1.877 1.057zm18.055-.616c.3.325.511.72.616 1.15.138.607.2 1.23.185 1.853v6.142a1.72 1.72 0 00.387 1.297c.392.278.87.406 1.348.359v.482a80.93 80.93 0 00-2.744-.093c-.427 0-1.28.031-2.56.093v-.482a1.562 1.562 0 001.175-.358c.263-.379.38-.84.332-1.298v-6.649a4.218 4.218 0 00-.363-1.958 1.534 1.534 0 00-1.483-.661 2.7 2.7 0 00-1.667.55 3.547 3.547 0 00-1.132 1.501 5.439 5.439 0 00-.4 2.126v5.091c-.048.459.07.92.332 1.297a1.568 1.568 0 001.175.359v.482a66.32 66.32 0 00-2.56-.093c-.426 0-1.34.031-2.743.093v-.482a1.99 1.99 0 001.347-.358 1.715 1.715 0 00.388-1.298v-7.198a2.48 2.48 0 00-.388-1.539 1.642 1.642 0 00-1.347-.482v-.482c.488.046.96.068 1.415.068a7.415 7.415 0 002.375-.321v2.706a4.243 4.243 0 011.587-2.12 4.147 4.147 0 012.295-.654 3.168 3.168 0 012.43.877zm7.23-.53h3.39v.457h-3.385v8.885a2.35 2.35 0 00.376 1.489 1.323 1.323 0 001.083.457 1.552 1.552 0 001.23-.574c.413-.549.7-1.182.843-1.854l.456.117c-.382 2.11-1.373 3.166-2.972 3.17a3.777 3.777 0 01-1.28-.185 2.417 2.417 0 01-.892-.575 2.697 2.697 0 01-.695-1.236 7.986 7.986 0 01-.197-1.97v-7.724h-2.21v-.457h2.191v-3.51a7.08 7.08 0 002.055-.321l.006 3.83zm13.028.183a1.667 1.667 0 01.585 1.285c.006.373-.123.735-.363 1.02a1.176 1.176 0 01-.948.426 1.228 1.228 0 01-.855-.322 1.118 1.118 0 01-.357-.87 1.431 1.431 0 01.775-1.237.548.548 0 00-.48-.228 2.29 2.29 0 00-1.624.698 4.876 4.876 0 00-1.145 1.711 5.06 5.06 0 00-.412 1.904v4.862a1.65 1.65 0 00.615 1.47 3.23 3.23 0 001.846.415v.482h-.547a138.66 138.66 0 00-2.972-.068c-.427 0-1.325.03-2.695.092v-.481a1.99 1.99 0 001.347-.359 1.715 1.715 0 00.388-1.297V18.75a2.48 2.48 0 00-.388-1.539 1.641 1.641 0 00-1.347-.482v-.482c.488.046.96.069 1.415.069a7.415 7.415 0 002.375-.322v2.867c.28-.77.73-1.468 1.317-2.039a2.793 2.793 0 012-.896 2.148 2.148 0 011.47.532zm11.902 9.134a2.443 2.443 0 00.388 1.538 1.641 1.641 0 001.348.482v.482a14.798 14.798 0 00-1.416-.068 7.416 7.416 0 00-2.375.322v-2.713a4.218 4.218 0 01-1.556 2.088 3.89 3.89 0 01-2.19.668 3.109 3.109 0 01-2.376-.871 2.649 2.649 0 01-.584-1.168 8.065 8.065 0 01-.172-1.854v-5.746a2.48 2.48 0 00-.388-1.539 1.642 1.642 0 00-1.348-.482v-.482c.472.046.944.068 1.416.068a7.42 7.42 0 002.374-.32v9.02a7.91 7.91 0 00.105 1.409c.058.34.227.65.48.884.33.256.742.38 1.157.346a2.504 2.504 0 001.575-.55 3.639 3.639 0 001.108-1.502 5.37 5.37 0 00.4-2.1v-4.752a2.479 2.479 0 00-.388-1.539 1.642 1.642 0 00-1.348-.482v-.482c.472.046.944.068 1.416.068a7.421 7.421 0 002.374-.315v9.59zm20.856 1.636c.392.278.87.405 1.347.358v.482a81.033 81.033 0 00-2.744-.092c-.427 0-1.28.03-2.56.092v-.482a1.569 1.569 0 001.176-.358c.262-.378.38-.84.332-1.298v-6.63a7.803 7.803 0 00-.105-1.408 1.552 1.552 0 00-.48-.884 1.67 1.67 0 00-1.156-.346 2.504 2.504 0 00-1.575.55 3.639 3.639 0 00-1.108 1.501 5.376 5.376 0 00-.4 2.101v5.135a1.72 1.72 0 00.388 1.297c.391.278.87.405 1.347.359v.482a81.03 81.03 0 00-2.744-.093c-.427 0-1.28.03-2.56.093v-.482a1.568 1.568 0 001.175-.359c.263-.378.381-.839.333-1.297V19.3a7.82 7.82 0 00-.105-1.408 1.553 1.553 0 00-.48-.884 1.669 1.669 0 00-1.15-.346 2.504 2.504 0 00-1.576.55 3.62 3.62 0 00-1.107 1.514 5.456 5.456 0 00-.4 2.113v5.11c-.048.458.07.92.332 1.297a1.566 1.566 0 001.175.359v.482a66.38 66.38 0 00-2.56-.093c-.426 0-1.34.03-2.743.093v-.482c.477.046.955-.08 1.347-.359a1.713 1.713 0 00.388-1.297v-7.198a2.48 2.48 0 00-.388-1.539 1.64 1.64 0 00-1.347-.482v-.482c.488.045.96.068 1.415.068a7.416 7.416 0 002.375-.321v2.706a4.323 4.323 0 011.556-2.1 3.852 3.852 0 012.19-.68 3.108 3.108 0 012.376.87c.433.524.681 1.175.708 1.854a3.898 3.898 0 011.447-1.986 3.872 3.872 0 012.343-.72 3.107 3.107 0 012.369.865c.289.334.49.736.584 1.168.13.609.187 1.231.173 1.854v6.123a1.72 1.72 0 00.412 1.279zm22.464-.308c-.274.44-.632.822-1.052 1.125a2.517 2.517 0 01-1.397.346 2.202 2.202 0 01-1.544-.55 3.602 3.602 0 01-.905-1.928l-.504-2.293a15.445 15.445 0 00-.517-1.853 2.364 2.364 0 00-.72-1.032 2.085 2.085 0 00-1.347-.39h-2.172v5.277c-.017.417.028.833.135 1.236a.828.828 0 00.517.525c.39.116.793.178 1.2.186v.457a47.821 47.821 0 00-2.905-.068c-1.308 0-2.282.023-2.922.068v-.457c.406-.008.81-.07 1.2-.186a.83.83 0 00.516-.525c.107-.403.153-.82.136-1.236V14.255a4.154 4.154 0 00-.136-1.235.814.814 0 00-.516-.526 4.546 4.546 0 00-1.2-.185v-.457c.64.045 1.569.068 2.787.068h3.446a6.506 6.506 0 014.079 1.112 3.486 3.486 0 011.428 2.88 4.24 4.24 0 01-.425 1.804 4.277 4.277 0 01-1.415 1.63 5.916 5.916 0 01-2.59.977l.276.043a4.076 4.076 0 012.191.92 4.143 4.143 0 011.027 2.034l.573 2.341c.085.512.247 1.008.48 1.471a.77.77 0 00.683.414c.234.01.464-.063.652-.204.232-.195.439-.42.615-.667l.326.247zm-9.518-14.477a.9.9 0 00-.493.575 4.18 4.18 0 00-.135 1.235v5.648h1.532c1.51 0 2.545-.336 3.107-1.007.612-.81.911-1.816.843-2.83a4.053 4.053 0 00-.892-2.843c-.595-.642-1.563-.963-2.904-.963a2.691 2.691 0 00-1.058.185zm19.831 12.888a4.572 4.572 0 01-1.545 2.168 4.232 4.232 0 01-2.732.909 5.185 5.185 0 01-2.812-.748 4.805 4.805 0 01-1.845-2.088 7.262 7.262 0 01-.616-3.09 8.617 8.617 0 01.616-3.466 5.122 5.122 0 011.802-2.262 4.723 4.723 0 012.72-.79 3.999 3.999 0 013.163 1.235c.738.824 1.107 2.09 1.107 3.8h-7.107c-.048.489-.07.98-.067 1.47-.02.905.147 1.803.492 2.64a4.207 4.207 0 001.304 1.73c.485.39 1.084.607 1.705.617a3.594 3.594 0 001.944-.525 3.942 3.942 0 001.415-1.767l.456.167zm-6.307-7.91a6.191 6.191 0 00-.96 3.121h4.984a6.608 6.608 0 00-.517-2.984 1.786 1.786 0 00-1.655-1.193 2.25 2.25 0 00-1.852 1.057zm11.541 1.263a4.249 4.249 0 011.587-2.1 4.15 4.15 0 012.314-.656 3.173 3.173 0 012.424.872c.299.324.51.72.616 1.149.137.608.2 1.23.184 1.854v6.148a1.707 1.707 0 00.388 1.297c.392.278.87.405 1.347.358v.482a81 81 0 00-2.744-.092c-.427 0-1.28.03-2.56.092v-.482a1.568 1.568 0 001.176-.358c.262-.378.38-.839.332-1.297v-6.649a4.227 4.227 0 00-.363-1.959 1.526 1.526 0 00-1.483-.68 2.729 2.729 0 00-1.655.526c-.503.38-.894.89-1.132 1.477a5.38 5.38 0 00-.413 2.144v5.14c-.048.46.07.92.333 1.298a1.568 1.568 0 001.175.358v.482a66.381 66.381 0 00-2.56-.092c-.426 0-1.341.03-2.744.092v-.482c.478.047.956-.08 1.348-.358a1.72 1.72 0 00.387-1.297V12.857a2.478 2.478 0 00-.387-1.538 1.656 1.656 0 00-1.348-.482v-.482c.488.045.96.068 1.415.068a7.414 7.414 0 002.375-.321l-.012 8.582zm10.756 8.822a2.782 2.782 0 01-.72-2.008 2.545 2.545 0 01.56-1.7 4.23 4.23 0 011.323-1.056c.656-.32 1.332-.597 2.024-.828a10.601 10.601 0 001.896-.803 1.115 1.115 0 00.615-.988v-1.422a2.382 2.382 0 00-.56-1.854 2.289 2.289 0 00-1.563-.494 2.737 2.737 0 00-2.264.828c.299.075.566.244.763.482.21.26.32.587.307.92a1.16 1.16 0 01-.363.91 1.336 1.336 0 01-.935.333 1.15 1.15 0 01-.96-.402 1.516 1.516 0 01-.32-.976c-.012-.327.081-.65.265-.92.22-.288.486-.537.787-.736a4.74 4.74 0 011.397-.618 6.442 6.442 0 011.846-.253 3.834 3.834 0 012.695.846c.373.34.638.783.763 1.273.146.642.212 1.3.197 1.959v6.395a1.61 1.61 0 00.16.828.617.617 0 00.548.253c.18 0 .358-.044.517-.13a2.9 2.9 0 00.516-.358l.253.39a5.523 5.523 0 01-1.016.654 2.54 2.54 0 01-1.064.198 1.841 1.841 0 01-1.532-.55 2.337 2.337 0 01-.437-1.489 3.988 3.988 0 01-1.551 1.613 4.418 4.418 0 01-2.012.445 2.84 2.84 0 01-2.135-.742zm5.723-1.94v-4.498c-.145.22-.342.4-.573.525-.242.136-.615.32-1.12.55-.484.203-.953.443-1.402.717a3.071 3.071 0 00-.923.908c-.275.44-.41.952-.388 1.47a2.178 2.178 0 00.505 1.564 1.739 1.739 0 001.322.525c1.005-.012 1.865-.6 2.579-1.761zm14.66-8.031c.8 1.07 1.2 2.616 1.2 4.634a7.677 7.677 0 01-.683 3.398 4.939 4.939 0 01-1.846 2.113 4.81 4.81 0 01-2.541.711 4.11 4.11 0 01-3.015-1.328l-1.649 1.359-.388-.16a4.96 4.96 0 00.16-1.33V12.859a2.478 2.478 0 00-.387-1.538 1.656 1.656 0 00-1.348-.482v-.482c.488.045.96.068 1.415.068a7.414 7.414 0 002.375-.321v8.286a4.06 4.06 0 011.452-1.81 3.682 3.682 0 012.117-.619 3.736 3.736 0 013.138 1.576zm-1.785 8.934c.509-.926.763-2.368.763-4.325a9.743 9.743 0 00-.683-4.177 2.23 2.23 0 00-2.104-1.378 2.53 2.53 0 00-1.76.748 4.202 4.202 0 00-1.144 2.101v7.303c.347.364.766.65 1.231.84.448.19.929.286 1.415.285a2.453 2.453 0 002.289-1.39l-.007-.006zm8.512-.519a1.708 1.708 0 00.388 1.298c.391.278.87.405 1.347.359v.481a80.602 80.602 0 00-2.763-.092c-.439 0-1.359.03-2.762.092v-.481c.477.046.955-.081 1.347-.359a1.705 1.705 0 00.388-1.297v-7.199a2.479 2.479 0 00-.388-1.538 1.639 1.639 0 00-1.347-.482v-.482c.488.045.96.068 1.415.068a7.414 7.414 0 002.375-.322v9.954zm-.142-14.995a1.439 1.439 0 01.133 1.813 1.431 1.431 0 01-2.445-.158 1.444 1.444 0 01.362-1.78 1.43 1.43 0 011.95.125zm6.683 14.997a1.709 1.709 0 00.388 1.298c.391.277.87.404 1.347.357v.482a80.602 80.602 0 00-2.763-.092c-.439 0-1.359.03-2.762.092v-.482a1.99 1.99 0 001.347-.358 1.707 1.707 0 00.388-1.297V12.835a2.479 2.479 0 00-.388-1.539 1.638 1.638 0 00-1.347-.482v-.482c.471.046.943.068 1.415.068a7.414 7.414 0 002.375-.32v15.873zm6.703-.001a1.707 1.707 0 00.388 1.297c.391.278.87.405 1.347.359v.482a80.602 80.602 0 00-2.763-.093c-.438 0-1.359.03-2.762.093v-.482c.477.046.955-.08 1.347-.359a1.705 1.705 0 00.388-1.297v-7.199a2.48 2.48 0 00-.388-1.538 1.642 1.642 0 00-1.347-.482v-.482c.488.045.96.068 1.415.068a7.414 7.414 0 002.375-.321v9.954zm-.16-14.984a1.442 1.442 0 01-.682 2.367 1.428 1.428 0 01-1.654-.746 1.445 1.445 0 01.396-1.777 1.43 1.43 0 01.912-.307 1.408 1.408 0 011.028.45v.013zm6.75 5.308h3.384v.457h-3.384v8.885c-.045.524.087 1.05.375 1.489a1.32 1.32 0 001.083.457 1.552 1.552 0 001.231-.574 4.73 4.73 0 00.843-1.854l.455.117c-.382 2.11-1.372 3.166-2.972 3.17a3.778 3.778 0 01-1.28-.185 2.414 2.414 0 01-.892-.575 2.687 2.687 0 01-.695-1.236 8.015 8.015 0 01-.197-1.97v-7.724h-2.191v-.457h2.191v-3.51a7.081 7.081 0 002.055-.321l-.006 3.83zm5.315 11.231a2.763 2.763 0 01-.677-2.008 2.545 2.545 0 01.56-1.7 4.202 4.202 0 011.286-1.056c.656-.32 1.332-.597 2.024-.828a10.592 10.592 0 001.895-.803 1.109 1.109 0 00.615-.988v-1.422a2.37 2.37 0 00-.56-1.853 2.286 2.286 0 00-1.562-.495 2.741 2.741 0 00-2.265.828c.299.075.567.244.763.482.211.26.32.587.308.92a1.16 1.16 0 01-.363.91 1.34 1.34 0 01-.935.333 1.157 1.157 0 01-.96-.402 1.51 1.51 0 01-.32-.976c-.012-.327.081-.65.264-.92.22-.288.486-.537.788-.736a4.74 4.74 0 011.397-.618 6.437 6.437 0 011.846-.253 3.835 3.835 0 012.695.846c.372.34.637.783.763 1.273.145.642.211 1.3.197 1.959v6.395a1.6 1.6 0 00.159.828.617.617 0 00.548.253c.18 0 .358-.044.517-.13.184-.1.358-.22.517-.358l.252.39a5.55 5.55 0 01-1.015.654c-.337.142-.7.21-1.065.198a1.835 1.835 0 01-1.532-.55 2.35 2.35 0 01-.437-1.489 3.988 3.988 0 01-1.556 1.613 4.42 4.42 0 01-2.012.445 2.843 2.843 0 01-2.135-.742zm5.722-1.94v-4.498c-.145.22-.341.4-.572.525-.242.136-.616.32-1.12.55a10.41 10.41 0 00-1.403.717 3.083 3.083 0 00-.923.908c-.275.44-.41.952-.388 1.47-.042.568.14 1.129.505 1.564a1.742 1.742 0 001.323.525c1.001-.012 1.86-.6 2.578-1.761zm13.088-8.885a2.07 2.07 0 011.077 1.767 1.265 1.265 0 01-.345.94 1.173 1.173 0 01-.867.345 1.33 1.33 0 01-.893-.309 1.042 1.042 0 01-.363-.84 1.244 1.244 0 01.277-.816c.176-.227.42-.392.696-.47a1.721 1.721 0 00-.813-.685 2.88 2.88 0 00-1.23-.278 2.605 2.605 0 00-1.575.537 3.885 3.885 0 00-1.231 1.792 9.37 9.37 0 00-.48 3.294c0 1.899.306 3.279.917 4.14a2.781 2.781 0 002.375 1.298 3.356 3.356 0 001.846-.576 4.182 4.182 0 001.452-1.792l.437.161a4.775 4.775 0 01-1.452 2.25 4.003 4.003 0 01-2.757.938 4.693 4.693 0 01-2.572-.735 4.982 4.982 0 01-1.846-2.125 7.39 7.39 0 01-.664-3.226 7.725 7.725 0 01.676-3.305 5.403 5.403 0 011.883-2.262 4.841 4.841 0 012.763-.816c.953-.02 1.891.25 2.689.773zm1.497 15.356a2.492 2.492 0 002.117-1.236 5.99 5.99 0 00.72-3.188v-8.86a2.485 2.485 0 00-.388-1.54 1.639 1.639 0 00-1.347-.481v-.482c.471.045.943.068 1.415.068a7.409 7.409 0 002.35-.315v9.428c0 2.542-.547 4.396-1.643 5.562-.41.425-.896.769-1.433 1.013a4.292 4.292 0 01-1.797.377l.006-.346zm4.683-21.089a1.448 1.448 0 01.143 1.813 1.434 1.434 0 01-1.739.508 1.433 1.433 0 01-.708-.653 1.445 1.445 0 01.354-1.783 1.433 1.433 0 011.474-.215c.18.078.342.192.476.337v-.007zm6.464 15.002a1.725 1.725 0 00.388 1.298c.392.277.87.405 1.348.358v.482a80.602 80.602 0 00-2.763-.093c-.439 0-1.36.031-2.763.093v-.482c.478.047.956-.08 1.348-.358a1.721 1.721 0 00.387-1.298v-7.198a2.478 2.478 0 00-.387-1.539 1.648 1.648 0 00-1.348-.482v-.482c.488.046.96.068 1.415.068a7.414 7.414 0 002.375-.321v9.954zm-.129-14.996c.23.239.371.55.398.881a1.438 1.438 0 01-1.989 1.445 1.435 1.435 0 01-.844-1.614 1.44 1.44 0 01.5-.827 1.428 1.428 0 011.935.115zM3.79 53.47a1.718 1.718 0 00.388 1.298c.396.279.879.404 1.36.352v.489a80.768 80.768 0 00-2.763-.093c-.439 0-1.364.03-2.775.093v-.482a1.99 1.99 0 001.347-.359 1.714 1.714 0 00.388-1.297v-7.186a2.48 2.48 0 00-.388-1.539A1.642 1.642 0 000 44.27v-.482c.488.054.96.08 1.415.08a7.416 7.416 0 002.375-.32v9.923zm-.16-14.983a1.44 1.44 0 01.321 1.592 1.44 1.44 0 01-.32.472 1.403 1.403 0 01-1.028.438 1.399 1.399 0 01-1.028-.438 1.44 1.44 0 01-.32-1.592 1.44 1.44 0 01.32-.472 1.432 1.432 0 012.055 0zM24.6 54.769c.391.277.87.405 1.347.358v.482a80.922 80.922 0 00-2.745-.093c-.426 0-1.271.031-2.535.093v-.482a1.57 1.57 0 001.176-.358c.262-.379.38-.84.332-1.298v-6.63a7.82 7.82 0 00-.105-1.409 1.553 1.553 0 00-.48-.883 1.668 1.668 0 00-1.156-.346 2.504 2.504 0 00-1.576.55 3.637 3.637 0 00-1.107 1.501 5.378 5.378 0 00-.4 2.1v5.117a1.718 1.718 0 00.388 1.298c.391.277.87.405 1.347.358v.482a80.933 80.933 0 00-2.744-.093c-.427 0-1.278.031-2.554.093v-.482a1.571 1.571 0 001.176-.358c.262-.379.38-.84.332-1.298v-6.63a7.82 7.82 0 00-.105-1.409 1.553 1.553 0 00-.48-.883 1.668 1.668 0 00-1.15-.346 2.504 2.504 0 00-1.575.55c-.496.398-.878.92-1.108 1.514a5.455 5.455 0 00-.43 2.106v5.092c-.05.458.069.92.332 1.297a1.567 1.567 0 001.175.359v.488a66.32 66.32 0 00-2.56-.093c-.426 0-1.331.031-2.713.093v-.482a1.99 1.99 0 001.347-.358 1.714 1.714 0 00.388-1.298v-7.186a2.48 2.48 0 00-.388-1.538 1.642 1.642 0 00-1.347-.483v-.481c.488.045.96.068 1.415.068a7.416 7.416 0 002.35-.316v2.707a4.323 4.323 0 011.557-2.101 3.852 3.852 0 012.19-.68 3.109 3.109 0 012.406.878c.433.523.681 1.174.708 1.853a3.897 3.897 0 011.447-1.986 3.872 3.872 0 012.343-.72 3.109 3.109 0 012.375.871c.289.334.49.736.585 1.168.128.61.186 1.231.172 1.854v6.129a1.72 1.72 0 00.37 1.26zm19.55-6.289a3.709 3.709 0 011.077 2.675 4.128 4.128 0 01-.665 2.317 4.361 4.361 0 01-1.895 1.57 7.01 7.01 0 01-2.922.562h-1.053a97.333 97.333 0 00-2.88-.044c-1.23 0-2.173.023-2.83.068v-.457c.407-.008.81-.07 1.2-.185a.823.823 0 00.517-.525c.107-.403.153-.82.136-1.236V41.794a4.162 4.162 0 00-.136-1.236.822.822 0 00-.517-.525 4.547 4.547 0 00-1.2-.186v-.488c.64.046 1.57.068 2.788.068h3.445a5.65 5.65 0 013.575.989 3.16 3.16 0 011.23 2.614 3.716 3.716 0 01-.836 2.385 5.17 5.17 0 01-2.621 1.544v.044c1.678.243 2.873.735 3.587 1.476zm-6.565-8.503a.906.906 0 00-.492.575 4.19 4.19 0 00-.136 1.236v5.171h1.532c1.231 0 2.103-.34 2.615-1.02a4.524 4.524 0 00.745-2.687 3.774 3.774 0 00-.757-2.57 3.124 3.124 0 00-2.461-.847 2.696 2.696 0 00-1.046.142zm5.36 11.085a3.664 3.664 0 00-.973-2.756c-.648-.626-1.674-.939-3.077-.939h-1.969v5.802c-.02.417.026.834.136 1.236a.866.866 0 00.492.537 2.94 2.94 0 001.083.149c2.871-.008 4.307-1.351 4.307-4.029zm9.983-7.593v.685L49.341 47.3v-.228l-3.63 3.17v-.692l3.63-3.164v.229l3.587-3.145zM50.35 53.472a1.72 1.72 0 00.388 1.298c.392.277.87.405 1.347.358v.482a80.577 80.577 0 00-2.762-.093c-.44 0-1.362.031-2.77.093v-.482a1.99 1.99 0 001.348-.358 1.716 1.716 0 00.388-1.298V40.367a2.479 2.479 0 00-.388-1.539 1.643 1.643 0 00-1.347-.482v-.482c.472.046.943.068 1.415.068a7.415 7.415 0 002.375-.32l.006 15.86zm6.132-.048a1.443 1.443 0 01-.63 2.383 1.428 1.428 0 01-1.67-.713 1.446 1.446 0 01.364-1.785 1.43 1.43 0 011.936.115zm13.755-9.703c.376.145.724.354 1.028.618.116.102.26.166.412.185.275 0 .443-.335.504-1.007h.523c-.065.733-.098 2.025-.098 3.874h-.523a5.798 5.798 0 00-.972-2.471 2.463 2.463 0 00-2.135-.989 1.946 1.946 0 00-1.348.47 1.65 1.65 0 00-.523 1.297 1.811 1.811 0 00.548 1.341c.541.492 1.13.926 1.76 1.298.135.078.34.208.615.389.585.382 1.15.794 1.692 1.236.418.345.77.764 1.04 1.235a3.1 3.1 0 01.4 1.582 2.797 2.797 0 01-1.132 2.367 4.497 4.497 0 01-2.775.846 3.68 3.68 0 01-2.738-1 .289.289 0 00-.204-.093c-.104 0-.203.08-.283.228a2.056 2.056 0 00-.196.618h-.523c.061-.873.092-2.403.092-4.59h.523a8.058 8.058 0 00.91 3.218 2.464 2.464 0 002.265 1.07 2.112 2.112 0 001.415-.526 2.053 2.053 0 00.615-1.65 2.092 2.092 0 00-.615-1.513 11.568 11.568 0 00-1.975-1.49 26.5 26.5 0 01-1.723-1.167 4.099 4.099 0 01-1.015-1.125 2.908 2.908 0 01-.412-1.557 2.643 2.643 0 01.96-2.206 3.79 3.79 0 012.424-.76c.5-.003.997.09 1.464.272zm7.889 9.703a1.442 1.442 0 01-.63 2.383 1.428 1.428 0 01-1.67-.713 1.445 1.445 0 01.365-1.785 1.43 1.43 0 011.935.115zm7.108 6.06a2.74 2.74 0 002.363-1.193c.509-.766.763-2.06.763-3.88V41.794a4.162 4.162 0 00-.135-1.236.828.828 0 00-.517-.525 4.547 4.547 0 00-1.2-.186v-.488c.64.046 1.6.068 2.88.068 1.28 0 2.262-.022 2.947-.068v.458c-.406.007-.81.07-1.2.185a.825.825 0 00-.517.525 4.19 4.19 0 00-.135 1.236v8.428c0 1.302-.023 2.453-.068 3.454-.026.853-.133 1.7-.32 2.533a4.766 4.766 0 01-1.744 2.774 4.73 4.73 0 01-3.117.983v-.451zm17.511-14.47c.952 1.033 1.428 2.597 1.428 4.69 0 2.092-.476 3.649-1.428 4.67a5.366 5.366 0 01-3.76 1.54 5.366 5.366 0 01-3.759-1.54c-.951-1.025-1.427-2.586-1.427-4.683s.476-3.66 1.427-4.69a5.34 5.34 0 017.519 0v.013zm-5.931.32c-.533.94-.8 2.396-.8 4.37 0 1.972.267 3.426.8 4.362a2.38 2.38 0 004.344 0c.533-.931.8-2.386.8-4.363 0-1.977-.267-3.433-.8-4.368a2.384 2.384 0 00-2.172-1.411 2.374 2.374 0 00-2.172 1.41zm14.64-1.613a3.47 3.47 0 011.027.618.77.77 0 00.413.185c.275 0 .443-.335.504-1.007h.523c-.061.733-.092 2.025-.092 3.874h-.523a5.81 5.81 0 00-.972-2.471 2.468 2.468 0 00-2.135-.989 1.947 1.947 0 00-1.348.47 1.652 1.652 0 00-.523 1.297 1.815 1.815 0 00.548 1.341 10.74 10.74 0 001.76 1.298c.135.078.34.208.615.389.585.382 1.15.794 1.692 1.236.418.345.77.764 1.04 1.235.272.482.41 1.029.4 1.582a2.797 2.797 0 01-1.132 2.367 4.499 4.499 0 01-2.775.846 3.676 3.676 0 01-2.745-1 .286.286 0 00-.203-.093c-.104 0-.203.08-.283.228a2.066 2.066 0 00-.197.618h-.523c.062-.873.093-2.403.093-4.59h.523a8.059 8.059 0 00.91 3.218 2.453 2.453 0 002.265 1.069 2.112 2.112 0 001.415-.525 2.062 2.062 0 00.615-1.65 2.093 2.093 0 00-.615-1.513 11.597 11.597 0 00-1.975-1.49 26.374 26.374 0 01-1.723-1.167 4.085 4.085 0 01-1.015-1.125 2.9 2.9 0 01-.413-1.557 2.634 2.634 0 01.96-2.206 3.794 3.794 0 012.425-.76c.5-.003.997.09 1.464.272zm5.584 11.319a2.78 2.78 0 01-.695-2.008 2.545 2.545 0 01.56-1.7 4.208 4.208 0 011.323-1.056c.655-.327 1.331-.61 2.024-.847a10.592 10.592 0 001.895-.803 1.119 1.119 0 00.616-.989v-1.42a2.37 2.37 0 00-.56-1.854 2.29 2.29 0 00-1.563-.495 2.744 2.744 0 00-2.265.828c.3.075.567.244.763.482.211.26.32.587.308.921a1.16 1.16 0 01-.363.908 1.337 1.337 0 01-.935.334 1.154 1.154 0 01-.96-.402 1.51 1.51 0 01-.32-.976c-.012-.327.081-.65.265-.92.219-.288.485-.537.787-.736a4.74 4.74 0 011.397-.618 6.44 6.44 0 011.846-.253 3.836 3.836 0 012.695.846c.372.341.637.784.763 1.273.145.643.211 1.3.197 1.959v6.414a1.6 1.6 0 00.16.828.614.614 0 00.541.234c.18 0 .358-.044.517-.13.184-.1.358-.22.517-.358l.252.39a5.549 5.549 0 01-1.015.654c-.337.142-.7.21-1.065.198a1.837 1.837 0 01-1.532-.55 2.35 2.35 0 01-.437-1.489 3.987 3.987 0 01-1.544 1.613 4.422 4.422 0 01-2.012.445 2.847 2.847 0 01-2.16-.723zm5.723-1.94v-4.492c-.145.22-.342.4-.573.525-.242.136-.615.32-1.12.55-.484.197-.953.43-1.402.698a3.08 3.08 0 00-.917.902c-.275.44-.41.952-.388 1.47a2.178 2.178 0 00.505 1.564 1.746 1.746 0 001.323.525c1 .004 1.858-.576 2.572-1.742zm12.356-14.792a1.765 1.765 0 01.707 1.421 1.183 1.183 0 01-.75 1.158 1.16 1.16 0 01-.48.078 1.278 1.278 0 01-.893-.334 1.173 1.173 0 01-.363-.908 1.132 1.132 0 01.265-.779c.182-.203.427-.34.695-.389a.617.617 0 00-.363-.364 1.802 1.802 0 00-.757-.137 1.726 1.726 0 00-.892.23 1.54 1.54 0 00-.615.617 3.545 3.545 0 00-.332 1.353c-.054.598-.08 1.6-.08 3.01v.617h2.461v.457h-2.461v8.904c-.031.278.01.558.118.815.107.258.278.483.497.656a3.237 3.237 0 001.846.414v.482h-.548a138.779 138.779 0 00-2.972-.068c-.426 0-1.325.03-2.695.092v-.482c.478.047.956-.08 1.348-.358a1.722 1.722 0 00.387-1.297V44.27h-1.845v-.463h1.845a14.841 14.841 0 01.253-3.12c.151-.684.466-1.32.917-1.854a3.213 3.213 0 011.162-.84 3.84 3.84 0 011.557-.31 3.156 3.156 0 011.988.625zm.861 16.732a2.778 2.778 0 01-.696-2.008 2.545 2.545 0 01.56-1.7c.379-.44.844-.798 1.366-1.05.65-.328 1.32-.613 2.006-.852a10.592 10.592 0 001.895-.804 1.119 1.119 0 00.616-.989v-1.42a2.37 2.37 0 00-.56-1.854 2.29 2.29 0 00-1.563-.495 2.74 2.74 0 00-2.265.828c.3.075.567.244.763.482.211.26.32.587.308.921a1.16 1.16 0 01-.363.908 1.337 1.337 0 01-.935.334 1.154 1.154 0 01-.96-.402 1.51 1.51 0 01-.32-.976c-.012-.327.081-.65.265-.92a3.23 3.23 0 01.787-.736 4.74 4.74 0 011.397-.618 6.445 6.445 0 011.846-.253 3.835 3.835 0 012.695.846c.372.341.637.784.763 1.273.145.643.211 1.3.197 1.959v6.414a1.6 1.6 0 00.16.828.62.62 0 00.547.253c.181 0 .358-.044.517-.13.185-.1.358-.22.517-.358l.252.39a5.515 5.515 0 01-1.015.654c-.337.142-.7.209-1.064.198a1.837 1.837 0 01-1.533-.55 2.343 2.343 0 01-.436-1.49 3.995 3.995 0 01-1.576 1.595 4.415 4.415 0 01-2.012.445 2.839 2.839 0 01-2.159-.723zm5.722-1.94v-4.492c-.145.22-.341.4-.572.525-.242.136-.616.32-1.12.55-.484.197-.953.43-1.403.698a3.083 3.083 0 00-.923.908c-.275.44-.41.953-.388 1.47-.041.568.14 1.13.505 1.564a1.742 1.742 0 001.323.525c1.021 0 1.891-.583 2.609-1.748h-.031zm8.432-9.293h3.384v.458h-3.384v8.872c-.045.525.087 1.05.376 1.49a1.318 1.318 0 001.083.457 1.547 1.547 0 001.23-.575c.413-.548.7-1.181.843-1.853l.455.117c-.381 2.109-1.372 3.165-2.971 3.17a3.774 3.774 0 01-1.28-.186 2.414 2.414 0 01-.892-.574 2.698 2.698 0 01-.696-1.236 8.015 8.015 0 01-.197-1.971V44.27h-2.196v-.464h2.19v-3.51a7.076 7.076 0 002.055-.32v3.83zm15.036-.017v.456a1.283 1.283 0 00-.812.414c-.3.351-.529.756-.677 1.193l-3.747 9.886-.776 1.996a4.096 4.096 0 01-.984 1.606 1.985 1.985 0 01-.825.458 3.5 3.5 0 01-.959.136 1.675 1.675 0 01-1.12-.365 1.23 1.23 0 01-.437-1.007 1.234 1.234 0 01.32-.884 1.173 1.173 0 01.892-.333 1.23 1.23 0 01.837.284.994.994 0 01.332.79 1.114 1.114 0 01-.615 1.033c.044.01.09.01.135 0 .82 0 1.469-.598 1.944-1.792l.8-2.052-4.134-10.028a2.614 2.614 0 00-.776-1.032 1.422 1.422 0 00-.775-.253v-.482a16.29 16.29 0 002.24.136c.763 0 1.753-.045 2.971-.136v.482a3.788 3.788 0 00-1.199.136.617.617 0 00-.376.667c.017.39.111.772.277 1.125l2.744 6.84 2.535-6.63c.141-.336.226-.693.253-1.057a.855.855 0 00-.413-.779 3.063 3.063 0 00-1.304-.32v-.458c.82.045 1.46.068 1.92.068a19.432 19.432 0 001.729-.099zm165.318-30.68l-9.119 15.263h4.479a4.635 4.635 0 002.16-.402 2.37 2.37 0 001.083-1.298c.278-.84.448-1.711.504-2.595h.524a20.024 20.024 0 00-.068 1.854c0 .873.053 1.852.16 2.935-1.128-.045-3.025-.068-5.692-.068-2.666 0-4.547.023-5.642.068v-.445l9.186-15.262h-4.454a4.637 4.637 0 00-2.16.402 2.363 2.363 0 00-1.083 1.298 10.29 10.29 0 00-.504 2.595h-.517c.045-.49.067-1.108.067-1.854 0-.873-.053-1.852-.16-2.935 1.128.045 3.026.068 5.692.068 2.588 0 4.434-.023 5.538-.068l.006.445zm11.062 5.762a1.066 1.066 0 01-.283-.804c.011-.363.088-.72.227-1.056a3.34 3.34 0 00-.935.562c-.242.223-.45.481-.615.766a3.67 3.67 0 01.523 2.04 3.331 3.331 0 01-1.096 2.718c-.83.638-1.859.96-2.904.908-.41.224-.794.494-1.144.803a1.107 1.107 0 00-.388.828c0 .49.365.736 1.095.736h2.855a4.55 4.55 0 012.572.68 2.27 2.27 0 011.015 2.032 3.33 3.33 0 01-.707 2.045 4.888 4.888 0 01-2.123 1.508 8.581 8.581 0 01-3.31.575 8.032 8.032 0 01-3.323-.618 1.944 1.944 0 01-1.335-1.804 1.785 1.785 0 01.615-1.354 4.3 4.3 0 011.748-.896l.135.365a1.435 1.435 0 00-.8.618 2.01 2.01 0 00-.295 1.081 1.781 1.781 0 00.947 1.62 4.98 4.98 0 002.548.561 6.283 6.283 0 003.07-.655 2.234 2.234 0 001.231-2.1 1.54 1.54 0 00-.585-1.286 3.45 3.45 0 00-2.067-.457h-1.655a5.621 5.621 0 01-2.16-.346 1.345 1.345 0 01-.843-1.372c.01-.497.192-.976.517-1.353a5.314 5.314 0 011.704-1.235 3.887 3.887 0 01-2.412-1.057 3.398 3.398 0 01-.904-2.533 3.33 3.33 0 011.095-2.72 4.413 4.413 0 012.904-.907 3.962 3.962 0 013.175 1.186 3.6 3.6 0 011.095-1.02 2.542 2.542 0 011.323-.401c.353-.016.698.109.96.346a1.275 1.275 0 01.363.989 1.233 1.233 0 01-.357.963c-.212.204-.494.32-.787.322a.967.967 0 01-.689-.278zm-3.692 4.003a4.82 4.82 0 00.467-2.471 4.824 4.824 0 00-.467-2.472 1.69 1.69 0 00-1.382-.722 1.676 1.676 0 00-1.381.722 4.825 4.825 0 00-.468 2.472c-.065.85.096 1.704.468 2.471a1.681 1.681 0 002.763 0zm14.969-5.575a1.668 1.668 0 01.584 1.286c.009.372-.118.734-.356 1.02a1.173 1.173 0 01-.948.426 1.225 1.225 0 01-.855-.322 1.125 1.125 0 01-.357-.87 1.432 1.432 0 01.775-1.237.545.545 0 00-.48-.228 2.287 2.287 0 00-1.624.698 4.854 4.854 0 00-1.139 1.7 5.065 5.065 0 00-.412 1.902v4.863a1.65 1.65 0 00.615 1.47 3.24 3.24 0 001.846.414v.482h-.547a139.062 139.062 0 00-2.972-.068c-.427 0-1.325.031-2.695.093v-.507c.477.048.956-.08 1.347-.358a1.705 1.705 0 00.388-1.297V19.58a2.479 2.479 0 00-.388-1.539 1.643 1.643 0 00-1.347-.482v-.482c.488.045.96.068 1.415.068a7.42 7.42 0 002.375-.321v2.867a5.425 5.425 0 011.317-2.046 2.798 2.798 0 011.975-.89 2.148 2.148 0 011.483.544zm10.45 1.008c.951 1.034 1.427 2.597 1.427 4.69 0 2.092-.476 3.653-1.427 4.683a5.364 5.364 0 01-7.519 0c-.952-1.026-1.428-2.587-1.428-4.683 0-2.097.476-3.66 1.428-4.69a5.34 5.34 0 017.519 0zm-5.932.321c-.533.94-.8 2.395-.8 4.369 0 1.973.267 3.427.8 4.362a2.395 2.395 0 002.172 1.402 2.384 2.384 0 002.172-1.402c.533-.931.8-2.385.8-4.362 0-1.978-.267-3.434-.8-4.369a2.378 2.378 0 00-4.344 0zm27.021 9.427c.392.278.87.405 1.347.358v.482a80.917 80.917 0 00-2.744-.093c-.426 0-1.28.031-2.559.093v-.476a1.564 1.564 0 001.175-.358c.263-.378.381-.839.332-1.298v-6.636a7.73 7.73 0 00-.105-1.409 1.556 1.556 0 00-.479-.883 1.67 1.67 0 00-1.151-.346 2.503 2.503 0 00-1.575.55 3.641 3.641 0 00-1.108 1.501 5.363 5.363 0 00-.4 2.101v5.116a1.726 1.726 0 00.388 1.298c.392.278.87.405 1.347.358v.482a80.917 80.917 0 00-2.744-.093c-.426 0-1.28.031-2.559.093v-.476a1.564 1.564 0 001.175-.358c.263-.378.381-.839.332-1.298v-6.636a7.73 7.73 0 00-.105-1.409 1.562 1.562 0 00-.479-.883 1.67 1.67 0 00-1.151-.346 2.503 2.503 0 00-1.575.55 3.63 3.63 0 00-1.108 1.514 5.462 5.462 0 00-.4 2.113v5.091c-.049.459.069.92.333 1.298a1.557 1.557 0 001.175.358v.482a66.381 66.381 0 00-2.56-.093c-.426 0-1.341.031-2.744.093v-.476c.477.048.956-.08 1.347-.358a1.707 1.707 0 00.388-1.298v-7.186a2.479 2.479 0 00-.388-1.538 1.643 1.643 0 00-1.347-.482v-.482c.488.045.96.068 1.415.068a7.414 7.414 0 002.375-.321v2.706a4.32 4.32 0 011.557-2.1 3.852 3.852 0 012.196-.68 3.11 3.11 0 012.375.87c.433.524.682 1.175.708 1.854a3.9 3.9 0 011.449-1.997 3.872 3.872 0 012.354-.721 3.108 3.108 0 012.375.87c.289.335.49.736.584 1.169a8.07 8.07 0 01.173 1.853v6.13a1.71 1.71 0 00.381 1.279zm3.274.281a2.763 2.763 0 01-.695-2.008 2.55 2.55 0 01.559-1.7 4.243 4.243 0 011.366-1.056 16.57 16.57 0 012.025-.828c.656-.206 1.29-.475 1.895-.803a1.115 1.115 0 00.615-.989v-1.42a2.381 2.381 0 00-.56-1.854 2.288 2.288 0 00-1.563-.495 2.74 2.74 0 00-2.264.828c.299.075.567.244.763.482.211.26.32.587.308.92a1.16 1.16 0 01-.363.91 1.34 1.34 0 01-.936.333 1.151 1.151 0 01-.959-.402 1.505 1.505 0 01-.32-.976c-.012-.328.08-.65.264-.92.22-.288.486-.537.788-.736a4.73 4.73 0 011.39-.618 6.449 6.449 0 011.846-.253 3.834 3.834 0 012.695.846c.373.34.638.783.763 1.273.146.642.212 1.3.197 1.959v6.395a1.6 1.6 0 00.16.828.617.617 0 00.548.253c.178 0 .353-.045.51-.13.185-.1.358-.22.517-.358l.252.39a5.51 5.51 0 01-1.015.654 2.54 2.54 0 01-1.064.198 1.84 1.84 0 01-1.532-.55 2.337 2.337 0 01-.437-1.49 4 4 0 01-1.575 1.595 4.427 4.427 0 01-2.012.445 2.842 2.842 0 01-2.166-.723zm5.722-1.94v-4.498c-.145.22-.341.4-.572.525-.242.136-.615.32-1.12.55-.484.197-.953.43-1.403.698a3.083 3.083 0 00-.923.908 2.56 2.56 0 00-.387 1.47 2.181 2.181 0 00.504 1.564 1.752 1.752 0 001.323.525c1.021 0 1.889-.58 2.603-1.742h-.025zm15.557 1.538a1.637 1.637 0 001.347.482v.482a14.777 14.777 0 00-1.415-.068 7.42 7.42 0 00-2.375.321v-2.045a3.247 3.247 0 01-1.23 1.57 3.596 3.596 0 01-2.012.537 4.125 4.125 0 01-3.44-1.582c-.82-1.054-1.23-2.6-1.23-4.634a7.61 7.61 0 01.695-3.405 4.849 4.849 0 011.813-2.086 4.813 4.813 0 012.654-.75 3.73 3.73 0 011.587.334c.478.217.88.572 1.157 1.02v-4.45a2.479 2.479 0 00-.388-1.538 1.642 1.642 0 00-1.347-.482v-.482c.488.046.96.068 1.415.068a7.42 7.42 0 002.375-.321v15.49a2.474 2.474 0 00.394 1.539zm-3.421-.093a3.753 3.753 0 00.984-1.952v-6.834a2.467 2.467 0 00-.975-1.337 2.452 2.452 0 00-1.597-.418 2.589 2.589 0 00-2.282 1.458c-.579.972-.86 2.392-.843 4.258.016 1.866.275 3.245.775 4.14a2.542 2.542 0 002.332 1.39 2.23 2.23 0 001.606-.705zm8.662.709h2.51a2.829 2.829 0 002.215-.883 4.718 4.718 0 00.96-2.812h.523c0 2.002.031 3.378.092 4.128a84.22 84.22 0 00-4.251-.093c-1.448 0-2.987.04-4.615.117l6.608-11.585h-2.51a2.835 2.835 0 00-2.277.859c-.585.83-.9 1.82-.904 2.836h-.523c0-2.002-.031-3.378-.093-4.127 1.202.061 2.619.092 4.252.092 1.448 0 2.986-.039 4.615-.117l-6.602 11.585zm18.044-2.407a4.562 4.562 0 01-1.545 2.169 4.226 4.226 0 01-2.732.908 5.184 5.184 0 01-2.812-.748 4.805 4.805 0 01-1.845-2.088 7.261 7.261 0 01-.616-3.09 8.617 8.617 0 01.616-3.466 5.113 5.113 0 011.802-2.261 4.724 4.724 0 012.72-.791 4 4 0 013.163 1.235c.738.824 1.107 2.091 1.107 3.8h-7.1c-.049.49-.071.98-.068 1.471-.02.904.148 1.803.492 2.638a4.211 4.211 0 001.305 1.73 2.79 2.79 0 001.704.618 3.586 3.586 0 001.944-.525 3.942 3.942 0 001.415-1.767l.45.167zm-6.307-7.89a6.2 6.2 0 00-.96 3.12h4.984a6.608 6.608 0 00-.517-2.985 1.786 1.786 0 00-1.655-1.192 2.25 2.25 0 00-1.852 1.056zm18.032-.626c.299.324.511.72.616 1.149.138.607.2 1.23.184 1.853v6.13a1.725 1.725 0 00.388 1.297c.392.278.87.405 1.347.359v.482a80.917 80.917 0 00-2.744-.093c-.426 0-1.28.03-2.559.093v-.476a1.565 1.565 0 001.175-.358c.263-.379.38-.84.332-1.298V20.13a4.227 4.227 0 00-.363-1.959 1.533 1.533 0 00-1.483-.68 2.698 2.698 0 00-1.667.55 3.55 3.55 0 00-1.132 1.502 5.412 5.412 0 00-.4 2.125v5.092c-.049.458.069.92.332 1.297a1.568 1.568 0 001.175.359v.482a66.381 66.381 0 00-2.56-.093c-.426 0-1.341.03-2.744.093v-.476c.478.047.956-.08 1.348-.358a1.721 1.721 0 00.387-1.298V19.58a2.478 2.478 0 00-.387-1.539 1.646 1.646 0 00-1.348-.482v-.482c.488.046.96.068 1.415.068a7.414 7.414 0 002.375-.32v2.706a4.249 4.249 0 011.588-2.12 4.153 4.153 0 012.295-.655 3.17 3.17 0 012.43.872zm7.332 9.132a1.708 1.708 0 00.388 1.297c.391.279.87.406 1.347.359v.481a80.602 80.602 0 00-2.763-.092c-.438 0-1.359.03-2.762.092v-.475c.477.047.956-.08 1.347-.359a1.705 1.705 0 00.388-1.297V19.58a2.479 2.479 0 00-.388-1.539 1.644 1.644 0 00-1.347-.482v-.482c.488.046.96.068 1.415.068a7.414 7.414 0 002.375-.321v9.935zm-.16-14.984a1.438 1.438 0 01-1.591 2.326 1.435 1.435 0 01-.844-1.614 1.432 1.432 0 012.435-.712zm3.988 16.559a2.78 2.78 0 01-.695-2.008 2.545 2.545 0 01.56-1.699 4.211 4.211 0 011.323-1.057 16.43 16.43 0 012.024-.828 10.599 10.599 0 001.895-.803 1.11 1.11 0 00.615-.989v-1.42a2.367 2.367 0 00-.56-1.854 2.287 2.287 0 00-1.563-.494 2.739 2.739 0 00-2.264.827c.298.09.56.274.745.526.211.259.32.586.307.92a1.163 1.163 0 01-.363.908 1.335 1.335 0 01-.935.334 1.15 1.15 0 01-.96-.401 1.516 1.516 0 01-.32-.977c-.012-.327.081-.65.265-.92.22-.288.486-.536.787-.736.428-.28.897-.488 1.391-.617a6.449 6.449 0 011.846-.254 3.834 3.834 0 012.695.847c.39.324.677.755.824 1.242.146.642.212 1.3.197 1.958v6.383a1.61 1.61 0 00.16.828.616.616 0 00.548.253c.178 0 .353-.045.51-.13.185-.1.358-.22.517-.358l.253.39a5.528 5.528 0 01-1.016.654 2.54 2.54 0 01-1.064.198 1.843 1.843 0 01-1.532-.55 2.338 2.338 0 01-.437-1.489 3.994 3.994 0 01-1.575 1.594 4.427 4.427 0 01-2.012.445 2.837 2.837 0 01-2.166-.723zm5.722-1.94v-4.498c-.144.22-.341.4-.572.525-.242.136-.615.32-1.12.55-.484.197-.953.43-1.403.698a3.097 3.097 0 00-.923.908c-.275.44-.41.953-.387 1.471a2.18 2.18 0 00.504 1.563 1.752 1.752 0 001.323.526c1.005 0 1.867-.581 2.584-1.743h-.006zm16.928-13.78c.422.16.825.367 1.2.618.227.172.494.283.775.321a.349.349 0 00.32-.24 2.77 2.77 0 00.185-.767h.523c-.078.886-.117 2.447-.117 4.684h-.523a5.95 5.95 0 00-1.065-3.133 3.111 3.111 0 00-2.682-1.273 2.78 2.78 0 00-2.006.767 2.54 2.54 0 00-.776 1.915 2.816 2.816 0 00.4 1.514 4 4 0 001.016 1.1c.41.304.996.694 1.759 1.167l.665.414c.789.477 1.55 1.001 2.277 1.57.537.43.989.955 1.335 1.55.347.625.521 1.331.504 2.046a3.953 3.953 0 01-1.372 3.225 5.257 5.257 0 01-3.47 1.137 5.862 5.862 0 01-1.797-.229 6.388 6.388 0 01-1.335-.617 1.655 1.655 0 00-.775-.322.35.35 0 00-.32.241 2.734 2.734 0 00-.185.767h-.523c.062-.824.092-2.66.092-5.506h.523a7.512 7.512 0 001.145 3.763 3.384 3.384 0 003.015 1.446 3.069 3.069 0 002.104-.766 2.885 2.885 0 00.868-2.28 3.035 3.035 0 00-.855-2.181 13.726 13.726 0 00-2.708-2.02 25.264 25.264 0 01-2.184-1.471 5.262 5.262 0 01-1.36-1.551 4.15 4.15 0 01-.523-2.12 3.601 3.601 0 011.231-2.947 5.335 5.335 0 014.651-.803l-.012-.019zm9.352 14.145a1.708 1.708 0 00.388 1.297c.391.279.87.406 1.347.359v.481a80.65 80.65 0 00-2.762-.092c-.439 0-1.36.03-2.763.092v-.475c.477.047.956-.08 1.347-.359a1.705 1.705 0 00.388-1.297V19.58a2.479 2.479 0 00-.388-1.539 1.644 1.644 0 00-1.347-.482v-.482c.488.046.96.068 1.415.068a7.414 7.414 0 002.375-.321v9.935zm-.16-14.984a1.438 1.438 0 01-1.591 2.326 1.435 1.435 0 01-.844-1.614 1.432 1.432 0 012.435-.712zm12.406 6.532c.952 1.034 1.428 2.598 1.428 4.69 0 2.093-.476 3.654-1.428 4.684a5.364 5.364 0 01-7.519 0c-.955-1.026-1.433-2.587-1.433-4.684s.476-3.66 1.427-4.69a5.34 5.34 0 017.519 0h.006zm-5.931.322c-.533.939-.8 2.395-.8 4.368 0 1.973.267 3.427.8 4.362a2.38 2.38 0 004.344 0c.533-.93.8-2.385.8-4.362 0-1.977-.261-3.433-.782-4.368a2.375 2.375 0 00-4.344 0h-.018zm5.002-7.742a1.365 1.365 0 01-.32.778c-.391.456-.828.87-1.304 1.236-.107.09-.386.346-.837.766-.451.42-.943.906-1.477 1.458l-.252-.204a39.137 39.137 0 001.575-2.774c.262-.551.569-1.08.917-1.582a1.067 1.067 0 01.868-.506.734.734 0 01.504.16.828.828 0 01.332.661l-.006.007zm9.655 6.122a3.45 3.45 0 011.028.617.766.766 0 00.412.186c.275 0 .443-.336.505-1.007h.523c-.062.75-.092 2.049-.092 3.898h-.524a5.784 5.784 0 00-.972-2.471 2.458 2.458 0 00-2.135-.989 1.944 1.944 0 00-1.347.47 1.654 1.654 0 00-.523 1.297 1.798 1.798 0 00.547 1.341c.542.492 1.131.926 1.76 1.298.135.078.341.208.615.39.586.38 1.151.793 1.692 1.235.418.346.771.764 1.04 1.236a3.09 3.09 0 01.4 1.581 2.783 2.783 0 01-1.132 2.367 4.496 4.496 0 01-2.775.846 3.678 3.678 0 01-2.744-.939.297.297 0 00-.203-.093c-.105 0-.203.08-.283.23a2.067 2.067 0 00-.197.617h-.523c.061-.873.092-2.404.092-4.59h.523a8.06 8.06 0 00.917 3.224 2.461 2.461 0 002.264 1.07 2.115 2.115 0 001.415-.526 2.05 2.05 0 00.616-1.65 2.094 2.094 0 00-.616-1.513 11.595 11.595 0 00-1.956-1.564 26.374 26.374 0 01-1.723-1.167 4.084 4.084 0 01-1.015-1.125 2.9 2.9 0 01-.413-1.557 2.645 2.645 0 01.96-2.206 3.794 3.794 0 012.425-.76c.491-.006.979.08 1.439.253zm8.363.092h3.384v.458h-3.384v8.879a2.352 2.352 0 00.375 1.489 1.334 1.334 0 001.083.457 1.55 1.55 0 001.231-.575 4.723 4.723 0 00.83-1.86l.456.118c-.382 2.109-1.372 3.165-2.972 3.17a3.775 3.775 0 01-1.28-.186 2.408 2.408 0 01-.892-.574 2.686 2.686 0 01-.695-1.236 7.918 7.918 0 01-.197-1.971V17.56h-2.197v-.458h2.197v-3.51a7.081 7.081 0 002.055-.32l.006 3.83zm12.984.198a1.668 1.668 0 01.584 1.286c.009.372-.118.734-.357 1.02a1.17 1.17 0 01-.947.426 1.225 1.225 0 01-.855-.322 1.12 1.12 0 01-.357-.871 1.432 1.432 0 01.775-1.236.546.546 0 00-.48-.228 2.289 2.289 0 00-1.624.698 4.862 4.862 0 00-1.132 1.7c-.26.6-.4 1.247-.412 1.902v4.863c-.031.277.01.558.118.815.107.258.278.483.497.656a3.237 3.237 0 001.846.414v.482h-.548a138.51 138.51 0 00-2.972-.068c-.426 0-1.324.03-2.694.092v-.506c.477.047.955-.08 1.347-.359a1.721 1.721 0 00.388-1.297V19.58a2.486 2.486 0 00-.388-1.539 1.638 1.638 0 00-1.347-.482v-.482c.488.046.959.068 1.415.068a7.421 7.421 0 002.375-.321v2.867a5.422 5.422 0 011.316-2.045 2.792 2.792 0 011.963-.89 2.15 2.15 0 011.489.544zM325.357 40.163c.422.16.825.367 1.2.618.227.172.494.283.775.321a.35.35 0 00.32-.24 2.77 2.77 0 00.185-.767h.523c-.078.886-.117 2.447-.117 4.684h-.523a5.95 5.95 0 00-1.065-3.133 3.111 3.111 0 00-2.682-1.273 2.782 2.782 0 00-2.012.748 2.54 2.54 0 00-.776 1.915 2.816 2.816 0 00.4 1.514c.267.428.611.8 1.016 1.1.41.305.996.694 1.759 1.168l.665.414c.789.477 1.55 1 2.277 1.57.536.429.989.955 1.335 1.55.347.624.521 1.33.504 2.045a3.953 3.953 0 01-1.372 3.213 5.258 5.258 0 01-3.501 1.143 5.862 5.862 0 01-1.797-.228 6.387 6.387 0 01-1.335-.618 1.65 1.65 0 00-.744-.297.349.349 0 00-.32.241c-.098.245-.16.503-.185.766h-.541c.061-.823.092-2.658.092-5.505h.523a7.52 7.52 0 001.144 3.763 3.398 3.398 0 003.015 1.446 3.07 3.07 0 002.105-.766 2.883 2.883 0 00.867-2.28 3.036 3.036 0 00-.855-2.181 13.69 13.69 0 00-2.707-2.02c-.75-.461-1.475-.96-2.172-1.496a5.262 5.262 0 01-1.36-1.551 4.15 4.15 0 01-.523-2.12 3.602 3.602 0 011.231-2.947 5.336 5.336 0 014.651-.803v.006zm11.755 4.127v.691l-3.618 3.145v-.228l-3.631 3.17v-.699l3.631-3.163v.228l3.618-3.145zm-2.56 10.003a1.708 1.708 0 00.388 1.297c.391.278.87.406 1.347.359v.482a80.78 80.78 0 00-2.763-.093c-.439 0-1.359.031-2.762.093v-.482c.477.047.955-.08 1.347-.359a1.705 1.705 0 00.388-1.297v-13.1a2.479 2.479 0 00-.388-1.538 1.64 1.64 0 00-1.347-.482v-.482c.471.046.943.068 1.415.068a7.42 7.42 0 002.375-.321v15.855zm13.266-.338a2.485 2.485 0 00.388 1.538 1.639 1.639 0 001.347.482v.482a14.777 14.777 0 00-1.415-.068 7.425 7.425 0 00-2.375.322v-2.713a4.216 4.216 0 01-1.55 2.089 3.9 3.9 0 01-2.197.667 3.105 3.105 0 01-2.375-.871 2.656 2.656 0 01-.585-1.168 8.126 8.126 0 01-.172-1.854v-5.746a2.472 2.472 0 00-.388-1.539 1.632 1.632 0 00-1.316-.47v-.494c.471.046.943.068 1.415.068a7.42 7.42 0 002.375-.32v9.02a7.73 7.73 0 00.105 1.409c.057.34.226.65.479.884.329.256.742.38 1.157.346a2.503 2.503 0 001.575-.55 3.641 3.641 0 001.108-1.502 5.36 5.36 0 00.4-2.1v-4.752a2.479 2.479 0 00-.388-1.539 1.637 1.637 0 00-1.347-.482v-.482c.471.046.943.068 1.415.068a7.42 7.42 0 002.375-.32l-.031 9.595zm5.666 2.128h2.51a2.83 2.83 0 002.215-.883 4.718 4.718 0 00.96-2.812h.523c0 2.002.031 3.378.092 4.128a84.191 84.191 0 00-4.251-.093c-1.448 0-2.987.04-4.615.118l6.602-11.586h-2.498a2.835 2.835 0 00-2.277.86 4.958 4.958 0 00-.904 2.835h-.511c0-2.002-.031-3.378-.092-4.127 1.202.061 2.619.092 4.252.092 1.448 0 2.986-.039 4.614-.117l-6.62 11.585zm3.384-16.769a1.444 1.444 0 01-.63 2.383 1.435 1.435 0 01-1.805-1.671 1.432 1.432 0 012.435-.712zm14.66 14.362a4.556 4.556 0 01-1.545 2.168 4.226 4.226 0 01-2.732.909 5.179 5.179 0 01-2.811-.748 4.8 4.8 0 01-1.846-2.088 7.261 7.261 0 01-.616-3.09 8.617 8.617 0 01.616-3.466 5.113 5.113 0 011.852-2.255 4.723 4.723 0 012.719-.791 3.995 3.995 0 013.163 1.236c.738.823 1.107 2.09 1.107 3.8h-7.168c-.048.488-.071.98-.067 1.47a6.54 6.54 0 00.492 2.639 4.218 4.218 0 001.304 1.73c.484.39 1.084.607 1.705.617a3.588 3.588 0 001.944-.525 3.955 3.955 0 001.415-1.767l.468.16zm-6.307-7.89a6.198 6.198 0 00-.954 3.12h4.984a6.608 6.608 0 00-.517-2.985 1.784 1.784 0 00-1.655-1.192 2.25 2.25 0 00-1.858 1.056zm17.861.109c.8 1.07 1.21 2.615 1.23 4.634a7.65 7.65 0 01-.683 3.398 4.93 4.93 0 01-1.845 2.113 4.812 4.812 0 01-2.572.711 4.11 4.11 0 01-3.015-1.328l-1.625 1.377-.387-.16a4.96 4.96 0 00.159-1.329V41.217a2.478 2.478 0 00-.387-1.538 1.648 1.648 0 00-1.348-.482v-.482c.489.045.96.068 1.416.068a7.427 7.427 0 002.375-.321v8.285a4.053 4.053 0 011.452-1.81 3.68 3.68 0 012.116-.618 3.738 3.738 0 013.114 1.576zm-1.785 8.934c.509-.926.763-2.368.763-4.325a9.749 9.749 0 00-.683-4.164 2.23 2.23 0 00-2.104-1.378 2.531 2.531 0 00-1.754.76 4.202 4.202 0 00-1.144 2.1v7.28c.347.364.766.65 1.231.84.446.187.925.284 1.409.284a2.455 2.455 0 002.289-1.39l-.007-.007zm14.826-9.664c.298.325.51.72.615 1.15.138.607.2 1.23.185 1.853v6.13a1.707 1.707 0 00.387 1.297c.392.278.87.405 1.348.359v.481a81.263 81.263 0 00-2.744-.092c-.427 0-1.28.03-2.56.092v-.481a1.572 1.572 0 001.175-.359c.263-.378.381-.839.332-1.297v-6.636a4.214 4.214 0 00-.363-1.959 1.527 1.527 0 00-1.483-.68 2.7 2.7 0 00-1.667.55 3.55 3.55 0 00-1.132 1.502 5.412 5.412 0 00-.4 2.125v5.091c-.049.46.069.92.332 1.298a1.568 1.568 0 001.175.358v.482a66.352 66.352 0 00-2.559-.092c-.427 0-1.342.03-2.744.092v-.482c.477.048.955-.08 1.347-.358a1.722 1.722 0 00.388-1.297v-7.18a2.485 2.485 0 00-.388-1.539 1.64 1.64 0 00-1.347-.482v-.482c.488.046.959.068 1.415.068a7.417 7.417 0 002.375-.321v2.706a4.24 4.24 0 011.587-2.119 4.153 4.153 0 012.295-.655 3.168 3.168 0 012.431.877zm7.331 9.133a1.725 1.725 0 00.388 1.297c.392.279.87.406 1.347.359v.482a80.492 80.492 0 00-2.762-.093c-.439 0-1.36.03-2.763.093v-.482c.478.047.956-.08 1.348-.359a1.722 1.722 0 00.387-1.297v-7.186a2.478 2.478 0 00-.387-1.539 1.645 1.645 0 00-1.348-.482v-.482c.488.046.96.068 1.415.068a7.414 7.414 0 002.375-.321v9.942zm-.16-14.984a1.446 1.446 0 01.152 1.816 1.428 1.428 0 01-2.451-.146 1.446 1.446 0 01.364-1.785 1.428 1.428 0 011.935.115zm11.418 5.711a2.07 2.07 0 011.076 1.767 1.262 1.262 0 01-.344.94 1.182 1.182 0 01-.868.345c-.325.01-.642-.1-.892-.309a1.045 1.045 0 01-.363-.84c-.008-.296.09-.586.277-.816a1.34 1.34 0 01.683-.445 1.727 1.727 0 00-.8-.685 2.877 2.877 0 00-1.23-.279 2.605 2.605 0 00-1.575.538 3.887 3.887 0 00-1.231 1.792 9.37 9.37 0 00-.48 3.293c0 1.9.306 3.28.917 4.14a2.78 2.78 0 002.375 1.297 3.358 3.358 0 001.846-.574 4.196 4.196 0 001.452-1.792l.436.16a4.775 4.775 0 01-1.452 2.25 3.998 3.998 0 01-2.75.94 4.695 4.695 0 01-2.572-.736 4.974 4.974 0 01-1.845-2.126 7.39 7.39 0 01-.622-3.219 7.74 7.74 0 01.677-3.306 5.396 5.396 0 011.883-2.255 4.836 4.836 0 012.762-.815 4.725 4.725 0 012.64.735zm23.087-4.383c-.407.003-.81.085-1.187.24a1.015 1.015 0 00-.523.619 4.786 4.786 0 00-.136 1.322V56.54h-.523l-9.598-14.891v12.104a4.41 4.41 0 00.147 1.329 1.03 1.03 0 00.585.618c.432.157.888.24 1.347.24v.458a30.481 30.481 0 00-2.332-.068c-.914 0-1.622.023-2.122.068v-.457c.407-.004.81-.086 1.187-.241a1.01 1.01 0 00.523-.618c.106-.432.152-.877.135-1.322V42.63a4.152 4.152 0 00-.135-1.235.833.833 0 00-.511-.526 4.543 4.543 0 00-1.23-.185v-.525c.504.045 1.212.068 2.123.068.685 0 1.279-.023 1.784-.068L435.4 52.64v-9.793a4.441 4.441 0 00-.148-1.329 1.044 1.044 0 00-.585-.618 3.99 3.99 0 00-1.347-.24v-.501c.549.045 1.327.068 2.332.068.915 0 1.622-.023 2.123-.068l.024.482zm5.765 9.225v4.127c-.021.42.042.84.184 1.236a.993.993 0 00.616.525c.486.117.983.179 1.483.186v.457a63.246 63.246 0 00-3.36-.068c-1.308 0-2.283.023-2.923.068v-.457a4.55 4.55 0 001.231-.186.826.826 0 00.511-.525 4.19 4.19 0 00.135-1.236V42.631a4.185 4.185 0 00-.135-1.235.833.833 0 00-.511-.526 4.55 4.55 0 00-1.231-.185v-.525c.64.045 1.569.068 2.788.068h3.445c1.781 0 3.145.412 4.092 1.236a4.12 4.12 0 011.415 3.293 5.494 5.494 0 01-.56 2.422 4.567 4.567 0 01-1.895 1.94 7.019 7.019 0 01-3.55.779l-1.735-.031zm.615-9.064a.906.906 0 00-.492.574 4.19 4.19 0 00-.135 1.236v6.815h1.532c1.493 0 2.518-.401 3.076-1.205a5.45 5.45 0 00.855-3.225c0-1.483-.293-2.577-.879-3.281-.587-.704-1.557-1.057-2.911-1.057-.349-.028-.7.012-1.034.118l-.012.025zm25.571.024a.812.812 0 00-.517.525c-.107.403-.152.82-.135 1.236v11.406c-.017.417.028.833.135 1.236a.827.827 0 00.517.525c.39.115.793.178 1.2.186v.457a47.807 47.807 0 00-2.904-.068c-1.309 0-2.283.023-2.923.068v-.457a4.546 4.546 0 001.231-.186.83.83 0 00.51-.525c.107-.403.153-.82.136-1.236V41.698l-5.507 14.83h-.363l-5.796-14.879v12.104a4.41 4.41 0 00.147 1.329 1.032 1.032 0 00.585.618c.432.157.888.239 1.347.24v.458a30.481 30.481 0 00-2.332-.068c-.914 0-1.622.023-2.123.068v-.457a3.177 3.177 0 001.188-.241 1.01 1.01 0 00.523-.618c.106-.432.152-.877.135-1.322V42.63a4.152 4.152 0 00-.135-1.235.833.833 0 00-.511-.526 4.58 4.58 0 00-1.23-.185v-.525c.504.045 1.212.068 2.122.068.792 0 1.44-.023 1.945-.068l5.027 13.284 4.922-13.216h1.077c1.231 0 2.199-.023 2.904-.068v.457a4.545 4.545 0 00-1.175.21z" fill="#fff"/></svg>