<svg width="52" height="52" fill="none" xmlns="http://www.w3.org/2000/svg"><path d="M30.063 11.104V8.396h-2.709V5.687h-2.708v2.709h-2.709v2.708h2.709v2.709h2.708v-2.709h2.709z" fill="#803400"/><path fill-rule="evenodd" clip-rule="evenodd" d="M35.912 16.205l2.678-7.591c.726-2.058-.309-4.388-2.477-5.074C33.596 2.74 29.48 1.625 26 1.625c-3.48 0-7.597 1.116-10.116 1.915-2.166.688-3.2 3.017-2.475 5.074l2.68 7.591a10.834 10.834 0 1019.824 0zM25.999 4.333c-3.033 0-6.81 1-9.296 1.788-.623.198-.989.89-.741 1.592l2.74 7.765c4.858-1.544 9.736-1.544 14.593 0l2.741-7.765c.248-.701-.118-1.394-.74-1.59-2.487-.79-6.265-1.79-9.297-1.79zm7.862 14.193h-.001a1.36 1.36 0 01-.211-.06c-5.11-1.917-10.189-1.917-15.3 0-.069.025-.14.046-.212.06a8.125 8.125 0 1015.726 0h-.002z" fill="#803400"/><path d="M39.542 39.542h2.708v2.708h-2.708v2.709h-2.709V42.25h-2.708v-2.708h2.708v-2.709h2.709v2.709z" fill="#803400"/><path fill-rule="evenodd" clip-rule="evenodd" d="M16.357 31.416S1.625 36.011 1.625 41.529v8.847h48.75v-8.847c0-5.517-14.732-10.111-14.732-10.111l-8.087 5.677a2.708 2.708 0 01-3.112 0l-8.087-5.678zm19.72 3.007l-6.964 4.888a5.416 5.416 0 01-6.226 0l-6.963-4.888a51.16 51.16 0 00-5.724 2.405c-1.755.874-3.361 1.845-4.49 2.833-1.22 1.065-1.377 1.7-1.377 1.867v6.139h43.334v-6.139c0-.168-.156-.802-1.376-1.869-1.13-.986-2.736-1.956-4.492-2.833a51.19 51.19 0 00-4.803-2.069 61.09 61.09 0 00-.92-.336v.002z" fill="#803400"/></svg>