<svg width="85" height="66" fill="none" xmlns="http://www.w3.org/2000/svg"><path d="M7.578 59.553C2.728 54.403.125 48.625.125 39.26.125 22.781 11.693 8.011 28.516.708l4.205 6.489C17.019 15.69 13.949 26.713 12.725 33.662c2.528-1.309 5.838-1.765 9.082-1.464 8.494.786 15.189 7.76 15.189 16.427a16.479 16.479 0 01-16.48 16.48 18.228 18.228 0 01-12.938-5.552zm47.084 0c-4.85-5.15-7.454-10.928-7.454-20.293C47.208 22.781 58.777 8.011 75.6.708l4.204 6.489C64.102 15.69 61.032 26.713 59.808 33.662c2.528-1.309 5.838-1.765 9.082-1.464 8.494.786 15.19 7.76 15.19 16.427a16.48 16.48 0 01-16.48 16.48 18.228 18.228 0 01-12.938-5.552z" fill="#8E6C53"/></svg>