<svg width="48" height="48" fill="none" xmlns="http://www.w3.org/2000/svg"><g clip-path="url(#clip0_390_896)" fill-rule="evenodd" clip-rule="evenodd" fill="#803400"><path d="M0 0v37.333h29.85v-2.666H2.666v-32h36v2.826h2.666V0H0zm41.333 13.333a2.667 2.667 0 11-5.333 0 2.667 2.667 0 015.333 0zm2.667 0a5.333 5.333 0 11-10.667 0 5.333 5.333 0 0110.667 0z"/><path d="M32.126 21.107A4 4 0 0134.886 20h5.442c1.953 0 3.77.664 5.17 1.987 1.347 1.272 2.048 2.902 2.335 4.448.45 2.429-.017 5.084-1.164 7.437v10.795a3.333 3.333 0 01-6.622.548l-.712-4.272-.712 4.272a3.333 3.333 0 01-6.621-.548V32.124a4 4 0 01-2 .536h-6.803a4 4 0 110-8h5.2l3.727-3.555v.002zm2.543 15.526v8.034a.666.666 0 001.324.109l1.39-8.341a1.333 1.333 0 011.315-1.115h1.275a1.333 1.333 0 011.314 1.115l1.39 8.341a.666.666 0 001.325-.11v-11.11c0-.214.051-.424.15-.614 1.029-1.986 1.403-4.164 1.06-6.02-.21-1.128-.7-2.197-1.545-2.996-.862-.814-2.007-1.258-3.339-1.258h-5.44c-.343 0-.674.132-.922.368l-4.112 3.922c-.248.237-.577.37-.92.37h-5.735a1.333 1.333 0 100 2.666h6.803c.343 0 .672-.132.92-.369l1.493-1.424a1.333 1.333 0 012.254.965v7.47-.002z"/></g><defs><clipPath id="clip0_390_896"><path fill="#fff" d="M0 0h48v48H0z"/></clipPath></defs></svg>