<svg width="10" height="16" viewBox="0 0 10 16" fill="none" xmlns="http://www.w3.org/2000/svg">
<path d="M3.10091 0.683273C2.53017 0.0828093 1.58073 0.0587075 0.98027 0.62944C0.379806 1.20017 0.355705 2.14961 0.926437 2.75008L3.10091 0.683273ZM7.98589 8.00001L9.07313 9.03341C9.62348 8.45439 9.62348 7.54563 9.07313 6.96661L7.98589 8.00001ZM0.926437 13.2499C0.355705 13.8504 0.379806 14.7998 0.98027 15.3706C1.58073 15.9413 2.53017 15.9172 3.10091 15.3167L0.926437 13.2499ZM0.926437 2.75008L6.89866 9.03341L9.07313 6.96661L3.10091 0.683273L0.926437 2.75008ZM6.89866 6.96661L0.926437 13.2499L3.10091 15.3167L9.07313 9.03341L6.89866 6.96661Z" fill="#CC5600"/>
</svg>
