<svg width="14" height="24" viewBox="0 0 14 24" fill="none" xmlns="http://www.w3.org/2000/svg">
<path d="M3.4372 0.609157C2.66906 -0.184589 1.4029 -0.205346 0.609157 0.562796C-0.184589 1.33094 -0.205346 2.5971 0.562796 3.39084L3.4372 0.609157ZM11.6774 12L13.1146 13.3908C13.865 12.6154 13.865 11.3846 13.1146 10.6092L11.6774 12ZM0.562796 20.6092C-0.205346 21.4029 -0.184589 22.6691 0.609157 23.4372C1.4029 24.2053 2.66906 24.1846 3.4372 23.3908L0.562796 20.6092ZM0.562796 3.39084L10.2402 13.3908L13.1146 10.6092L3.4372 0.609157L0.562796 3.39084ZM10.2402 10.6092L0.562796 20.6092L3.4372 23.3908L13.1146 13.3908L10.2402 10.6092Z" fill="#CC5600"/>
</svg>
