<svg width="50" height="50" viewBox="0 0 50 50" fill="none" xmlns="http://www.w3.org/2000/svg">
<path d="M46.875 42.9688H46.0938V40.625C46.0938 40.4178 46.0114 40.2191 45.8649 40.0726C45.7184 39.9261 45.5197 39.8438 45.3125 39.8438H44.5312V25C44.5318 24.8623 44.496 24.727 44.4274 24.6076C44.3588 24.4883 44.2598 24.3891 44.1406 24.3203L33.5938 18.2969V15.625C33.5974 15.5886 33.5974 15.552 33.5938 15.5156C33.5982 15.4584 33.5982 15.401 33.5938 15.3438C33.57 15.2899 33.5384 15.2399 33.5 15.1953C33.4865 15.1615 33.4681 15.1299 33.4453 15.1016L25.7812 6.72656V5.46875H26.5625C26.7697 5.46875 26.9684 5.38644 27.1149 5.23993C27.2614 5.09341 27.3438 4.8947 27.3438 4.6875C27.3438 4.4803 27.2614 4.28159 27.1149 4.13507C26.9684 3.98856 26.7697 3.90625 26.5625 3.90625H25.7812V3.125C25.7812 2.9178 25.6989 2.71909 25.5524 2.57257C25.4059 2.42606 25.2072 2.34375 25 2.34375C24.7928 2.34375 24.5941 2.42606 24.4476 2.57257C24.3011 2.71909 24.2188 2.9178 24.2188 3.125V3.90625H23.4375C23.2303 3.90625 23.0316 3.98856 22.8851 4.13507C22.7386 4.28159 22.6562 4.4803 22.6562 4.6875C22.6562 4.8947 22.7386 5.09341 22.8851 5.23993C23.0316 5.38644 23.2303 5.46875 23.4375 5.46875H24.2188V6.72656L16.6094 15.1016C16.5866 15.1299 16.5682 15.1615 16.5547 15.1953C16.5163 15.2399 16.4847 15.2899 16.4609 15.3438C16.4565 15.401 16.4565 15.4584 16.4609 15.5156C16.4387 15.5499 16.4203 15.5866 16.4062 15.625V18.2969L5.85938 24.3203C5.74015 24.3891 5.64124 24.4883 5.57264 24.6076C5.50404 24.727 5.4682 24.8623 5.46875 25V39.8438H4.6875C4.4803 39.8438 4.28159 39.9261 4.13507 40.0726C3.98856 40.2191 3.90625 40.4178 3.90625 40.625V42.9688H3.125C2.9178 42.9688 2.71909 43.0511 2.57257 43.1976C2.42606 43.3441 2.34375 43.5428 2.34375 43.75V46.875C2.34375 47.0822 2.42606 47.2809 2.57257 47.4274C2.71909 47.5739 2.9178 47.6562 3.125 47.6562H46.875C47.0822 47.6562 47.2809 47.5739 47.4274 47.4274C47.5739 47.2809 47.6562 47.0822 47.6562 46.875V43.75C47.6562 43.5428 47.5739 43.3441 47.4274 43.1976C47.2809 43.0511 47.0822 42.9688 46.875 42.9688ZM42.9688 25.4531V39.8438H33.5938V20.0938L42.9688 25.4531ZM29.6875 39.8438V28.7031C29.6875 27.4599 29.1936 26.2676 28.3146 25.3886C27.4355 24.5095 26.2432 24.0156 25 24.0156C23.7568 24.0156 22.5645 24.5095 21.6854 25.3886C20.8064 26.2676 20.3125 27.4599 20.3125 28.7031V39.8438H17.9688V16.4062H32.0312V39.8438H29.6875ZM28.125 39.8438H21.875V28.7031C21.875 27.8743 22.2042 27.0795 22.7903 26.4934C23.3763 25.9074 24.1712 25.5781 25 25.5781C25.8288 25.5781 26.6237 25.9074 27.2097 26.4934C27.7958 27.0795 28.125 27.8743 28.125 28.7031V39.8438ZM25 8.19531L31.0469 14.8438H18.9531L25 8.19531ZM7.03125 25.4531L16.4062 20.0938V39.8438H7.03125V25.4531ZM5.46875 41.4062H44.5312V42.9688H5.46875V41.4062ZM46.0938 46.0938H3.90625V44.5312H46.0938V46.0938Z" fill="#803400"/>
<path d="M25 17.9688C24.5365 17.9688 24.0833 18.1062 23.6979 18.3637C23.3125 18.6213 23.0121 18.9873 22.8347 19.4156C22.6573 19.8439 22.6109 20.3151 22.7013 20.7697C22.7917 21.2244 23.0149 21.642 23.3427 21.9698C23.6705 22.2976 24.0881 22.5208 24.5428 22.6112C24.9974 22.7017 25.4687 22.6552 25.8969 22.4778C26.3252 22.3005 26.6912 22 26.9488 21.6146C27.2063 21.2292 27.3438 20.7761 27.3438 20.3125C27.3438 19.6909 27.0968 19.0948 26.6573 18.6552C26.2177 18.2157 25.6216 17.9688 25 17.9688ZM25 21.0938C24.8455 21.0938 24.6944 21.0479 24.566 20.9621C24.4375 20.8762 24.3374 20.7542 24.2782 20.6115C24.2191 20.4687 24.2036 20.3116 24.2338 20.1601C24.2639 20.0085 24.3383 19.8693 24.4476 19.7601C24.5568 19.6508 24.696 19.5764 24.8476 19.5463C24.9991 19.5161 25.1562 19.5316 25.299 19.5907C25.4417 19.6499 25.5637 19.75 25.6496 19.8785C25.7354 20.0069 25.7813 20.158 25.7813 20.3125C25.7813 20.5197 25.6989 20.7184 25.5524 20.8649C25.4059 21.0114 25.2072 21.0938 25 21.0938Z" fill="#803400"/>
<path d="M35.9375 28.9062H40.625C40.8322 28.9062 41.0309 28.8239 41.1774 28.6774C41.3239 28.5309 41.4062 28.3322 41.4062 28.125V27.3438C41.4062 26.5149 41.077 25.7201 40.491 25.134C39.9049 24.548 39.1101 24.2188 38.2812 24.2188C37.4524 24.2188 36.6576 24.548 36.0715 25.134C35.4855 25.7201 35.1562 26.5149 35.1562 27.3438V28.125C35.1562 28.3322 35.2386 28.5309 35.3851 28.6774C35.5316 28.8239 35.7303 28.9062 35.9375 28.9062ZM38.2812 25.7812C38.6957 25.7812 39.0931 25.9459 39.3861 26.2389C39.6791 26.5319 39.8438 26.9293 39.8438 27.3438H36.7188C36.7188 26.9293 36.8834 26.5319 37.1764 26.2389C37.4694 25.9459 37.8668 25.7812 38.2812 25.7812Z" fill="#803400"/>
<path d="M11.7188 24.2188C10.8899 24.2188 10.0951 24.548 9.50904 25.134C8.92299 25.7201 8.59375 26.5149 8.59375 27.3438V28.125C8.59375 28.3322 8.67606 28.5309 8.82257 28.6774C8.96909 28.8239 9.1678 28.9062 9.375 28.9062H14.0625C14.2697 28.9062 14.4684 28.8239 14.6149 28.6774C14.7614 28.5309 14.8438 28.3322 14.8438 28.125V27.3438C14.8438 26.5149 14.5145 25.7201 13.9285 25.134C13.3424 24.548 12.5476 24.2188 11.7188 24.2188ZM10.1562 27.3438C10.1562 26.9293 10.3209 26.5319 10.6139 26.2389C10.9069 25.9459 11.3043 25.7812 11.7188 25.7812C12.1332 25.7812 12.5306 25.9459 12.8236 26.2389C13.1166 26.5319 13.2812 26.9293 13.2812 27.3438H10.1562Z" fill="#803400"/>
<path d="M14.0625 30.4688H9.375C9.1678 30.4688 8.96909 30.5511 8.82257 30.6976C8.67606 30.8441 8.59375 31.0428 8.59375 31.25V37.5C8.59375 37.7072 8.67606 37.9059 8.82257 38.0524C8.96909 38.1989 9.1678 38.2812 9.375 38.2812H14.0625C14.2697 38.2812 14.4684 38.1989 14.6149 38.0524C14.7614 37.9059 14.8438 37.7072 14.8438 37.5V31.25C14.8438 31.0428 14.7614 30.8441 14.6149 30.6976C14.4684 30.5511 14.2697 30.4688 14.0625 30.4688ZM13.2812 36.7188H10.1562V32.0312H13.2812V36.7188Z" fill="#803400"/>
<path d="M35.9375 38.2812H40.625C40.8322 38.2812 41.0309 38.1989 41.1774 38.0524C41.3239 37.9059 41.4062 37.7072 41.4062 37.5V31.25C41.4062 31.0428 41.3239 30.8441 41.1774 30.6976C41.0309 30.5511 40.8322 30.4688 40.625 30.4688H35.9375C35.7303 30.4688 35.5316 30.5511 35.3851 30.6976C35.2386 30.8441 35.1562 31.0428 35.1562 31.25V37.5C35.1562 37.7072 35.2386 37.9059 35.3851 38.0524C35.5316 38.1989 35.7303 38.2812 35.9375 38.2812ZM36.7188 32.0312H39.8438V36.7188H36.7188V32.0312Z" fill="#803400"/>
</svg>
