<svg width="26" height="21" viewBox="0 0 26 21" fill="none" xmlns="http://www.w3.org/2000/svg">
<path d="M25.5056 3.62277C25.8181 3.93527 25.9743 4.31473 25.9743 4.76116C25.9743 5.20759 25.8181 5.58705 25.5056 5.89955L13.385 18.0201L11.1083 20.2969C10.7958 20.6094 10.4163 20.7656 9.96987 20.7656C9.52344 20.7656 9.14397 20.6094 8.83147 20.2969L6.55469 18.0201L0.49442 11.9598C0.18192 11.6473 0.0256697 11.2679 0.0256697 10.8214C0.0256697 10.375 0.18192 9.99554 0.49442 9.68304L2.77121 7.40625C3.08371 7.09375 3.46317 6.9375 3.9096 6.9375C4.35603 6.9375 4.73549 7.09375 5.04799 7.40625L9.96987 12.3449L20.952 1.34598C21.2645 1.03348 21.644 0.877231 22.0904 0.877231C22.5368 0.877231 22.9163 1.03348 23.2288 1.34598L25.5056 3.62277Z" fill="#CC5600"/>
</svg>
