<svg width="45" height="50" viewBox="0 0 45 50" fill="none" xmlns="http://www.w3.org/2000/svg">
<path fill-rule="evenodd" clip-rule="evenodd" d="M18.0895 0.19424C17.1333 0.42929 16.028 0.935853 15.2321 1.50368C14.4221 2.0817 13.3577 3.2344 12.8841 4.04659C12.6477 4.452 12.424 4.71792 12.296 4.74596C9.77914 5.29731 8.90579 5.61656 8.21544 6.23712C7.95206 6.47394 7.69045 6.81583 7.6282 7.00442C7.23799 8.18672 8.43794 9.17613 11.028 9.80786L11.9046 10.0216L12.0884 10.6677C12.1894 11.023 12.4471 11.6563 12.661 12.075C12.8749 12.4937 13.0322 12.8498 13.0106 12.8663C12.9891 12.8828 12.5744 13.1768 12.0893 13.5197C9.964 15.0214 8.63447 16.1216 6.95413 17.7688C4.46944 20.2045 2.50415 22.7409 0.79117 25.7226C0.14346 26.85 -0.0591461 27.6182 0.0142703 28.6673C0.112289 30.0664 0.652081 31.084 1.66491 31.7793C2.56894 32.3998 2.80811 32.4346 6.17654 32.4358L9.18357 32.4369L9.21513 33.9161C9.24542 35.3339 9.2563 35.4029 9.47812 35.5824C9.8207 35.8594 10.3144 35.8271 10.5628 35.5112C10.747 35.2772 10.766 35.121 10.766 33.8449V32.4369H12.7717C15.2252 32.4369 15.5882 32.3415 16.4621 31.4677C17.1952 30.7346 17.4627 30.0427 17.4139 29.0062C17.3547 27.7521 16.7278 26.8009 15.5916 26.2413L14.9363 25.9186L10.068 25.8899L5.19968 25.8611L4.93836 26.0859C4.59461 26.3816 4.57236 26.8603 4.8869 27.1951L5.11509 27.4379H9.73003C12.4516 27.4379 14.4825 27.4773 14.68 27.5339C15.0566 27.642 15.5172 28.0404 15.7247 28.4377C16.0931 29.143 15.7478 30.2366 15.0279 30.6444L14.6378 30.8653L8.97401 30.867C2.79194 30.8688 2.91319 30.879 2.30282 30.2998C1.68971 29.7178 1.43173 28.7121 1.64188 27.7236C1.8586 26.7042 3.8083 23.6506 5.61077 21.5077C7.77719 18.9321 9.82619 17.0562 12.7383 14.9821L13.9755 14.1009L19.5165 14.1056C25.6573 14.1109 25.8189 14.1252 27.1003 14.7788C28.0838 15.2806 28.7684 15.9444 30.7027 18.2721C31.7326 19.5116 32.6855 20.5806 32.8203 20.6477C33.0049 20.7395 34.1616 20.77 37.5039 20.7711C42.3635 20.7727 42.3569 20.772 42.8447 21.3518C43.5923 22.2403 43.353 23.4664 42.3311 23.9827C41.8952 24.203 41.8873 24.2033 36.8354 24.2033H31.7762L29.1039 21.3852C27.634 19.8353 26.3006 18.5109 26.1405 18.442C25.78 18.287 25.3917 18.4404 25.2036 18.8122C25.1068 19.0037 25.0793 20.8086 25.0783 27.0752C25.0767 35.5797 25.0745 35.5368 25.5223 35.7086C25.8475 35.8334 26.2229 35.7652 26.4313 35.5434L26.6438 35.3172L26.6689 28.2223L26.6941 21.1274L28.7908 23.327C29.944 24.5367 30.9806 25.5801 31.0943 25.6456C31.2428 25.7311 32.0865 25.7656 34.0894 25.7681L36.8778 25.7716L36.4542 26.1881C35.4925 27.1337 35.1728 27.9735 35.1728 29.5535C35.1728 30.6303 35.1793 30.6634 35.4311 30.8614C35.7827 31.1381 36.1645 31.1203 36.4525 30.8138C36.6641 30.5885 36.6934 30.4509 36.7402 29.4655C36.7862 28.4968 36.824 28.314 37.063 27.9063C38.0945 26.1461 40.7175 26.2723 41.5829 28.124C41.7828 28.5517 41.79 28.7184 41.817 33.6104C41.8447 38.6115 41.8468 38.6577 42.0546 38.879C42.3604 39.2044 42.9333 39.187 43.2032 38.8439C43.4028 38.5903 43.4064 38.496 43.4052 33.6244C43.4039 28.2512 43.3936 28.1283 42.8611 27.1499C42.7104 26.8729 42.3931 26.4675 42.1561 26.249C41.919 26.0305 41.7396 25.84 41.7571 25.8256C41.7747 25.8112 42.1038 25.7051 42.4884 25.59C44.1449 25.0942 45.1498 23.3722 44.7354 21.7393C44.4489 20.6102 43.7351 19.8141 42.6337 19.3956C42.1618 19.2163 41.8577 19.2043 37.8213 19.2043H33.5124L31.811 17.1704C29.5952 14.5216 28.8045 13.8073 27.4364 13.2188C27.1629 13.1012 26.9392 12.9917 26.9392 12.9756C26.9392 12.9596 27.1301 12.5791 27.3634 12.13C27.5968 11.6811 27.8699 11.023 27.9703 10.6677L28.153 10.0216L29.0296 9.80786C31.6074 9.17917 32.8208 8.19045 32.438 7.03059C32.1512 6.16155 31.0724 5.54128 28.9289 5.01296L27.537 4.66989L27.1646 4.02444C26.6785 3.18216 25.5171 1.96692 24.633 1.37547C23.7815 0.805977 22.688 0.338034 21.7449 0.139741C20.764 -0.0666873 19.0468 -0.0410063 18.0895 0.19424ZM21.6845 1.75412C23.1257 2.12277 24.4941 3.02719 25.3654 4.18715C25.6369 4.54864 25.8595 4.87446 25.86 4.91102C25.8613 5.00424 24.925 5.26605 23.7071 5.51305C22.8047 5.69606 22.3434 5.72223 20.0288 5.72223C17.7142 5.72223 17.2529 5.69606 16.3505 5.51305C15.21 5.28173 14.1967 5.00561 14.1967 4.92612C14.1967 4.89789 14.2939 4.73557 14.4128 4.5655C15.4193 3.12599 16.7537 2.17325 18.35 1.7548C19.3085 1.50348 20.7035 1.50319 21.6845 1.75412ZM13.3102 6.3125C14.4375 6.89542 17.3589 7.34396 20.0288 7.34396C22.7028 7.34396 25.6201 6.89552 26.7513 6.31054C27.0143 6.17449 27.1336 6.18811 28.3839 6.49668C29.7274 6.82818 30.8599 7.25201 30.8599 7.42315C30.8599 7.69869 28.6506 8.37571 26.8411 8.65457C24.524 9.01185 23.7248 9.05929 20.0288 9.05929C16.3328 9.05929 15.5336 9.01185 13.2165 8.65457C11.4484 8.38208 9.19769 7.69937 9.19769 7.4357C9.19769 7.26966 10.3842 6.80955 11.5992 6.50452C13.136 6.11862 12.9709 6.13714 13.3102 6.3125ZM20.0288 10.6655C21.8458 10.6655 23.3779 10.6092 24.5622 10.4988C26.1477 10.3511 26.3508 10.3489 26.3489 10.4799C26.3456 10.706 26.0062 11.4053 25.6102 12.0019L25.2538 12.539H20.0721H14.8904L14.683 12.3184C14.392 12.0089 13.8177 10.9629 13.7483 10.6157L13.6902 10.3254L15.4873 10.4955C16.6978 10.6101 18.18 10.6655 20.0288 10.6655ZM12.2853 37.5342C11.3988 37.659 10.209 38.0703 9.45538 38.5123C7.70662 39.538 4.06364 41.9101 3.93425 42.1075C3.74841 42.3912 3.84633 42.873 4.13029 43.0718C4.57716 43.3848 4.82015 43.2768 7.52009 41.5645C8.95489 40.6546 10.3053 39.8216 10.5209 39.7136C12.0202 38.9622 13.8386 38.8566 15.4035 39.4301C15.737 39.5524 17.0245 40.1913 18.2645 40.8498C20.0137 41.7788 20.5738 42.0338 20.764 41.988C20.8987 41.9556 21.8352 41.4025 22.8449 40.759C23.8547 40.1154 24.7949 39.5455 24.9342 39.4926C26.2941 38.9755 27.6737 40.4314 27.0982 41.7763C26.9043 42.2299 26.5701 42.5019 25.0278 43.4623C24.273 43.9323 23.5783 44.4055 23.484 44.5139C23.0828 44.9749 23.4354 45.7675 24.0416 45.7675C24.2227 45.7675 24.8573 45.4245 25.8928 44.7671C27.7877 43.564 28.0092 43.3773 28.3725 42.6769C28.6392 42.163 28.7541 42.0673 30.4867 40.9173C32.7251 39.4315 32.7924 39.3962 33.3839 39.3962C34.737 39.3962 35.5546 41.0217 34.7391 42.0907C34.4464 42.4745 28.5148 46.2694 27.1352 46.9557C25.1581 47.939 23.0857 48.4143 20.7788 48.4136C18.2709 48.4128 16.85 48.0519 13.4084 46.5412C12.1932 46.0078 11.0998 45.5714 10.9788 45.5714C10.7385 45.5714 7.88256 47.3313 7.60488 47.6504C7.18094 48.1377 7.62507 48.9782 8.25259 48.8764C8.42559 48.8482 9.13084 48.4647 9.81962 48.024L11.072 47.2227L13.0019 48.0794C14.0634 48.5505 15.3949 49.0852 15.961 49.2675C19.7921 50.5016 24.2438 50.1613 27.8316 48.36C29.1304 47.708 35.2358 43.8387 35.7157 43.3635C36.698 42.3907 36.9591 40.7881 36.3345 39.5639C36.0218 38.9508 35.257 38.2662 34.6103 38.0201C33.9402 37.7652 32.9702 37.735 32.3605 37.9501C32.1347 38.0298 31.218 38.5702 30.3235 39.1509C29.429 39.7317 28.6876 40.1898 28.6759 40.1691C28.6641 40.1483 28.5277 39.8774 28.3725 39.5671C27.8709 38.5631 26.8514 37.9171 25.656 37.846C24.7805 37.7939 24.2144 38.0342 22.2205 39.3039L20.6334 40.3147L19.743 39.8507C16.7396 38.2862 15.9478 37.9124 15.2749 37.7416C14.3755 37.5133 13.0738 37.423 12.2853 37.5342Z" fill="#803400"/>
</svg>
