<svg width="20" height="20" viewBox="0 0 20 20" fill="none" xmlns="http://www.w3.org/2000/svg">
<path d="M18.75 6.25V3.01758C18.75 2.85339 18.7176 2.69081 18.6547 2.53914C18.5919 2.38746 18.4997 2.24966 18.3836 2.13359L16.616 0.366016C16.3816 0.131703 16.0638 5.00637e-05 15.7324 0L6.25 0C5.91848 0 5.60054 0.131696 5.36612 0.366117C5.1317 0.600537 5 0.918479 5 1.25V18.75C5 19.0815 5.1317 19.3995 5.36612 19.6339C5.60054 19.8683 5.91848 20 6.25 20H18.75C19.0815 20 19.3995 19.8683 19.6339 19.6339C19.8683 19.3995 20 19.0815 20 18.75V7.5C20 7.16848 19.8683 6.85054 19.6339 6.61612C19.3995 6.3817 19.0815 6.25 18.75 6.25ZM11.25 16.875C11.25 17.0408 11.1842 17.1997 11.0669 17.3169C10.9497 17.4342 10.7908 17.5 10.625 17.5H9.375C9.20924 17.5 9.05027 17.4342 8.93306 17.3169C8.81585 17.1997 8.75 17.0408 8.75 16.875V15.625C8.75 15.4592 8.81585 15.3003 8.93306 15.1831C9.05027 15.0658 9.20924 15 9.375 15H10.625C10.7908 15 10.9497 15.0658 11.0669 15.1831C11.1842 15.3003 11.25 15.4592 11.25 15.625V16.875ZM11.25 11.875C11.25 12.0408 11.1842 12.1997 11.0669 12.3169C10.9497 12.4342 10.7908 12.5 10.625 12.5H9.375C9.20924 12.5 9.05027 12.4342 8.93306 12.3169C8.81585 12.1997 8.75 12.0408 8.75 11.875V10.625C8.75 10.4592 8.81585 10.3003 8.93306 10.1831C9.05027 10.0658 9.20924 10 9.375 10H10.625C10.7908 10 10.9497 10.0658 11.0669 10.1831C11.1842 10.3003 11.25 10.4592 11.25 10.625V11.875ZM16.25 16.875C16.25 17.0408 16.1842 17.1997 16.0669 17.3169C15.9497 17.4342 15.7908 17.5 15.625 17.5H14.375C14.2092 17.5 14.0503 17.4342 13.9331 17.3169C13.8158 17.1997 13.75 17.0408 13.75 16.875V15.625C13.75 15.4592 13.8158 15.3003 13.9331 15.1831C14.0503 15.0658 14.2092 15 14.375 15H15.625C15.7908 15 15.9497 15.0658 16.0669 15.1831C16.1842 15.3003 16.25 15.4592 16.25 15.625V16.875ZM16.25 11.875C16.25 12.0408 16.1842 12.1997 16.0669 12.3169C15.9497 12.4342 15.7908 12.5 15.625 12.5H14.375C14.2092 12.5 14.0503 12.4342 13.9331 12.3169C13.8158 12.1997 13.75 12.0408 13.75 11.875V10.625C13.75 10.4592 13.8158 10.3003 13.9331 10.1831C14.0503 10.0658 14.2092 10 14.375 10H15.625C15.7908 10 15.9497 10.0658 16.0669 10.1831C16.1842 10.3003 16.25 10.4592 16.25 10.625V11.875ZM16.25 7.5H7.5V2.5H13.75V4.375C13.75 4.54076 13.8158 4.69973 13.9331 4.81694C14.0503 4.93415 14.2092 5 14.375 5H16.25V7.5ZM2.5 5H1.25C0.918479 5 0.600537 5.1317 0.366117 5.36612C0.131696 5.60054 0 5.91848 0 6.25L0 18.75C0 19.0815 0.131696 19.3995 0.366117 19.6339C0.600537 19.8683 0.918479 20 1.25 20H2.5C2.83152 20 3.14946 19.8683 3.38388 19.6339C3.6183 19.3995 3.75 19.0815 3.75 18.75V6.25C3.75 5.91848 3.6183 5.60054 3.38388 5.36612C3.14946 5.1317 2.83152 5 2.5 5Z" fill="#8E6C53"/>
</svg>
