<svg width="38" height="49" viewBox="0 0 38 49" fill="none" xmlns="http://www.w3.org/2000/svg">
<g clip-path="url(#clip0_390_872)">
<path d="M13.2694 19.8159H9.63071C7.37087 19.8159 5.10924 19.8393 2.8494 19.8159C0.759669 19.7852 -0.5529 17.7833 0.297674 15.9634C0.48419 15.5253 0.787796 15.1479 1.17474 14.873C1.56168 14.5982 2.01679 14.4367 2.48947 14.4066C2.75628 14.3814 3.02667 14.3778 3.29348 14.3778C13.7236 14.3778 24.1537 14.3778 34.5839 14.3778C35.0527 14.3602 35.5216 14.4088 35.977 14.5219C36.5704 14.7062 37.081 15.0935 37.4204 15.6167C37.7599 16.1399 37.9068 16.7662 37.8357 17.3869C37.7638 18.0565 37.447 18.6752 36.9469 19.1227C36.4468 19.5703 35.7992 19.8148 35.13 19.8087C33.2946 19.8447 31.4591 19.8195 29.6237 19.8195H24.6098V20.7078C24.6098 29.0181 24.6098 37.3285 24.6098 45.6388C24.6098 47.6461 23.4673 49.0048 21.6139 49.2426C20.8028 49.3453 20.1008 49.1147 18.9154 48.3417C18.1812 48.9525 17.336 49.3399 16.3493 49.2426C14.5443 49.0786 13.2873 47.7074 13.2783 45.8533C13.2586 42.3396 13.2783 38.8259 13.2783 35.3122C13.2783 30.4471 13.2783 25.5819 13.2783 20.7168L13.2694 19.8159ZM22.6687 32.7048C22.6687 32.3444 22.6687 32.0778 22.6687 31.8039C22.6687 27.6163 22.6687 23.4281 22.6687 19.2393C22.6687 18.0969 22.9552 17.8122 24.1012 17.8104H34.4388C34.6841 17.8104 34.976 17.8914 35.1658 17.7851C35.438 17.632 35.8087 17.3473 35.8176 17.1094C35.8266 16.8716 35.4828 16.5689 35.2303 16.3634C35.1032 16.2625 34.8417 16.331 34.6394 16.331H3.22365C3.0016 16.331 2.71509 16.2715 2.57005 16.3851C2.33547 16.5653 2.04359 16.8824 2.05971 17.1238C2.07582 17.3653 2.41784 17.6176 2.66496 17.7833C2.80642 17.877 3.05712 17.8086 3.25767 17.8086H13.7296C14.949 17.8086 15.2105 18.0752 15.2105 19.3222C15.2105 23.5098 15.2105 27.698 15.2105 31.8868V32.6976L22.6687 32.7048ZM15.2463 34.732C15.232 34.9374 15.2123 35.0923 15.2123 35.2437C15.2123 38.7105 15.2123 42.1768 15.2123 45.6424C15.2069 45.8872 15.2439 46.1311 15.3215 46.3632C15.4051 46.6366 15.5774 46.8739 15.8108 47.0372C16.0441 47.2005 16.3252 47.2804 16.609 47.2641C16.8806 47.2733 17.1478 47.1933 17.3703 47.0363C17.5929 46.8794 17.7587 46.6539 17.8428 46.3938C17.9318 46.1158 17.9724 45.8244 17.9627 45.5325C17.9699 42.1341 17.9699 38.7352 17.9627 35.3356C17.9627 35.141 17.9359 34.9464 17.9198 34.732H15.2463ZM19.9468 34.732C19.9325 34.9374 19.9128 35.0923 19.9128 35.2437C19.9128 38.7105 19.9128 42.1768 19.9128 45.6424C19.9075 45.8872 19.9445 46.1311 20.022 46.3632C20.1056 46.6363 20.2776 46.8733 20.5106 47.0366C20.7436 47.1999 21.0242 47.28 21.3077 47.2641C21.5794 47.2733 21.8466 47.1933 22.0691 47.0363C22.2916 46.8794 22.4574 46.6539 22.5415 46.3938C22.6308 46.1159 22.6714 45.8244 22.6615 45.5325C22.6687 42.1341 22.6687 38.7352 22.6615 35.3356C22.6615 35.141 22.6346 34.9464 22.6185 34.732H19.9468Z" fill="#803400"/>
<path d="M12.6074 6.25855C12.612 4.99973 12.987 3.77047 13.685 2.72583C14.383 1.68118 15.3729 0.867937 16.5297 0.388672C17.6864 -0.0905925 18.9584 -0.214412 20.185 0.0328301C21.4116 0.280073 22.538 0.887303 23.4221 1.77793C24.3062 2.66856 24.9084 3.80269 25.1527 5.03728C25.397 6.27187 25.2725 7.55161 24.795 8.7151C24.3174 9.87858 23.5081 10.8737 22.4691 11.5749C21.4302 12.2761 20.2082 12.6521 18.9572 12.6553C18.1228 12.655 17.2966 12.4894 16.5259 12.1677C15.7551 11.8461 15.0549 11.3748 14.4652 10.7807C13.8755 10.1867 13.408 9.48158 13.0892 8.70564C12.7704 7.9297 12.6067 7.09817 12.6074 6.25855ZM18.9232 10.6606C19.787 10.6609 20.6316 10.4039 21.3505 9.92188C22.0694 9.4399 22.6304 8.75453 22.9627 7.95219C23.2951 7.14985 23.3839 6.26645 23.2181 5.41337C23.0522 4.56029 22.6391 3.77572 22.0307 3.15856C21.4224 2.54141 20.6461 2.1193 19.7997 1.94545C18.9533 1.77161 18.0747 1.85381 17.2747 2.18169C16.4747 2.50957 15.789 3.06846 15.3042 3.78789C14.8193 4.50732 14.557 5.35509 14.5503 6.22431C14.546 7.39596 15.0042 8.52139 15.8242 9.35324C16.6442 10.1851 17.7588 10.6553 18.9232 10.6606Z" fill="#803400"/>
</g>
<defs>
<clipPath id="clip0_390_872">
<rect width="38" height="49" fill="white"/>
</clipPath>
</defs>
</svg>
