<svg width="50" height="50" viewBox="0 0 50 50" fill="none" xmlns="http://www.w3.org/2000/svg">
<path fill-rule="evenodd" clip-rule="evenodd" d="M34.8777 0.152768C32.9079 0.671182 31.3008 2.29407 30.7965 4.27437C30.3782 5.91661 30.791 7.81212 31.8616 9.16673L32.2576 9.6677L23.965 9.69512C15.6793 9.72265 15.6721 9.72285 15.2646 9.94102C14.8501 10.1629 14.009 10.9945 14.009 11.1823C14.009 11.2395 13.7717 11.2853 13.4757 11.2853C11.103 11.2853 8.8194 13.1622 8.2011 15.6205C7.98485 16.4803 8.05562 17.9511 8.35353 18.7882C8.72554 19.834 9.60757 21.0221 10.3545 21.4837L10.7082 21.7023L10.3171 21.9021C9.61614 22.2601 8.44165 23.5451 7.99493 24.4428C7.77395 24.8866 7.56415 25.3609 7.52856 25.497C7.49308 25.6329 7.44509 25.7234 7.4219 25.6981C7.39881 25.6728 7.01229 25.0326 6.56295 24.2753C5.66015 22.754 5.2212 22.2952 4.36014 21.973C2.24121 21.1802 -0.0159447 22.7605 8.48821e-05 25.0258C0.00250445 25.3702 0.0638002 25.8182 0.136286 26.0211C0.301321 26.4831 6.30698 36.7088 6.93627 37.5992C7.93717 39.0155 9.66847 40.4008 11.2944 41.0867C12.534 41.6094 13.6049 41.8512 14.9415 41.91L16.1261 41.9622V43.5515V45.1409L14.7903 45.178C13.5307 45.213 13.4167 45.2335 12.7917 45.5374C11.9799 45.9322 11.18 46.7454 10.8074 47.5548C10.597 48.012 10.5315 48.3322 10.4984 49.0674L10.4563 50H24.9978H39.5393L39.4973 49.0674C39.4641 48.3322 39.3987 48.012 39.1883 47.5548C38.818 46.7506 38.0192 45.9367 37.208 45.5371C36.5798 45.2277 36.4781 45.2093 35.2079 45.176L33.8696 45.1409V43.5377V41.9344H40.6204C47.285 41.9344 47.3786 41.9317 47.9515 41.7173C49.1526 41.2679 50 40.0231 50 38.7082C50 36.985 48.5495 35.482 46.8864 35.482H46.4016L46.5845 34.9527C47.3092 32.8547 45.7725 30.6427 43.5902 30.6427C43.0962 30.6427 42.9746 30.597 42.4849 30.2273L41.9348 29.8119V27.4157V25.0197L42.9681 24.9775C44.1453 24.9296 44.563 24.7678 45.175 24.1232C45.93 23.3277 45.9136 23.424 45.947 19.5946C45.9819 15.6074 45.9298 15.1885 45.2205 13.7554C44.4976 12.295 43.4465 11.2154 42.0454 10.4943C41.6242 10.2776 41.098 10.0459 40.8762 9.97943C40.6544 9.91289 40.4168 9.84101 40.3483 9.81943C40.2701 9.79493 40.4046 9.54097 40.7085 9.13951C41.573 7.99732 41.9348 6.96473 41.9348 5.63946C41.9348 4.08946 41.3831 2.76843 40.2715 1.65689C39.1438 0.529026 37.8263 -0.0127771 36.2428 0.000228607C35.797 0.00385811 35.1827 0.0725162 34.8777 0.152768ZM37.6183 1.86367C38.2713 2.09153 39.0691 2.68061 39.4765 3.23572C40.677 4.87132 40.5236 7.04115 39.1071 8.45757C36.8069 10.758 32.9143 9.49631 32.3453 6.26605C31.9871 4.23212 33.4299 2.14042 35.4871 1.71113C36.0509 1.59348 37.0491 1.66496 37.6183 1.86367ZM32.5974 14.4612C33.0326 16.2079 33.4169 17.637 33.4514 17.637C33.4859 17.637 34.1384 17.0138 34.9016 16.252L36.2891 14.8672L37.6767 16.252C38.4398 17.0138 39.0921 17.637 39.1263 17.637C39.1603 17.637 39.5181 16.31 39.9213 14.688C40.3244 13.066 40.6655 11.7247 40.6794 11.7073C40.6932 11.6897 40.9928 11.8204 41.3449 11.9975C42.2073 12.4314 43.2916 13.5379 43.7164 14.4178C44.2639 15.5516 44.3543 16.2683 44.3541 19.4727C44.354 22.6823 44.3181 22.8726 43.6486 23.207C43.3298 23.3664 42.8934 23.3834 39.112 23.3834C34.3788 23.3834 34.3957 23.3859 34.0297 22.636C33.8547 22.2777 33.8501 22.2039 33.9793 21.8385C34.0576 21.6171 34.2496 21.3411 34.4061 21.2252C34.6804 21.022 34.8197 21.0134 38.3127 20.9856L41.9348 20.9568V18.5407V16.1247H41.1283H40.3217V17.7323V19.34L37.2721 19.3707C34.3637 19.3999 34.2035 19.4115 33.8124 19.6208C33.5869 19.7415 33.3432 19.9117 33.2708 19.9989C33.1641 20.1274 32.9038 20.1575 31.8964 20.1575H30.6537L30.6234 17.7547L30.5931 15.352L30.288 14.8589C30.0991 14.5536 29.7948 14.2494 29.4894 14.0605L28.9962 13.7554L22.5684 13.705C16.2457 13.6554 16.136 13.6512 15.8561 13.4438C15.6996 13.3279 15.5076 13.0519 15.4292 12.8305C15.3001 12.4651 15.3047 12.3913 15.4797 12.033C15.8639 11.2461 15.4081 11.2856 24.0921 11.2855L31.8061 11.2853L32.5974 14.4612ZM37.0009 11.4618C36.9448 11.5589 36.7617 11.797 36.594 11.9911L36.2891 12.344L35.9843 11.9911C35.3753 11.2864 35.3757 11.2853 36.2891 11.2853C37.0356 11.2853 37.0943 11.2999 37.0009 11.4618ZM34.7503 14.085L34.3249 14.5184L33.9991 13.2295C33.8199 12.5207 33.6721 11.9007 33.6707 11.852C33.6691 11.8031 34.0072 12.1881 34.4218 12.7074L35.1756 13.6516L34.7503 14.085ZM38.579 13.2295L38.2533 14.5184L37.8283 14.0854L37.4033 13.6523L38.1316 12.7342C38.5322 12.2293 38.87 11.8442 38.8823 11.8785C38.8946 11.9126 38.7581 12.5207 38.579 13.2295ZM13.8551 13.3946C14.0556 13.9984 14.6936 14.7467 15.2563 15.0379C15.5555 15.1928 15.9169 15.2658 16.5421 15.2976L17.4118 15.3416L17.5182 15.7079C17.9529 17.2039 17.5886 18.6852 16.5245 19.7493C14.2243 22.0497 10.3317 20.7881 9.76273 17.5578C9.40443 15.5234 10.865 13.4084 12.9045 13.0086C13.6732 12.8579 13.6774 12.8596 13.8551 13.3946ZM28.7358 15.6128L29.0304 15.9075V18.0325V20.1575H27.6711H26.3118L24.6778 21.3295C23.3362 22.2918 23.0158 22.4807 22.8867 22.3856C22.1172 21.8183 20.8646 21.6203 19.9553 21.9224C19.6678 22.0179 19.1928 22.2914 18.8995 22.5302L18.3665 22.9645L18.0804 22.6658C17.923 22.5016 17.5777 22.2282 17.3131 22.0584C16.868 21.7728 16.705 21.5689 16.9217 21.5689C17.1189 21.5689 18.0377 20.6311 18.4292 20.0302C19.094 19.0097 19.2798 18.3749 19.2916 17.0825C19.2972 16.4725 19.2689 15.826 19.2287 15.6458L19.1556 15.3181H23.7983H28.4411L28.7358 15.6128ZM29.0304 24.4917V27.2129L26.4611 28.9277C25.0479 29.871 23.8344 30.6418 23.7642 30.6408C23.6659 30.6392 22.1231 28.4476 21.9971 28.1302C21.9824 28.0932 22.1314 28.0047 22.3282 27.9336C22.525 27.8624 22.9265 27.5694 23.2205 27.2824C23.9382 26.5817 24.2267 25.8378 24.166 24.8456C24.1422 24.4574 24.0937 24.0718 24.0582 23.9886C24.0112 23.8784 24.3835 23.5581 25.4283 22.8091L26.8629 21.7809L27.9467 21.7757L29.0304 21.7706V24.4917ZM32.2797 22.4036C32.3398 23.1514 32.5989 23.7 33.1301 24.2043C33.9161 24.9504 33.8759 24.9428 37.2721 24.977L40.3217 25.0077V26.7666C40.3217 27.7339 40.2963 28.5255 40.2654 28.5255C40.2343 28.5255 39.8437 28.2473 39.3972 27.9074C38.2352 27.0229 37.3835 26.5504 36.2891 26.1833C35.3761 25.8771 35.2583 25.8621 33.7687 25.8625C32.3546 25.8629 32.1319 25.8878 31.4248 26.125L30.6435 26.3869V24.0787V21.7706H31.4362H32.2289L32.2797 22.4036ZM15.289 22.8864C16.0556 23.1502 16.7392 23.604 17.2857 24.2118C17.6764 24.6464 17.7391 24.7768 17.7391 25.1552C17.7391 25.8868 18.1076 26.6942 18.71 27.2824C19.004 27.5694 19.3938 27.8582 19.5765 27.9243C19.8527 28.0242 20.1434 28.3974 21.3089 30.1501L22.7094 32.2558H33.264H43.8185L44.2576 32.488C45.4183 33.1018 45.3955 34.7032 44.2179 35.2732C43.7897 35.4805 43.7074 35.482 32.6764 35.482H21.5663L21.6438 35.2048C21.6864 35.0523 21.7193 34.5872 21.7168 34.1714C21.7115 33.2933 21.5128 32.8252 20.8982 32.2417C20.1745 31.5548 20.009 31.5106 17.9359 31.4519C16.4347 31.4093 16.0173 31.3663 15.8188 31.2336C15.6828 31.1426 15.1406 30.3386 14.6139 29.4467C14.0871 28.5548 13.6254 27.8239 13.5878 27.8224C13.4976 27.8189 12.3035 28.5312 12.2474 28.6218C12.2235 28.6605 12.6366 29.4145 13.1651 30.2975C14.7394 32.9269 14.8368 32.9889 17.5052 33.0623C19.5891 33.1196 19.7838 33.1866 20.049 33.9368C20.1782 34.3022 20.1735 34.376 19.9986 34.7343C19.6684 35.4106 19.3991 35.4817 17.1644 35.4818C15.1006 35.482 14.4603 35.3977 13.6523 35.0195C12.7556 34.5999 12.3049 34.0237 10.5866 31.1003C8.76849 28.0069 8.72393 27.8772 9.01044 26.5115C9.44062 24.4603 10.8583 23.0625 12.9 22.6762C13.5275 22.5575 14.6098 22.6527 15.289 22.8864ZM4.07816 23.6706C4.31104 23.8057 5.12825 25.1159 7.61224 29.3366C11.1894 35.4147 11.3957 35.6987 12.7488 36.4063C14.1585 37.1437 12.8802 37.0951 30.869 37.0951H47.0446L47.4837 37.3273C48.6443 37.9411 48.6216 39.5425 47.444 40.1125C47.0133 40.321 46.9886 40.3213 31.0726 40.3213C20.1554 40.3213 14.884 40.2869 14.3439 40.2118C12.2767 39.9248 10.6453 39.1048 9.16983 37.6107C8.21431 36.6431 8.20463 36.6282 5.01736 31.1969C3.26025 28.2027 1.77211 25.6188 1.71031 25.455C1.64851 25.2912 1.62573 24.9925 1.65981 24.7912C1.8569 23.6242 3.04753 23.0725 4.07816 23.6706ZM21.8122 23.68C22.8532 24.3234 22.7392 25.8667 21.6102 26.4132C20.8285 26.7917 19.9507 26.472 19.561 25.6669C19.2945 25.1165 19.298 24.8443 19.579 24.2872C20.0061 23.4403 20.991 23.1725 21.8122 23.68ZM35.4396 27.6709C36.3883 27.9121 37.3442 28.4416 38.8419 29.5557L40.2352 30.5923L36.9589 30.6189C35.157 30.6335 32.1759 30.6335 30.3343 30.6189L26.986 30.5923L28.602 29.5155C30.8431 28.0223 31.452 27.7323 32.811 27.5112C33.4652 27.4049 34.6841 27.4789 35.4396 27.6709ZM32.2565 43.5476V45.1607H24.9978H17.7391V43.5476V41.9344H24.9978H32.2565V43.5476ZM36.5405 47.0762C36.9957 47.3043 37.7005 48.044 37.7005 48.2939C37.7005 48.3502 32.6853 48.3869 24.9978 48.3869C17.3104 48.3869 12.2951 48.3502 12.2951 48.2939C12.2951 48.2427 12.4432 48.0067 12.6243 47.7694C12.9796 47.3035 13.4367 46.9913 13.9424 46.8695C14.1176 46.8272 19.1606 46.7997 25.149 46.8085L36.0371 46.8242L36.5405 47.0762Z" fill="#803400"/>
</svg>
