<svg width="45" height="49" viewBox="0 0 45 49" fill="none" xmlns="http://www.w3.org/2000/svg">
<path d="M41.0939 26.4467C39.6674 25.6315 37.5338 24.9808 34.7265 24.5C37.5338 24.0191 39.6672 23.3687 41.0939 22.5533C42.838 21.5565 44.1107 19.9146 44.632 17.9889C45.1533 16.0632 44.8804 14.0113 43.8734 12.2848C42.8664 10.5582 41.2078 9.29836 39.2624 8.78236C37.317 8.26636 35.2443 8.53648 33.5001 9.53331C32.0737 10.3484 30.4377 11.8523 28.6135 14.0182C29.5962 11.3715 30.0938 9.21688 30.0938 7.58663C30.0938 5.59298 29.2938 3.68099 27.8697 2.27127C26.4456 0.861552 24.5141 0.0695801 22.5001 0.0695801C20.4861 0.0695801 18.5546 0.861552 17.1305 2.27127C15.7064 3.68099 14.9063 5.59298 14.9063 7.58663C14.9063 9.21712 15.404 11.3715 16.3866 14.0182C14.5625 11.8523 12.9267 10.3487 11.5001 9.53331C9.75588 8.53648 7.68312 8.26636 5.73774 8.78236C3.79237 9.29836 2.13375 10.5582 1.12676 12.2848C0.119764 14.0113 -0.153115 16.0632 0.368152 17.9889C0.889419 19.9146 2.16213 21.5565 3.90631 22.5533C5.33275 23.3684 7.46635 24.0191 10.2737 24.5C7.46635 24.9808 5.33298 25.6313 3.90631 26.4467C2.16213 27.4435 0.889419 29.0853 0.368152 31.0111C-0.153115 32.9368 0.119764 34.9886 1.12676 36.7152C2.13375 38.4417 3.79237 39.7016 5.73774 40.2176C7.68312 40.7336 9.75588 40.4635 11.5001 39.4666C12.9265 38.6515 14.5625 37.1476 16.3866 34.9818C15.404 37.6285 14.9063 39.7831 14.9063 41.4133C14.9063 43.407 15.7064 45.319 17.1305 46.7287C18.5546 48.1384 20.4861 48.9304 22.5001 48.9304C24.5141 48.9304 26.4456 48.1384 27.8697 46.7287C29.2938 45.319 30.0938 43.407 30.0938 41.4133C30.0938 39.7828 29.5962 37.6285 28.6135 34.9818C30.4377 37.1476 32.0734 38.6513 33.5001 39.4666C35.2443 40.4635 37.317 40.7336 39.2624 40.2176C41.2078 39.7016 42.8664 38.4417 43.8734 36.7152C44.8804 34.9886 45.1533 32.9368 44.632 31.0111C44.1107 29.0853 42.838 27.4435 41.0939 26.4467ZM22.5001 30.1378C21.3737 30.1378 20.2725 29.8071 19.3359 29.1876C18.3993 28.5681 17.6694 27.6876 17.2383 26.6575C16.8072 25.6273 16.6944 24.4937 16.9142 23.4001C17.134 22.3065 17.6764 21.3019 18.4729 20.5135C19.2694 19.725 20.2842 19.1881 21.389 18.9705C22.4938 18.753 23.6389 18.8646 24.6796 19.2913C25.7203 19.7181 26.6098 20.4407 27.2356 21.3678C27.8614 22.2949 28.1954 23.3849 28.1954 24.5C28.1937 25.9947 27.5931 27.4277 26.5254 28.4846C25.4577 29.5416 24.01 30.1361 22.5001 30.1378ZM34.4493 11.1607C35.097 10.7906 35.8121 10.5503 36.5536 10.4537C37.2952 10.357 38.0487 10.4059 38.7711 10.5976C39.4935 10.7892 40.1708 11.1198 40.7641 11.5705C41.3575 12.0212 41.8554 12.5832 42.2294 13.2244C42.6033 13.8656 42.846 14.5734 42.9436 15.3075C43.0413 16.0415 42.9919 16.7874 42.7983 17.5025C42.6047 18.2177 42.2707 18.8881 41.8154 19.4755C41.3601 20.0628 40.7924 20.5557 40.1446 20.9259C38.2875 21.9869 34.7834 22.7725 29.9794 23.2092C29.6701 21.4593 28.7447 19.8744 27.3674 18.7356C30.152 14.8345 32.5917 12.2223 34.4493 11.1607ZM22.5001 1.94884C24.01 1.95052 25.4577 2.54504 26.5254 3.60196C27.5931 4.65889 28.1937 6.09191 28.1954 7.58663C28.1954 9.70902 27.1308 13.1053 25.1114 17.441C23.4252 16.8302 21.575 16.8302 19.8888 17.441C17.8693 13.1053 16.8048 9.70902 16.8048 7.58663C16.8065 6.09191 17.407 4.65889 18.4748 3.60196C19.5425 2.54504 20.9901 1.95052 22.5001 1.94884ZM2.77081 13.2244C3.52729 11.9308 4.77124 10.987 6.22976 10.6002C7.68829 10.2133 9.24229 10.4149 10.5508 11.1607C12.4085 12.2223 14.8484 14.8347 17.6327 18.7356C16.2554 19.8744 15.3301 21.4593 15.0207 23.2092C10.2167 22.7725 6.71267 21.9869 4.85553 20.9259C3.54871 20.177 2.59531 18.9456 2.20449 17.5018C1.81367 16.058 2.01733 14.5197 2.77081 13.2244ZM10.5508 37.8392C9.24269 38.5868 7.6881 38.7894 6.22906 38.4024C4.77002 38.0154 3.52605 37.0705 2.77081 35.7755C2.01556 34.4806 1.81091 32.9417 2.20187 31.4974C2.59283 30.0531 3.54738 28.8217 4.85553 28.0741C6.71267 27.013 10.2167 26.2275 15.0207 25.7908C15.3301 27.5406 16.2554 29.1255 17.6327 30.2644C14.8482 34.1655 12.4085 36.7777 10.5508 37.8392ZM22.5001 47.0511C20.9901 47.0494 19.5425 46.4549 18.4748 45.398C17.407 44.3411 16.8065 42.908 16.8048 41.4133C16.8048 39.2909 17.8693 35.8946 19.8888 31.559C21.575 32.1697 23.4252 32.1697 25.1114 31.559C27.1308 35.8946 28.1954 39.2909 28.1954 41.4133C28.1937 42.908 27.5931 44.3411 26.5254 45.398C25.4577 46.4549 24.01 47.0494 22.5001 47.0511ZM42.2294 35.7755C41.4729 37.0692 40.229 38.013 38.7704 38.3999C37.3119 38.7868 35.7579 38.5851 34.4493 37.8392C32.5917 36.7777 30.1517 34.1653 27.3674 30.2644C28.7447 29.1255 29.6701 27.5406 29.9794 25.7908C34.7834 26.2275 38.2875 27.013 40.1446 28.0741C41.4515 28.8229 42.4048 30.0543 42.7957 31.4981C43.1865 32.9419 42.9828 34.4802 42.2294 35.7755Z" fill="#803400"/>
</svg>
