<svg width="66" height="54" viewBox="0 0 66 54" fill="none" xmlns="http://www.w3.org/2000/svg">
<path d="M52 52L63.95 40.05C64.3017 39.6987 64.4996 39.2221 64.5 38.725V22.3125C64.5 21.0693 64.0061 19.877 63.1271 18.9979C62.248 18.1189 61.0557 17.625 59.8125 17.625V17.625C58.5693 17.625 57.377 18.1189 56.4979 18.9979C55.6189 19.877 55.125 21.0693 55.125 22.3125V36.375" stroke="#803400" stroke-width="2.5" stroke-linecap="round" stroke-linejoin="round"/>
<path d="M52 39.4999L54.6812 36.8187C54.8221 36.678 54.9338 36.5109 55.01 36.327C55.0861 36.143 55.1252 35.9459 55.125 35.7468C55.1246 35.4658 55.046 35.1904 54.8981 34.9515C54.7502 34.7125 54.5388 34.5194 54.2875 34.3937L52.9031 33.703C51.7303 33.1166 50.4027 32.9139 49.1083 33.1237C47.8139 33.3334 46.6183 33.945 45.6906 34.8718L42.8938 37.6687C41.7216 38.8405 41.0629 40.4299 41.0625 42.0874V51.9999" stroke="#803400" stroke-width="2.5" stroke-linecap="round" stroke-linejoin="round"/>
<path d="M14.5 52L2.55 40.05C2.19827 39.6987 2.00044 39.2221 2 38.725V22.3125C2 21.0693 2.49386 19.877 3.37294 18.9979C4.25201 18.1189 5.4443 17.625 6.6875 17.625V17.625C7.9307 17.625 9.12298 18.1189 10.0021 18.9979C10.8811 19.877 11.375 21.0693 11.375 22.3125V36.375" stroke="#803400" stroke-width="2.5" stroke-linecap="round" stroke-linejoin="round"/>
<path d="M14.5 39.4999L11.8188 36.8187C11.678 36.6779 11.5664 36.5108 11.4903 36.3269C11.4141 36.143 11.375 35.9458 11.375 35.7468V35.7468C11.375 35.1749 11.7 34.653 12.2125 34.3937L13.5969 33.703C14.7697 33.1166 16.0973 32.9139 17.3917 33.1237C18.6861 33.3334 19.8817 33.945 20.8094 34.8718L23.6062 37.6687C24.7784 38.8405 25.4371 40.4299 25.4375 42.0874V51.9999" stroke="#803400" stroke-width="2.5" stroke-linecap="round" stroke-linejoin="round"/>
<path d="M38.4594 27H28.0406V19.7094H20.75V9.29062H28.0406V2H38.4594V9.29062H45.75V19.7094H38.4594V27Z" stroke="#803400" stroke-width="2.5" stroke-linecap="round" stroke-linejoin="round"/>
</svg>
