<svg width="14" height="25" viewBox="0 0 14 25" fill="none" xmlns="http://www.w3.org/2000/svg">
<path d="M1.75663 0.647181C1.56177 0.451514 1.24519 0.450857 1.04953 0.645713C0.853858 0.84057 0.853201 1.15715 1.04806 1.35282L1.75663 0.647181ZM12.8547 12.5L13.209 12.8528C13.4033 12.6577 13.4033 12.3423 13.209 12.1472L12.8547 12.5ZM1.04806 23.6472C0.853201 23.8428 0.853858 24.1594 1.04953 24.3543C1.24519 24.5491 1.56177 24.5485 1.75663 24.3528L1.04806 23.6472ZM1.04806 1.35282L12.5004 12.8528L13.209 12.1472L1.75663 0.647181L1.04806 1.35282ZM12.5004 12.1472L1.04806 23.6472L1.75663 24.3528L13.209 12.8528L12.5004 12.1472Z" fill="white"/>
</svg>
