<svg width="14" height="25" viewBox="0 0 14 25" fill="none" xmlns="http://www.w3.org/2000/svg">
<path d="M12.1496 24.3528C12.3445 24.5485 12.6611 24.5491 12.8567 24.3543C13.0524 24.1594 13.053 23.8428 12.8582 23.6472L12.1496 24.3528ZM1.05156 12.5L0.69727 12.1472C0.502986 12.3423 0.502986 12.6577 0.69727 12.8528L1.05156 12.5ZM12.8582 1.35282C13.053 1.15715 13.0524 0.84057 12.8567 0.645714C12.6611 0.450857 12.3445 0.451515 12.1496 0.647181L12.8582 1.35282ZM12.8582 23.6472L1.40584 12.1472L0.69727 12.8528L12.1496 24.3528L12.8582 23.6472ZM1.40584 12.8528L12.8582 1.35282L12.1496 0.647181L0.69727 12.1472L1.40584 12.8528Z" fill="white"/>
</svg>
