<svg width="43" height="50" viewBox="0 0 43 50" fill="none" xmlns="http://www.w3.org/2000/svg">
<path d="M25.1552 35.1233C24.682 35.1233 24.3222 35.134 23.966 35.1233C23.1923 35.0965 22.8685 34.7768 22.8649 34.0001C22.8649 32.1929 22.8649 30.384 22.8649 28.5768C22.8649 28.3322 22.8649 28.0893 22.8649 27.8215C22.2172 27.759 22.0984 28.0715 22.1002 28.6108C22.1134 35.2167 22.1134 41.8239 22.1002 48.4322C22.1002 48.6768 22.1002 48.9251 22.084 49.1679C22.0829 49.2807 22.0592 49.3921 22.0145 49.4958C21.9698 49.5995 21.9048 49.6934 21.8234 49.7721C21.7419 49.8507 21.6456 49.9126 21.54 49.9542C21.4343 49.9958 21.3215 50.0162 21.2078 50.0143C20.6915 50.0429 20.3532 49.7554 20.2525 49.2518C20.2127 48.9871 20.1989 48.7192 20.2111 48.4518C20.2111 41.9578 20.2111 35.4638 20.2111 28.9697V28.1268H17.8956C17.883 28.3536 17.8596 28.5876 17.8596 28.8215C17.8596 31.6108 17.8596 34.4001 17.8596 37.1894C17.8596 38.4268 17.6221 38.6572 16.3555 38.659H15.5225C15.5225 38.9661 15.5225 39.2268 15.5225 39.4876C15.5225 42.5447 15.5225 45.6018 15.5225 48.659C15.5225 49.7715 15.2562 50.0251 14.1227 50.0268H7.84545C6.80014 50.0268 6.51767 49.7554 6.51767 48.7322C6.51767 45.6524 6.51767 42.5727 6.51767 39.4929C6.51767 39.2501 6.51767 39.009 6.51767 38.6965C6.228 38.684 5.99231 38.6644 5.75482 38.6626C4.24892 38.6626 2.74123 38.6626 1.23533 38.6626C0.420305 38.6626 0.0838611 38.3322 0.0838611 37.5286C0.0838611 32.7072 0.0712669 27.8858 0.0964552 23.0644C0.118538 21.565 0.445314 20.0854 1.05721 18.7143C1.20654 18.3715 1.21014 18.1536 0.960053 17.8304C-0.0978552 16.4697 -0.229194 14.9501 0.497668 13.4215C1.22453 11.8929 2.53072 11.234 4.20395 11.2018C5.34461 11.1804 6.4511 11.2465 7.42445 11.9429C7.48906 11.9795 7.56036 12.0029 7.63419 12.0118C7.70802 12.0207 7.7829 12.0149 7.85445 11.9947C8.6047 11.7679 9.34595 11.5179 10.1448 11.2572C8.55612 9.70542 7.80587 7.83042 8.07394 5.63221C8.25674 4.01532 9.06184 2.53104 10.3211 1.48935C11.5422 0.464439 13.0966 -0.0856583 14.6956 -0.0587265C16.2946 -0.0317946 17.8293 0.570334 19.0147 1.63578C21.1197 3.53935 22.3989 7.56614 19.173 11.1572H28.3631C26.769 9.48221 26.089 7.55185 26.4632 5.31971C26.7198 3.73642 27.5749 2.30979 28.8543 1.33042C30.0748 0.375672 31.5972 -0.117893 33.1501 -0.0622952C34.7031 -0.00669736 36.1857 0.594451 37.3337 1.63399C38.0051 2.23105 38.5421 2.96187 38.9098 3.77878C39.2775 4.59569 39.4675 5.48035 39.4675 6.37506C39.4909 8.25006 38.7479 9.83221 37.4039 11.2072C37.8789 11.3411 38.2855 11.434 38.6777 11.5644C41.1786 12.4144 42.9453 14.709 42.9651 17.3251C43.0065 22.8822 42.9849 28.4393 42.9795 33.9947C42.9795 34.7572 42.6359 35.0876 41.8658 35.1161C41.506 35.1286 41.1462 35.1161 40.6892 35.1161C40.6892 35.384 40.6892 35.6197 40.6892 35.8554C40.6892 40.1173 40.6892 44.3798 40.6892 48.6429C40.6892 49.7447 40.4121 50.0161 39.2912 50.0161H26.474C25.4377 50.0161 25.157 49.7376 25.157 48.7108C25.157 44.4489 25.157 40.1864 25.157 35.9233C25.1552 35.6894 25.1552 35.4501 25.1552 35.1233ZM8.8152 13.6697C8.86558 13.8679 8.91055 14.0376 8.94834 14.2054C9.57445 16.9894 7.76269 19.284 4.89842 19.3144C4.40457 19.3308 3.91022 19.3033 3.42131 19.2322C2.9985 19.1608 2.76641 19.2822 2.68905 19.6786C2.44076 20.9394 2.01976 22.2001 1.99457 23.4679C1.90641 27.7054 1.96039 31.9447 1.96219 36.184C1.96219 36.3751 1.98738 36.5644 1.99817 36.7197H15.9111V28.0661C15.4613 28.0661 15.0601 28.0786 14.6517 28.0661C12.3254 27.9822 10.3337 26.134 10.2078 23.8358C10.1178 22.1215 10.1736 20.4001 10.1844 18.684C10.1844 18.1144 10.4938 17.7608 11.0839 17.7286C11.6417 17.6983 12.0159 18.0858 12.0573 18.6929C12.0699 18.8715 12.0573 19.0501 12.0573 19.2286C12.0573 20.6572 12.0375 22.0858 12.0573 23.5143C12.0771 24.9429 13.2196 26.1572 14.6427 26.1929C16.8449 26.2376 19.0488 26.2251 21.251 26.1929C21.6836 26.1823 22.0975 26.016 22.4156 25.7249C22.7337 25.4338 22.9343 25.0378 22.98 24.6108C23.0419 24.1982 22.9564 23.7771 22.7381 23.4206C22.5199 23.064 22.1828 22.7946 21.7854 22.659C21.4611 22.5724 21.1262 22.5315 20.7904 22.5376C19.8477 22.5072 18.8977 22.5643 17.9639 22.4626C16.6883 22.3233 15.9399 21.4072 15.9399 20.1411C15.9399 17.9983 15.9399 15.8554 15.9399 13.7126C15.9399 13.4768 15.9399 13.2394 15.9399 12.9429C13.5146 12.9929 11.1235 12.6786 8.8152 13.6697ZM17.9028 13.0769V17.4358C19.7505 17.4358 21.5443 17.4358 23.338 17.4358C24.4643 17.4358 24.7378 17.709 24.7414 18.8054C24.7414 19.5768 24.7414 20.3465 24.7414 21.2447C25.7867 20.5715 26.8518 20.6465 27.9043 20.6483H35.4608C35.4608 19.8911 35.4464 19.2072 35.4608 18.5215C35.4752 17.8358 35.8314 17.4501 36.4054 17.4501C36.9793 17.4501 37.3283 17.8197 37.3409 18.5126C37.3553 19.3608 37.3409 20.2072 37.3409 21.0554C37.3409 22.3054 37.116 22.5215 35.8368 22.5215C32.9582 22.5215 30.0795 22.5215 27.2008 22.5215C26.8426 22.5078 26.4842 22.5469 26.1375 22.6376C25.7409 22.774 25.4037 23.0418 25.1826 23.3959C24.9614 23.7501 24.8698 24.1689 24.9231 24.5822C25.0652 25.5429 25.8065 26.1894 26.85 26.1894C30.4687 26.2001 34.0874 26.2001 37.7062 26.1894C39.7626 26.1894 41.0652 24.8822 41.0742 22.8376C41.0742 21.209 41.0742 19.5804 41.0742 17.9518C41.0742 14.9161 39.2193 13.0679 36.1715 13.0661C30.3278 13.0661 24.4841 13.0661 18.6404 13.0661L17.9028 13.0769ZM33.8416 48.1108H38.7533V35.1786H27.0875V48.1233H31.9596C31.9596 47.8536 31.9596 47.6143 31.9596 47.3751C31.9596 44.6751 31.9596 41.9757 31.9596 39.2769C31.9486 39.0104 31.974 38.7437 32.0352 38.484C32.1701 38.0144 32.5534 37.7268 33.0014 37.8715C33.3216 37.9751 33.5951 38.3233 33.8056 38.6215C33.9135 38.7751 33.8452 39.0554 33.8452 39.2769C33.8452 41.9769 33.8452 44.6763 33.8452 47.3751L33.8416 48.1108ZM24.7972 27.5233V33.2018H41.0526V27.1001C39.0411 28.0751 39.0411 28.0751 36.7022 28.0751C33.8943 28.0751 31.0864 28.0751 28.2785 28.0751C27.1037 28.0733 25.9073 28.2143 24.7972 27.5233ZM14.5599 11.0715C15.4819 11.0757 16.3844 10.8086 17.1534 10.3039C17.9225 9.79924 18.5236 9.07963 18.8807 8.23603C19.2379 7.39242 19.3351 6.46267 19.16 5.56425C18.985 4.66583 18.5456 3.83907 17.8973 3.18842C17.2491 2.53777 16.421 2.09243 15.5179 1.90868C14.6147 1.72493 13.6769 1.81101 12.823 2.15604C11.9691 2.50107 11.2374 3.08957 10.7204 3.84719C10.2033 4.6048 9.92414 5.49753 9.91809 6.41256C9.91191 7.02173 10.0274 7.62608 10.2578 8.19071C10.4883 8.75535 10.8291 9.26908 11.2607 9.70225C11.6923 10.1354 12.206 10.4794 12.7723 10.7145C13.3386 10.9495 13.9461 11.0708 14.5599 11.0715ZM28.2588 6.39828C28.2496 7.3132 28.5138 8.21029 29.0181 8.97623C29.5223 9.74217 30.244 10.3426 31.0919 10.7016C31.9398 11.0607 32.8759 11.1623 33.782 10.9935C34.688 10.8248 35.5234 10.3933 36.1824 9.75361C36.8415 9.11391 37.2948 8.29467 37.485 7.3994C37.6753 6.50412 37.5939 5.57298 37.2511 4.72359C36.9084 3.87421 36.3198 3.14469 35.5595 2.62721C34.7993 2.10972 33.9015 1.82748 32.9798 1.81614C32.3662 1.80501 31.7565 1.91495 31.186 2.13958C30.6156 2.3642 30.0958 2.69903 29.6567 3.12464C29.2177 3.55025 28.8682 4.05816 28.6285 4.6189C28.3889 5.17964 28.2638 5.78203 28.2606 6.39114L28.2588 6.39828ZM8.45537 38.6929V48.0947H13.5686V38.6929H8.45537ZM4.56198 13.0751C2.84198 13.0751 1.9442 13.8572 1.96938 15.3376C1.98917 16.484 2.74842 17.3018 3.91428 17.4304C5.69185 17.6269 6.78394 17.1036 7.1006 15.9019C7.54499 14.2233 6.51587 13.0769 4.56198 13.0751ZM22.8127 20.784V19.3661H17.8938C17.8002 20.6161 17.8218 20.6286 18.9985 20.6518C20.2633 20.6768 21.5299 20.7376 22.8127 20.784Z" fill="#803400"/>
</svg>
