<svg width="56" height="50" viewBox="0 0 56 50" fill="none" xmlns="http://www.w3.org/2000/svg">
<path fill-rule="evenodd" clip-rule="evenodd" d="M26.7026 0.112275C26.3923 0.169996 25.7289 0.412492 25.2284 0.65108C23.4594 1.49457 22.1163 3.25233 21.786 5.15657C21.5833 6.32461 21.704 9.13955 21.9906 9.92432C22.4651 11.2242 23.0743 12.0936 24.0681 12.889L24.5936 13.3098L24.1604 13.6519C23.5728 14.1159 23.0594 14.7692 22.7288 15.4734L22.4537 16.0595H19.3731C15.226 16.0595 14.001 16.272 11.8383 17.366C9.59077 18.5031 7.8011 20.302 6.64019 22.5908C6.42214 23.0207 6.17689 23.5933 6.09518 23.8633C5.9761 24.2567 5.84789 24.4118 5.44915 24.6448C2.91954 26.1229 1.1389 28.4405 0.321999 31.3183C0.0781013 32.1777 0.0733611 32.3346 0.0369063 40.6496L0 49.1068H0.908097H1.81631V41.1339C1.81631 32.4116 1.82274 32.3097 2.48209 30.622C2.67249 30.1348 3.013 29.4599 3.23895 29.1221C3.64808 28.5105 5.17399 26.8892 5.34046 26.8892C5.38854 26.8892 5.42793 31.0843 5.42793 36.2117V45.5341H6.32677H7.2255L7.25789 35.793C7.28171 28.5879 7.32471 25.9925 7.42279 25.8237C7.56578 25.5775 8.33517 25.3035 9.42712 25.1099C9.82801 25.0389 11.9419 24.9912 14.695 24.9912H19.2932L18.778 26.4147C18.4946 27.1976 18.2087 28.026 18.1426 28.2556C17.9728 28.8466 18.1913 30.4039 18.6233 31.6794C18.93 32.5848 18.9714 32.8566 18.9708 33.9572C18.9702 35.3757 18.8739 35.8252 18.4344 36.4617C18.2642 36.7081 17.0219 37.8454 15.6738 38.989L13.2224 41.0683H11.408C9.63208 41.0683 9.58773 41.0741 9.31663 41.3424L9.03955 41.6164V45.0876V48.5588L9.32972 48.8458C9.6077 49.1208 9.66368 49.1308 10.6673 49.0874C12.4034 49.0124 13.5037 48.3303 14.123 46.9455C14.3622 46.4105 14.4187 46.3776 15.3035 46.2584C16.0411 46.159 17.5262 45.6932 18.2379 45.3382C19.2161 44.8502 20.0943 44.2005 21.9013 42.6282C24.4189 40.4377 24.7702 40.0074 25.1081 38.7013C25.1907 38.382 25.3137 38.1024 25.3816 38.0801C25.4493 38.0577 25.6473 38.2525 25.8215 38.5128L26.1383 38.9861L26.1948 44.2798L26.2512 49.5734L26.5177 49.7866C26.7685 49.9876 27.0138 50 30.7269 50H34.6698L34.9599 49.713C35.2377 49.4382 35.2481 49.3823 35.2034 48.4011C35.1271 46.7261 34.4418 45.6088 33.1249 45.0124L32.5301 44.743L32.4897 39.9191C32.4504 35.2361 32.4417 35.0724 32.1888 34.3137C31.7566 33.0172 31.1062 31.925 29.9618 30.5735C29.3638 29.8674 28.6941 29.0724 28.4736 28.807L28.0727 28.3243L28.3972 26.6578L28.7216 24.9912H37.313C42.8868 24.9912 46.1396 25.0329 46.574 25.1099C47.666 25.3035 48.4353 25.5775 48.5783 25.8237C48.6764 25.9925 48.7194 28.5879 48.7432 35.793L48.7756 45.5341H49.6744H50.5732V36.2117C50.5732 31.0219 50.6165 26.8892 50.6711 26.8892C50.8662 26.8892 52.4532 28.6391 52.8624 29.3055C53.0931 29.6813 53.4135 30.3337 53.5743 30.7556C54.173 32.3256 54.1848 32.5263 54.1848 41.1339V49.1068H55.0925H56L55.9621 40.7054C55.9247 32.4198 55.9208 32.291 55.6715 31.36C54.8892 28.4384 53.1292 26.179 50.3405 24.5162C50.161 24.4091 49.9957 24.1597 49.9044 23.858C49.506 22.5419 48.4956 20.9405 47.2534 19.6563C46.214 18.5817 45.3453 17.941 44.0836 17.3182C41.9695 16.2748 40.7105 16.0595 36.7209 16.0595H33.733L32.2303 14.8749L30.7276 13.6904L31.5367 13.1548C32.7326 12.3632 33.4733 11.396 34.0105 9.92432C34.2971 9.13955 34.4178 6.32461 34.2151 5.15657C33.6218 1.73718 30.2262 -0.542754 26.7026 0.112275ZM28.9262 1.89415C29.6666 2.04945 30.2786 2.34632 30.9219 2.86268C31.3684 3.22084 32.0636 4.13177 32.0636 4.35852C32.0636 4.40787 30.8678 4.44829 29.4063 4.44829H26.7488L26.4718 4.72238C26.209 4.9824 26.1948 5.06379 26.1948 6.31535V7.63445L25.0628 8.74879C24.2076 9.59072 23.9071 9.8254 23.8335 9.70862C23.5865 9.31651 23.462 8.18788 23.504 6.71995C23.5456 5.2623 23.5685 5.131 23.9057 4.42138C24.8238 2.489 26.8643 1.46186 28.9262 1.89415ZM32.4877 7.65812C32.4266 9.26158 32.2646 9.81959 31.6118 10.6739C30.6913 11.8788 29.536 12.4318 27.9441 12.4295C27.0334 12.4283 26.8524 12.3915 26.1948 12.0733C24.8341 11.415 24.8101 11.5805 26.511 9.88122L28.0006 8.3932V7.31391V6.23463H30.2711H32.5417L32.4877 7.65812ZM28.8067 14.5911C29.0772 14.722 30.9084 16.102 32.876 17.6579C36.4885 20.5146 37.3322 21.0629 38.4122 21.2561L38.8354 21.3318V22.2844V23.2369L37.6786 23.1745C35.5456 23.0594 34.8242 22.7277 31.3303 20.256C28.3012 18.113 28.273 18.1205 27.6657 21.2232L27.2778 23.2049H24.5919C23.1146 23.2049 21.906 23.1664 21.906 23.1194C21.906 22.8783 24.3307 16.2717 24.5657 15.8724C25.3844 14.4814 27.3512 13.8872 28.8067 14.5911ZM21.7731 17.9927C21.753 18.0735 21.3307 19.2793 20.8345 20.6722L19.9323 23.2049L14.9657 23.2093C11.337 23.2126 9.77079 23.2539 9.15241 23.3629C8.68685 23.4449 8.28833 23.4967 8.26689 23.478C8.16317 23.3875 9.00592 22.0528 9.63287 21.3147C11.0925 19.5962 13.1262 18.436 15.4163 18.0152C16.5483 17.8072 21.8239 17.7886 21.7731 17.9927ZM40.5284 18.0055C42.9827 18.4458 45.1973 19.7685 46.6488 21.661C47.2269 22.4148 47.8171 23.407 47.7313 23.481C47.7114 23.4981 47.3143 23.4449 46.8487 23.3629C46.3832 23.2809 45.5857 23.2118 45.0764 23.2093L44.1506 23.2049L44.2172 22.6492C44.3101 21.873 44.0837 21.1786 43.5375 20.5648C42.8615 19.8051 42.5543 19.7094 40.5284 19.6283C38.4498 19.545 37.951 19.39 36.7573 18.4562L35.9769 17.8458L37.8295 17.8498C38.8828 17.852 40.047 17.9192 40.5284 18.0055ZM30.9555 22.1721L32.3378 23.1491L30.7744 23.1802C29.9145 23.1974 29.189 23.1896 29.1621 23.163C29.1097 23.1111 29.4737 21.1952 29.5361 21.1952C29.5566 21.1952 30.1953 21.6349 30.9555 22.1721ZM42.17 21.6926C42.3447 21.8653 42.447 22.0942 42.447 22.3117C42.447 22.8818 42.0202 23.2049 41.2671 23.2049H40.6412V22.3117V21.4185H41.2671C41.7812 21.4185 41.9426 21.4675 42.17 21.6926ZM26.8383 25.2982C26.8043 25.4671 26.6865 26.0701 26.5766 26.638L26.3767 27.6707H23.3127H20.2486L20.615 26.638C20.8166 26.0701 21.0359 25.4671 21.1024 25.2982L21.2231 24.9912H24.0616H26.9001L26.8383 25.2982ZM28.0426 31.0649C29.6169 32.9395 30.0157 33.5362 30.3795 34.5603C30.644 35.3052 30.6495 35.4002 30.6858 39.9797L30.7228 44.641H29.3685H28.0142L27.9792 41.7103L27.9441 38.7795L27.6281 38.1097C27.2298 37.2651 26.4594 36.4824 25.7058 36.1566C23.5944 35.2438 23.2153 35.0126 22.2414 34.0434C21.5798 33.385 21.1509 32.8412 20.8699 32.3041C20.434 31.4708 19.9873 30.1654 19.9873 29.7245V29.4571L23.345 29.4632L26.7026 29.4692L28.0426 31.0649ZM22.8127 36.7813L23.5126 37.2087L23.4513 37.7962C23.3418 38.8463 22.9619 39.3386 20.8645 41.1485C19.8126 42.0561 18.7405 42.9415 18.482 43.116C17.4406 43.8189 16.3076 44.2729 14.9931 44.5139L14.457 44.6122L14.4604 43.4822L14.4636 42.3522L16.7863 40.3984C20.0295 37.67 20.3235 37.3085 20.7134 35.5678L20.7826 35.2589L21.4476 35.8064C21.8134 36.1075 22.4277 36.5462 22.8127 36.7813ZM12.6311 44.5216C12.5989 45.998 12.5681 46.2237 12.362 46.4964C12.0376 46.9256 11.6425 47.194 11.2122 47.2773L10.8454 47.3484V45.1015V42.8546H11.7564H12.6674L12.6311 44.5216ZM32.5848 46.7134C33.0188 47.0342 33.29 47.425 33.3743 47.8508L33.4462 48.2137H30.7234H28.0006V47.3137V46.4138L30.1371 46.4484C32.088 46.4801 32.3007 46.5031 32.5848 46.7134Z" fill="#803400"/>
</svg>
