<svg width="44" height="50" viewBox="0 0 44 50" fill="none" xmlns="http://www.w3.org/2000/svg">
<path d="M21.9992 50C21.5848 50 21.1874 49.8354 20.8944 49.5424C20.6013 49.2493 20.4367 48.8519 20.4367 48.4375V44.3969L18.418 46.4188C18.1246 46.7117 17.7268 46.8762 17.3122 46.8759C16.8975 46.8756 16.5 46.7106 16.207 46.4172C15.914 46.1238 15.7496 45.726 15.7499 45.3114C15.7502 44.8968 15.9152 44.4992 16.2086 44.2062L20.4367 39.9781V27.7063L9.81171 33.8406L8.26171 39.6219C8.15397 40.0222 7.89161 40.3633 7.53236 40.5702C7.17311 40.7771 6.7464 40.8327 6.34609 40.725C5.94577 40.6173 5.60466 40.3549 5.39778 39.9957C5.19091 39.6364 5.13522 39.2097 5.24296 38.8094L5.98359 36.0531L2.48359 38.0719C2.1249 38.2758 1.70011 38.3296 1.30192 38.2215C0.903731 38.1134 0.564464 37.8522 0.358156 37.4948C0.151849 37.1375 0.0952514 36.7131 0.200714 36.3142C0.306177 35.9153 0.565138 35.5743 0.921085 35.3656L4.42109 33.3469L1.65859 32.6063C1.46037 32.5529 1.27461 32.461 1.1119 32.3359C0.949187 32.2107 0.812718 32.0548 0.710284 31.8769C0.607849 31.699 0.541454 31.5027 0.514889 31.2992C0.488325 31.0956 0.502111 30.8888 0.55546 30.6906C0.60881 30.4924 0.700678 30.3066 0.82582 30.1439C0.950962 29.9812 1.10693 29.8448 1.28481 29.7423C1.46269 29.6399 1.65901 29.5735 1.86255 29.5469C2.06609 29.5204 2.27287 29.5342 2.47109 29.5875L8.24609 31.1344L18.8742 25L8.24921 18.8656L2.46796 20.4125C2.07025 20.5116 1.64952 20.4505 1.29646 20.2423C0.943396 20.0341 0.686271 19.6956 0.580509 19.2996C0.474747 18.9036 0.528818 18.4819 0.731066 18.1254C0.933314 17.7689 1.26754 17.5061 1.66171 17.3937L4.42109 16.6531L0.921085 14.6344C0.741952 14.5325 0.584733 14.3963 0.45848 14.2334C0.332228 14.0705 0.239435 13.8843 0.185445 13.6855C0.131455 13.4866 0.117333 13.279 0.143893 13.0747C0.170454 12.8703 0.237171 12.6733 0.340205 12.4948C0.443238 12.3163 0.580553 12.16 0.744242 12.0349C0.907932 11.9097 1.09476 11.8181 1.29398 11.7655C1.4932 11.7128 1.70087 11.7001 1.90503 11.728C2.10919 11.7559 2.30582 11.8239 2.48359 11.9281L5.98359 13.9469L5.24296 11.1875C5.1861 10.9881 5.16951 10.7793 5.19417 10.5734C5.21882 10.3674 5.28422 10.1685 5.38656 9.98811C5.48889 9.80773 5.62612 9.64952 5.79022 9.52272C5.95433 9.39591 6.14204 9.30304 6.34241 9.24953C6.54278 9.19601 6.75179 9.18292 6.95727 9.21102C7.16275 9.23912 7.36058 9.30784 7.53922 9.41318C7.71787 9.51852 7.87376 9.65837 7.9978 9.82457C8.12184 9.99078 8.21156 10.18 8.26171 10.3813L9.80859 16.1594L20.4367 22.2937V10.0219L16.2086 5.79375C16.0633 5.64868 15.948 5.47642 15.8693 5.2868C15.7906 5.09718 15.75 4.89391 15.7499 4.6886C15.7498 4.4833 15.7901 4.27998 15.8685 4.09025C15.9469 3.90051 16.062 3.72809 16.207 3.58281C16.3521 3.43754 16.5244 3.32226 16.714 3.24356C16.9036 3.16486 17.1069 3.12428 17.3122 3.12413C17.5175 3.12399 17.7208 3.16428 17.9105 3.24271C18.1003 3.32115 18.2727 3.43618 18.418 3.58125L20.4367 5.60313V1.5625C20.4367 1.1481 20.6013 0.750671 20.8944 0.457646C21.1874 0.16462 21.5848 0 21.9992 0C22.4136 0 22.811 0.16462 23.1041 0.457646C23.3971 0.750671 23.5617 1.1481 23.5617 1.5625V5.60313L25.5836 3.58125C25.877 3.28827 26.2747 3.12384 26.6894 3.12413C27.104 3.12442 27.5015 3.28942 27.7945 3.58281C28.0875 3.87621 28.2519 4.27397 28.2516 4.6886C28.2513 5.10324 28.0864 5.50077 27.793 5.79375L23.5617 10.0219V22.2937L34.1867 16.1594L35.7367 10.3781C35.8445 9.97781 36.1068 9.6367 36.4661 9.42982C36.8253 9.22295 37.252 9.16726 37.6523 9.275C38.0526 9.38274 38.3938 9.6451 38.6006 10.0043C38.8075 10.3636 38.8632 10.7903 38.7555 11.1906L38.018 13.9469L41.518 11.9281C41.8766 11.7242 42.3014 11.6704 42.6996 11.7785C43.0978 11.8866 43.4371 12.1478 43.6434 12.5052C43.8497 12.8625 43.9063 13.2869 43.8008 13.6858C43.6954 14.0847 43.4364 14.4257 43.0805 14.6344L39.5805 16.6531L42.3398 17.3937C42.7401 17.5015 43.0813 17.7638 43.2881 18.1231C43.495 18.4823 43.5507 18.9091 43.443 19.3094C43.3352 19.7097 43.0729 20.0508 42.7136 20.2577C42.3544 20.4646 41.9276 20.5202 41.5273 20.4125L35.7523 18.8656L25.1242 25L35.7492 31.1344L41.5273 29.5875C41.9276 29.4802 42.3542 29.5363 42.7132 29.7434C43.0721 29.9506 43.3341 30.2919 43.4414 30.6922C43.5487 31.0925 43.4926 31.5191 43.2855 31.878C43.0783 32.237 42.737 32.4989 42.3367 32.6063L39.5773 33.3469L43.0773 35.3656C43.4333 35.5743 43.6922 35.9153 43.7977 36.3142C43.9032 36.7131 43.8466 37.1375 43.6403 37.4948C43.434 37.8522 43.0947 38.1134 42.6965 38.2215C42.2983 38.3296 41.8735 38.2758 41.5148 38.0719L38.0148 36.0531L38.7523 38.8125C38.8092 39.0119 38.8258 39.2207 38.8011 39.4266C38.7765 39.6325 38.7111 39.8315 38.6087 40.0119C38.5064 40.1923 38.3692 40.3505 38.2051 40.4773C38.041 40.6041 37.8533 40.697 37.6529 40.7505C37.4525 40.804 37.2435 40.8171 37.038 40.789C36.8325 40.7609 36.6347 40.6922 36.4561 40.5868C36.2774 40.4815 36.1215 40.3416 35.9975 40.1754C35.8735 40.0092 35.7837 39.82 35.7336 39.6188L34.1867 33.8406L23.5617 27.7063V39.9781L27.7898 44.2062C28.0832 44.4992 28.2482 44.8968 28.2485 45.3114C28.2488 45.726 28.0844 46.1238 27.7914 46.4172C27.4984 46.7106 27.1009 46.8756 26.6863 46.8759C26.2716 46.8762 25.8739 46.7117 25.5805 46.4188L23.5586 44.3969V48.4375C23.5586 48.8519 23.394 49.2493 23.1009 49.5424C22.8079 49.8354 22.4105 50 21.9961 50H21.9992Z" fill="#803400"/>
</svg>
