<svg width="15" height="18" viewBox="0 0 15 18" fill="none" xmlns="http://www.w3.org/2000/svg">
<path d="M12.4941 2.32941C13.2 3.05098 13.7333 3.85882 14.0941 4.75294C14.4549 5.64706 14.6353 6.5647 14.6353 7.50588C14.6353 8.44706 14.4549 9.3647 14.0941 10.2588C13.7333 11.1529 13.2 11.9608 12.4941 12.6823L7.69412 17.4823C7.58431 17.5922 7.45882 17.6471 7.31765 17.6471C7.17647 17.6471 7.05098 17.5922 6.94118 17.4823L2.14118 12.6823C1.43529 11.9765 0.901961 11.1686 0.541176 10.2588C0.180392 9.34902 0 8.43137 0 7.50588C0 6.58039 0.180392 5.66274 0.541176 4.75294C0.901961 3.84313 1.43922 3.03529 2.15294 2.32941C2.86667 1.62353 3.67059 1.09019 4.56471 0.729409C5.45882 0.368625 6.37647 0.188232 7.31765 0.188232C8.25882 0.188232 9.17647 0.368625 10.0706 0.729409C10.9647 1.09019 11.7725 1.62353 12.4941 2.32941ZM9.01176 9.2C9.24706 8.9647 9.41961 8.69804 9.52941 8.4C9.63922 8.10196 9.69412 7.80392 9.69412 7.50588C9.69412 7.20784 9.63922 6.9098 9.52941 6.61176C9.41961 6.31372 9.24706 6.04706 9.01176 5.81176C8.77647 5.57647 8.5098 5.40392 8.21177 5.29411C7.91373 5.18431 7.61569 5.12941 7.31765 5.12941C7.01961 5.12941 6.72157 5.18431 6.42353 5.29411C6.12549 5.40392 5.85882 5.57647 5.62353 5.81176C5.38824 6.04706 5.21569 6.31372 5.10588 6.61176C4.99608 6.9098 4.93333 7.20784 4.91765 7.50588C4.90196 7.80392 4.96471 8.10196 5.10588 8.4C5.24706 8.69804 5.41961 8.9647 5.62353 9.2C5.82745 9.43529 6.09412 9.60784 6.42353 9.71764C6.75294 9.82745 7.05098 9.89019 7.31765 9.90588C7.58431 9.92157 7.88235 9.85882 8.21177 9.71764C8.54118 9.57647 8.80784 9.40392 9.01176 9.2Z" fill="#8E6C53"/>
</svg>
