<svg width="541" height="71" viewBox="0 0 541 71" fill="none" xmlns="http://www.w3.org/2000/svg">
<path d="M145.14 20.38C145.367 20.7133 145.613 20.98 145.88 21.18C146.16 21.3667 146.5 21.5067 146.9 21.6V22C146.26 21.96 145.46 21.94 144.5 21.94C143.78 21.94 143.093 21.96 142.44 22V21.6C142.76 21.5867 142.993 21.5467 143.14 21.48C143.287 21.4133 143.36 21.3133 143.36 21.18C143.36 21.0467 143.293 20.8867 143.16 20.7L140.24 16.3C139.853 15.7133 139.527 15.3333 139.26 15.16C138.993 14.9733 138.62 14.8667 138.14 14.84V19.88C138.14 20.3867 138.18 20.7533 138.26 20.98C138.34 21.2067 138.487 21.36 138.7 21.44C138.927 21.52 139.28 21.5733 139.76 21.6V22C139.147 21.96 138.3 21.94 137.22 21.94C136.073 21.94 135.22 21.96 134.66 22V21.6C135.14 21.5733 135.487 21.52 135.7 21.44C135.927 21.36 136.08 21.2067 136.16 20.98C136.24 20.7533 136.28 20.3867 136.28 19.88V9.95999C136.28 9.45332 136.24 9.08666 136.16 8.85999C136.08 8.63332 135.927 8.47999 135.7 8.39999C135.487 8.31999 135.14 8.26666 134.66 8.23999V7.83999C135.22 7.87999 136.073 7.89999 137.22 7.89999C138.287 7.89999 139.133 7.87999 139.76 7.83999V8.23999C139.28 8.26666 138.927 8.31999 138.7 8.39999C138.487 8.47999 138.34 8.63332 138.26 8.85999C138.18 9.08666 138.14 9.45332 138.14 9.95999V14.44C139.113 14.4 139.874 14.0267 140.42 13.32L142.34 10.88C143.02 10.04 143.36 9.39999 143.36 8.95999C143.36 8.49332 142.947 8.25332 142.12 8.23999V7.83999C142.88 7.87999 143.647 7.89999 144.42 7.89999C145.154 7.89999 145.72 7.87999 146.12 7.83999V8.23999C145.68 8.30666 145.267 8.45332 144.88 8.67999C144.493 8.89332 144.12 9.23332 143.76 9.69999L140.5 13.88L145.14 20.38Z" fill="white"/>
<path d="M158.266 20.32C158.586 21.1467 159.046 21.5733 159.646 21.6V22C159.112 21.96 158.399 21.94 157.506 21.94C156.359 21.94 155.506 21.96 154.946 22V21.6C155.452 21.5733 155.812 21.5133 156.026 21.42C156.252 21.3133 156.366 21.1267 156.366 20.86C156.366 20.6333 156.286 20.32 156.126 19.92L154.906 16.64H150.066L149.246 18.76C148.979 19.48 148.846 20.0267 148.846 20.4C148.846 20.8133 148.986 21.1133 149.266 21.3C149.559 21.4867 149.999 21.5867 150.586 21.6V22C149.826 21.96 149.059 21.94 148.286 21.94C147.686 21.94 147.186 21.96 146.786 22V21.6C147.452 21.44 147.979 20.86 148.366 19.86L153.066 7.73999H153.386L158.266 20.32ZM154.746 16.24L152.506 10.26L150.226 16.24H154.746Z" fill="white"/>
<path d="M163.453 16.28V19.88C163.453 20.3867 163.506 20.7533 163.613 20.98C163.719 21.2067 163.906 21.36 164.173 21.44C164.439 21.52 164.873 21.5733 165.473 21.6V22C164.779 21.96 163.799 21.94 162.533 21.94C161.386 21.94 160.533 21.96 159.973 22V21.6C160.453 21.5733 160.799 21.52 161.013 21.44C161.239 21.36 161.393 21.2067 161.473 20.98C161.553 20.7533 161.593 20.3867 161.593 19.88V9.95999C161.593 9.45332 161.553 9.08666 161.473 8.85999C161.393 8.63332 161.239 8.47999 161.013 8.39999C160.799 8.31999 160.453 8.26666 159.973 8.23999V7.83999C160.533 7.87999 161.346 7.89999 162.413 7.89999L164.573 7.87999C164.826 7.86666 165.113 7.85999 165.433 7.85999C166.993 7.85999 168.186 8.21999 169.013 8.93999C169.839 9.64666 170.253 10.6 170.253 11.8C170.253 12.5333 170.086 13.24 169.753 13.92C169.433 14.5867 168.879 15.1467 168.093 15.6C167.319 16.0533 166.286 16.28 164.993 16.28H163.453ZM164.933 8.23999C164.519 8.23999 164.206 8.28666 163.993 8.37999C163.793 8.47332 163.653 8.63999 163.573 8.87999C163.493 9.11999 163.453 9.47999 163.453 9.95999V15.88H164.793C166.099 15.88 166.999 15.5333 167.493 14.84C167.999 14.1333 168.253 13.1933 168.253 12.02C168.253 10.7267 167.993 9.77332 167.473 9.15999C166.966 8.54666 166.119 8.23999 164.933 8.23999Z" fill="white"/>
<path d="M176.772 8.23999C176.292 8.26666 175.939 8.31999 175.712 8.39999C175.499 8.47999 175.352 8.63332 175.272 8.85999C175.192 9.08666 175.152 9.45332 175.152 9.95999V19.88C175.152 20.3867 175.192 20.7533 175.272 20.98C175.352 21.2067 175.499 21.36 175.712 21.44C175.939 21.52 176.292 21.5733 176.772 21.6V22C176.159 21.96 175.312 21.94 174.232 21.94C173.085 21.94 172.232 21.96 171.672 22V21.6C172.152 21.5733 172.499 21.52 172.712 21.44C172.939 21.36 173.092 21.2067 173.172 20.98C173.252 20.7533 173.292 20.3867 173.292 19.88V9.95999C173.292 9.45332 173.252 9.08666 173.172 8.85999C173.092 8.63332 172.939 8.47999 172.712 8.39999C172.499 8.31999 172.152 8.26666 171.672 8.23999V7.83999C172.232 7.87999 173.085 7.89999 174.232 7.89999C175.299 7.89999 176.145 7.87999 176.772 7.83999V8.23999Z" fill="white"/>
<path d="M189.449 7.83999C189.356 8.78666 189.309 9.63999 189.309 10.4C189.309 11.0667 189.329 11.6133 189.369 12.04H188.909C188.803 11.0133 188.669 10.2533 188.509 9.75999C188.349 9.25332 188.069 8.88666 187.669 8.65999C187.269 8.41999 186.656 8.29999 185.829 8.29999H184.749V19.68C184.749 20.24 184.803 20.6467 184.909 20.9C185.016 21.1533 185.203 21.3267 185.469 21.42C185.736 21.5133 186.169 21.5733 186.769 21.6V22C186.076 21.96 185.096 21.94 183.829 21.94C182.496 21.94 181.509 21.96 180.869 22V21.6C181.469 21.5733 181.903 21.5133 182.169 21.42C182.436 21.3267 182.623 21.1533 182.729 20.9C182.836 20.6467 182.889 20.24 182.889 19.68V8.29999H181.809C180.983 8.29999 180.369 8.41999 179.969 8.65999C179.569 8.88666 179.289 9.25332 179.129 9.75999C178.969 10.2533 178.836 11.0133 178.729 12.04H178.269C178.309 11.6133 178.329 11.0667 178.329 10.4C178.329 9.63999 178.283 8.78666 178.189 7.83999C179.296 7.87999 181.176 7.89999 183.829 7.89999C186.469 7.89999 188.343 7.87999 189.449 7.83999Z" fill="white"/>
<path d="M203.131 8.23999C202.664 8.26666 202.318 8.33999 202.091 8.45999C201.864 8.56666 201.711 8.75332 201.631 9.01999C201.551 9.27332 201.511 9.65332 201.511 10.16V16.18C201.511 17.14 201.444 17.9667 201.311 18.66C201.191 19.34 200.984 19.9267 200.691 20.42C200.358 20.9933 199.864 21.4467 199.211 21.78C198.571 22.1133 197.844 22.28 197.031 22.28C195.564 22.28 194.444 21.92 193.671 21.2C193.084 20.6533 192.691 20.0333 192.491 19.34C192.291 18.6467 192.191 17.6133 192.191 16.24V9.95999C192.191 9.45332 192.151 9.08666 192.071 8.85999C191.991 8.63332 191.838 8.47999 191.611 8.39999C191.398 8.31999 191.051 8.26666 190.571 8.23999V7.83999C191.131 7.87999 191.984 7.89999 193.131 7.89999C194.211 7.89999 195.058 7.87999 195.671 7.83999V8.23999C195.191 8.26666 194.838 8.31999 194.611 8.39999C194.398 8.47999 194.251 8.63332 194.171 8.85999C194.091 9.08666 194.051 9.45332 194.051 9.95999V16.58C194.051 17.6467 194.124 18.5333 194.271 19.24C194.418 19.9467 194.718 20.5133 195.171 20.94C195.638 21.3667 196.318 21.58 197.211 21.58C198.624 21.58 199.618 21.1267 200.191 20.22C200.764 19.3133 201.051 18.04 201.051 16.4V10.16C201.051 9.43999 200.918 8.94666 200.651 8.67999C200.398 8.41332 199.924 8.26666 199.231 8.23999V7.83999C199.711 7.87999 200.391 7.89999 201.271 7.89999C202.071 7.89999 202.691 7.87999 203.131 7.83999V8.23999Z" fill="white"/>
<path d="M209.604 8.23999C209.124 8.26666 208.771 8.31999 208.544 8.39999C208.331 8.47999 208.184 8.63332 208.104 8.85999C208.024 9.08666 207.984 9.45332 207.984 9.95999V19.88C207.984 20.3867 208.024 20.7533 208.104 20.98C208.184 21.2067 208.331 21.36 208.544 21.44C208.771 21.5067 209.124 21.54 209.604 21.54H211.064C211.891 21.54 212.517 21.4267 212.944 21.2C213.384 20.96 213.704 20.58 213.904 20.06C214.104 19.54 214.251 18.7867 214.344 17.8H214.804C214.764 18.2133 214.744 18.76 214.744 19.44C214.744 20.2 214.791 21.0533 214.884 22C213.977 21.96 212.451 21.94 210.304 21.94C207.744 21.94 205.811 21.96 204.504 22V21.6C204.984 21.5733 205.331 21.52 205.544 21.44C205.771 21.36 205.924 21.2067 206.004 20.98C206.084 20.7533 206.124 20.3867 206.124 19.88V9.95999C206.124 9.45332 206.084 9.08666 206.004 8.85999C205.924 8.63332 205.771 8.47999 205.544 8.39999C205.331 8.31999 204.984 8.26666 204.504 8.23999V7.83999C205.064 7.87999 205.917 7.89999 207.064 7.89999C208.131 7.89999 208.977 7.87999 209.604 7.83999V8.23999ZM212.724 12.54V13L207.044 16.3V16.1L204.104 17.8V17.34L207.044 15.64V15.84L212.724 12.54Z" fill="white"/>
<path d="M226.762 20.32C227.082 21.1467 227.542 21.5733 228.142 21.6V22C227.608 21.96 226.895 21.94 226.002 21.94C224.855 21.94 224.002 21.96 223.442 22V21.6C223.948 21.5733 224.308 21.5133 224.522 21.42C224.748 21.3133 224.862 21.1267 224.862 20.86C224.862 20.6333 224.782 20.32 224.622 19.92L223.402 16.64H218.562L217.742 18.76C217.475 19.48 217.342 20.0267 217.342 20.4C217.342 20.8133 217.482 21.1133 217.762 21.3C218.055 21.4867 218.495 21.5867 219.082 21.6V22C218.322 21.96 217.555 21.94 216.782 21.94C216.182 21.94 215.682 21.96 215.282 22V21.6C215.948 21.44 216.475 20.86 216.862 19.86L221.562 7.73999H221.882L226.762 20.32ZM223.242 16.24L221.002 10.26L218.722 16.24H223.242Z" fill="white"/>
<path d="M118.238 38.28V41.88C118.238 42.3867 118.291 42.7533 118.398 42.98C118.504 43.2067 118.691 43.36 118.958 43.44C119.224 43.52 119.658 43.5733 120.258 43.6V44C119.564 43.96 118.584 43.94 117.318 43.94C116.171 43.94 115.318 43.96 114.758 44V43.6C115.238 43.5733 115.584 43.52 115.798 43.44C116.024 43.36 116.178 43.2067 116.258 42.98C116.338 42.7533 116.378 42.3867 116.378 41.88V31.96C116.378 31.4533 116.338 31.0867 116.258 30.86C116.178 30.6333 116.024 30.48 115.798 30.4C115.584 30.32 115.238 30.2667 114.758 30.24V29.84C115.318 29.88 116.131 29.9 117.198 29.9L119.358 29.88C119.611 29.8667 119.898 29.86 120.218 29.86C121.778 29.86 122.971 30.22 123.798 30.94C124.624 31.6467 125.038 32.6 125.038 33.8C125.038 34.5333 124.871 35.24 124.538 35.92C124.218 36.5867 123.664 37.1467 122.878 37.6C122.104 38.0533 121.071 38.28 119.778 38.28H118.238ZM119.718 30.24C119.304 30.24 118.991 30.2867 118.778 30.38C118.578 30.4733 118.438 30.64 118.358 30.88C118.278 31.12 118.238 31.48 118.238 31.96V37.88H119.578C120.884 37.88 121.784 37.5333 122.278 36.84C122.784 36.1333 123.038 35.1933 123.038 34.02C123.038 32.7267 122.778 31.7733 122.258 31.16C121.751 30.5467 120.904 30.24 119.718 30.24Z" fill="white"/>
<path d="M133.037 29.56C134.304 29.56 135.41 29.8467 136.357 30.42C137.317 30.9933 138.057 31.8267 138.577 32.92C139.11 34 139.377 35.2933 139.377 36.8C139.377 38.2667 139.104 39.5667 138.557 40.7C138.024 41.8333 137.27 42.7133 136.297 43.34C135.337 43.9667 134.244 44.28 133.017 44.28C131.75 44.28 130.637 43.9933 129.677 43.42C128.73 42.8467 127.99 42.02 127.457 40.94C126.937 39.8467 126.677 38.5467 126.677 37.04C126.677 35.5733 126.944 34.2733 127.477 33.14C128.024 32.0067 128.777 31.1267 129.737 30.5C130.71 29.8733 131.81 29.56 133.037 29.56ZM132.957 29.92C132.104 29.92 131.35 30.22 130.697 30.82C130.057 31.4067 129.557 32.2333 129.197 33.3C128.85 34.3667 128.677 35.5867 128.677 36.96C128.677 38.3467 128.87 39.5667 129.257 40.62C129.657 41.6733 130.19 42.4867 130.857 43.06C131.524 43.6333 132.27 43.92 133.097 43.92C133.95 43.92 134.697 43.6267 135.337 43.04C135.99 42.44 136.49 41.6067 136.837 40.54C137.197 39.4733 137.377 38.2533 137.377 36.88C137.377 35.4933 137.177 34.2733 136.777 33.22C136.39 32.1667 135.864 31.3533 135.197 30.78C134.53 30.2067 133.784 29.92 132.957 29.92Z" fill="white"/>
<path d="M139.905 47.38C140.838 47.3533 141.525 47.0067 141.965 46.34C142.418 45.6733 142.645 44.5467 142.645 42.96V31.96C142.645 31.4533 142.605 31.0867 142.525 30.86C142.445 30.6333 142.291 30.48 142.065 30.4C141.851 30.32 141.505 30.2667 141.025 30.24V29.84C141.585 29.88 142.425 29.9 143.545 29.9C144.638 29.9 145.498 29.88 146.125 29.84V30.24C145.645 30.2667 145.291 30.32 145.065 30.4C144.851 30.48 144.705 30.6333 144.625 30.86C144.545 31.0867 144.505 31.4533 144.505 31.96V39.28C144.505 40.4133 144.485 41.42 144.445 42.3C144.405 43.1667 144.311 43.9 144.165 44.5C143.925 45.4733 143.431 46.26 142.685 46.86C141.951 47.46 141.025 47.76 139.905 47.76V47.38Z" fill="white"/>
<path d="M157.908 41.44C157.908 42.2 157.955 43.0533 158.048 44C157.141 43.96 155.615 43.94 153.468 43.94C150.908 43.94 148.975 43.96 147.668 44V43.6C148.148 43.5733 148.495 43.52 148.708 43.44C148.935 43.36 149.088 43.2067 149.168 42.98C149.248 42.7533 149.288 42.3867 149.288 41.88V31.96C149.288 31.4533 149.248 31.0867 149.168 30.86C149.088 30.6333 148.935 30.48 148.708 30.4C148.495 30.32 148.148 30.2667 147.668 30.24V29.84C148.975 29.88 150.908 29.9 153.468 29.9C155.428 29.9 156.821 29.88 157.648 29.84C157.555 30.72 157.508 31.5067 157.508 32.2C157.508 32.72 157.528 33.1333 157.568 33.44H157.108C157.015 32.5733 156.895 31.9333 156.748 31.52C156.601 31.0933 156.355 30.7867 156.008 30.6C155.661 30.4 155.135 30.3 154.428 30.3H152.768C152.288 30.3 151.935 30.34 151.708 30.42C151.495 30.4867 151.348 30.6333 151.268 30.86C151.188 31.0867 151.148 31.4533 151.148 31.96V36.68H152.468C152.935 36.68 153.295 36.5733 153.548 36.36C153.801 36.1333 153.968 35.8733 154.048 35.58C154.141 35.2733 154.215 34.8933 154.268 34.44L154.328 34.04H154.788C154.748 34.6 154.728 35.2267 154.728 35.92V36.88C154.728 37.56 154.768 38.5067 154.848 39.72H154.388C154.375 39.6267 154.335 39.3067 154.268 38.76C154.201 38.2 154.015 37.78 153.708 37.5C153.415 37.22 153.001 37.08 152.468 37.08H151.148V41.88C151.148 42.3867 151.188 42.7533 151.268 42.98C151.348 43.2067 151.495 43.36 151.708 43.44C151.935 43.5067 152.288 43.54 152.768 43.54H154.228C155.055 43.54 155.681 43.4333 156.108 43.22C156.548 42.9933 156.868 42.64 157.068 42.16C157.268 41.6667 157.415 40.9467 157.508 40H157.968C157.928 40.36 157.908 40.84 157.908 41.44Z" fill="white"/>
<path d="M165.315 29.84C167.675 29.84 169.442 30.4333 170.615 31.62C171.789 32.7933 172.375 34.5067 172.375 36.76C172.375 38.2133 172.089 39.4867 171.515 40.58C170.942 41.6733 170.109 42.52 169.015 43.12C167.935 43.7067 166.642 44 165.135 44L163.975 43.98C163.229 43.9533 162.682 43.94 162.335 43.94C161.242 43.94 160.415 43.96 159.855 44V43.6C160.335 43.5733 160.682 43.52 160.895 43.44C161.122 43.36 161.275 43.2067 161.355 42.98C161.435 42.7533 161.475 42.3867 161.475 41.88V31.96C161.475 31.4533 161.435 31.0867 161.355 30.86C161.275 30.6333 161.122 30.48 160.895 30.4C160.682 30.32 160.335 30.2667 159.855 30.24V29.84C160.322 29.88 160.969 29.9 161.795 29.9L163.495 29.88C164.402 29.8533 165.009 29.84 165.315 29.84ZM164.815 30.2C164.402 30.2 164.089 30.2467 163.875 30.34C163.675 30.4333 163.535 30.6 163.455 30.84C163.375 31.08 163.335 31.44 163.335 31.92V41.92C163.335 42.4 163.375 42.76 163.455 43C163.535 43.24 163.675 43.4067 163.875 43.5C164.089 43.5933 164.409 43.64 164.835 43.64C166.249 43.64 167.362 43.3867 168.175 42.88C168.989 42.36 169.555 41.6067 169.875 40.62C170.209 39.6333 170.375 38.3733 170.375 36.84C170.375 35.3067 170.195 34.06 169.835 33.1C169.475 32.1267 168.889 31.4 168.075 30.92C167.275 30.44 166.189 30.2 164.815 30.2Z" fill="white"/>
<path d="M186.693 30.24C186.226 30.2667 185.879 30.34 185.653 30.46C185.426 30.5667 185.273 30.7533 185.193 31.02C185.113 31.2733 185.073 31.6533 185.073 32.16V44.1H184.613L176.213 31.12V41.68C176.213 42.2 176.253 42.5867 176.333 42.84C176.426 43.0933 176.599 43.28 176.853 43.4C177.106 43.5067 177.499 43.5733 178.033 43.6V44C177.553 43.96 176.873 43.94 175.993 43.94C175.193 43.94 174.573 43.96 174.133 44V43.6C174.599 43.5733 174.946 43.5067 175.173 43.4C175.399 43.28 175.553 43.0933 175.633 42.84C175.713 42.5733 175.753 42.1867 175.753 41.68V31.96C175.753 31.4533 175.713 31.0867 175.633 30.86C175.553 30.6333 175.399 30.48 175.173 30.4C174.959 30.32 174.613 30.2667 174.133 30.24V29.84C174.573 29.88 175.193 29.9 175.993 29.9C176.593 29.9 177.113 29.88 177.553 29.84L184.613 40.72V32.16C184.613 31.64 184.566 31.2533 184.473 31C184.393 30.7467 184.226 30.5667 183.973 30.46C183.719 30.34 183.326 30.2667 182.793 30.24V29.84C183.273 29.88 183.953 29.9 184.833 29.9C185.633 29.9 186.253 29.88 186.693 29.84V30.24Z" fill="white"/>
<path d="M198.637 42.32C198.957 43.1467 199.417 43.5733 200.017 43.6V44C199.483 43.96 198.77 43.94 197.877 43.94C196.73 43.94 195.877 43.96 195.317 44V43.6C195.823 43.5733 196.183 43.5133 196.397 43.42C196.623 43.3133 196.737 43.1267 196.737 42.86C196.737 42.6333 196.657 42.32 196.497 41.92L195.277 38.64H190.437L189.617 40.76C189.35 41.48 189.217 42.0267 189.217 42.4C189.217 42.8133 189.357 43.1133 189.637 43.3C189.93 43.4867 190.37 43.5867 190.957 43.6V44C190.197 43.96 189.43 43.94 188.657 43.94C188.057 43.94 187.557 43.96 187.157 44V43.6C187.823 43.44 188.35 42.86 188.737 41.86L193.437 29.74H193.757L198.637 42.32ZM195.117 38.24L192.877 32.26L190.597 38.24H195.117Z" fill="white"/>
<path d="M212.904 30.24C212.437 30.2667 212.09 30.34 211.864 30.46C211.637 30.5667 211.484 30.7533 211.404 31.02C211.324 31.2733 211.284 31.6533 211.284 32.16V44.1H210.824L202.424 31.12V41.68C202.424 42.2 202.464 42.5867 202.544 42.84C202.637 43.0933 202.81 43.28 203.064 43.4C203.317 43.5067 203.71 43.5733 204.244 43.6V44C203.764 43.96 203.084 43.94 202.204 43.94C201.404 43.94 200.784 43.96 200.344 44V43.6C200.81 43.5733 201.157 43.5067 201.384 43.4C201.61 43.28 201.764 43.0933 201.844 42.84C201.924 42.5733 201.964 42.1867 201.964 41.68V31.96C201.964 31.4533 201.924 31.0867 201.844 30.86C201.764 30.6333 201.61 30.48 201.384 30.4C201.17 30.32 200.824 30.2667 200.344 30.24V29.84C200.784 29.88 201.404 29.9 202.204 29.9C202.804 29.9 203.324 29.88 203.764 29.84L210.824 40.72V32.16C210.824 31.64 210.777 31.2533 210.684 31C210.604 30.7467 210.437 30.5667 210.184 30.46C209.93 30.34 209.537 30.2667 209.004 30.24V29.84C209.484 29.88 210.164 29.9 211.044 29.9C211.844 29.9 212.464 29.88 212.904 29.84V30.24Z" fill="white"/>
<path d="M219.565 30.24C219.085 30.2667 218.732 30.32 218.505 30.4C218.292 30.48 218.145 30.6333 218.065 30.86C217.985 31.0867 217.945 31.4533 217.945 31.96V41.88C217.945 42.3867 217.985 42.7533 218.065 42.98C218.145 43.2067 218.292 43.36 218.505 43.44C218.732 43.52 219.085 43.5733 219.565 43.6V44C218.952 43.96 218.105 43.94 217.025 43.94C215.878 43.94 215.025 43.96 214.465 44V43.6C214.945 43.5733 215.292 43.52 215.505 43.44C215.732 43.36 215.885 43.2067 215.965 42.98C216.045 42.7533 216.085 42.3867 216.085 41.88V31.96C216.085 31.4533 216.045 31.0867 215.965 30.86C215.885 30.6333 215.732 30.48 215.505 30.4C215.292 30.32 214.945 30.2667 214.465 30.24V29.84C215.025 29.88 215.878 29.9 217.025 29.9C218.092 29.9 218.938 29.88 219.565 29.84V30.24Z" fill="white"/>
<path d="M231.742 42.32C232.062 43.1467 232.522 43.5733 233.122 43.6V44C232.589 43.96 231.876 43.94 230.982 43.94C229.836 43.94 228.982 43.96 228.422 44V43.6C228.929 43.5733 229.289 43.5133 229.502 43.42C229.729 43.3133 229.842 43.1267 229.842 42.86C229.842 42.6333 229.762 42.32 229.602 41.92L228.382 38.64H223.542L222.722 40.76C222.456 41.48 222.322 42.0267 222.322 42.4C222.322 42.8133 222.462 43.1133 222.742 43.3C223.036 43.4867 223.476 43.5867 224.062 43.6V44C223.302 43.96 222.536 43.94 221.762 43.94C221.162 43.94 220.662 43.96 220.262 44V43.6C220.929 43.44 221.456 42.86 221.842 41.86L226.542 29.74H226.862L231.742 42.32ZM228.222 38.24L225.982 32.26L223.702 38.24H228.222Z" fill="white"/>
<path d="M6.90969 60.28V63.88C6.90969 64.3867 6.96302 64.7533 7.06969 64.98C7.17635 65.2067 7.36302 65.36 7.62969 65.44C7.89635 65.52 8.32969 65.5733 8.92969 65.6V66C8.23635 65.96 7.25635 65.94 5.98969 65.94C4.84302 65.94 3.98969 65.96 3.42969 66V65.6C3.90969 65.5733 4.25635 65.52 4.46969 65.44C4.69635 65.36 4.84969 65.2067 4.92969 64.98C5.00969 64.7533 5.04969 64.3867 5.04969 63.88V53.96C5.04969 53.4533 5.00969 53.0867 4.92969 52.86C4.84969 52.6333 4.69635 52.48 4.46969 52.4C4.25635 52.32 3.90969 52.2667 3.42969 52.24V51.84C3.98969 51.88 4.80302 51.9 5.86969 51.9L8.02969 51.88C8.28302 51.8667 8.56969 51.86 8.88969 51.86C10.4497 51.86 11.643 52.22 12.4697 52.94C13.2964 53.6467 13.7097 54.6 13.7097 55.8C13.7097 56.5333 13.543 57.24 13.2097 57.92C12.8897 58.5867 12.3364 59.1467 11.5497 59.6C10.7764 60.0533 9.74302 60.28 8.44969 60.28H6.90969ZM8.38969 52.24C7.97635 52.24 7.66302 52.2867 7.44969 52.38C7.24969 52.4733 7.10969 52.64 7.02969 52.88C6.94969 53.12 6.90969 53.48 6.90969 53.96V59.88H8.24969C9.55635 59.88 10.4564 59.5333 10.9497 58.84C11.4564 58.1333 11.7097 57.1933 11.7097 56.02C11.7097 54.7267 11.4497 53.7733 10.9297 53.16C10.423 52.5467 9.57635 52.24 8.38969 52.24Z" fill="white"/>
<path d="M21.7089 51.56C22.9756 51.56 24.0822 51.8467 25.0289 52.42C25.9889 52.9933 26.7289 53.8267 27.2489 54.92C27.7822 56 28.0489 57.2933 28.0489 58.8C28.0489 60.2667 27.7756 61.5667 27.2289 62.7C26.6956 63.8333 25.9422 64.7133 24.9689 65.34C24.0089 65.9667 22.9156 66.28 21.6889 66.28C20.4222 66.28 19.3089 65.9933 18.3489 65.42C17.4022 64.8467 16.6622 64.02 16.1289 62.94C15.6089 61.8467 15.3489 60.5467 15.3489 59.04C15.3489 57.5733 15.6156 56.2733 16.1489 55.14C16.6956 54.0067 17.4489 53.1267 18.4089 52.5C19.3822 51.8733 20.4822 51.56 21.7089 51.56ZM21.6289 51.92C20.7756 51.92 20.0222 52.22 19.3689 52.82C18.7289 53.4067 18.2289 54.2333 17.8689 55.3C17.5222 56.3667 17.3489 57.5867 17.3489 58.96C17.3489 60.3467 17.5422 61.5667 17.9289 62.62C18.3289 63.6733 18.8622 64.4867 19.5289 65.06C20.1956 65.6333 20.9422 65.92 21.7689 65.92C22.6222 65.92 23.3689 65.6267 24.0089 65.04C24.6622 64.44 25.1622 63.6067 25.5089 62.54C25.8689 61.4733 26.0489 60.2533 26.0489 58.88C26.0489 57.4933 25.8489 56.2733 25.4489 55.22C25.0622 54.1667 24.5356 53.3533 23.8689 52.78C23.2022 52.2067 22.4556 51.92 21.6289 51.92Z" fill="white"/>
<path d="M34.8969 52.24C34.4169 52.2667 34.0635 52.32 33.8369 52.4C33.6235 52.48 33.4769 52.6333 33.3969 52.86C33.3169 53.0867 33.2769 53.4533 33.2769 53.96V63.88C33.2769 64.3867 33.3169 64.7533 33.3969 64.98C33.4769 65.2067 33.6235 65.36 33.8369 65.44C34.0635 65.5067 34.4169 65.54 34.8969 65.54H36.3569C37.1835 65.54 37.8102 65.4267 38.2369 65.2C38.6769 64.96 38.9969 64.58 39.1969 64.06C39.3969 63.54 39.5435 62.7867 39.6369 61.8H40.0969C40.0569 62.2133 40.0369 62.76 40.0369 63.44C40.0369 64.2 40.0835 65.0533 40.1769 66C39.2702 65.96 37.7435 65.94 35.5969 65.94C33.0369 65.94 31.1035 65.96 29.7969 66V65.6C30.2769 65.5733 30.6235 65.52 30.8369 65.44C31.0635 65.36 31.2169 65.2067 31.2969 64.98C31.3769 64.7533 31.4169 64.3867 31.4169 63.88V53.96C31.4169 53.4533 31.3769 53.0867 31.2969 52.86C31.2169 52.6333 31.0635 52.48 30.8369 52.4C30.6235 52.32 30.2769 52.2667 29.7969 52.24V51.84C30.3569 51.88 31.2102 51.9 32.3569 51.9C33.4235 51.9 34.2702 51.88 34.8969 51.84V52.24Z" fill="white"/>
<path d="M45.8347 51.62C46.4214 51.62 46.8814 51.6867 47.2147 51.82C47.5614 51.94 47.9147 52.12 48.2747 52.36C48.568 52.5467 48.7947 52.64 48.9547 52.64C49.0747 52.64 49.168 52.5733 49.2347 52.44C49.3014 52.2933 49.3547 52.0667 49.3947 51.76H49.8547C49.788 52.5333 49.7547 53.8933 49.7547 55.84H49.2947C49.2147 54.76 48.9014 53.8533 48.3547 53.12C47.8214 52.3733 47.0414 52 46.0147 52C45.2947 52 44.708 52.22 44.2547 52.66C43.8014 53.0867 43.5747 53.64 43.5747 54.32C43.5747 54.8267 43.688 55.2667 43.9147 55.64C44.1547 56.0133 44.4547 56.3333 44.8147 56.6C45.1747 56.8667 45.688 57.2067 46.3547 57.62L46.9347 57.98C47.7747 58.5 48.4347 58.96 48.9147 59.36C49.408 59.7467 49.8014 60.1933 50.0947 60.7C50.388 61.2067 50.5347 61.8 50.5347 62.48C50.5347 63.6933 50.1347 64.6333 49.3347 65.3C48.5347 65.9533 47.5214 66.28 46.2947 66.28C45.6547 66.28 45.128 66.2133 44.7147 66.08C44.3147 65.9467 43.928 65.7667 43.5547 65.54C43.2614 65.3533 43.0347 65.26 42.8747 65.26C42.7547 65.26 42.6614 65.3333 42.5947 65.48C42.528 65.6133 42.4747 65.8333 42.4347 66.14H41.9747C42.028 65.4067 42.0547 63.8067 42.0547 61.34H42.5147C42.608 62.6867 42.9414 63.78 43.5147 64.62C44.088 65.46 44.968 65.88 46.1547 65.88C46.8747 65.88 47.488 65.66 47.9947 65.22C48.5014 64.7667 48.7547 64.1 48.7547 63.22C48.7547 62.4733 48.5014 61.84 47.9947 61.32C47.5014 60.8 46.7147 60.2133 45.6347 59.56C44.848 59.08 44.208 58.6533 43.7147 58.28C43.2347 57.9067 42.8414 57.46 42.5347 56.94C42.228 56.4067 42.0747 55.7867 42.0747 55.08C42.0747 53.96 42.4347 53.1067 43.1547 52.52C43.8747 51.92 44.768 51.62 45.8347 51.62Z" fill="white"/>
<path d="M62.8355 64.38C63.0621 64.7133 63.3088 64.98 63.5755 65.18C63.8555 65.3667 64.1955 65.5067 64.5955 65.6V66C63.9555 65.96 63.1555 65.94 62.1955 65.94C61.4755 65.94 60.7888 65.96 60.1355 66V65.6C60.4555 65.5867 60.6888 65.5467 60.8355 65.48C60.9821 65.4133 61.0555 65.3133 61.0555 65.18C61.0555 65.0467 60.9888 64.8867 60.8555 64.7L57.9355 60.3C57.5488 59.7133 57.2221 59.3333 56.9555 59.16C56.6888 58.9733 56.3155 58.8667 55.8355 58.84V63.88C55.8355 64.3867 55.8755 64.7533 55.9555 64.98C56.0355 65.2067 56.1821 65.36 56.3955 65.44C56.6221 65.52 56.9755 65.5733 57.4555 65.6V66C56.8421 65.96 55.9955 65.94 54.9155 65.94C53.7688 65.94 52.9155 65.96 52.3555 66V65.6C52.8355 65.5733 53.1821 65.52 53.3955 65.44C53.6221 65.36 53.7755 65.2067 53.8555 64.98C53.9355 64.7533 53.9755 64.3867 53.9755 63.88V53.96C53.9755 53.4533 53.9355 53.0867 53.8555 52.86C53.7755 52.6333 53.6221 52.48 53.3955 52.4C53.1821 52.32 52.8355 52.2667 52.3555 52.24V51.84C52.9155 51.88 53.7688 51.9 54.9155 51.9C55.9821 51.9 56.8288 51.88 57.4555 51.84V52.24C56.9755 52.2667 56.6221 52.32 56.3955 52.4C56.1821 52.48 56.0355 52.6333 55.9555 52.86C55.8755 53.0867 55.8355 53.4533 55.8355 53.96V58.44C56.8088 58.4 57.5688 58.0267 58.1155 57.32L60.0355 54.88C60.7155 54.04 61.0555 53.4 61.0555 52.96C61.0555 52.4933 60.6421 52.2533 59.8155 52.24V51.84C60.5755 51.88 61.3421 51.9 62.1155 51.9C62.8488 51.9 63.4155 51.88 63.8155 51.84V52.24C63.3755 52.3067 62.9621 52.4533 62.5755 52.68C62.1888 52.8933 61.8155 53.2333 61.4555 53.7L58.1955 57.88L62.8355 64.38Z" fill="white"/>
<path d="M71.0448 51.56C72.3115 51.56 73.4182 51.8467 74.3648 52.42C75.3248 52.9933 76.0648 53.8267 76.5848 54.92C77.1182 56 77.3848 57.2933 77.3848 58.8C77.3848 60.2667 77.1115 61.5667 76.5648 62.7C76.0315 63.8333 75.2782 64.7133 74.3048 65.34C73.3448 65.9667 72.2515 66.28 71.0248 66.28C69.7582 66.28 68.6448 65.9933 67.6848 65.42C66.7382 64.8467 65.9982 64.02 65.4648 62.94C64.9448 61.8467 64.6848 60.5467 64.6848 59.04C64.6848 57.5733 64.9515 56.2733 65.4848 55.14C66.0315 54.0067 66.7848 53.1267 67.7448 52.5C68.7182 51.8733 69.8182 51.56 71.0448 51.56ZM70.9648 51.92C70.1115 51.92 69.3582 52.22 68.7048 52.82C68.0648 53.4067 67.5648 54.2333 67.2048 55.3C66.8582 56.3667 66.6848 57.5867 66.6848 58.96C66.6848 60.3467 66.8782 61.5667 67.2648 62.62C67.6648 63.6733 68.1982 64.4867 68.8648 65.06C69.5315 65.6333 70.2782 65.92 71.1048 65.92C71.9582 65.92 72.7048 65.6267 73.3448 65.04C73.9982 64.44 74.4982 63.6067 74.8448 62.54C75.2048 61.4733 75.3848 60.2533 75.3848 58.88C75.3848 57.4933 75.1849 56.2733 74.7849 55.22C74.3982 54.1667 73.8715 53.3533 73.2048 52.78C72.5382 52.2067 71.7915 51.92 70.9648 51.92Z" fill="white"/>
<path d="M87.0491 61.2H79.8291V60.04H87.0491V61.2Z" fill="white"/>
<path d="M101.53 52.24C101.063 52.2667 100.716 52.34 100.49 52.46C100.263 52.5667 100.11 52.7533 100.03 53.02C99.9495 53.2733 99.9095 53.6533 99.9095 54.16V60.18C99.9095 61.14 99.8429 61.9667 99.7095 62.66C99.5895 63.34 99.3829 63.9267 99.0895 64.42C98.7562 64.9933 98.2629 65.4467 97.6095 65.78C96.9695 66.1133 96.2429 66.28 95.4295 66.28C93.9629 66.28 92.8429 65.92 92.0695 65.2C91.4829 64.6533 91.0895 64.0333 90.8895 63.34C90.6895 62.6467 90.5895 61.6133 90.5895 60.24V53.96C90.5895 53.4533 90.5495 53.0867 90.4695 52.86C90.3895 52.6333 90.2362 52.48 90.0095 52.4C89.7962 52.32 89.4495 52.2667 88.9695 52.24V51.84C89.5295 51.88 90.3829 51.9 91.5295 51.9C92.6095 51.9 93.4562 51.88 94.0695 51.84V52.24C93.5895 52.2667 93.2362 52.32 93.0095 52.4C92.7962 52.48 92.6495 52.6333 92.5695 52.86C92.4895 53.0867 92.4495 53.4533 92.4495 53.96V60.58C92.4495 61.6467 92.5229 62.5333 92.6695 63.24C92.8162 63.9467 93.1162 64.5133 93.5695 64.94C94.0362 65.3667 94.7162 65.58 95.6095 65.58C97.0229 65.58 98.0162 65.1267 98.5895 64.22C99.1629 63.3133 99.4495 62.04 99.4495 60.4V54.16C99.4495 53.44 99.3162 52.9467 99.0495 52.68C98.7962 52.4133 98.3229 52.2667 97.6295 52.24V51.84C98.1095 51.88 98.7895 51.9 99.6695 51.9C100.47 51.9 101.09 51.88 101.53 51.84V52.24Z" fill="white"/>
<path d="M113.382 64.38C113.609 64.7133 113.856 64.98 114.122 65.18C114.402 65.3667 114.742 65.5067 115.142 65.6V66C114.502 65.96 113.702 65.94 112.742 65.94C112.022 65.94 111.336 65.96 110.682 66V65.6C111.002 65.5867 111.236 65.5467 111.382 65.48C111.529 65.4133 111.602 65.3133 111.602 65.18C111.602 65.0467 111.536 64.8867 111.402 64.7L108.482 60.3C108.096 59.7133 107.769 59.3333 107.502 59.16C107.236 58.9733 106.862 58.8667 106.382 58.84V63.88C106.382 64.3867 106.422 64.7533 106.502 64.98C106.582 65.2067 106.729 65.36 106.942 65.44C107.169 65.52 107.522 65.5733 108.002 65.6V66C107.389 65.96 106.542 65.94 105.462 65.94C104.316 65.94 103.462 65.96 102.902 66V65.6C103.382 65.5733 103.729 65.52 103.942 65.44C104.169 65.36 104.322 65.2067 104.402 64.98C104.482 64.7533 104.522 64.3867 104.522 63.88V53.96C104.522 53.4533 104.482 53.0867 104.402 52.86C104.322 52.6333 104.169 52.48 103.942 52.4C103.729 52.32 103.382 52.2667 102.902 52.24V51.84C103.462 51.88 104.316 51.9 105.462 51.9C106.529 51.9 107.376 51.88 108.002 51.84V52.24C107.522 52.2667 107.169 52.32 106.942 52.4C106.729 52.48 106.582 52.6333 106.502 52.86C106.422 53.0867 106.382 53.4533 106.382 53.96V58.44C107.356 58.4 108.116 58.0267 108.662 57.32L110.582 54.88C111.262 54.04 111.602 53.4 111.602 52.96C111.602 52.4933 111.189 52.2533 110.362 52.24V51.84C111.122 51.88 111.889 51.9 112.662 51.9C113.396 51.9 113.962 51.88 114.362 51.84V52.24C113.922 52.3067 113.509 52.4533 113.122 52.68C112.736 52.8933 112.362 53.2333 112.002 53.7L108.742 57.88L113.382 64.38Z" fill="white"/>
<path d="M128.368 65C128.061 65.4533 127.754 65.78 127.448 65.98C127.141 66.18 126.734 66.28 126.228 66.28C125.681 66.28 125.228 66.12 124.868 65.8C124.521 65.48 124.261 64.92 124.088 64.12L123.648 62.12C123.488 61.4267 123.334 60.8933 123.188 60.52C123.054 60.1467 122.848 59.8467 122.568 59.62C122.288 59.3933 121.894 59.28 121.388 59.28H119.488V63.88C119.488 64.3867 119.528 64.7533 119.608 64.98C119.688 65.2067 119.834 65.36 120.048 65.44C120.274 65.52 120.628 65.5733 121.108 65.6V66C120.494 65.96 119.648 65.94 118.568 65.94C117.421 65.94 116.568 65.96 116.008 66V65.6C116.488 65.5733 116.834 65.52 117.048 65.44C117.274 65.36 117.428 65.2067 117.508 64.98C117.588 64.7533 117.628 64.3867 117.628 63.88V53.96C117.628 53.4533 117.588 53.0867 117.508 52.86C117.428 52.6333 117.274 52.48 117.048 52.4C116.834 52.32 116.488 52.2667 116.008 52.24V51.84C116.568 51.88 117.381 51.9 118.448 51.9L120.608 51.88C120.861 51.8667 121.148 51.86 121.468 51.86C123.014 51.86 124.201 52.1867 125.028 52.84C125.868 53.48 126.288 54.3133 126.288 55.34C126.288 55.86 126.161 56.3867 125.908 56.92C125.668 57.44 125.254 57.9133 124.668 58.34C124.094 58.7533 123.341 59.0333 122.408 59.18L122.648 59.22C123.528 59.3667 124.168 59.6333 124.568 60.02C124.968 60.4067 125.261 61.02 125.448 61.86L125.948 63.9C126.081 64.5133 126.221 64.94 126.368 65.18C126.514 65.42 126.714 65.54 126.968 65.54C127.194 65.54 127.381 65.48 127.528 65.36C127.688 65.24 127.868 65.0467 128.068 64.78L128.368 65ZM120.968 52.24C120.554 52.24 120.241 52.2867 120.028 52.38C119.828 52.4733 119.688 52.64 119.608 52.88C119.528 53.12 119.488 53.48 119.488 53.96V58.88H120.828C122.148 58.88 123.054 58.5867 123.548 58C124.041 57.4133 124.288 56.6 124.288 55.56C124.288 54.4667 124.028 53.64 123.508 53.08C122.988 52.52 122.141 52.24 120.968 52.24Z" fill="white"/>
<path d="M139.477 64.32C139.797 65.1467 140.257 65.5733 140.857 65.6V66C140.323 65.96 139.61 65.94 138.717 65.94C137.57 65.94 136.717 65.96 136.157 66V65.6C136.663 65.5733 137.023 65.5133 137.237 65.42C137.463 65.3133 137.577 65.1267 137.577 64.86C137.577 64.6333 137.497 64.32 137.337 63.92L136.117 60.64H131.277L130.457 62.76C130.19 63.48 130.057 64.0267 130.057 64.4C130.057 64.8133 130.197 65.1133 130.477 65.3C130.77 65.4867 131.21 65.5867 131.797 65.6V66C131.037 65.96 130.27 65.94 129.497 65.94C128.897 65.94 128.397 65.96 127.997 66V65.6C128.663 65.44 129.19 64.86 129.577 63.86L134.277 51.74H134.597L139.477 64.32ZM135.957 60.24L133.717 54.26L131.437 60.24H135.957Z" fill="white"/>
<path d="M146.284 52.24C145.804 52.2667 145.45 52.32 145.224 52.4C145.01 52.48 144.864 52.6333 144.784 52.86C144.704 53.0867 144.664 53.4533 144.664 53.96V63.88C144.664 64.3867 144.704 64.7533 144.784 64.98C144.864 65.2067 145.01 65.36 145.224 65.44C145.45 65.52 145.804 65.5733 146.284 65.6V66C145.67 65.96 144.824 65.94 143.744 65.94C142.597 65.94 141.744 65.96 141.184 66V65.6C141.664 65.5733 142.01 65.52 142.224 65.44C142.45 65.36 142.604 65.2067 142.684 64.98C142.764 64.7533 142.804 64.3867 142.804 63.88V53.96C142.804 53.4533 142.764 53.0867 142.684 52.86C142.604 52.6333 142.45 52.48 142.224 52.4C142.01 52.32 141.664 52.2667 141.184 52.24V51.84C141.744 51.88 142.597 51.9 143.744 51.9C144.81 51.9 145.657 51.88 146.284 51.84V52.24Z" fill="white"/>
<path d="M160.521 52.24C160.054 52.2667 159.708 52.34 159.481 52.46C159.254 52.5667 159.101 52.7533 159.021 53.02C158.941 53.2733 158.901 53.6533 158.901 54.16V66.1H158.441L150.041 53.12V63.68C150.041 64.2 150.081 64.5867 150.161 64.84C150.254 65.0933 150.428 65.28 150.681 65.4C150.934 65.5067 151.328 65.5733 151.861 65.6V66C151.381 65.96 150.701 65.94 149.821 65.94C149.021 65.94 148.401 65.96 147.961 66V65.6C148.428 65.5733 148.774 65.5067 149.001 65.4C149.228 65.28 149.381 65.0933 149.461 64.84C149.541 64.5733 149.581 64.1867 149.581 63.68V53.96C149.581 53.4533 149.541 53.0867 149.461 52.86C149.381 52.6333 149.228 52.48 149.001 52.4C148.788 52.32 148.441 52.2667 147.961 52.24V51.84C148.401 51.88 149.021 51.9 149.821 51.9C150.421 51.9 150.941 51.88 151.381 51.84L158.441 62.72V54.16C158.441 53.64 158.394 53.2533 158.301 53C158.221 52.7467 158.054 52.5667 157.801 52.46C157.548 52.34 157.154 52.2667 156.621 52.24V51.84C157.101 51.88 157.781 51.9 158.661 51.9C159.461 51.9 160.081 51.88 160.521 51.84V52.24ZM156.741 47.48C156.954 47.3467 157.154 47.28 157.341 47.28C157.594 47.28 157.801 47.3933 157.961 47.62C158.041 47.74 158.081 47.8667 158.081 48C158.081 48.2933 157.901 48.5533 157.541 48.78C157.261 48.9533 156.781 49.1667 156.101 49.42C155.101 49.82 154.241 50.2 153.521 50.56L153.381 50.3C153.928 49.8867 154.394 49.5067 154.781 49.16C155.181 48.8 155.428 48.58 155.521 48.5C156.014 48.0333 156.421 47.6933 156.741 47.48Z" fill="white"/>
<path d="M166.362 51.62C166.949 51.62 167.409 51.6867 167.742 51.82C168.089 51.94 168.442 52.12 168.802 52.36C169.095 52.5467 169.322 52.64 169.482 52.64C169.602 52.64 169.695 52.5733 169.762 52.44C169.829 52.2933 169.882 52.0667 169.922 51.76H170.382C170.315 52.5333 170.282 53.8933 170.282 55.84H169.822C169.742 54.76 169.429 53.8533 168.882 53.12C168.349 52.3733 167.569 52 166.542 52C165.822 52 165.235 52.22 164.782 52.66C164.329 53.0867 164.102 53.64 164.102 54.32C164.102 54.8267 164.215 55.2667 164.442 55.64C164.682 56.0133 164.982 56.3333 165.342 56.6C165.702 56.8667 166.215 57.2067 166.882 57.62L167.462 57.98C168.302 58.5 168.962 58.96 169.442 59.36C169.935 59.7467 170.329 60.1933 170.622 60.7C170.915 61.2067 171.062 61.8 171.062 62.48C171.062 63.6933 170.662 64.6333 169.862 65.3C169.062 65.9533 168.049 66.28 166.822 66.28C166.182 66.28 165.655 66.2133 165.242 66.08C164.842 65.9467 164.455 65.7667 164.082 65.54C163.789 65.3533 163.562 65.26 163.402 65.26C163.282 65.26 163.189 65.3333 163.122 65.48C163.055 65.6133 163.002 65.8333 162.962 66.14H162.502C162.555 65.4067 162.582 63.8067 162.582 61.34H163.042C163.135 62.6867 163.469 63.78 164.042 64.62C164.615 65.46 165.495 65.88 166.682 65.88C167.402 65.88 168.015 65.66 168.522 65.22C169.029 64.7667 169.282 64.1 169.282 63.22C169.282 62.4733 169.029 61.84 168.522 61.32C168.029 60.8 167.242 60.2133 166.162 59.56C165.375 59.08 164.735 58.6533 164.242 58.28C163.762 57.9067 163.369 57.46 163.062 56.94C162.755 56.4067 162.602 55.7867 162.602 55.08C162.602 53.96 162.962 53.1067 163.682 52.52C164.402 51.92 165.295 51.62 166.362 51.62Z" fill="white"/>
<path d="M183.363 64.38C183.589 64.7133 183.836 64.98 184.103 65.18C184.383 65.3667 184.723 65.5067 185.123 65.6V66C184.483 65.96 183.683 65.94 182.723 65.94C182.003 65.94 181.316 65.96 180.663 66V65.6C180.983 65.5867 181.216 65.5467 181.363 65.48C181.509 65.4133 181.583 65.3133 181.583 65.18C181.583 65.0467 181.516 64.8867 181.383 64.7L178.463 60.3C178.076 59.7133 177.749 59.3333 177.483 59.16C177.216 58.9733 176.843 58.8667 176.363 58.84V63.88C176.363 64.3867 176.403 64.7533 176.483 64.98C176.563 65.2067 176.709 65.36 176.923 65.44C177.149 65.52 177.503 65.5733 177.983 65.6V66C177.369 65.96 176.523 65.94 175.443 65.94C174.296 65.94 173.443 65.96 172.883 66V65.6C173.363 65.5733 173.709 65.52 173.923 65.44C174.149 65.36 174.303 65.2067 174.383 64.98C174.463 64.7533 174.503 64.3867 174.503 63.88V53.96C174.503 53.4533 174.463 53.0867 174.383 52.86C174.303 52.6333 174.149 52.48 173.923 52.4C173.709 52.32 173.363 52.2667 172.883 52.24V51.84C173.443 51.88 174.296 51.9 175.443 51.9C176.509 51.9 177.356 51.88 177.983 51.84V52.24C177.503 52.2667 177.149 52.32 176.923 52.4C176.709 52.48 176.563 52.6333 176.483 52.86C176.403 53.0867 176.363 53.4533 176.363 53.96V58.44C177.336 58.4 178.096 58.0267 178.643 57.32L180.563 54.88C181.243 54.04 181.583 53.4 181.583 52.96C181.583 52.4933 181.169 52.2533 180.343 52.24V51.84C181.103 51.88 181.869 51.9 182.643 51.9C183.376 51.9 183.943 51.88 184.343 51.84V52.24C183.903 52.3067 183.489 52.4533 183.103 52.68C182.716 52.8933 182.343 53.2333 181.983 53.7L178.723 57.88L183.363 64.38Z" fill="white"/>
<path d="M191.088 52.24C190.608 52.2667 190.255 52.32 190.028 52.4C189.815 52.48 189.668 52.6333 189.588 52.86C189.508 53.0867 189.468 53.4533 189.468 53.96V63.88C189.468 64.3867 189.508 64.7533 189.588 64.98C189.668 65.2067 189.815 65.36 190.028 65.44C190.255 65.52 190.608 65.5733 191.088 65.6V66C190.475 65.96 189.628 65.94 188.548 65.94C187.402 65.94 186.548 65.96 185.988 66V65.6C186.468 65.5733 186.815 65.52 187.028 65.44C187.255 65.36 187.408 65.2067 187.488 64.98C187.568 64.7533 187.608 64.3867 187.608 63.88V53.96C187.608 53.4533 187.568 53.0867 187.488 52.86C187.408 52.6333 187.255 52.48 187.028 52.4C186.815 52.32 186.468 52.2667 185.988 52.24V51.84C186.548 51.88 187.402 51.9 188.548 51.9C189.615 51.9 190.462 51.88 191.088 51.84V52.24Z" fill="white"/>
<path d="M203.006 63.44C203.006 64.2 203.052 65.0533 203.146 66C202.239 65.96 200.712 65.94 198.566 65.94C196.006 65.94 194.072 65.96 192.766 66V65.6C193.246 65.5733 193.592 65.52 193.806 65.44C194.032 65.36 194.186 65.2067 194.266 64.98C194.346 64.7533 194.386 64.3867 194.386 63.88V53.96C194.386 53.4533 194.346 53.0867 194.266 52.86C194.186 52.6333 194.032 52.48 193.806 52.4C193.592 52.32 193.246 52.2667 192.766 52.24V51.84C194.072 51.88 196.006 51.9 198.566 51.9C200.526 51.9 201.919 51.88 202.746 51.84C202.652 52.72 202.606 53.5067 202.606 54.2C202.606 54.72 202.626 55.1333 202.666 55.44H202.206C202.112 54.5733 201.992 53.9333 201.846 53.52C201.699 53.0933 201.452 52.7867 201.106 52.6C200.759 52.4 200.232 52.3 199.526 52.3H197.866C197.386 52.3 197.032 52.34 196.806 52.42C196.592 52.4867 196.446 52.6333 196.366 52.86C196.286 53.0867 196.246 53.4533 196.246 53.96V58.68H197.566C198.032 58.68 198.392 58.5733 198.646 58.36C198.899 58.1333 199.066 57.8733 199.146 57.58C199.239 57.2733 199.312 56.8933 199.366 56.44L199.426 56.04H199.886C199.846 56.6 199.826 57.2267 199.826 57.92V58.88C199.826 59.56 199.866 60.5067 199.946 61.72H199.486C199.472 61.6267 199.432 61.3067 199.366 60.76C199.299 60.2 199.112 59.78 198.806 59.5C198.512 59.22 198.099 59.08 197.566 59.08H196.246V63.88C196.246 64.3867 196.286 64.7533 196.366 64.98C196.446 65.2067 196.592 65.36 196.806 65.44C197.032 65.5067 197.386 65.54 197.866 65.54H199.326C200.152 65.54 200.779 65.4333 201.206 65.22C201.646 64.9933 201.966 64.64 202.166 64.16C202.366 63.6667 202.512 62.9467 202.606 62H203.066C203.026 62.36 203.006 62.84 203.006 63.44Z" fill="white"/>
<path d="M211.633 51.56C212.42 51.56 213.066 51.6733 213.573 51.9C214.08 52.1133 214.633 52.4333 215.233 52.86C215.406 52.9933 215.54 53.06 215.633 53.06C215.886 53.06 216.053 52.6533 216.133 51.84H216.593C216.54 52.7067 216.513 54.24 216.513 56.44H216.053C215.933 55.7333 215.806 55.1533 215.673 54.7C215.54 54.2333 215.333 53.8267 215.053 53.48C214.666 53 214.16 52.62 213.533 52.34C212.92 52.06 212.273 51.92 211.593 51.92C210.713 51.92 209.94 52.2067 209.273 52.78C208.606 53.3533 208.093 54.1733 207.733 55.24C207.373 56.2933 207.193 57.5267 207.193 58.94C207.193 61.34 207.573 63.1 208.333 64.22C209.106 65.3267 210.313 65.88 211.953 65.88C212.753 65.88 213.446 65.6733 214.033 65.26C214.273 65.1 214.426 64.9467 214.493 64.8C214.573 64.64 214.613 64.4267 214.613 64.16V62.24C214.613 61.68 214.56 61.2733 214.453 61.02C214.346 60.7667 214.16 60.5933 213.893 60.5C213.626 60.4067 213.193 60.3467 212.593 60.32V59.92C213.286 59.96 214.226 59.98 215.413 59.98C216.32 59.98 217.013 59.96 217.493 59.92V60.32C217.186 60.3467 216.96 60.4 216.813 60.48C216.68 60.56 216.586 60.7133 216.533 60.94C216.493 61.1667 216.473 61.5333 216.473 62.04V66H216.073C216.06 65.7333 216.006 65.48 215.913 65.24C215.82 64.9867 215.693 64.86 215.533 64.86C215.453 64.86 215.373 64.88 215.293 64.92C215.213 64.96 215.073 65.0533 214.873 65.2C214.406 65.56 213.92 65.8267 213.413 66C212.92 66.1867 212.366 66.28 211.753 66.28C210.38 66.28 209.2 66 208.213 65.44C207.24 64.8667 206.493 64.0467 205.973 62.98C205.453 61.9133 205.193 60.64 205.193 59.16C205.193 57.64 205.466 56.3067 206.013 55.16C206.573 54 207.34 53.1133 208.313 52.5C209.286 51.8733 210.393 51.56 211.633 51.56Z" fill="white"/>
<path d="M225.596 51.56C226.862 51.56 227.969 51.8467 228.916 52.42C229.876 52.9933 230.616 53.8267 231.136 54.92C231.669 56 231.936 57.2933 231.936 58.8C231.936 60.2667 231.662 61.5667 231.116 62.7C230.582 63.8333 229.829 64.7133 228.856 65.34C227.896 65.9667 226.802 66.28 225.576 66.28C224.309 66.28 223.196 65.9933 222.236 65.42C221.289 64.8467 220.549 64.02 220.016 62.94C219.496 61.8467 219.236 60.5467 219.236 59.04C219.236 57.5733 219.502 56.2733 220.036 55.14C220.582 54.0067 221.336 53.1267 222.296 52.5C223.269 51.8733 224.369 51.56 225.596 51.56ZM225.516 51.92C224.662 51.92 223.909 52.22 223.256 52.82C222.616 53.4067 222.116 54.2333 221.756 55.3C221.409 56.3667 221.236 57.5867 221.236 58.96C221.236 60.3467 221.429 61.5667 221.816 62.62C222.216 63.6733 222.749 64.4867 223.416 65.06C224.082 65.6333 224.829 65.92 225.656 65.92C226.509 65.92 227.256 65.6267 227.896 65.04C228.549 64.44 229.049 63.6067 229.396 62.54C229.756 61.4733 229.936 60.2533 229.936 58.88C229.936 57.4933 229.736 56.2733 229.336 55.22C228.949 54.1667 228.422 53.3533 227.756 52.78C227.089 52.2067 226.342 51.92 225.516 51.92Z" fill="white"/>
<path fill-rule="evenodd" clip-rule="evenodd" d="M249 66L249 7L250 7L250 66L249 66Z" fill="white"/>
<path d="M278.2 21C277.907 21.44 277.607 21.7667 277.3 21.98C276.993 22.18 276.58 22.28 276.06 22.28C275.527 22.28 275.08 22.1267 274.72 21.82C274.373 21.5133 274.107 20.9467 273.92 20.12L273.36 17.64C273.2 16.96 273.04 16.44 272.88 16.08C272.733 15.7067 272.48 15.4133 272.12 15.2C271.773 14.9733 271.28 14.86 270.64 14.86H269.32V19.88C269.32 20.3867 269.36 20.7533 269.44 20.98C269.52 21.2067 269.667 21.36 269.88 21.44C270.107 21.52 270.46 21.5733 270.94 21.6V22C270.327 21.96 269.48 21.94 268.4 21.94C267.253 21.94 266.4 21.96 265.84 22V21.6C266.32 21.5733 266.667 21.52 266.88 21.44C267.107 21.36 267.26 21.2067 267.34 20.98C267.42 20.7533 267.46 20.3867 267.46 19.88V9.95999C267.46 9.45332 267.42 9.08666 267.34 8.85999C267.26 8.63332 267.107 8.47999 266.88 8.39999C266.667 8.31999 266.32 8.26666 265.84 8.23999V7.83999C266.4 7.87999 267.253 7.89999 268.4 7.89999C269.467 7.89999 270.313 7.87999 270.94 7.83999V8.23999C270.46 8.26666 270.107 8.31999 269.88 8.39999C269.667 8.47999 269.52 8.63332 269.44 8.85999C269.36 9.08666 269.32 9.45332 269.32 9.95999V14.48C270.307 14.4667 271.093 14.08 271.68 13.32L273.6 10.88C274.28 10.04 274.62 9.39999 274.62 8.95999C274.62 8.49332 274.207 8.25332 273.38 8.23999V7.83999C274.14 7.87999 274.907 7.89999 275.68 7.89999C276.413 7.89999 276.98 7.87999 277.38 7.83999V8.23999C276.473 8.37332 275.687 8.85999 275.02 9.69999L271.26 14.5C272.327 14.54 273.193 14.7733 273.86 15.2C274.54 15.6133 275 16.34 275.24 17.38L275.82 19.9C275.967 20.54 276.1 20.9733 276.22 21.2C276.353 21.4267 276.547 21.54 276.8 21.54C277.027 21.54 277.213 21.48 277.36 21.36C277.52 21.24 277.7 21.0467 277.9 20.78L278.2 21Z" fill="white"/>
<path d="M289.895 20.32C290.215 21.1467 290.675 21.5733 291.275 21.6V22C290.741 21.96 290.028 21.94 289.135 21.94C287.988 21.94 287.135 21.96 286.575 22V21.6C287.081 21.5733 287.441 21.5133 287.655 21.42C287.881 21.3133 287.995 21.1267 287.995 20.86C287.995 20.6333 287.915 20.32 287.755 19.92L286.535 16.64H281.695L280.875 18.76C280.608 19.48 280.475 20.0267 280.475 20.4C280.475 20.8133 280.615 21.1133 280.895 21.3C281.188 21.4867 281.628 21.5867 282.215 21.6V22C281.455 21.96 280.688 21.94 279.915 21.94C279.315 21.94 278.815 21.96 278.415 22V21.6C279.081 21.44 279.608 20.86 279.995 19.86L284.695 7.73999H285.015L289.895 20.32ZM286.375 16.24L284.135 10.26L281.855 16.24H286.375Z" fill="white"/>
<path d="M305.452 8.23999C304.972 8.26666 304.619 8.31999 304.392 8.39999C304.179 8.47999 304.032 8.63332 303.952 8.85999C303.872 9.08666 303.832 9.45332 303.832 9.95999V19.88C303.832 20.3867 303.872 20.7533 303.952 20.98C304.032 21.2067 304.179 21.36 304.392 21.44C304.619 21.52 304.972 21.5733 305.452 21.6V22C304.892 21.96 304.039 21.94 302.892 21.94C301.812 21.94 300.966 21.96 300.352 22V21.6C300.832 21.5733 301.179 21.52 301.392 21.44C301.619 21.36 301.772 21.2067 301.852 20.98C301.932 20.7533 301.972 20.3867 301.972 19.88V9.95999C301.972 9.45332 301.932 9.08666 301.852 8.85999C301.772 8.61999 301.619 8.45999 301.392 8.37999C301.166 8.28666 300.819 8.23999 300.352 8.23999H297.092C296.626 8.23999 296.279 8.28666 296.052 8.37999C295.826 8.45999 295.672 8.61999 295.592 8.85999C295.512 9.08666 295.472 9.45332 295.472 9.95999V19.88C295.472 20.3867 295.512 20.7533 295.592 20.98C295.672 21.2067 295.819 21.36 296.032 21.44C296.259 21.52 296.612 21.5733 297.092 21.6V22C296.479 21.96 295.632 21.94 294.552 21.94C293.406 21.94 292.552 21.96 291.992 22V21.6C292.472 21.5733 292.819 21.52 293.032 21.44C293.259 21.36 293.412 21.2067 293.492 20.98C293.572 20.7533 293.612 20.3867 293.612 19.88V9.95999C293.612 9.45332 293.572 9.08666 293.492 8.85999C293.412 8.63332 293.259 8.47999 293.032 8.39999C292.819 8.31999 292.472 8.26666 291.992 8.23999V7.83999C292.552 7.87999 293.406 7.89999 294.552 7.89999C295.219 7.89999 296.086 7.88666 297.152 7.85999L298.752 7.83999L300.312 7.85999C301.379 7.88666 302.239 7.89999 302.892 7.89999C304.039 7.89999 304.892 7.87999 305.452 7.83999V8.23999Z" fill="white"/>
<path d="M312.229 8.23999C311.749 8.26666 311.396 8.31999 311.169 8.39999C310.956 8.47999 310.809 8.63332 310.729 8.85999C310.649 9.08666 310.609 9.45332 310.609 9.95999V19.88C310.609 20.3867 310.649 20.7533 310.729 20.98C310.809 21.2067 310.956 21.36 311.169 21.44C311.396 21.52 311.749 21.5733 312.229 21.6V22C311.616 21.96 310.769 21.94 309.689 21.94C308.542 21.94 307.689 21.96 307.129 22V21.6C307.609 21.5733 307.956 21.52 308.169 21.44C308.396 21.36 308.549 21.2067 308.629 20.98C308.709 20.7533 308.749 20.3867 308.749 19.88V9.95999C308.749 9.45332 308.709 9.08666 308.629 8.85999C308.549 8.63332 308.396 8.47999 308.169 8.39999C307.956 8.31999 307.609 8.26666 307.129 8.23999V7.83999C307.689 7.87999 308.542 7.89999 309.689 7.89999C310.756 7.89999 311.602 7.87999 312.229 7.83999V8.23999Z" fill="white"/>
<path d="M324.906 7.83999C324.813 8.78666 324.766 9.63999 324.766 10.4C324.766 11.0667 324.786 11.6133 324.826 12.04H324.366C324.26 11.0133 324.126 10.2533 323.966 9.75999C323.806 9.25332 323.526 8.88666 323.126 8.65999C322.726 8.41999 322.113 8.29999 321.286 8.29999H320.206V19.68C320.206 20.24 320.26 20.6467 320.366 20.9C320.473 21.1533 320.66 21.3267 320.926 21.42C321.193 21.5133 321.626 21.5733 322.226 21.6V22C321.533 21.96 320.553 21.94 319.286 21.94C317.953 21.94 316.966 21.96 316.326 22V21.6C316.926 21.5733 317.36 21.5133 317.626 21.42C317.893 21.3267 318.08 21.1533 318.186 20.9C318.293 20.6467 318.346 20.24 318.346 19.68V8.29999H317.266C316.44 8.29999 315.826 8.41999 315.426 8.65999C315.026 8.88666 314.746 9.25332 314.586 9.75999C314.426 10.2533 314.293 11.0133 314.186 12.04H313.726C313.766 11.6133 313.786 11.0667 313.786 10.4C313.786 9.63999 313.74 8.78666 313.646 7.83999C314.753 7.87999 316.633 7.89999 319.286 7.89999C321.926 7.89999 323.8 7.87999 324.906 7.83999Z" fill="white"/>
<path d="M337.108 7.89999C337.708 7.89999 338.208 7.87999 338.608 7.83999V8.23999C338.341 8.30666 338.081 8.47999 337.828 8.75999C337.575 9.02666 337.301 9.44666 337.008 10.02L332.648 18.7L331.828 20.36C331.535 20.96 331.241 21.4067 330.948 21.7C330.748 21.9 330.515 22.0467 330.248 22.14C329.981 22.2333 329.715 22.28 329.448 22.28C329.035 22.28 328.695 22.1733 328.428 21.96C328.175 21.7467 328.048 21.4533 328.048 21.08C328.048 20.76 328.148 20.5067 328.348 20.32C328.548 20.12 328.801 20.02 329.108 20.02C329.401 20.02 329.641 20.1067 329.828 20.28C330.028 20.44 330.128 20.6667 330.128 20.96C330.128 21.16 330.075 21.34 329.968 21.5C329.875 21.6467 329.748 21.7667 329.588 21.86C329.615 21.8733 329.655 21.88 329.708 21.88C330.055 21.88 330.361 21.7533 330.628 21.5C330.908 21.2467 331.175 20.86 331.428 20.34L331.968 19.22L326.608 9.37999C326.368 8.93999 326.155 8.64666 325.968 8.49999C325.795 8.33999 325.621 8.25999 325.448 8.25999V7.83999C325.968 7.87999 326.555 7.89999 327.208 7.89999C328.501 7.89999 329.435 7.87999 330.008 7.83999V8.25999C329.075 8.25999 328.608 8.51332 328.608 9.01999C328.608 9.21999 328.675 9.45332 328.808 9.71999L332.888 17.32L336.028 11.02C336.388 10.3133 336.568 9.73999 336.568 9.29999C336.568 8.92666 336.421 8.65999 336.128 8.49999C335.835 8.33999 335.395 8.25332 334.808 8.23999V7.83999C335.568 7.87999 336.335 7.89999 337.108 7.89999Z" fill="white"/>
<path d="M349.932 8.23999C349.452 8.26666 349.098 8.31999 348.872 8.39999C348.658 8.47999 348.512 8.63332 348.432 8.85999C348.352 9.08666 348.312 9.45332 348.312 9.95999V19.88C348.312 20.3867 348.352 20.7533 348.432 20.98C348.512 21.2067 348.658 21.36 348.872 21.44C349.098 21.52 349.452 21.5733 349.932 21.6V22C349.372 21.96 348.518 21.94 347.372 21.94C346.118 21.94 345.138 21.96 344.432 22V21.6C345.032 21.5733 345.465 21.52 345.732 21.44C345.998 21.36 346.185 21.2067 346.292 20.98C346.398 20.7533 346.452 20.3867 346.452 19.88V9.95999C346.452 9.45332 346.412 9.08666 346.332 8.85999C346.252 8.61999 346.098 8.45999 345.872 8.37999C345.645 8.28666 345.298 8.23999 344.832 8.23999H344.572C344.092 8.23999 343.745 8.28666 343.532 8.37999C343.332 8.45999 343.192 8.61332 343.112 8.83999C343.045 9.05332 342.992 9.42666 342.952 9.95999C342.912 10.3733 342.865 11.02 342.812 11.9C342.678 14.0067 342.505 15.76 342.292 17.16C342.092 18.5467 341.712 19.7467 341.152 20.76C340.592 21.7733 339.798 22.28 338.772 22.28C338.265 22.28 337.832 22.1733 337.472 21.96C337.125 21.7333 336.952 21.3867 336.952 20.92C336.952 20.5733 337.058 20.3 337.272 20.1C337.498 19.8867 337.785 19.78 338.132 19.78C338.425 19.78 338.665 19.86 338.852 20.02C339.052 20.18 339.152 20.3933 339.152 20.66C339.152 20.94 339.085 21.1733 338.952 21.36C338.818 21.5333 338.598 21.7067 338.292 21.88C338.412 21.8933 338.572 21.9 338.772 21.9C339.718 21.9 340.445 21.3333 340.952 20.2C341.458 19.0667 341.805 17.7267 341.992 16.18C342.178 14.62 342.345 12.5467 342.492 9.95999C342.505 9.85332 342.512 9.70666 342.512 9.51999C342.512 9.17332 342.465 8.91332 342.372 8.73999C342.278 8.56666 342.118 8.44666 341.892 8.37999C341.665 8.31332 341.325 8.26666 340.872 8.23999V7.83999C341.432 7.87999 342.118 7.89999 342.932 7.89999C343.132 7.89999 343.432 7.88666 343.832 7.85999L344.692 7.83999L346.032 7.85999C346.645 7.88666 347.152 7.89999 347.552 7.89999C348.578 7.89999 349.372 7.87999 349.932 7.83999V8.23999Z" fill="white"/>
<path d="M362.121 20.32C362.441 21.1467 362.901 21.5733 363.501 21.6V22C362.968 21.96 362.254 21.94 361.361 21.94C360.214 21.94 359.361 21.96 358.801 22V21.6C359.308 21.5733 359.668 21.5133 359.881 21.42C360.108 21.3133 360.221 21.1267 360.221 20.86C360.221 20.6333 360.141 20.32 359.981 19.92L358.761 16.64H353.921L353.101 18.76C352.834 19.48 352.701 20.0267 352.701 20.4C352.701 20.8133 352.841 21.1133 353.121 21.3C353.414 21.4867 353.854 21.5867 354.441 21.6V22C353.681 21.96 352.914 21.94 352.141 21.94C351.541 21.94 351.041 21.96 350.641 22V21.6C351.308 21.44 351.834 20.86 352.221 19.86L356.921 7.73999H357.241L362.121 20.32ZM358.601 16.24L356.361 10.26L354.081 16.24H358.601Z" fill="white"/>
<path d="M279.3 30.24C278.82 30.2667 278.467 30.32 278.24 30.4C278.027 30.48 277.88 30.6333 277.8 30.86C277.72 31.0867 277.68 31.4533 277.68 31.96V41.88C277.68 42.3867 277.72 42.7533 277.8 42.98C277.88 43.2067 278.027 43.36 278.24 43.44C278.467 43.52 278.82 43.5733 279.3 43.6V44C278.74 43.96 277.887 43.94 276.74 43.94C275.66 43.94 274.813 43.96 274.2 44V43.6C274.68 43.5733 275.027 43.52 275.24 43.44C275.467 43.36 275.62 43.2067 275.7 42.98C275.78 42.7533 275.82 42.3867 275.82 41.88V31.96C275.82 31.4533 275.78 31.0867 275.7 30.86C275.62 30.62 275.467 30.46 275.24 30.38C275.013 30.2867 274.667 30.24 274.2 30.24H270.94C270.473 30.24 270.127 30.2867 269.9 30.38C269.673 30.46 269.52 30.62 269.44 30.86C269.36 31.0867 269.32 31.4533 269.32 31.96V41.88C269.32 42.3867 269.36 42.7533 269.44 42.98C269.52 43.2067 269.667 43.36 269.88 43.44C270.107 43.52 270.46 43.5733 270.94 43.6V44C270.327 43.96 269.48 43.94 268.4 43.94C267.253 43.94 266.4 43.96 265.84 44V43.6C266.32 43.5733 266.667 43.52 266.88 43.44C267.107 43.36 267.26 43.2067 267.34 42.98C267.42 42.7533 267.46 42.3867 267.46 41.88V31.96C267.46 31.4533 267.42 31.0867 267.34 30.86C267.26 30.6333 267.107 30.48 266.88 30.4C266.667 30.32 266.32 30.2667 265.84 30.24V29.84C266.4 29.88 267.253 29.9 268.4 29.9C269.067 29.9 269.933 29.8867 271 29.86L272.6 29.84L274.16 29.86C275.227 29.8867 276.087 29.9 276.74 29.9C277.887 29.9 278.74 29.88 279.3 29.84V30.24Z" fill="white"/>
<path d="M287.4 29.56C288.667 29.56 289.774 29.8467 290.72 30.42C291.68 30.9933 292.42 31.8267 292.94 32.92C293.474 34 293.74 35.2933 293.74 36.8C293.74 38.2667 293.467 39.5667 292.92 40.7C292.387 41.8333 291.634 42.7133 290.66 43.34C289.7 43.9667 288.607 44.28 287.38 44.28C286.114 44.28 285 43.9933 284.04 43.42C283.094 42.8467 282.354 42.02 281.82 40.94C281.3 39.8467 281.04 38.5467 281.04 37.04C281.04 35.5733 281.307 34.2733 281.84 33.14C282.387 32.0067 283.14 31.1267 284.1 30.5C285.074 29.8733 286.174 29.56 287.4 29.56ZM287.32 29.92C286.467 29.92 285.714 30.22 285.06 30.82C284.42 31.4067 283.92 32.2333 283.56 33.3C283.214 34.3667 283.04 35.5867 283.04 36.96C283.04 38.3467 283.234 39.5667 283.62 40.62C284.02 41.6733 284.554 42.4867 285.22 43.06C285.887 43.6333 286.634 43.92 287.46 43.92C288.314 43.92 289.06 43.6267 289.7 43.04C290.354 42.44 290.854 41.6067 291.2 40.54C291.56 39.4733 291.74 38.2533 291.74 36.88C291.74 35.4933 291.54 34.2733 291.14 33.22C290.754 32.1667 290.227 31.3533 289.56 30.78C288.894 30.2067 288.147 29.92 287.32 29.92Z" fill="white"/>
<path d="M307.334 30.24C306.854 30.2667 306.501 30.32 306.274 30.4C306.061 30.48 305.914 30.6333 305.834 30.86C305.754 31.0867 305.714 31.4533 305.714 31.96V41.88C305.714 42.3867 305.754 42.7533 305.834 42.98C305.914 43.2067 306.061 43.36 306.274 43.44C306.501 43.52 306.854 43.5733 307.334 43.6V44C306.774 43.96 305.921 43.94 304.774 43.94C303.521 43.94 302.541 43.96 301.834 44V43.6C302.434 43.5733 302.867 43.52 303.134 43.44C303.401 43.36 303.587 43.2067 303.694 42.98C303.801 42.7533 303.854 42.3867 303.854 41.88V31.96C303.854 31.4533 303.814 31.0867 303.734 30.86C303.654 30.62 303.501 30.46 303.274 30.38C303.047 30.2867 302.701 30.24 302.234 30.24H301.974C301.494 30.24 301.147 30.2867 300.934 30.38C300.734 30.46 300.594 30.6133 300.514 30.84C300.447 31.0533 300.394 31.4267 300.354 31.96C300.314 32.3733 300.267 33.02 300.214 33.9C300.081 36.0067 299.907 37.76 299.694 39.16C299.494 40.5467 299.114 41.7467 298.554 42.76C297.994 43.7733 297.201 44.28 296.174 44.28C295.667 44.28 295.234 44.1733 294.874 43.96C294.527 43.7333 294.354 43.3867 294.354 42.92C294.354 42.5733 294.461 42.3 294.674 42.1C294.901 41.8867 295.187 41.78 295.534 41.78C295.827 41.78 296.067 41.86 296.254 42.02C296.454 42.18 296.554 42.3933 296.554 42.66C296.554 42.94 296.487 43.1733 296.354 43.36C296.221 43.5333 296.001 43.7067 295.694 43.88C295.814 43.8933 295.974 43.9 296.174 43.9C297.121 43.9 297.847 43.3333 298.354 42.2C298.861 41.0667 299.207 39.7267 299.394 38.18C299.581 36.62 299.747 34.5467 299.894 31.96C299.907 31.8533 299.914 31.7067 299.914 31.52C299.914 31.1733 299.867 30.9133 299.774 30.74C299.681 30.5667 299.521 30.4467 299.294 30.38C299.067 30.3133 298.727 30.2667 298.274 30.24V29.84C298.834 29.88 299.521 29.9 300.334 29.9C300.534 29.9 300.834 29.8867 301.234 29.86L302.094 29.84L303.434 29.86C304.047 29.8867 304.554 29.9 304.954 29.9C305.981 29.9 306.774 29.88 307.334 29.84V30.24Z" fill="white"/>
<path d="M314.343 35.58C315.903 35.58 317.097 35.9467 317.923 36.68C318.75 37.4133 319.163 38.38 319.163 39.58C319.163 40.3133 318.997 41.0133 318.663 41.68C318.343 42.3467 317.79 42.9 317.003 43.34C316.23 43.78 315.197 44 313.903 44L312.963 43.98C312.403 43.9533 311.943 43.94 311.583 43.94C310.437 43.94 309.583 43.96 309.023 44V43.6C309.503 43.5733 309.85 43.52 310.063 43.44C310.29 43.36 310.443 43.2067 310.523 42.98C310.603 42.7533 310.643 42.3867 310.643 41.88V31.96C310.643 31.4533 310.603 31.0867 310.523 30.86C310.443 30.6333 310.29 30.48 310.063 30.4C309.85 30.32 309.503 30.2667 309.023 30.24V29.84C309.583 29.88 310.437 29.9 311.583 29.9C312.85 29.9 313.83 29.88 314.523 29.84V30.24C313.923 30.2667 313.49 30.32 313.223 30.4C312.957 30.48 312.77 30.6333 312.663 30.86C312.557 31.0867 312.503 31.4533 312.503 31.96V35.62L314.343 35.58ZM313.903 43.6C315.143 43.6 315.997 43.26 316.463 42.58C316.93 41.9 317.163 40.9733 317.163 39.8C317.163 38.5067 316.903 37.5467 316.383 36.92C315.877 36.28 315.03 35.96 313.843 35.96C313.243 35.96 312.797 35.9667 312.503 35.98V41.88C312.503 42.3867 312.537 42.76 312.603 43C312.67 43.2267 312.797 43.3867 312.983 43.48C313.17 43.56 313.477 43.6 313.903 43.6Z" fill="white"/>
<path d="M327.205 29.56C328.005 29.56 328.685 29.6733 329.245 29.9C329.805 30.1267 330.352 30.4467 330.885 30.86C331.032 30.98 331.158 31.04 331.265 31.04C331.532 31.04 331.705 30.64 331.785 29.84H332.245C332.192 30.7067 332.165 32.24 332.165 34.44H331.705C331.558 33.5733 331.425 32.9533 331.305 32.58C331.185 32.1933 330.985 31.8267 330.705 31.48C330.305 30.96 329.792 30.5733 329.165 30.32C328.552 30.0533 327.885 29.92 327.165 29.92C326.298 29.92 325.538 30.2067 324.885 30.78C324.245 31.3533 323.745 32.1733 323.385 33.24C323.025 34.2933 322.845 35.5333 322.845 36.96C322.845 38.4133 323.038 39.66 323.425 40.7C323.812 41.74 324.345 42.5333 325.025 43.08C325.718 43.6133 326.498 43.88 327.365 43.88C328.032 43.88 328.678 43.7533 329.305 43.5C329.932 43.2467 330.425 42.8667 330.785 42.36C331.052 41.9867 331.245 41.5867 331.365 41.16C331.485 40.7333 331.598 40.08 331.705 39.2H332.165C332.165 41.4933 332.192 43.0933 332.245 44H331.785C331.745 43.5733 331.685 43.2733 331.605 43.1C331.538 42.9133 331.438 42.82 331.305 42.82C331.198 42.82 331.058 42.8733 330.885 42.98C330.285 43.4067 329.712 43.7333 329.165 43.96C328.618 44.1733 327.958 44.28 327.185 44.28C325.918 44.28 324.805 43.9933 323.845 43.42C322.898 42.8467 322.158 42.02 321.625 40.94C321.105 39.8467 320.845 38.5467 320.845 37.04C320.845 35.5733 321.112 34.2733 321.645 33.14C322.192 32.0067 322.945 31.1267 323.905 30.5C324.878 29.8733 325.978 29.56 327.205 29.56Z" fill="white"/>
<path d="M339.715 35.58C341.275 35.58 342.468 35.9467 343.295 36.68C344.121 37.4133 344.535 38.38 344.535 39.58C344.535 40.3133 344.368 41.0133 344.035 41.68C343.715 42.3467 343.161 42.9 342.375 43.34C341.601 43.78 340.568 44 339.275 44L338.335 43.98C337.775 43.9533 337.315 43.94 336.955 43.94C335.808 43.94 334.955 43.96 334.395 44V43.6C334.875 43.5733 335.221 43.52 335.435 43.44C335.661 43.36 335.815 43.2067 335.895 42.98C335.975 42.7533 336.015 42.3867 336.015 41.88V31.96C336.015 31.4533 335.975 31.0867 335.895 30.86C335.815 30.6333 335.661 30.48 335.435 30.4C335.221 30.32 334.875 30.2667 334.395 30.24V29.84C334.955 29.88 335.808 29.9 336.955 29.9C338.221 29.9 339.201 29.88 339.895 29.84V30.24C339.295 30.2667 338.861 30.32 338.595 30.4C338.328 30.48 338.141 30.6333 338.035 30.86C337.928 31.0867 337.875 31.4533 337.875 31.96V35.62L339.715 35.58ZM339.275 43.6C340.515 43.6 341.368 43.26 341.835 42.58C342.301 41.9 342.535 40.9733 342.535 39.8C342.535 38.5067 342.275 37.5467 341.755 36.92C341.248 36.28 340.401 35.96 339.215 35.96C338.615 35.96 338.168 35.9667 337.875 35.98V41.88C337.875 42.3867 337.908 42.76 337.975 43C338.041 43.2267 338.168 43.3867 338.355 43.48C338.541 43.56 338.848 43.6 339.275 43.6Z" fill="white"/>
<path d="M358.258 43C357.965 43.44 357.665 43.7667 357.358 43.98C357.052 44.18 356.638 44.28 356.118 44.28C355.585 44.28 355.138 44.1267 354.778 43.82C354.432 43.5133 354.165 42.9467 353.978 42.12L353.418 39.64C353.258 38.96 353.098 38.44 352.938 38.08C352.792 37.7067 352.538 37.4133 352.178 37.2C351.832 36.9733 351.338 36.86 350.698 36.86H349.378V41.88C349.378 42.3867 349.418 42.7533 349.498 42.98C349.578 43.2067 349.725 43.36 349.938 43.44C350.165 43.52 350.518 43.5733 350.998 43.6V44C350.385 43.96 349.538 43.94 348.458 43.94C347.312 43.94 346.458 43.96 345.898 44V43.6C346.378 43.5733 346.725 43.52 346.938 43.44C347.165 43.36 347.318 43.2067 347.398 42.98C347.478 42.7533 347.518 42.3867 347.518 41.88V31.96C347.518 31.4533 347.478 31.0867 347.398 30.86C347.318 30.6333 347.165 30.48 346.938 30.4C346.725 30.32 346.378 30.2667 345.898 30.24V29.84C346.458 29.88 347.312 29.9 348.458 29.9C349.525 29.9 350.372 29.88 350.998 29.84V30.24C350.518 30.2667 350.165 30.32 349.938 30.4C349.725 30.48 349.578 30.6333 349.498 30.86C349.418 31.0867 349.378 31.4533 349.378 31.96V36.48C350.365 36.4667 351.152 36.08 351.738 35.32L353.658 32.88C354.338 32.04 354.678 31.4 354.678 30.96C354.678 30.4933 354.265 30.2533 353.438 30.24V29.84C354.198 29.88 354.965 29.9 355.738 29.9C356.472 29.9 357.038 29.88 357.438 29.84V30.24C356.532 30.3733 355.745 30.86 355.078 31.7L351.318 36.5C352.385 36.54 353.252 36.7733 353.918 37.2C354.598 37.6133 355.058 38.34 355.298 39.38L355.878 41.9C356.025 42.54 356.158 42.9733 356.278 43.2C356.412 43.4267 356.605 43.54 356.858 43.54C357.085 43.54 357.272 43.48 357.418 43.36C357.578 43.24 357.758 43.0467 357.958 42.78L358.258 43Z" fill="white"/>
<path d="M365.545 29.56C366.812 29.56 367.918 29.8467 368.865 30.42C369.825 30.9933 370.565 31.8267 371.085 32.92C371.618 34 371.885 35.2933 371.885 36.8C371.885 38.2667 371.612 39.5667 371.065 40.7C370.532 41.8333 369.778 42.7133 368.805 43.34C367.845 43.9667 366.752 44.28 365.525 44.28C364.258 44.28 363.145 43.9933 362.185 43.42C361.238 42.8467 360.498 42.02 359.965 40.94C359.445 39.8467 359.185 38.5467 359.185 37.04C359.185 35.5733 359.452 34.2733 359.985 33.14C360.532 32.0067 361.285 31.1267 362.245 30.5C363.218 29.8733 364.318 29.56 365.545 29.56ZM365.465 29.92C364.612 29.92 363.858 30.22 363.205 30.82C362.565 31.4067 362.065 32.2333 361.705 33.3C361.358 34.3667 361.185 35.5867 361.185 36.96C361.185 38.3467 361.378 39.5667 361.765 40.62C362.165 41.6733 362.698 42.4867 363.365 43.06C364.032 43.6333 364.778 43.92 365.605 43.92C366.458 43.92 367.205 43.6267 367.845 43.04C368.498 42.44 368.998 41.6067 369.345 40.54C369.705 39.4733 369.885 38.2533 369.885 36.88C369.885 35.4933 369.685 34.2733 369.285 33.22C368.898 32.1667 368.372 31.3533 367.705 30.78C367.038 30.2067 366.292 29.92 365.465 29.92Z" fill="white"/>
<path d="M381.549 39.2H374.329V38.04H381.549V39.2Z" fill="white"/>
<path d="M394.55 29.9C395.15 29.9 395.65 29.88 396.05 29.84V30.24C395.783 30.3067 395.523 30.48 395.27 30.76C395.016 31.0267 394.743 31.4467 394.45 32.02L390.09 40.7L389.27 42.36C388.976 42.96 388.683 43.4067 388.39 43.7C388.19 43.9 387.956 44.0467 387.69 44.14C387.423 44.2333 387.156 44.28 386.89 44.28C386.476 44.28 386.136 44.1733 385.87 43.96C385.616 43.7467 385.49 43.4533 385.49 43.08C385.49 42.76 385.59 42.5067 385.79 42.32C385.99 42.12 386.243 42.02 386.55 42.02C386.843 42.02 387.083 42.1067 387.27 42.28C387.47 42.44 387.57 42.6667 387.57 42.96C387.57 43.16 387.516 43.34 387.41 43.5C387.316 43.6467 387.19 43.7667 387.03 43.86C387.056 43.8733 387.096 43.88 387.15 43.88C387.496 43.88 387.803 43.7533 388.07 43.5C388.35 43.2467 388.616 42.86 388.87 42.34L389.41 41.22L384.05 31.38C383.81 30.94 383.596 30.6467 383.41 30.5C383.236 30.34 383.063 30.26 382.89 30.26V29.84C383.41 29.88 383.996 29.9 384.65 29.9C385.943 29.9 386.876 29.88 387.45 29.84V30.26C386.516 30.26 386.05 30.5133 386.05 31.02C386.05 31.22 386.116 31.4533 386.25 31.72L390.33 39.32L393.47 33.02C393.83 32.3133 394.01 31.74 394.01 31.3C394.01 30.9267 393.863 30.66 393.57 30.5C393.276 30.34 392.836 30.2533 392.25 30.24V29.84C393.01 29.88 393.776 29.9 394.55 29.9Z" fill="white"/>
<path d="M409.079 43C408.785 43.44 408.485 43.7667 408.179 43.98C407.872 44.18 407.459 44.28 406.939 44.28C406.405 44.28 405.959 44.1267 405.599 43.82C405.252 43.5133 404.985 42.9467 404.799 42.12L404.239 39.64C404.079 38.96 403.919 38.44 403.759 38.08C403.612 37.7067 403.359 37.4133 402.999 37.2C402.652 36.9733 402.159 36.86 401.519 36.86H400.199V41.88C400.199 42.3867 400.239 42.7533 400.319 42.98C400.399 43.2067 400.545 43.36 400.759 43.44C400.985 43.52 401.339 43.5733 401.819 43.6V44C401.205 43.96 400.359 43.94 399.279 43.94C398.132 43.94 397.279 43.96 396.719 44V43.6C397.199 43.5733 397.545 43.52 397.759 43.44C397.985 43.36 398.139 43.2067 398.219 42.98C398.299 42.7533 398.339 42.3867 398.339 41.88V31.96C398.339 31.4533 398.299 31.0867 398.219 30.86C398.139 30.6333 397.985 30.48 397.759 30.4C397.545 30.32 397.199 30.2667 396.719 30.24V29.84C397.279 29.88 398.132 29.9 399.279 29.9C400.345 29.9 401.192 29.88 401.819 29.84V30.24C401.339 30.2667 400.985 30.32 400.759 30.4C400.545 30.48 400.399 30.6333 400.319 30.86C400.239 31.0867 400.199 31.4533 400.199 31.96V36.48C401.185 36.4667 401.972 36.08 402.559 35.32L404.479 32.88C405.159 32.04 405.499 31.4 405.499 30.96C405.499 30.4933 405.085 30.2533 404.259 30.24V29.84C405.019 29.88 405.785 29.9 406.559 29.9C407.292 29.9 407.859 29.88 408.259 29.84V30.24C407.352 30.3733 406.565 30.86 405.899 31.7L402.139 36.5C403.205 36.54 404.072 36.7733 404.739 37.2C405.419 37.6133 405.879 38.34 406.119 39.38L406.699 41.9C406.845 42.54 406.979 42.9733 407.099 43.2C407.232 43.4267 407.425 43.54 407.679 43.54C407.905 43.54 408.092 43.48 408.239 43.36C408.399 43.24 408.579 43.0467 408.779 42.78L409.079 43Z" fill="white"/>
<path d="M413.753 38.28V41.88C413.753 42.3867 413.807 42.7533 413.913 42.98C414.02 43.2067 414.207 43.36 414.473 43.44C414.74 43.52 415.173 43.5733 415.773 43.6V44C415.08 43.96 414.1 43.94 412.833 43.94C411.687 43.94 410.833 43.96 410.273 44V43.6C410.753 43.5733 411.1 43.52 411.313 43.44C411.54 43.36 411.693 43.2067 411.773 42.98C411.853 42.7533 411.893 42.3867 411.893 41.88V31.96C411.893 31.4533 411.853 31.0867 411.773 30.86C411.693 30.6333 411.54 30.48 411.313 30.4C411.1 30.32 410.753 30.2667 410.273 30.24V29.84C410.833 29.88 411.647 29.9 412.713 29.9L414.873 29.88C415.127 29.8667 415.413 29.86 415.733 29.86C417.293 29.86 418.487 30.22 419.313 30.94C420.14 31.6467 420.553 32.6 420.553 33.8C420.553 34.5333 420.387 35.24 420.053 35.92C419.733 36.5867 419.18 37.1467 418.393 37.6C417.62 38.0533 416.587 38.28 415.293 38.28H413.753ZM415.233 30.24C414.82 30.24 414.507 30.2867 414.293 30.38C414.093 30.4733 413.953 30.64 413.873 30.88C413.793 31.12 413.753 31.48 413.753 31.96V37.88H415.093C416.4 37.88 417.3 37.5333 417.793 36.84C418.3 36.1333 418.553 35.1933 418.553 34.02C418.553 32.7267 418.293 31.7733 417.773 31.16C417.267 30.5467 416.42 30.24 415.233 30.24Z" fill="white"/>
<path d="M431.652 42.32C431.972 43.1467 432.432 43.5733 433.032 43.6V44C432.499 43.96 431.786 43.94 430.892 43.94C429.746 43.94 428.892 43.96 428.332 44V43.6C428.839 43.5733 429.199 43.5133 429.412 43.42C429.639 43.3133 429.752 43.1267 429.752 42.86C429.752 42.6333 429.672 42.32 429.512 41.92L428.292 38.64H423.452L422.632 40.76C422.366 41.48 422.232 42.0267 422.232 42.4C422.232 42.8133 422.372 43.1133 422.652 43.3C422.946 43.4867 423.386 43.5867 423.972 43.6V44C423.212 43.96 422.446 43.94 421.672 43.94C421.072 43.94 420.572 43.96 420.172 44V43.6C420.839 43.44 421.366 42.86 421.752 41.86L426.452 29.74H426.772L431.652 42.32ZM428.132 38.24L425.892 32.26L423.612 38.24H428.132Z" fill="white"/>
<path d="M438.85 30.24C438.37 30.2667 438.017 30.32 437.79 30.4C437.577 30.48 437.43 30.6333 437.35 30.86C437.27 31.0867 437.23 31.4533 437.23 31.96V41.88C437.23 42.3867 437.27 42.7533 437.35 42.98C437.43 43.2067 437.577 43.36 437.79 43.44C438.017 43.52 438.37 43.5733 438.85 43.6V44C438.237 43.96 437.39 43.94 436.31 43.94C435.163 43.94 434.31 43.96 433.75 44V43.6C434.23 43.5733 434.577 43.52 434.79 43.44C435.017 43.36 435.17 43.2067 435.25 42.98C435.33 42.7533 435.37 42.3867 435.37 41.88V31.96C435.37 31.4533 435.33 31.0867 435.25 30.86C435.17 30.6333 435.017 30.48 434.79 30.4C434.577 30.32 434.23 30.2667 433.75 30.24V29.84C434.31 29.88 435.163 29.9 436.31 29.9C437.377 29.9 438.223 29.88 438.85 29.84V30.24ZM434.19 26.24C434.497 26.24 434.763 26.36 434.99 26.6C435.23 26.8267 435.35 27.0933 435.35 27.4C435.35 27.72 435.23 27.9933 434.99 28.22C434.763 28.4467 434.497 28.56 434.19 28.56C433.87 28.56 433.597 28.4467 433.37 28.22C433.143 27.9933 433.03 27.72 433.03 27.4C433.03 27.0933 433.143 26.8267 433.37 26.6C433.597 26.36 433.87 26.24 434.19 26.24ZM438.43 26.24C438.737 26.24 439.003 26.36 439.23 26.6C439.47 26.8267 439.59 27.0933 439.59 27.4C439.59 27.72 439.47 27.9933 439.23 28.22C439.003 28.4467 438.737 28.56 438.43 28.56C438.11 28.56 437.837 28.4467 437.61 28.22C437.383 27.9933 437.27 27.72 437.27 27.4C437.27 27.0933 437.383 26.8267 437.61 26.6C437.837 26.36 438.11 26.24 438.43 26.24Z" fill="white"/>
<path d="M453.987 30.24C453.507 30.2667 453.154 30.32 452.927 30.4C452.714 30.48 452.567 30.6333 452.487 30.86C452.407 31.0867 452.367 31.4533 452.367 31.96V41.88C452.367 42.3867 452.407 42.7533 452.487 42.98C452.567 43.2067 452.714 43.36 452.927 43.44C453.154 43.52 453.507 43.5733 453.987 43.6V44C453.427 43.96 452.574 43.94 451.427 43.94C450.347 43.94 449.501 43.96 448.887 44V43.6C449.367 43.5733 449.714 43.52 449.927 43.44C450.154 43.36 450.307 43.2067 450.387 42.98C450.467 42.7533 450.507 42.3867 450.507 41.88V37.08H444.007V41.88C444.007 42.3867 444.047 42.7533 444.127 42.98C444.207 43.2067 444.354 43.36 444.567 43.44C444.794 43.52 445.147 43.5733 445.627 43.6V44C445.014 43.96 444.167 43.94 443.087 43.94C441.941 43.94 441.087 43.96 440.527 44V43.6C441.007 43.5733 441.354 43.52 441.567 43.44C441.794 43.36 441.947 43.2067 442.027 42.98C442.107 42.7533 442.147 42.3867 442.147 41.88V31.96C442.147 31.4533 442.107 31.0867 442.027 30.86C441.947 30.6333 441.794 30.48 441.567 30.4C441.354 30.32 441.007 30.2667 440.527 30.24V29.84C441.087 29.88 441.941 29.9 443.087 29.9C444.154 29.9 445.001 29.88 445.627 29.84V30.24C445.147 30.2667 444.794 30.32 444.567 30.4C444.354 30.48 444.207 30.6333 444.127 30.86C444.047 31.0867 444.007 31.4533 444.007 31.96V36.68H450.507V31.96C450.507 31.4533 450.467 31.0867 450.387 30.86C450.307 30.6333 450.154 30.48 449.927 30.4C449.714 30.32 449.367 30.2667 448.887 30.24V29.84C449.501 29.88 450.347 29.9 451.427 29.9C452.574 29.9 453.427 29.88 453.987 29.84V30.24Z" fill="white"/>
<path d="M462.088 29.56C462.888 29.56 463.568 29.6733 464.128 29.9C464.688 30.1267 465.234 30.4467 465.768 30.86C465.914 30.98 466.041 31.04 466.148 31.04C466.414 31.04 466.588 30.64 466.668 29.84H467.128C467.074 30.7067 467.048 32.24 467.048 34.44H466.588C466.441 33.5733 466.308 32.9533 466.188 32.58C466.068 32.1933 465.868 31.8267 465.588 31.48C465.188 30.96 464.674 30.5733 464.048 30.32C463.434 30.0533 462.768 29.92 462.048 29.92C461.181 29.92 460.421 30.2067 459.768 30.78C459.128 31.3533 458.628 32.1733 458.268 33.24C457.908 34.2933 457.728 35.5333 457.728 36.96C457.728 38.4133 457.921 39.66 458.308 40.7C458.694 41.74 459.228 42.5333 459.908 43.08C460.601 43.6133 461.381 43.88 462.248 43.88C462.914 43.88 463.561 43.7533 464.188 43.5C464.814 43.2467 465.308 42.8667 465.668 42.36C465.934 41.9867 466.128 41.5867 466.248 41.16C466.368 40.7333 466.481 40.08 466.588 39.2H467.048C467.048 41.4933 467.074 43.0933 467.128 44H466.668C466.628 43.5733 466.568 43.2733 466.488 43.1C466.421 42.9133 466.321 42.82 466.188 42.82C466.081 42.82 465.941 42.8733 465.768 42.98C465.168 43.4067 464.594 43.7333 464.048 43.96C463.501 44.1733 462.841 44.28 462.068 44.28C460.801 44.28 459.688 43.9933 458.728 43.42C457.781 42.8467 457.041 42.02 456.508 40.94C455.988 39.8467 455.728 38.5467 455.728 37.04C455.728 35.5733 455.994 34.2733 456.528 33.14C457.074 32.0067 457.828 31.1267 458.788 30.5C459.761 29.8733 460.861 29.56 462.088 29.56Z" fill="white"/>
<path d="M474.597 35.58C476.157 35.58 477.351 35.9467 478.177 36.68C479.004 37.4133 479.417 38.38 479.417 39.58C479.417 40.3133 479.251 41.0133 478.917 41.68C478.597 42.3467 478.044 42.9 477.257 43.34C476.484 43.78 475.451 44 474.157 44L473.217 43.98C472.657 43.9533 472.197 43.94 471.837 43.94C470.691 43.94 469.837 43.96 469.277 44V43.6C469.757 43.5733 470.104 43.52 470.317 43.44C470.544 43.36 470.697 43.2067 470.777 42.98C470.857 42.7533 470.897 42.3867 470.897 41.88V31.96C470.897 31.4533 470.857 31.0867 470.777 30.86C470.697 30.6333 470.544 30.48 470.317 30.4C470.104 30.32 469.757 30.2667 469.277 30.24V29.84C469.837 29.88 470.691 29.9 471.837 29.9C473.104 29.9 474.084 29.88 474.777 29.84V30.24C474.177 30.2667 473.744 30.32 473.477 30.4C473.211 30.48 473.024 30.6333 472.917 30.86C472.811 31.0867 472.757 31.4533 472.757 31.96V35.62L474.597 35.58ZM474.157 43.6C475.397 43.6 476.251 43.26 476.717 42.58C477.184 41.9 477.417 40.9733 477.417 39.8C477.417 38.5067 477.157 37.5467 476.637 36.92C476.131 36.28 475.284 35.96 474.097 35.96C473.497 35.96 473.051 35.9667 472.757 35.98V41.88C472.757 42.3867 472.791 42.76 472.857 43C472.924 43.2267 473.051 43.3867 473.237 43.48C473.424 43.56 473.731 43.6 474.157 43.6Z" fill="white"/>
<path d="M493.141 43C492.848 43.44 492.548 43.7667 492.241 43.98C491.935 44.18 491.521 44.28 491.001 44.28C490.468 44.28 490.021 44.1267 489.661 43.82C489.315 43.5133 489.048 42.9467 488.861 42.12L488.301 39.64C488.141 38.96 487.981 38.44 487.821 38.08C487.675 37.7067 487.421 37.4133 487.061 37.2C486.715 36.9733 486.221 36.86 485.581 36.86H484.261V41.88C484.261 42.3867 484.301 42.7533 484.381 42.98C484.461 43.2067 484.608 43.36 484.821 43.44C485.048 43.52 485.401 43.5733 485.881 43.6V44C485.268 43.96 484.421 43.94 483.341 43.94C482.195 43.94 481.341 43.96 480.781 44V43.6C481.261 43.5733 481.608 43.52 481.821 43.44C482.048 43.36 482.201 43.2067 482.281 42.98C482.361 42.7533 482.401 42.3867 482.401 41.88V31.96C482.401 31.4533 482.361 31.0867 482.281 30.86C482.201 30.6333 482.048 30.48 481.821 30.4C481.608 30.32 481.261 30.2667 480.781 30.24V29.84C481.341 29.88 482.195 29.9 483.341 29.9C484.408 29.9 485.255 29.88 485.881 29.84V30.24C485.401 30.2667 485.048 30.32 484.821 30.4C484.608 30.48 484.461 30.6333 484.381 30.86C484.301 31.0867 484.261 31.4533 484.261 31.96V36.48C485.248 36.4667 486.035 36.08 486.621 35.32L488.541 32.88C489.221 32.04 489.561 31.4 489.561 30.96C489.561 30.4933 489.148 30.2533 488.321 30.24V29.84C489.081 29.88 489.848 29.9 490.621 29.9C491.355 29.9 491.921 29.88 492.321 29.84V30.24C491.415 30.3733 490.628 30.86 489.961 31.7L486.201 36.5C487.268 36.54 488.135 36.7733 488.801 37.2C489.481 37.6133 489.941 38.34 490.181 39.38L490.761 41.9C490.908 42.54 491.041 42.9733 491.161 43.2C491.295 43.4267 491.488 43.54 491.741 43.54C491.968 43.54 492.155 43.48 492.301 43.36C492.461 43.24 492.641 43.0467 492.841 42.78L493.141 43Z" fill="white"/>
<path d="M500.428 29.56C501.694 29.56 502.801 29.8467 503.748 30.42C504.708 30.9933 505.448 31.8267 505.968 32.92C506.501 34 506.768 35.2933 506.768 36.8C506.768 38.2667 506.494 39.5667 505.948 40.7C505.414 41.8333 504.661 42.7133 503.688 43.34C502.728 43.9667 501.634 44.28 500.408 44.28C499.141 44.28 498.028 43.9933 497.068 43.42C496.121 42.8467 495.381 42.02 494.848 40.94C494.328 39.8467 494.068 38.5467 494.068 37.04C494.068 35.5733 494.334 34.2733 494.868 33.14C495.414 32.0067 496.168 31.1267 497.128 30.5C498.101 29.8733 499.201 29.56 500.428 29.56ZM500.348 29.92C499.494 29.92 498.741 30.22 498.088 30.82C497.448 31.4067 496.948 32.2333 496.588 33.3C496.241 34.3667 496.068 35.5867 496.068 36.96C496.068 38.3467 496.261 39.5667 496.648 40.62C497.048 41.6733 497.581 42.4867 498.248 43.06C498.914 43.6333 499.661 43.92 500.488 43.92C501.341 43.92 502.088 43.6267 502.728 43.04C503.381 42.44 503.881 41.6067 504.228 40.54C504.588 39.4733 504.768 38.2533 504.768 36.88C504.768 35.4933 504.568 34.2733 504.168 33.22C503.781 32.1667 503.254 31.3533 502.588 30.78C501.921 30.2067 501.174 29.92 500.348 29.92Z" fill="white"/>
<path d="M517.696 29.84C517.602 30.7867 517.556 31.64 517.556 32.4C517.556 33.0667 517.576 33.6133 517.616 34.04H517.156C517.049 33.0133 516.916 32.2533 516.756 31.76C516.596 31.2533 516.316 30.8867 515.916 30.66C515.516 30.42 514.902 30.3 514.076 30.3H513.616C513.136 30.3 512.782 30.34 512.556 30.42C512.342 30.4867 512.196 30.6333 512.116 30.86C512.036 31.0867 511.996 31.4533 511.996 31.96V41.88C511.996 42.3867 512.049 42.7533 512.156 42.98C512.262 43.2067 512.449 43.36 512.716 43.44C512.982 43.52 513.416 43.5733 514.016 43.6V44C513.322 43.96 512.342 43.94 511.076 43.94C509.929 43.94 509.076 43.96 508.516 44V43.6C508.996 43.5733 509.342 43.52 509.556 43.44C509.782 43.36 509.936 43.2067 510.016 42.98C510.096 42.7533 510.136 42.3867 510.136 41.88V31.96C510.136 31.4533 510.096 31.0867 510.016 30.86C509.936 30.6333 509.782 30.48 509.556 30.4C509.342 30.32 508.996 30.2667 508.516 30.24V29.84C509.822 29.88 511.756 29.9 514.316 29.9C515.902 29.9 517.029 29.88 517.696 29.84Z" fill="white"/>
<path d="M525.662 29.56C526.929 29.56 528.035 29.8467 528.982 30.42C529.942 30.9933 530.682 31.8267 531.202 32.92C531.735 34 532.002 35.2933 532.002 36.8C532.002 38.2667 531.729 39.5667 531.182 40.7C530.649 41.8333 529.895 42.7133 528.922 43.34C527.962 43.9667 526.869 44.28 525.642 44.28C524.375 44.28 523.262 43.9933 522.302 43.42C521.355 42.8467 520.615 42.02 520.082 40.94C519.562 39.8467 519.302 38.5467 519.302 37.04C519.302 35.5733 519.569 34.2733 520.102 33.14C520.649 32.0067 521.402 31.1267 522.362 30.5C523.335 29.8733 524.435 29.56 525.662 29.56ZM525.582 29.92C524.729 29.92 523.975 30.22 523.322 30.82C522.682 31.4067 522.182 32.2333 521.822 33.3C521.475 34.3667 521.302 35.5867 521.302 36.96C521.302 38.3467 521.495 39.5667 521.882 40.62C522.282 41.6733 522.815 42.4867 523.482 43.06C524.149 43.6333 524.895 43.92 525.722 43.92C526.575 43.92 527.322 43.6267 527.962 43.04C528.615 42.44 529.115 41.6067 529.462 40.54C529.822 39.4733 530.002 38.2533 530.002 36.88C530.002 35.4933 529.802 34.2733 529.402 33.22C529.015 32.1667 528.489 31.3533 527.822 30.78C527.155 30.2067 526.409 29.92 525.582 29.92Z" fill="white"/>
<path d="M279.3 52.24C278.82 52.2667 278.467 52.32 278.24 52.4C278.027 52.48 277.88 52.6333 277.8 52.86C277.72 53.0867 277.68 53.4533 277.68 53.96V63.88C277.68 64.3867 277.72 64.7533 277.8 64.98C277.88 65.2067 278.027 65.36 278.24 65.44C278.467 65.52 278.82 65.5733 279.3 65.6V66C278.74 65.96 277.887 65.94 276.74 65.94C275.66 65.94 274.813 65.96 274.2 66V65.6C274.68 65.5733 275.027 65.52 275.24 65.44C275.467 65.36 275.62 65.2067 275.7 64.98C275.78 64.7533 275.82 64.3867 275.82 63.88V53.96C275.82 53.4533 275.78 53.0867 275.7 52.86C275.62 52.62 275.467 52.46 275.24 52.38C275.013 52.2867 274.667 52.24 274.2 52.24H270.94C270.473 52.24 270.127 52.2867 269.9 52.38C269.673 52.46 269.52 52.62 269.44 52.86C269.36 53.0867 269.32 53.4533 269.32 53.96V63.88C269.32 64.3867 269.36 64.7533 269.44 64.98C269.52 65.2067 269.667 65.36 269.88 65.44C270.107 65.52 270.46 65.5733 270.94 65.6V66C270.327 65.96 269.48 65.94 268.4 65.94C267.253 65.94 266.4 65.96 265.84 66V65.6C266.32 65.5733 266.667 65.52 266.88 65.44C267.107 65.36 267.26 65.2067 267.34 64.98C267.42 64.7533 267.46 64.3867 267.46 63.88V53.96C267.46 53.4533 267.42 53.0867 267.34 52.86C267.26 52.6333 267.107 52.48 266.88 52.4C266.667 52.32 266.32 52.2667 265.84 52.24V51.84C266.4 51.88 267.253 51.9 268.4 51.9C269.067 51.9 269.933 51.8867 271 51.86L272.6 51.84L274.16 51.86C275.227 51.8867 276.087 51.9 276.74 51.9C277.887 51.9 278.74 51.88 279.3 51.84V52.24Z" fill="white"/>
<path d="M284.457 60.28V63.88C284.457 64.3867 284.51 64.7533 284.617 64.98C284.723 65.2067 284.91 65.36 285.177 65.44C285.443 65.52 285.877 65.5733 286.477 65.6V66C285.783 65.96 284.803 65.94 283.537 65.94C282.39 65.94 281.537 65.96 280.977 66V65.6C281.457 65.5733 281.803 65.52 282.017 65.44C282.243 65.36 282.397 65.2067 282.477 64.98C282.557 64.7533 282.597 64.3867 282.597 63.88V53.96C282.597 53.4533 282.557 53.0867 282.477 52.86C282.397 52.6333 282.243 52.48 282.017 52.4C281.803 52.32 281.457 52.2667 280.977 52.24V51.84C281.537 51.88 282.35 51.9 283.417 51.9L285.577 51.88C285.83 51.8667 286.117 51.86 286.437 51.86C287.997 51.86 289.19 52.22 290.017 52.94C290.843 53.6467 291.257 54.6 291.257 55.8C291.257 56.5333 291.09 57.24 290.757 57.92C290.437 58.5867 289.883 59.1467 289.097 59.6C288.323 60.0533 287.29 60.28 285.997 60.28H284.457ZM285.937 52.24C285.523 52.24 285.21 52.2867 284.997 52.38C284.797 52.4733 284.657 52.64 284.577 52.88C284.497 53.12 284.457 53.48 284.457 53.96V59.88H285.797C287.103 59.88 288.003 59.5333 288.497 58.84C289.003 58.1333 289.257 57.1933 289.257 56.02C289.257 54.7267 288.997 53.7733 288.477 53.16C287.97 52.5467 287.123 52.24 285.937 52.24Z" fill="white"/>
<path d="M306.536 52.24C306.056 52.2667 305.702 52.32 305.476 52.4C305.262 52.48 305.116 52.6333 305.036 52.86C304.956 53.0867 304.916 53.4533 304.916 53.96V63.88C304.916 64.3867 304.956 64.7533 305.036 64.98C305.116 65.2067 305.262 65.36 305.476 65.44C305.702 65.52 306.056 65.5733 306.536 65.6V66C305.976 65.96 305.122 65.94 303.976 65.94C302.909 65.94 302.062 65.96 301.436 66V65.6C301.916 65.5733 302.262 65.52 302.476 65.44C302.702 65.36 302.856 65.2067 302.936 64.98C303.016 64.7533 303.056 64.3867 303.056 63.88V54.42L296.156 64.2C296.169 64.5867 296.222 64.88 296.316 65.08C296.409 65.2667 296.562 65.3933 296.776 65.46C296.989 65.5267 297.322 65.5733 297.776 65.6V66C297.162 65.96 296.316 65.94 295.236 65.94C294.089 65.94 293.236 65.96 292.676 66V65.6C293.156 65.5733 293.502 65.52 293.716 65.44C293.942 65.36 294.096 65.2067 294.176 64.98C294.256 64.7533 294.296 64.3867 294.296 63.88V53.96C294.296 53.4533 294.256 53.0867 294.176 52.86C294.096 52.6333 293.942 52.48 293.716 52.4C293.502 52.32 293.156 52.2667 292.676 52.24V51.84C293.236 51.88 294.089 51.9 295.236 51.9C296.302 51.9 297.149 51.88 297.776 51.84V52.24C297.296 52.2667 296.942 52.32 296.716 52.4C296.502 52.48 296.356 52.6333 296.276 52.86C296.196 53.0867 296.156 53.4533 296.156 53.96V63.42L303.056 53.64C303.042 53.2533 302.989 52.9667 302.896 52.78C302.802 52.58 302.649 52.4467 302.436 52.38C302.222 52.3133 301.889 52.2667 301.436 52.24V51.84C302.062 51.88 302.909 51.9 303.976 51.9C305.122 51.9 305.976 51.88 306.536 51.84V52.24Z" fill="white"/>
<path d="M323.963 52.24C323.483 52.2667 323.129 52.32 322.903 52.4C322.689 52.48 322.543 52.6333 322.463 52.86C322.383 53.0867 322.343 53.4533 322.343 53.96V63.88C322.343 64.3867 322.383 64.7533 322.463 64.98C322.543 65.2067 322.689 65.36 322.903 65.44C323.129 65.52 323.483 65.5733 323.963 65.6V66C323.349 65.96 322.503 65.94 321.423 65.94C320.276 65.94 319.423 65.96 318.863 66V65.6C319.343 65.5733 319.689 65.52 319.903 65.44C320.129 65.36 320.283 65.2067 320.363 64.98C320.443 64.7533 320.483 64.3867 320.483 63.88V53.16L315.663 66.1H315.343L310.303 53.12V63.68C310.303 64.2 310.343 64.5867 310.423 64.84C310.516 65.0933 310.689 65.28 310.943 65.4C311.196 65.5067 311.589 65.5733 312.123 65.6V66C311.643 65.96 310.963 65.94 310.083 65.94C309.283 65.94 308.663 65.96 308.223 66V65.6C308.689 65.5733 309.036 65.5067 309.263 65.4C309.489 65.28 309.643 65.0933 309.723 64.84C309.803 64.5733 309.843 64.1867 309.843 63.68V53.96C309.843 53.4533 309.803 53.0867 309.723 52.86C309.643 52.6333 309.489 52.48 309.263 52.4C309.049 52.32 308.703 52.2667 308.223 52.24V51.84C308.663 51.88 309.283 51.9 310.083 51.9C310.776 51.9 311.343 51.88 311.783 51.84L316.183 63.42L320.483 51.9H321.423C322.503 51.9 323.349 51.88 323.963 51.84V52.24Z" fill="white"/>
<path d="M339.505 52.24C339.025 52.2667 338.671 52.32 338.445 52.4C338.231 52.48 338.085 52.6333 338.005 52.86C337.925 53.0867 337.885 53.4533 337.885 53.96V63.88C337.885 64.3867 337.925 64.7533 338.005 64.98C338.085 65.2067 338.231 65.36 338.445 65.44C338.671 65.52 339.025 65.5733 339.505 65.6V66C338.945 65.96 338.091 65.94 336.945 65.94C335.878 65.94 335.031 65.96 334.405 66V65.6C334.885 65.5733 335.231 65.52 335.445 65.44C335.671 65.36 335.825 65.2067 335.905 64.98C335.985 64.7533 336.025 64.3867 336.025 63.88V54.42L329.125 64.2C329.138 64.5867 329.191 64.88 329.285 65.08C329.378 65.2667 329.531 65.3933 329.745 65.46C329.958 65.5267 330.291 65.5733 330.745 65.6V66C330.131 65.96 329.285 65.94 328.205 65.94C327.058 65.94 326.205 65.96 325.645 66V65.6C326.125 65.5733 326.471 65.52 326.685 65.44C326.911 65.36 327.065 65.2067 327.145 64.98C327.225 64.7533 327.265 64.3867 327.265 63.88V53.96C327.265 53.4533 327.225 53.0867 327.145 52.86C327.065 52.6333 326.911 52.48 326.685 52.4C326.471 52.32 326.125 52.2667 325.645 52.24V51.84C326.205 51.88 327.058 51.9 328.205 51.9C329.271 51.9 330.118 51.88 330.745 51.84V52.24C330.265 52.2667 329.911 52.32 329.685 52.4C329.471 52.48 329.325 52.6333 329.245 52.86C329.165 53.0867 329.125 53.4533 329.125 53.96V63.42L336.025 53.64C336.011 53.2533 335.958 52.9667 335.865 52.78C335.771 52.58 335.618 52.4467 335.405 52.38C335.191 52.3133 334.858 52.2667 334.405 52.24V51.84C335.031 51.88 335.878 51.9 336.945 51.9C338.091 51.9 338.945 51.88 339.505 51.84V52.24Z" fill="white"/>
<path d="M344.671 60.28V63.88C344.671 64.3867 344.725 64.7533 344.831 64.98C344.938 65.2067 345.125 65.36 345.391 65.44C345.658 65.52 346.091 65.5733 346.691 65.6V66C345.998 65.96 345.018 65.94 343.751 65.94C342.605 65.94 341.751 65.96 341.191 66V65.6C341.671 65.5733 342.018 65.52 342.231 65.44C342.458 65.36 342.611 65.2067 342.691 64.98C342.771 64.7533 342.811 64.3867 342.811 63.88V53.96C342.811 53.4533 342.771 53.0867 342.691 52.86C342.611 52.6333 342.458 52.48 342.231 52.4C342.018 52.32 341.671 52.2667 341.191 52.24V51.84C341.751 51.88 342.565 51.9 343.631 51.9L345.791 51.88C346.045 51.8667 346.331 51.86 346.651 51.86C348.211 51.86 349.405 52.22 350.231 52.94C351.058 53.6467 351.471 54.6 351.471 55.8C351.471 56.5333 351.305 57.24 350.971 57.92C350.651 58.5867 350.098 59.1467 349.311 59.6C348.538 60.0533 347.505 60.28 346.211 60.28H344.671ZM346.151 52.24C345.738 52.24 345.425 52.2867 345.211 52.38C345.011 52.4733 344.871 52.64 344.791 52.88C344.711 53.12 344.671 53.48 344.671 53.96V59.88H346.011C347.318 59.88 348.218 59.5333 348.711 58.84C349.218 58.1333 349.471 57.1933 349.471 56.02C349.471 54.7267 349.211 53.7733 348.691 53.16C348.185 52.5467 347.338 52.24 346.151 52.24Z" fill="white"/>
<path d="M363.131 63.44C363.131 64.2 363.177 65.0533 363.271 66C362.364 65.96 360.837 65.94 358.691 65.94C356.131 65.94 354.197 65.96 352.891 66V65.6C353.371 65.5733 353.717 65.52 353.931 65.44C354.157 65.36 354.311 65.2067 354.391 64.98C354.471 64.7533 354.511 64.3867 354.511 63.88V53.96C354.511 53.4533 354.471 53.0867 354.391 52.86C354.311 52.6333 354.157 52.48 353.931 52.4C353.717 52.32 353.371 52.2667 352.891 52.24V51.84C354.197 51.88 356.131 51.9 358.691 51.9C360.651 51.9 362.044 51.88 362.871 51.84C362.777 52.72 362.731 53.5067 362.731 54.2C362.731 54.72 362.751 55.1333 362.791 55.44H362.331C362.237 54.5733 362.117 53.9333 361.971 53.52C361.824 53.0933 361.577 52.7867 361.231 52.6C360.884 52.4 360.357 52.3 359.651 52.3H357.991C357.511 52.3 357.157 52.34 356.931 52.42C356.717 52.4867 356.571 52.6333 356.491 52.86C356.411 53.0867 356.371 53.4533 356.371 53.96V58.68H357.691C358.157 58.68 358.517 58.5733 358.771 58.36C359.024 58.1333 359.191 57.8733 359.271 57.58C359.364 57.2733 359.437 56.8933 359.491 56.44L359.551 56.04H360.011C359.971 56.6 359.951 57.2267 359.951 57.92V58.88C359.951 59.56 359.991 60.5067 360.071 61.72H359.611C359.597 61.6267 359.557 61.3067 359.491 60.76C359.424 60.2 359.237 59.78 358.931 59.5C358.637 59.22 358.224 59.08 357.691 59.08H356.371V63.88C356.371 64.3867 356.411 64.7533 356.491 64.98C356.571 65.2067 356.717 65.36 356.931 65.44C357.157 65.5067 357.511 65.54 357.991 65.54H359.451C360.277 65.54 360.904 65.4333 361.331 65.22C361.771 64.9933 362.091 64.64 362.291 64.16C362.491 63.6667 362.637 62.9467 362.731 62H363.191C363.151 62.36 363.131 62.84 363.131 63.44Z" fill="white"/>
<path d="M378.538 52.24C378.058 52.2667 377.705 52.32 377.478 52.4C377.265 52.48 377.118 52.6333 377.038 52.86C376.958 53.0867 376.918 53.4533 376.918 53.96V63.88C376.918 64.3867 376.958 64.7533 377.038 64.98C377.118 65.2067 377.265 65.36 377.478 65.44C377.705 65.52 378.058 65.5733 378.538 65.6V66C377.978 65.96 377.125 65.94 375.978 65.94C374.898 65.94 374.051 65.96 373.438 66V65.6C373.918 65.5733 374.265 65.52 374.478 65.44C374.705 65.36 374.858 65.2067 374.938 64.98C375.018 64.7533 375.058 64.3867 375.058 63.88V59.08H368.558V63.88C368.558 64.3867 368.598 64.7533 368.678 64.98C368.758 65.2067 368.905 65.36 369.118 65.44C369.345 65.52 369.698 65.5733 370.178 65.6V66C369.565 65.96 368.718 65.94 367.638 65.94C366.491 65.94 365.638 65.96 365.078 66V65.6C365.558 65.5733 365.905 65.52 366.118 65.44C366.345 65.36 366.498 65.2067 366.578 64.98C366.658 64.7533 366.698 64.3867 366.698 63.88V53.96C366.698 53.4533 366.658 53.0867 366.578 52.86C366.498 52.6333 366.345 52.48 366.118 52.4C365.905 52.32 365.558 52.2667 365.078 52.24V51.84C365.638 51.88 366.491 51.9 367.638 51.9C368.705 51.9 369.551 51.88 370.178 51.84V52.24C369.698 52.2667 369.345 52.32 369.118 52.4C368.905 52.48 368.758 52.6333 368.678 52.86C368.598 53.0867 368.558 53.4533 368.558 53.96V58.68H375.058V53.96C375.058 53.4533 375.018 53.0867 374.938 52.86C374.858 52.6333 374.705 52.48 374.478 52.4C374.265 52.32 373.918 52.2667 373.438 52.24V51.84C374.051 51.88 374.898 51.9 375.978 51.9C377.125 51.9 377.978 51.88 378.538 51.84V52.24Z" fill="white"/>
<path d="M393.675 52.24C393.195 52.2667 392.842 52.32 392.615 52.4C392.402 52.48 392.255 52.6333 392.175 52.86C392.095 53.0867 392.055 53.4533 392.055 53.96V63.88C392.055 64.3867 392.095 64.7533 392.175 64.98C392.255 65.2067 392.402 65.36 392.615 65.44C392.842 65.52 393.195 65.5733 393.675 65.6V66C393.115 65.96 392.262 65.94 391.115 65.94C390.035 65.94 389.188 65.96 388.575 66V65.6C389.055 65.5733 389.402 65.52 389.615 65.44C389.842 65.36 389.995 65.2067 390.075 64.98C390.155 64.7533 390.195 64.3867 390.195 63.88V59.08H383.695V63.88C383.695 64.3867 383.735 64.7533 383.815 64.98C383.895 65.2067 384.042 65.36 384.255 65.44C384.482 65.52 384.835 65.5733 385.315 65.6V66C384.702 65.96 383.855 65.94 382.775 65.94C381.628 65.94 380.775 65.96 380.215 66V65.6C380.695 65.5733 381.042 65.52 381.255 65.44C381.482 65.36 381.635 65.2067 381.715 64.98C381.795 64.7533 381.835 64.3867 381.835 63.88V53.96C381.835 53.4533 381.795 53.0867 381.715 52.86C381.635 52.6333 381.482 52.48 381.255 52.4C381.042 52.32 380.695 52.2667 380.215 52.24V51.84C380.775 51.88 381.628 51.9 382.775 51.9C383.842 51.9 384.688 51.88 385.315 51.84V52.24C384.835 52.2667 384.482 52.32 384.255 52.4C384.042 52.48 383.895 52.6333 383.815 52.86C383.735 53.0867 383.695 53.4533 383.695 53.96V58.68H390.195V53.96C390.195 53.4533 390.155 53.0867 390.075 52.86C389.995 52.6333 389.842 52.48 389.615 52.4C389.402 52.32 389.055 52.2667 388.575 52.24V51.84C389.188 51.88 390.035 51.9 391.115 51.9C392.262 51.9 393.115 51.88 393.675 51.84V52.24Z" fill="white"/>
<path d="M406.732 52.24C406.252 52.2667 405.898 52.32 405.672 52.4C405.458 52.48 405.312 52.6333 405.232 52.86C405.152 53.0867 405.112 53.4533 405.112 53.96V63.88C405.112 64.3867 405.152 64.7533 405.232 64.98C405.312 65.2067 405.458 65.36 405.672 65.44C405.898 65.52 406.252 65.5733 406.732 65.6V66C406.172 65.96 405.318 65.94 404.172 65.94C403.105 65.94 402.258 65.96 401.632 66V65.6C402.112 65.5733 402.458 65.52 402.672 65.44C402.898 65.36 403.052 65.2067 403.132 64.98C403.212 64.7533 403.252 64.3867 403.252 63.88V59.28H401.252C400.745 59.28 400.352 59.3933 400.072 59.62C399.792 59.8467 399.578 60.1467 399.432 60.52C399.298 60.8933 399.152 61.4267 398.992 62.12L398.552 64.12C398.378 64.92 398.112 65.48 397.752 65.8C397.405 66.12 396.958 66.28 396.412 66.28C395.905 66.28 395.498 66.18 395.192 65.98C394.885 65.78 394.578 65.4533 394.272 65L394.572 64.78C394.772 65.0467 394.945 65.24 395.092 65.36C395.252 65.48 395.445 65.54 395.672 65.54C395.925 65.54 396.118 65.4267 396.252 65.2C396.385 64.96 396.518 64.5267 396.652 63.9L397.112 61.86C397.298 61.02 397.605 60.4067 398.032 60.02C398.458 59.6333 399.112 59.3667 399.992 59.22L400.252 59.18C398.905 58.98 397.932 58.52 397.332 57.8C396.745 57.0667 396.452 56.2467 396.452 55.34C396.452 54.3133 396.865 53.48 397.692 52.84C398.532 52.1867 399.725 51.86 401.272 51.86C401.592 51.86 401.878 51.8667 402.132 51.88L404.292 51.9C405.358 51.9 406.172 51.88 406.732 51.84V52.24ZM398.452 55.42C398.452 56.5267 398.698 57.38 399.192 57.98C399.685 58.58 400.592 58.88 401.912 58.88H403.252V53.96C403.252 53.48 403.212 53.12 403.132 52.88C403.052 52.64 402.905 52.4733 402.692 52.38C402.492 52.2867 402.185 52.24 401.772 52.24C400.612 52.24 399.765 52.5133 399.232 53.06C398.712 53.6067 398.452 54.3933 398.452 55.42Z" fill="white"/>
</svg>
