<svg width="50" height="50" viewBox="0 0 50 50" fill="none" xmlns="http://www.w3.org/2000/svg">
<path fill-rule="evenodd" clip-rule="evenodd" d="M0.027045 8.08769L0.0541876 16.1675L2.14329 22.4165L4.23239 28.6655L7.40388 33.6452C9.14823 36.384 10.7521 38.809 10.9681 39.0342C11.5191 39.6087 12.1843 39.88 13.0536 39.8849C13.6514 39.8882 13.8376 39.8441 14.3575 39.576L14.9639 39.2632L15.4663 39.7794C15.7426 40.0634 16.1395 40.44 16.3482 40.6163L16.7278 40.937L16.674 43.296C16.6172 45.78 16.4899 46.813 16.0554 48.3172C15.7616 49.3344 15.7629 49.3697 16.1077 49.7146L16.3931 50H25H33.6069L33.8923 49.7146C34.2371 49.3697 34.2384 49.3344 33.9446 48.3172C33.5101 46.813 33.3828 45.78 33.326 43.296L33.2722 40.937L33.6518 40.6163C33.8605 40.44 34.2574 40.0634 34.5337 39.7794L35.0361 39.2632L35.6425 39.576C36.792 40.1688 38.177 39.9344 39.071 38.9958C39.2653 38.7917 40.8515 36.384 42.5959 33.6452L45.7676 28.6655L47.8567 22.4165L49.9458 16.1675L49.973 8.08769L50 0.0079089H49.1675H48.3348V7.83909V15.6703L46.2847 21.8261L44.2346 27.982L41.0856 32.9043C39.3538 35.6115 37.8176 37.9146 37.6719 38.0222C37.1024 38.4433 36.1369 38.1753 35.7872 37.4991C35.4611 36.8685 35.515 36.736 37.7907 32.5769L39.9392 28.6502L40.372 27.0956C40.6101 26.2406 41.3573 23.8081 42.0325 21.6902C42.7077 19.5723 43.2267 17.8092 43.1857 17.7723C43.0261 17.6281 41.7718 17.2733 41.7023 17.3527C41.6618 17.399 41.0249 19.3481 40.2869 21.6842C39.0868 25.4834 38.9113 25.9662 38.6236 26.2598C38.2338 26.6578 37.681 26.7897 37.1574 26.6097C36.6777 26.4447 36.4606 26.231 36.2724 25.738C36.1162 25.3291 36.1223 25.2839 36.7993 21.8687L37.4844 18.4132L37.5322 16.2163C37.5656 14.6797 37.6287 13.7993 37.7425 13.2871C38.2949 10.8 39.3014 8.80261 40.9104 7.00085C41.3402 6.51938 41.6134 6.12266 41.6482 5.92924C41.6785 5.76042 41.6907 4.37001 41.6751 2.83949L41.6468 0.0567293L40.8413 0.0284135L40.0358 0V2.73463V5.46925L39.5834 5.97874C39.3345 6.25897 38.9743 6.70617 38.783 6.97253C38.4577 7.42549 38.4267 7.44482 38.3057 7.2718C36.4729 4.65171 34.3219 2.76167 31.8317 1.58325C27.3198 -0.551768 22.2933 -0.502362 17.9037 1.72014C15.4549 2.95998 13.4674 4.73695 11.6943 7.2718C11.5733 7.44482 11.5423 7.42549 11.217 6.97253C11.0257 6.70617 10.6655 6.25897 10.4166 5.97874L9.96417 5.46925V2.73463V0L9.15868 0.0284135L8.35319 0.0567293L8.32487 2.83949C8.30935 4.37001 8.32146 5.76042 8.35182 5.92924C8.38658 6.12296 8.66015 6.51957 9.09248 7.00329C10.3435 8.40326 11.2279 9.92538 11.8072 11.676C12.3287 13.2515 12.4166 13.8553 12.468 16.2163L12.516 18.4132L13.2041 21.8885L13.8922 25.364L13.6948 25.8104C13.2693 26.7721 12.0995 26.9982 11.3751 26.2585C11.0891 25.9666 10.911 25.4765 9.71315 21.6842C8.97512 19.3481 8.34215 17.4028 8.30642 17.3614C8.2412 17.2857 6.95388 17.6376 6.81426 17.7694C6.77335 17.8079 7.29228 19.5723 7.96753 21.6902C8.64268 23.8081 9.38988 26.2406 9.62801 27.0956L10.0608 28.6502L12.2093 32.5769C14.5292 36.8169 14.5671 36.9134 14.1668 37.5699C14.0621 37.7415 13.8612 37.9576 13.7201 38.0499C13.3643 38.2831 12.6619 38.269 12.3281 38.0222C12.1824 37.9146 10.6462 35.6115 8.91439 32.9043L5.76536 27.982L3.71532 21.8261L1.66517 15.6703V7.83909V0.0079089H0.832536H0L0.027045 8.08769ZM24.1213 2.72633V3.68731L23.0865 3.8283L22.0519 3.96929L21.6235 3.1163C21.3879 2.64724 21.2275 2.24408 21.2669 2.22055C21.3398 2.1771 22.6012 1.90077 23.0473 1.83047C23.1815 1.80938 23.4781 1.78605 23.7063 1.77872L24.1213 1.76544V2.72633ZM27.9779 2.0114C28.4075 2.10055 28.7727 2.18686 28.7894 2.20336C28.8062 2.21977 28.6238 2.6239 28.384 3.10127L27.9481 3.96929L26.9135 3.8283L25.8787 3.68731V2.71217V1.73713L26.5378 1.79327C26.9002 1.82413 27.5483 1.92235 27.9779 2.0114ZM20.0068 3.58918L20.4063 4.38768L19.8961 4.55436C19.6155 4.64595 19.1028 4.84796 18.7567 5.00321L18.1275 5.28549L17.5643 4.72816L17.001 4.17082L17.3637 3.92379C17.7193 3.68145 19.556 2.72974 19.59 2.77007C19.5996 2.7814 19.7872 3.14999 20.0068 3.58918ZM32.2363 3.68819L33.0121 4.14964L32.4436 4.7182L31.8752 5.28666L31.2446 5.0038C30.8978 4.84826 30.3852 4.64624 30.1053 4.55485L29.5968 4.38866L30.0007 3.57414L30.4046 2.75962L30.9326 2.99318C31.223 3.12158 31.8097 3.43432 32.2363 3.68819ZM16.0365 6.48491C15.7307 6.70089 15.2788 7.04381 15.0322 7.2469L14.5839 7.61618L14.2685 7.29074L13.9531 6.9653L14.806 6.06906L15.6588 5.17272L16.1256 5.63251L16.5923 6.0923L16.0365 6.48491ZM35.7383 7.28371L35.4197 7.61247L34.9159 7.20316C34.6388 6.9781 34.1864 6.64016 33.9104 6.4522L33.4087 6.11046L33.8665 5.6412L34.3242 5.17203L35.1906 6.06349L36.057 6.95496L35.7383 7.28371ZM27.8427 5.66444C31.3565 6.4151 34.1408 8.20056 36.4082 11.1571C36.5132 11.294 36.4926 11.4908 36.2851 12.3288C36.1479 12.8827 36.0015 13.6874 35.9599 14.117C35.8726 15.016 35.9602 14.9793 34.753 14.6233C33.6735 14.305 32.1092 14.1235 31.1601 14.2064C30.1808 14.292 29.1701 14.4619 29.0658 14.5584C29.0197 14.601 29.0617 14.9737 29.1591 15.3865L29.336 16.1372L29.7309 16.0736C32.0506 15.7005 33.6413 15.8431 35.2594 16.5694L35.8375 16.8288V17.537C35.8375 17.9266 35.7496 18.6723 35.6422 19.1943C35.5348 19.7163 35.447 20.1661 35.447 20.1939C35.447 20.2555 31.1822 20.1417 30.5596 20.0635L30.1146 20.0076L29.998 20.7574C29.934 21.1697 29.9026 21.5411 29.9282 21.5827C30.0104 21.7156 32.1259 21.9011 33.6154 21.9061C34.5863 21.9094 35.0563 21.9457 35.056 22.0173C35.0558 22.0757 34.9206 22.8046 34.7557 23.637C34.43 25.28 34.4311 25.7417 34.7621 26.5141C35.2162 27.5735 36.3702 28.3349 37.5595 28.3596C37.9011 28.3667 38.1697 28.3985 38.1564 28.4303C38.1429 28.4621 37.2093 30.1747 36.0816 32.2362L34.0313 35.9843L34.0265 36.9474L34.0217 37.9104L33.3086 38.6414C28.7713 43.292 21.339 43.3192 16.7597 38.702L15.9884 37.9244L15.9786 36.9559L15.9687 35.9874L13.9184 32.2382C12.7907 30.1761 11.8518 28.4472 11.8321 28.3961C11.8112 28.3422 11.9137 28.3289 12.0762 28.3646C12.4543 28.4474 13.3122 28.2743 13.8465 28.0075C14.5086 27.6768 15.0999 26.9597 15.3331 26.2047C15.5838 25.3932 15.5816 25.3358 15.2349 23.5882C15.0751 22.7826 14.9442 22.0566 14.944 21.9747C14.9437 21.8463 15.074 21.8365 15.8955 21.9029C17.1652 22.0056 20.5595 21.7978 20.8803 21.5978C20.9678 21.5432 20.7722 20.1575 20.6613 20.0466C20.639 20.0243 20.1423 20.0589 19.5574 20.1235C18.4643 20.2443 14.724 20.2279 14.598 20.1018C14.4554 19.9591 14.17 18.2869 14.1663 17.5722L14.1625 16.8288L14.7406 16.5694C16.3587 15.8431 17.9494 15.7005 20.2691 16.0736L20.664 16.1372L20.8409 15.3865C20.9383 14.9737 20.9803 14.601 20.9342 14.5584C20.8102 14.4436 19.6622 14.2663 18.6315 14.2027C17.5625 14.1368 16.1447 14.3277 14.9975 14.692C14.5729 14.8269 14.1959 14.9187 14.1596 14.8963C14.1231 14.8738 14.0643 14.5062 14.0287 14.0793C13.9931 13.6524 13.8516 12.8574 13.7142 12.3127L13.4645 11.3223L13.8862 10.7669C14.542 9.90283 15.796 8.71141 16.7825 8.01504C18.669 6.68351 20.5869 5.90444 22.9105 5.52569C24.1254 5.32767 26.5909 5.397 27.8427 5.66444ZM13.2369 8.60245C13.4115 8.79539 13.4081 8.80759 13.0856 9.14035C12.8033 9.43152 12.7428 9.45807 12.6676 9.32362C12.5792 9.16574 12.8467 8.40502 12.9906 8.40502C13.0278 8.40502 13.1386 8.49387 13.2369 8.60245ZM37.2487 8.78572C37.3629 9.03861 37.3909 9.21915 37.3324 9.32362C37.2572 9.45807 37.1967 9.43152 36.9144 9.14035C36.5919 8.80759 36.5885 8.79539 36.7631 8.60245C37.0078 8.33208 37.0517 8.34868 37.2487 8.78572ZM24.1447 21.2692L24.1701 25.8339H25H25.8299L25.8553 21.2692L25.8807 16.7045H25H24.1193L24.1447 21.2692ZM24.1213 28.3817C23.0396 28.5032 22.2133 28.6684 21.4147 28.923L20.5145 29.2098L20.7178 29.7188C20.8297 29.9987 20.9654 30.3513 21.0195 30.5022C21.0902 30.6993 21.1627 30.7593 21.2771 30.715C21.9179 30.4666 23.1861 30.1734 24.014 30.0823C25.4505 29.9243 27.3367 30.1776 28.7229 30.715C28.8373 30.7593 28.9098 30.6993 28.9805 30.5022C29.0346 30.3513 29.1698 30 29.281 29.7218L29.4831 29.2159L28.7295 28.9649C28.315 28.8268 27.6468 28.6513 27.2446 28.5749C26.4689 28.4274 24.6924 28.3176 24.1213 28.3817ZM19.2745 42.5124C21.0854 43.3916 22.8579 43.7857 25 43.7857C27.4145 43.7857 29.1883 43.3338 31.566 42.1125C31.6063 42.0918 31.6392 42.6167 31.6393 43.2791C31.6394 45.065 31.8735 47.1619 32.1853 48.1692C32.2354 48.3309 31.8485 48.3401 25 48.3401C18.1515 48.3401 17.7646 48.3309 17.8147 48.1692C18.1265 47.1619 18.3606 45.065 18.3607 43.2791C18.3608 42.6167 18.3938 42.0894 18.434 42.1074C18.4743 42.1253 18.8525 42.3076 19.2745 42.5124Z" fill="#803400"/>
</svg>
