<svg width="11" height="20" viewBox="0 0 11 20" fill="none" xmlns="http://www.w3.org/2000/svg">
<path d="M9.40753 1.53846V0.769231C9.40753 0.565218 9.32648 0.369561 9.18223 0.225302C9.03797 0.0810437 8.84231 0 8.6383 0C8.43428 0 8.23863 0.0810437 8.09437 0.225302C7.95011 0.369561 7.86907 0.565218 7.86907 0.769231V1.53846H1.71522C1.30719 1.53846 0.915881 1.70055 0.627363 1.98907C0.338846 2.27758 0.176758 2.6689 0.176758 3.07692V18.4615C0.176758 18.8696 0.338846 19.2609 0.627363 19.5494C0.915881 19.8379 1.30719 20 1.71522 20H9.40753C9.81555 20 10.2069 19.8379 10.4954 19.5494C10.7839 19.2609 10.946 18.8696 10.946 18.4615V3.07692C10.946 2.6689 10.7839 2.27758 10.4954 1.98907C10.2069 1.70055 9.81555 1.53846 9.40753 1.53846ZM3.25368 18.4615H1.71522V16.9231H3.25368V18.4615ZM3.25368 15.3846H1.71522V13.8462H3.25368V15.3846ZM3.25368 12.3077H1.71522V10.7692H3.25368V12.3077ZM6.3306 18.4615H4.79214V16.9231H6.3306V18.4615ZM6.3306 15.3846H4.79214V13.8462H6.3306V15.3846ZM6.3306 12.3077H4.79214V10.7692H6.3306V12.3077ZM9.40753 18.4615H7.86907V16.9231H9.40753V18.4615ZM9.40753 15.3846H7.86907V13.8462H9.40753V15.3846ZM9.40753 12.3077H7.86907V10.7692H9.40753V12.3077ZM9.40753 8.46154C9.40753 8.66555 9.32648 8.86121 9.18223 9.00547C9.03797 9.14973 8.84231 9.23077 8.6383 9.23077H2.48445C2.28044 9.23077 2.08478 9.14973 1.94052 9.00547C1.79626 8.86121 1.71522 8.66555 1.71522 8.46154V3.84615C1.71522 3.64214 1.79626 3.44648 1.94052 3.30223C2.08478 3.15797 2.28044 3.07692 2.48445 3.07692H8.6383C8.84231 3.07692 9.03797 3.15797 9.18223 3.30223C9.32648 3.44648 9.40753 3.64214 9.40753 3.84615V8.46154Z" fill="#8E6C53"/>
</svg>
