<svg width="52" height="52" viewBox="0 0 52 52" fill="none" xmlns="http://www.w3.org/2000/svg">
<path d="M30.0625 11.1042V8.39583H27.3542V5.6875H24.6458V8.39583H21.9375V11.1042H24.6458V13.8125H27.3542V11.1042H30.0625Z" fill="#803400"/>
<path fill-rule="evenodd" clip-rule="evenodd" d="M35.9116 16.2053L38.5901 8.61385C39.3159 6.55552 38.2814 4.22635 36.1133 3.53979C33.5959 2.74083 29.4793 1.625 25.9991 1.625C22.5189 1.625 18.4022 2.74083 15.8834 3.53979C13.7168 4.22771 12.6822 6.55688 13.408 8.61385L16.0879 16.2053C15.3605 17.8544 15.056 19.6589 15.202 21.4554C15.3481 23.2519 15.94 24.9835 16.9243 26.4935C17.9085 28.0034 19.254 29.2439 20.8387 30.1026C22.4234 30.9612 24.1973 31.4109 25.9997 31.4109C27.8021 31.4109 29.5761 30.9612 31.1608 30.1026C32.7455 29.2439 34.0909 28.0034 35.0752 26.4935C36.0594 24.9835 36.6514 23.2519 36.7975 21.4554C36.9435 19.6589 36.639 17.8544 35.9116 16.2053ZM25.9991 4.33333C22.9657 4.33333 19.189 5.33271 16.7027 6.12083C16.0798 6.31854 15.7142 7.01188 15.962 7.71333L18.7028 15.4781C23.5602 13.9344 28.4379 13.9344 33.2953 15.4781L36.0361 7.71333C36.284 7.01188 35.9183 6.31854 35.2954 6.12219C32.8092 5.33271 29.031 4.33333 25.9991 4.33333ZM33.8614 18.5264H33.86C33.788 18.5118 33.7174 18.4914 33.6487 18.4654C28.5381 16.5493 23.46 16.5493 18.3494 18.4654C18.2803 18.4915 18.2092 18.5119 18.1368 18.5264C17.8241 19.7277 17.7908 20.9847 18.0395 22.2009C18.2882 23.4171 18.8122 24.5602 19.5714 25.5423C20.3307 26.5245 21.3048 27.3196 22.4192 27.8666C23.5335 28.4137 24.7584 28.6981 25.9997 28.6981C27.2411 28.6981 28.466 28.4137 29.5803 27.8666C30.6946 27.3196 31.6688 26.5245 32.428 25.5423C33.1872 24.5602 33.7113 23.4171 33.96 22.2009C34.2087 20.9847 34.1754 19.7277 33.8627 18.5264H33.8614Z" fill="#803400"/>
<path d="M39.5417 39.5418H42.25V42.2502H39.5417V44.9585H36.8333V42.2502H34.125V39.5418H36.8333V36.8335H39.5417V39.5418Z" fill="#803400"/>
<path fill-rule="evenodd" clip-rule="evenodd" d="M16.357 31.4165C16.357 31.4165 1.625 36.0112 1.625 41.5281V50.3748H50.375V41.5281C50.375 36.0112 35.643 31.4165 35.643 31.4165L27.5559 37.0945C27.1002 37.4144 26.5568 37.5861 26 37.5861C25.4432 37.5861 24.8998 37.4144 24.4441 37.0945L16.357 31.4165ZM36.0764 34.4228L29.1132 39.3113C28.2014 39.9517 27.1143 40.2953 26 40.2953C24.8857 40.2953 23.7986 39.9517 22.8868 39.3113L15.9236 34.4228C13.9687 35.1078 12.0572 35.911 10.1996 36.8278C8.44458 37.7025 6.83854 38.6735 5.70917 39.6607C4.48906 40.7264 4.33333 41.3601 4.33333 41.5281V47.6665H47.6667V41.5281C47.6667 41.3601 47.5109 40.7264 46.2908 39.6593C45.1615 38.6735 43.5554 37.7025 41.7991 36.8264C40.2343 36.0553 38.6311 35.3646 36.9958 34.7572C36.6573 34.6299 36.3485 34.5189 36.0764 34.4214V34.4228Z" fill="#803400"/>
</svg>
