<svg width="57" height="50" viewBox="0 0 57 50" fill="none" xmlns="http://www.w3.org/2000/svg">
<path d="M56.5248 48.638L53.9572 39.886L51.4588 31.3679C51.4582 31.3661 51.4573 31.3646 51.4567 31.3624L48.0756 19.837L47.5396 18.0088C47.5393 18.0079 47.5389 18.0073 47.5386 18.0064L46.7149 15.1987C46.6302 14.9097 46.4326 14.686 46.1852 14.557C46.096 14.4262 45.9988 14.3005 45.8844 14.1861C44.1892 12.4912 40.663 13.6085 36.7587 16.139C35.027 14.2243 34.0791 11.77 34.0791 9.16959C34.0791 6.39074 35.1612 3.77823 37.1262 1.81346C37.5412 1.39853 37.5412 0.7259 37.1262 0.31097C36.7113 -0.103657 36.0387 -0.103657 35.6237 0.31097C30.9575 4.97749 30.7523 12.4371 35.0015 17.3538C33.0006 18.8201 30.9584 20.5894 29.0589 22.4893C29.058 22.4902 29.0568 22.4914 29.0559 22.4923C25.2769 20.1982 20.9212 19.0205 16.373 19.127C15.7866 19.1404 15.3219 19.6269 15.3356 20.2137C15.3492 20.8001 15.8312 21.266 16.4222 21.2511C20.3915 21.157 24.2021 22.1408 27.5419 24.0655C26.1347 25.5838 24.8635 27.1215 23.7805 28.6161C19.3128 26.9278 14.068 27.8755 10.4772 31.4662C10.0623 31.8812 10.0623 32.5538 10.4772 32.9687C10.8921 33.3834 11.5648 33.3834 11.9797 32.9687C13.9448 31.0037 16.5573 29.9216 19.3361 29.9216C20.4434 29.9216 21.5231 30.0961 22.5472 30.4273C22.1815 31.0021 21.8479 31.5661 21.5504 32.1152C19.2287 36.4008 19.8367 38.3956 20.7555 39.3147C20.8717 39.4307 20.9983 39.5305 21.1309 39.621C21.2602 39.8653 21.483 40.0596 21.7693 40.1437L24.5757 40.9684C24.576 40.9684 24.576 40.9687 24.5763 40.9687L30.3963 42.677C30.3966 42.677 30.3972 42.677 30.3975 42.6773L42.7028 46.2878L43.5326 46.5315C43.5335 46.5318 43.5341 46.5318 43.535 46.5321L55.2065 49.9569C55.3052 49.9857 55.4056 50 55.5055 50C55.7835 50 56.0549 49.891 56.2567 49.6889C56.5311 49.4136 56.634 49.0108 56.5248 48.638ZM51.9505 40.5941C49.7532 40.5461 47.9803 38.7438 47.9803 36.535C47.9803 35.1539 48.669 33.9027 49.7705 33.1633L51.816 40.1361L51.9505 40.5941ZM47.0861 24.0142C45.5963 26.817 42.9872 30.1762 39.8668 33.2987C36.7505 36.4154 33.3922 39.0245 30.5851 40.5176L26.3696 39.2801C29.7665 37.8277 33.9361 34.6573 37.5815 31.0119C41.2279 27.3655 44.3977 23.1953 45.8498 19.7981L46.2647 21.212L47.0861 24.0142ZM23.4184 33.1272C23.7389 32.5359 24.1068 31.924 24.5132 31.2993C25.3 31.7522 26.0333 32.3095 26.6923 32.9687C26.8999 33.1761 27.1719 33.2799 27.4435 33.2799C27.7152 33.2799 27.9874 33.1761 28.1948 32.9687C28.6097 32.5538 28.6097 31.8812 28.1948 31.4662C27.439 30.7105 26.6097 30.0724 25.7301 29.5507C26.7773 28.1347 27.9996 26.6774 29.354 25.2365C30.2922 25.9125 31.1855 26.6662 32.0214 27.5021C32.229 27.7094 32.501 27.8132 32.7727 27.8132C33.0443 27.8132 33.3166 27.7094 33.5239 27.5021C33.9388 27.0872 33.9388 26.4145 33.5239 25.9996C32.6837 25.1594 31.7916 24.3927 30.8568 23.6991C36.8242 17.8154 41.7539 15.4776 43.664 15.4776C44.0004 15.4776 44.2435 15.5502 44.3816 15.6886C45.318 16.625 43.2367 22.3524 36.079 29.5097C28.9223 36.667 23.195 38.7498 22.258 37.8122C21.9487 37.5032 21.7935 36.1264 23.4184 33.1272ZM38.7881 42.5944L40.2378 42.6515C40.5856 42.6612 40.921 42.5061 41.1304 42.2256L41.9998 41.0619L42.3941 42.4578C42.4891 42.7941 42.7434 43.0621 43.0746 43.1747L44.452 43.6428L43.4713 44.299L39.0816 43.0099L38.7881 42.5944ZM46.1269 45.0782L47.4212 44.2119C47.7572 43.987 47.9366 43.5912 47.8838 43.1902C47.8309 42.7893 47.555 42.4532 47.1723 42.323L44.2869 41.3423L43.4589 38.412C43.349 38.0229 43.0275 37.7297 42.6299 37.6562C42.2317 37.5818 41.8274 37.7412 41.5854 38.0651L39.7624 40.5061L36.7204 40.3868C36.3146 40.3731 35.9382 40.5859 35.7452 40.9413C35.5545 41.2925 35.5779 41.7205 35.8037 42.0492L33.3809 41.3384C35.937 39.7148 38.7444 37.4264 41.3696 34.8009C43.9967 32.1717 46.285 29.3637 47.9068 26.8104L49.154 31.0622C47.1468 32.1161 45.8556 34.2038 45.8556 36.535C45.8556 39.9452 48.6302 42.7197 52.0404 42.7197C52.2161 42.7197 52.3915 42.7094 52.5667 42.6949L53.9383 47.3702L46.1269 45.0782Z" fill="#803400"/>
<path d="M7.42818 21.119C4.77439 22.2858 2.37982 23.9279 0.310629 26.0002C-0.103998 26.4154 -0.103391 27.088 0.311539 27.5026C0.519156 27.71 0.790515 27.8132 1.06218 27.8132C1.33414 27.8132 1.60641 27.7094 1.81403 27.5014C3.69563 25.6171 5.87227 24.124 8.28324 23.0641C8.82049 22.8279 9.06423 22.2011 8.82808 21.6639C8.59193 21.1269 7.96514 20.8829 7.42818 21.119Z" fill="#803400"/>
<path d="M15.6117 10.0135L18.3432 11.3615L18.7815 14.3762C18.8395 14.7762 19.12 15.1089 19.5045 15.2337C19.6123 15.2686 19.7231 15.2856 19.8327 15.2856C20.1146 15.2856 20.3903 15.1733 20.5936 14.9647L22.7199 12.7832L25.7224 13.2983C26.121 13.3657 26.5241 13.2027 26.7614 12.8755C26.9991 12.5483 27.0303 12.1145 26.8425 11.7567L25.425 9.06039L26.8425 6.36411C27.0307 6.00624 26.9994 5.57249 26.7614 5.24528C26.5238 4.91807 26.1213 4.75508 25.7224 4.82246L22.7199 5.33725L20.5936 3.15606C20.3113 2.86649 19.8891 2.76208 19.5045 2.88713C19.12 3.01219 18.8398 3.34456 18.7815 3.74461L18.3432 6.75931L15.6117 8.1073C15.249 8.28638 15.0195 8.65578 15.0195 9.06009C15.0195 9.4644 15.2493 9.8344 15.6117 10.0135ZM19.7844 8.41812C20.0979 8.26332 20.3153 7.96433 20.3657 7.61831L20.5745 6.18108L21.588 7.22098C21.832 7.4714 22.1832 7.58553 22.5283 7.52664L23.9595 7.28108L23.2835 8.56624C23.1208 8.87585 23.1208 9.24555 23.2835 9.55515L23.9595 10.8403L22.5283 10.5948C22.1835 10.5359 21.832 10.65 21.588 10.9004L20.5745 11.9403L20.3657 10.5034C20.3153 10.1574 20.0983 9.85838 19.7844 9.70358L18.4822 9.061L19.7844 8.41812Z" fill="#803400"/>
<path d="M14.0544 35.9495C12.3497 35.9495 10.9629 37.3363 10.9629 39.041C10.9629 40.7456 12.3497 42.1324 14.0544 42.1324C15.759 42.1324 17.1459 40.7456 17.1459 39.041C17.1459 37.3363 15.759 35.9495 14.0544 35.9495ZM14.0544 40.0077C13.5214 40.0077 13.0876 39.574 13.0876 39.041C13.0876 38.5079 13.5214 38.0742 14.0544 38.0742C14.5874 38.0742 15.0211 38.5079 15.0211 39.041C15.0211 39.574 14.5874 40.0077 14.0544 40.0077Z" fill="#803400"/>
<path d="M7.48634 15.2858C9.68666 15.2858 11.4766 13.4959 11.4766 11.2955C11.4766 9.09523 9.68666 7.30469 7.48634 7.30469C5.28603 7.30469 3.49609 9.09493 3.49609 11.2952C3.49609 13.4956 5.28603 15.2858 7.48634 15.2858ZM7.48634 9.42942C8.51502 9.42942 9.35186 10.2663 9.35186 11.2952C9.35186 12.3239 8.51502 13.1608 7.48634 13.1608C6.45767 13.1608 5.62083 12.3239 5.62083 11.2952C5.62083 10.2663 6.45767 9.42942 7.48634 9.42942Z" fill="#803400"/>
</svg>
