<svg width="19" height="34" viewBox="0 0 19 34" fill="none" xmlns="http://www.w3.org/2000/svg">
<path d="M3.4372 0.609157C2.66906 -0.184589 1.4029 -0.205346 0.609157 0.562796C-0.184589 1.33094 -0.205346 2.5971 0.562796 3.39084L3.4372 0.609157ZM16.5161 17L17.9533 18.3908C18.7037 17.6154 18.7037 16.3846 17.9533 15.6092L16.5161 17ZM0.562796 30.6092C-0.205346 31.4029 -0.184589 32.6691 0.609157 33.4372C1.4029 34.2053 2.66906 34.1846 3.4372 33.3908L0.562796 30.6092ZM0.562796 3.39084L15.0789 18.3908L17.9533 15.6092L3.4372 0.609157L0.562796 3.39084ZM15.0789 15.6092L0.562796 30.6092L3.4372 33.3908L17.9533 18.3908L15.0789 15.6092Z" fill="#CC5600"/>
</svg>
