<svg width="85" height="66" viewBox="0 0 85 66" fill="none" xmlns="http://www.w3.org/2000/svg">
<path d="M77.4217 6.44676C82.2713 11.5977 84.875 17.3748 84.875 26.7397C84.875 43.2188 73.3066 57.9889 56.4837 65.2915L52.2792 58.8034C67.9815 50.3096 71.0513 39.2874 72.2755 32.3379C69.7471 33.6468 66.4372 34.1035 63.1931 33.8022C54.6993 33.0159 48.004 26.0428 48.004 17.3748C48.004 13.0043 49.7402 8.81271 52.8307 5.72226C55.9211 2.63182 60.1127 0.895628 64.4832 0.895628C66.9002 0.916754 69.2888 1.41842 71.5101 2.37143C73.7314 3.32444 75.7409 4.70977 77.4217 6.44676ZM30.3384 6.44676C35.188 11.5977 37.7917 17.3748 37.7917 26.7397C37.7917 43.2188 26.2233 57.9889 9.40041 65.2915L5.19587 58.8034C20.8982 50.3096 23.968 39.2874 25.1922 32.3379C22.6638 33.6468 19.3538 34.1035 16.1098 33.8022C7.61596 33.0159 0.920711 26.0428 0.920712 17.3748C0.920712 13.0042 2.6569 8.8127 5.74735 5.72226C8.83779 2.63181 13.0293 0.895624 17.3999 0.895624C19.8169 0.91675 22.2055 1.41842 24.4268 2.37143C26.648 3.32444 28.6576 4.70977 30.3384 6.44676Z" fill="#8E6C53"/>
</svg>
