<svg width="85" height="66" viewBox="0 0 85 66" fill="none" xmlns="http://www.w3.org/2000/svg">
<path d="M7.57829 59.5532C2.72871 54.4023 0.125 48.6252 0.125 39.2603C0.125 22.7812 11.6934 8.01112 28.5163 0.708496L32.7208 7.19658C17.0185 15.6904 13.9487 26.7126 12.7245 33.6621C15.2529 32.3532 18.5628 31.8965 21.8069 32.1978C30.3007 32.9841 36.996 39.9572 36.996 48.6252C36.996 52.9957 35.2598 57.1873 32.1693 60.2777C29.0789 63.3682 24.8873 65.1044 20.5168 65.1044C18.0998 65.0832 15.7112 64.5816 13.4899 63.6286C11.2686 62.6756 9.2591 61.2902 7.57829 59.5532ZM54.6616 59.5532C49.812 54.4023 47.2083 48.6252 47.2083 39.2603C47.2083 22.7812 58.7767 8.01112 75.5996 0.708496L79.8041 7.19658C64.1018 15.6904 61.032 26.7126 59.8078 33.6621C62.3362 32.3532 65.6462 31.8965 68.8902 32.1978C77.384 32.9841 84.0793 39.9572 84.0793 48.6252C84.0793 52.9957 82.3431 57.1873 79.2527 60.2777C76.1622 63.3682 71.9707 65.1044 67.6001 65.1044C65.1831 65.0832 62.7945 64.5816 60.5732 63.6286C58.352 62.6756 56.3424 61.2902 54.6616 59.5532Z" fill="#8E6C53"/>
</svg>
