<svg width="46" height="49" viewBox="0 0 46 49" fill="none" xmlns="http://www.w3.org/2000/svg">
<path d="M45.2625 38.9845L43.3727 35.7095L43.6773 34.5728C43.8175 34.055 43.854 33.5146 43.7847 32.983C43.7154 32.4513 43.5418 31.9389 43.2737 31.4752L34.4353 16.1032C33.736 14.8967 32.1635 14.498 30.9226 15.2163C30.4511 15.4876 30.0748 15.8987 29.8455 16.3929L29.016 14.9568C28.6769 14.3688 28.1477 13.9179 27.4557 13.788C26.8592 13.6424 26.2304 13.7094 25.6772 13.9776C25.1239 14.2459 24.6805 14.6986 24.4231 15.2582L19.524 6.73699C18.5868 5.11416 17.07 3.90933 15.2798 3.36565L14.0684 1.26554C13.9961 1.14282 13.8785 1.05373 13.741 1.01763C13.6035 0.981531 13.4572 1.00134 13.334 1.07274C13.2108 1.14415 13.1206 1.26139 13.083 1.39899C13.0453 1.53659 13.0634 1.68342 13.1331 1.80758L14.4481 4.09397C14.4836 4.15537 14.5308 4.20914 14.5871 4.25219C14.6433 4.29524 14.7075 4.32673 14.7759 4.34486C16.3838 4.7792 17.7544 5.83346 18.589 7.27797L22.9827 14.9096C22.3726 14.8598 21.7637 15.0229 21.259 15.3713C20.7544 15.7197 20.3849 16.2321 20.2132 16.8217C20.1184 17.1441 20.0897 17.4823 20.1289 17.8159C20.1682 18.1495 20.2745 18.4716 20.4414 18.7626L20.8741 19.5149C20.3271 19.4669 19.7784 19.591 19.3043 19.8697C18.8302 20.1485 18.4541 20.5682 18.2283 21.0706L16.8424 18.6611C16.7702 18.5384 16.6525 18.4493 16.515 18.4132C16.3775 18.3771 16.2313 18.3969 16.108 18.4683C15.9848 18.5397 15.8946 18.6569 15.857 18.7945C15.8194 18.9321 15.8374 19.079 15.9072 19.2031L21.526 28.9725C21.9266 29.6675 21.6607 30.5758 20.9296 30.9959C20.1986 31.416 19.2857 31.1963 18.8859 30.5026L13.2655 20.7305C13.1846 20.6271 13.0691 20.5564 12.9403 20.5316C12.8114 20.5067 12.6779 20.5293 12.5642 20.5952C12.4505 20.6611 12.3642 20.7659 12.3213 20.8903C12.2783 21.0147 12.2815 21.1505 12.3303 21.2726L17.2857 29.887C17.38 30.0529 17.44 30.2362 17.4621 30.4259C17.4842 30.6157 17.4678 30.808 17.4141 30.9915C17.2995 31.3804 17.0393 31.7099 16.688 31.9111C15.9599 32.3332 15.0441 32.1116 14.6446 31.4168L8.99729 21.5979C8.97916 21.5665 8.95797 21.5369 8.93404 21.5096L8.78748 21.2563C12.2214 17.9302 9.79272 13.1916 9.76824 13.1398C9.73693 13.0741 9.69271 13.0155 9.63825 12.9674C9.58378 12.9193 9.52018 12.8828 9.45125 12.86C9.38233 12.8372 9.3095 12.8285 9.23712 12.8346C9.16474 12.8407 9.09431 12.8613 9.03003 12.8953C8.96576 12.9294 8.90896 12.976 8.86305 13.0325C8.81715 13.089 8.78306 13.1542 8.76285 13.2242C8.74264 13.2942 8.73671 13.3675 8.74542 13.4398C8.75413 13.5121 8.7773 13.5819 8.81354 13.6449C8.83712 13.6875 11.026 17.9564 7.75618 20.7331C7.66045 20.8157 7.59617 20.9289 7.5743 21.0536C7.55242 21.1782 7.57432 21.3065 7.63624 21.4166L10.5526 26.4874C10.7188 26.7754 10.8266 27.0936 10.8698 27.4236C10.9131 27.7537 10.891 28.0892 10.8048 28.4109C10.7186 28.7326 10.57 29.0342 10.3675 29.2984C10.165 29.5626 9.91257 29.7842 9.62469 29.9506L9.35748 30.1054C9.3372 30.1175 9.31472 30.1255 9.29137 30.1287C9.26801 30.132 9.24425 30.1305 9.22148 30.1244C9.19872 30.1183 9.1774 30.1077 9.1588 30.0932C9.1402 30.0787 9.12469 30.0606 9.11318 30.04L3.51175 20.307C2.92475 19.291 2.75109 18.0867 3.02688 16.9442L3.9329 13.1796C3.94943 13.1103 3.95258 13.0385 3.94218 12.9681L3.66463 11.2156C3.65365 11.151 3.63224 11.0886 3.60123 11.031L2.00464 8.25813C1.9324 8.13541 1.81474 8.04632 1.67723 8.01022C1.53972 7.97412 1.39347 7.99392 1.27026 8.06533C1.14705 8.13674 1.05683 8.25398 1.01922 8.39157C0.981611 8.52917 0.999639 8.676 1.06939 8.80016L2.61488 11.4858L2.85926 13.0335L1.97917 16.6929C1.63837 18.1047 1.85227 19.5929 2.57649 20.849L8.17728 30.5886C8.34472 30.8775 8.61937 31.088 8.94131 31.1742C9.26325 31.2605 9.60635 31.2155 9.89577 31.0491L10.163 30.8942C10.5719 30.6592 10.9306 30.3455 11.2185 29.9713C11.5064 29.597 11.718 29.1696 11.8409 28.7134L13.7113 31.9639C13.8755 32.2477 14.0941 32.496 14.3544 32.6946C14.6148 32.8932 14.9118 33.0382 15.2284 33.1212C15.8477 33.2837 16.505 33.2162 17.0793 32.9309C17.6535 32.6457 18.1058 32.162 18.3529 31.5691C18.6621 31.8756 19.0459 32.0956 19.4663 32.2072L19.5137 32.2199C20.1151 32.3666 20.7491 32.2974 21.3057 32.0244C21.8622 31.7514 22.3063 31.2917 22.5607 30.7252L25.6845 36.155C25.1803 36.3856 24.0604 36.5725 22.1402 35.3106C20.2825 34.0893 18.6868 34.0003 17.1196 35.0388C16.7187 35.3051 16.1148 35.9416 16.0973 36.6049C16.0913 36.7684 16.126 36.9307 16.1983 37.0772C16.2706 37.2237 16.3782 37.3497 16.5113 37.444L24.7194 43.0086C25.715 43.7467 26.8834 44.2158 28.1126 44.3708L30.5915 44.6806L32.2388 47.5463C32.2679 47.619 32.3121 47.6845 32.3687 47.7385C32.4252 47.7925 32.4926 47.8336 32.5664 47.8591C32.6402 47.8847 32.7187 47.894 32.7964 47.8865C32.8742 47.8789 32.9495 47.8547 33.0172 47.8155C33.0848 47.7763 33.1433 47.723 33.1887 47.6591C33.2341 47.5953 33.2653 47.5224 33.2802 47.4455C33.295 47.3686 33.2933 47.2894 33.275 47.2132C33.2567 47.1371 33.2223 47.0659 33.1741 47.0043L31.393 43.9091C31.3524 43.8361 31.2949 43.774 31.2253 43.7279C31.1558 43.6819 31.0762 43.6533 30.9932 43.6446L28.247 43.3005C27.1945 43.1663 26.195 42.7612 25.3456 42.1245L17.1744 36.6331C17.1721 36.5193 17.3976 36.1494 17.714 35.9375C18.5551 35.3804 19.6696 34.9781 21.5495 36.2133C23.9325 37.7826 25.4621 37.478 26.2237 37.091L27.8462 39.9104C27.8816 39.9719 27.9288 40.0257 27.9851 40.0687C28.0413 40.1118 28.1055 40.1433 28.174 40.1613C28.277 40.1892 28.386 40.1858 28.4872 40.1515C28.5884 40.1171 28.6771 40.0535 28.7422 39.9685C28.8073 39.8835 28.8458 39.7811 28.8528 39.6743C28.8598 39.5674 28.835 39.461 28.7815 39.3684L19.2635 22.8133C18.8644 22.1209 19.1279 21.2132 19.8576 20.7938C20.5873 20.3745 21.4992 20.5894 21.8961 21.2857L26.4386 29.1837C26.5108 29.3064 26.6285 29.3955 26.766 29.4316C26.9035 29.4677 27.0497 29.4479 27.173 29.3765C27.2962 29.305 27.3864 29.1878 27.424 29.0502C27.4616 28.9126 27.4436 28.7658 27.3738 28.6416L24.3566 23.3955C24.3549 23.3917 24.3528 23.3882 24.3504 23.3848L21.3793 18.219C21.2846 18.054 21.2244 17.8712 21.2026 17.682C21.1807 17.4927 21.1976 17.3009 21.2522 17.1182C21.3682 16.7329 21.6263 16.4062 21.9738 16.2048C22.3214 16.0034 22.7323 15.9423 23.1227 16.0342C23.443 16.1141 23.7262 16.3019 23.9248 16.5661L24.1558 16.9677C24.1717 16.9956 24.1904 17.0219 24.2115 17.0461L30.1268 27.3388C30.1993 27.462 30.3171 27.5516 30.4549 27.5886C30.5927 27.6255 30.7396 27.6067 30.8639 27.5363C30.9868 27.4634 31.0764 27.3451 31.1135 27.2069C31.1505 27.0686 31.1321 26.9214 31.0621 26.7968L25.4418 17.0247C25.0434 16.3337 25.3059 15.4257 26.037 15.0056C26.3866 14.8015 26.8018 14.7428 27.1935 14.8421C27.6006 14.8855 27.8897 15.1714 28.0793 15.5041L31.0483 20.6648L33.6556 25.1794C33.7278 25.3022 33.8455 25.3913 33.983 25.4274C34.1205 25.4635 34.2667 25.4436 34.3899 25.3722C34.5132 25.3008 34.6034 25.1836 34.641 25.046C34.6786 24.9084 34.6606 24.7616 34.5908 24.6374L30.8703 18.1702C30.4723 17.4781 30.7342 16.5722 31.465 16.1531C32.1957 15.7341 33.1068 15.9521 33.5035 16.645L42.3385 32.0173C42.535 32.358 42.662 32.7345 42.7124 33.1251C42.7627 33.5157 42.7353 33.9125 42.6317 34.2926L42.2705 35.6407C42.2335 35.7797 42.2527 35.9276 42.3238 36.0524L44.3255 39.5329C44.3546 39.6055 44.3989 39.6711 44.4554 39.7251C44.5119 39.779 44.5794 39.8202 44.6532 39.8457C44.727 39.8712 44.8054 39.8805 44.8832 39.873C44.9609 39.8655 45.0362 39.8413 45.1039 39.8021C45.1716 39.7628 45.2301 39.7095 45.2754 39.6457C45.3208 39.5818 45.352 39.509 45.3669 39.432C45.3818 39.3551 45.38 39.2759 45.3617 39.1998C45.3434 39.1237 45.309 39.0524 45.2608 38.9908L45.2625 38.9845Z" fill="#803400" stroke="#803400" stroke-width="0.5"/>
</svg>
