<svg width="45" height="50" viewBox="0 0 45 50" fill="none" xmlns="http://www.w3.org/2000/svg">
<path fill-rule="evenodd" clip-rule="evenodd" d="M30.7918 0.375646C29.3529 1.07204 28.4472 2.37458 28.2995 3.96036C28.2229 4.7822 28.5614 7.30615 28.8425 8.00898C28.9233 8.21145 28.6621 8.40802 27.8166 8.7806C26.2519 9.47021 24.7417 10.8941 23.9573 12.4188C23.6134 13.0874 23.0339 14.5832 22.6695 15.7426C22.1215 17.4863 22.0409 17.9257 22.2031 18.2858C22.4866 18.9154 22.1227 20.6448 21.6531 20.8989C21.3456 21.0655 21.0934 20.8782 19.6288 19.3966C18.0551 17.8042 17.9691 17.6791 18.177 17.2858C18.4199 16.8269 18.7372 13.9933 18.7662 12.0263C18.7803 11.0671 18.7009 10.6301 18.4252 10.1527C17.9068 9.25469 16.7457 8.42839 15.6764 8.19626C15.0224 8.05437 14.5437 7.79829 14.0202 7.30991C13.1067 6.45822 12.231 6.15408 10.9915 6.25808C9.89682 6.34993 8.80141 7.01595 8.15886 7.98057C7.40981 9.1053 7.419 11.0363 8.179 12.1693C8.39836 12.4963 8.62214 13.0803 8.67636 13.4674C8.73059 13.8542 8.82738 14.3019 8.89149 14.4624C8.97909 14.6816 8.70922 14.9552 7.80509 15.5633C7.14329 16.0085 6.07985 16.9225 5.44172 17.5948C2.45506 20.7412 1.03149 24.177 0.789164 28.8241C0.559909 33.223 0.159332 40.8658 0.0531828 42.866C-0.0905869 45.5724 -0.126618 45.5325 2.46389 45.5325H4.39418V47.4855C4.39418 49.5493 4.55243 50 5.27729 50C6.00214 50 6.16039 49.5493 6.16039 47.4855V45.5325H7.48505H8.80971V47.4855C8.80971 49.5493 8.96797 50 9.69282 50C10.4177 50 10.5759 49.5493 10.5759 47.4855V45.5325H11.9006H13.2252V47.4855C13.2252 49.5493 13.3835 50 14.1084 50C14.8332 50 14.9915 49.5493 14.9915 47.4855V45.5325H16.0386C17.751 45.5325 17.6408 46.0867 17.6408 37.4778V29.9847L18.3266 29.3579C18.9457 28.7919 19.1525 28.4454 19.4766 27.4304C19.5716 27.1323 19.6357 27.1424 20.3475 27.5644C20.7702 27.815 21.2755 28.0199 21.4705 28.0199C21.6654 28.0199 22.2983 27.7104 22.8769 27.3321L23.9289 26.6441L25.641 27.9129L27.3532 29.1815L27.3541 39.31C27.3548 48.2786 27.3867 49.4705 27.6324 49.7193C27.9869 50.0779 28.4892 50.0779 28.8437 49.7193C29.0883 49.4716 29.1212 48.4133 29.1212 40.7843V32.13H33.5367H37.9522V40.7843C37.9522 48.4133 37.9851 49.4716 38.2297 49.7193C38.3825 49.8737 38.655 50 38.8353 50C39.0157 50 39.2882 49.8737 39.441 49.7193C39.6849 49.4723 39.7184 48.478 39.7184 41.4957V33.5528L40.2041 33.6903C41.1761 33.9653 42.4268 33.8488 43.0084 33.4292C44.1654 32.5939 44.1605 32.6384 44.0939 23.7723C44.0356 16.0279 44.0215 15.7461 43.6416 14.7211C42.55 11.7778 40.248 9.42428 37.6498 8.59565C36.8284 8.33368 36.7078 8.23897 36.7954 7.92463C37.1889 6.51237 36.9955 3.96125 36.39 2.57633C36.0193 1.7284 35.1614 0.798807 34.3649 0.382079C34.0639 0.224645 33.3371 0.0618491 32.7498 0.0202121C31.8833 -0.0410819 31.5144 0.0259305 30.7918 0.375646ZM34.1452 2.45642C34.8018 3.10028 35.0593 3.82866 35.2282 5.52023C35.3215 6.45286 35.2817 6.83528 35.0371 7.35673C34.6561 8.1691 34.0415 8.67535 33.255 8.82474C32.4351 8.98039 31.884 8.81027 31.1792 8.1841C30.4541 7.54007 30.1449 6.54168 30.1145 4.747C30.0959 3.6421 30.1556 3.35922 30.5158 2.84831C31.3918 1.60581 33.0907 1.42229 34.1452 2.45642ZM12.9181 8.74755C13.1927 9.07653 13.4965 9.44644 13.5931 9.56921C13.6899 9.69215 14.064 9.79437 14.4243 9.79651C15.926 9.80545 17.1109 10.8246 17.1109 12.1067C17.1109 12.5556 17.0396 12.6518 16.7066 12.6518C16.335 12.6518 16.0249 12.5149 14.564 11.7063C13.9155 11.3471 13.4944 11.5454 13.1539 12.3705C12.8572 13.0887 11.6883 14.4388 11.363 14.4388C10.918 14.4388 10.4021 13.5363 10.4304 12.8072C10.4489 12.3292 10.3447 11.9868 10.0971 11.7116C9.29454 10.8199 9.13964 9.98718 9.60681 9.07349C9.98778 8.32796 10.683 7.98468 11.63 8.07438C12.2597 8.13407 12.5198 8.26988 12.9181 8.74755ZM31.3289 10.3957C32.4773 10.8423 33.3643 10.7604 35.0203 10.0554C35.8363 9.70788 34.7005 11.9824 33.4016 13.2963L32.6017 14.1057L31.73 13.2447C30.9123 12.4372 30.2199 11.3299 29.9191 10.3487C29.8024 9.96771 29.8329 9.93268 30.2054 10.0215C30.4347 10.0762 30.9404 10.2445 31.3289 10.3957ZM38.3226 10.8884C39.7004 11.6314 40.8345 12.8945 41.6129 14.553C42.2199 15.846 42.2542 16.021 42.3324 18.2127L42.4146 20.5146H41.0666H39.7184V19.455C39.7184 18.3289 39.4489 17.8341 38.8353 17.8341C38.655 17.8341 38.3825 17.9604 38.2297 18.1148C37.9886 18.3589 37.9522 19.177 37.9522 24.3693V30.343H33.5367H29.1212L29.1217 29.7623C29.122 29.2755 29.2284 29.1236 29.7785 28.8241C30.1396 28.6275 30.6231 28.1852 30.8535 27.8412C31.2025 27.3194 31.2602 27.0466 31.2012 26.1949C30.997 25.3753 30.7321 24.9286 29.0074 23.2619L27.5692 22.1229L27.7531 21.3895C27.8951 20.8239 28.0522 20.6157 28.4408 20.4786C28.7179 20.3809 28.9445 20.2814 28.9445 20.2576C28.9445 20.2338 29.1879 19.5035 29.4855 18.6346C30.0603 16.9563 30.0574 16.3237 29.4741 16.1362C28.8121 15.9238 28.4496 16.205 28.1395 17.1723C27.9756 17.6838 27.776 18.1741 27.696 18.2622C27.5091 18.4679 24.3407 17.4752 24.227 17.1754C24.082 16.793 25.2388 13.5796 25.8408 12.6929C26.3547 11.9355 27.7202 10.6861 28.0337 10.6861C28.1005 10.6861 28.2925 11.0773 28.4602 11.5555C28.6282 12.0337 29.1009 12.8828 29.5106 13.4423C30.2925 14.5103 32.1546 16.0471 32.6665 16.0471C33.09 16.0471 34.7395 14.6273 35.515 13.5951C36.1703 12.7231 37.0642 10.9707 37.0674 10.5521C37.0698 10.2368 37.1581 10.2604 38.3226 10.8884ZM15.9187 14.3096L16.7577 14.5233L16.757 15.3299C16.755 17.7726 13.9141 18.7463 12.697 16.7217L12.361 16.1625L13.3671 15.0399C14.1221 14.1975 14.4614 13.9395 14.7265 14.0065C14.9208 14.0556 15.4572 14.192 15.9187 14.3096ZM10.7847 16.8065C11.0747 17.7942 12.4108 19.167 13.3346 19.4265C14.2357 19.6797 15.105 19.66 15.9124 19.3684C16.273 19.2381 16.6109 19.1747 16.663 19.2274C16.7151 19.2801 16.7573 19.6114 16.757 19.9636C16.7556 21.3503 15.4609 22.464 14.1416 22.2135C13.3854 22.07 12.5514 21.2606 12.407 20.5301C12.348 20.2311 12.1947 19.8984 12.0666 19.7908C11.7482 19.5235 10.9156 19.6473 10.7012 19.994C10.2054 20.7958 11.3149 22.7658 12.7037 23.5496C14.1446 24.3627 16.3045 24.0366 17.3695 22.845C17.6948 22.481 17.7241 22.477 17.8428 22.7814C18.0378 23.2821 18.014 26.0635 17.8082 26.8134C17.5272 27.8375 16.9694 28.3827 16.0793 28.5033C15.4085 28.5945 15.2594 28.5487 14.8802 28.135C14.3892 27.5993 13.9089 27.5325 13.5027 27.9433C13.0705 28.3806 13.1721 28.8954 13.8199 29.5509C14.2219 29.9576 14.6511 30.1908 15.1446 30.2707L15.8746 30.3888V37.0672V43.7455H8.81996H1.76535L1.84571 42.5393C1.88987 41.876 2.04388 39.001 2.18765 36.1508C2.3316 33.3005 2.49921 30.0437 2.55997 28.9134C2.62073 27.7832 2.82084 26.2553 3.00435 25.5181C3.66191 22.8771 5.32957 20.0346 7.24202 18.2949C8.1087 17.5063 10.1817 16.0471 10.435 16.0471C10.5047 16.0471 10.6621 16.3887 10.7847 16.8065ZM25.5446 19.638C25.9575 19.7581 26.2942 19.9442 26.2929 20.0514C26.2917 20.1588 26.135 20.7487 25.9448 21.3625C25.7548 21.9761 25.6428 22.5936 25.6963 22.7344C25.7496 22.8752 26.6216 23.6466 27.6338 24.4486C29.213 25.6997 29.4744 25.9803 29.4744 26.4233C29.4744 27.0514 28.7974 27.575 28.1858 27.4197C27.5821 27.2664 23.3561 23.996 23.2547 23.6036C23.1824 23.3243 23.7953 20.2923 24.0892 19.4747C24.1358 19.3451 24.3135 19.2796 24.484 19.3292C24.6544 19.3789 25.1316 19.5178 25.5446 19.638ZM5.55476 20.7953C5.14359 21.2115 5.14359 26.9656 5.55476 27.3818C5.70754 27.5362 5.90624 27.6625 5.99631 27.6625C6.0871 27.6625 6.16022 28.5203 6.16004 29.5836L6.15986 31.5046L7.42288 33.4077C8.8189 35.511 9.5623 36.1056 10.8319 36.1343C12.7987 36.1788 14.3129 34.4138 13.549 32.9671C13.4356 32.7524 12.919 32.0067 12.401 31.31C11.4823 30.0746 11.459 30.0137 11.459 28.8529C11.459 28.1981 11.5329 27.6625 11.6231 27.6625C11.7132 27.6625 11.9119 27.5362 12.0647 27.3818C12.4539 26.988 12.4539 24.7631 12.0647 24.3693C11.4338 23.7312 10.5759 24.2462 10.5759 25.2628V25.8755H8.80971H7.0435V23.4758C7.0435 20.937 6.91757 20.5146 6.16039 20.5146C5.98006 20.5146 5.70754 20.6409 5.55476 20.7953ZM21.0303 23.0164C21.3277 23.0164 21.5264 23.37 21.5264 23.8995C21.5264 24.0744 21.7227 24.5099 21.9623 24.8673L22.3984 25.5173L21.9457 25.8173C21.5213 26.0987 21.4586 26.0982 20.9358 25.8089C19.8461 25.206 19.824 25.164 19.7072 23.4792L19.5969 21.887L20.1726 22.4517C20.4893 22.7622 20.8752 23.0164 21.0303 23.0164ZM42.3678 26.9351C42.3678 30.909 42.3282 31.6084 42.0903 31.8493C41.7586 32.1849 41.3132 32.2062 40.6849 31.9165C39.794 31.5058 39.7184 31.083 39.7184 26.5099V22.3016H41.0431H42.3678V26.9351ZM9.69282 29.1543V30.6459L10.8536 32.2029C12.1427 33.9322 12.1567 34.2744 10.9384 34.2744C10.1798 34.2744 9.94786 34.0573 8.74489 32.2214L7.92661 30.9722V29.3175V27.6625H8.80971H9.69282V29.1543ZM32.9311 35.0913C32.6882 35.3372 32.6536 36.2498 32.6536 42.4053C32.6536 48.5608 32.6882 49.4734 32.9311 49.7193C33.0838 49.8737 33.3564 50 33.5367 50C33.717 50 33.9896 49.8737 34.1423 49.7193C34.3852 49.4734 34.4198 48.5608 34.4198 42.4053C34.4198 36.2498 34.3852 35.3372 34.1423 35.0913C33.9896 34.9369 33.717 34.8105 33.5367 34.8105C33.3564 34.8105 33.0838 34.9369 32.9311 35.0913Z" fill="#803400"/>
</svg>
