<svg width="14" height="25" viewBox="0 0 14 25" fill="none" xmlns="http://www.w3.org/2000/svg">
<path d="M1.70857 0.294363C1.31886 -0.0969714 0.685697 -0.0982859 0.294363 0.291427C-0.0969714 0.681139 -0.0982859 1.3143 0.291427 1.70564L1.70857 0.294363ZM12.4523 12.5L13.1609 13.2056C13.5495 12.8155 13.5495 12.1845 13.1609 11.7944L12.4523 12.5ZM0.291427 23.2944C-0.0982859 23.6857 -0.0969714 24.3189 0.294363 24.7086C0.685697 25.0983 1.31886 25.097 1.70857 24.7056L0.291427 23.2944ZM0.291427 1.70564L11.7438 13.2056L13.1609 11.7944L1.70857 0.294363L0.291427 1.70564ZM11.7438 11.7944L0.291427 23.2944L1.70857 24.7056L13.1609 13.2056L11.7438 11.7944Z" fill="#CC5600"/>
</svg>
