<svg width="14" height="25" viewBox="0 0 14 25" fill="none" xmlns="http://www.w3.org/2000/svg">
<path d="M11.7436 24.7056C12.1333 25.097 12.7665 25.0983 13.1578 24.7086C13.5491 24.3189 13.5504 23.6857 13.1607 23.2944L11.7436 24.7056ZM0.9998 12.5L0.291226 11.7944C-0.0973426 12.1845 -0.0973425 12.8155 0.291226 13.2056L0.9998 12.5ZM13.1607 1.70564C13.5504 1.3143 13.5491 0.681139 13.1578 0.291428C12.7664 -0.0982857 12.1333 -0.0969715 11.7436 0.294363L13.1607 1.70564ZM13.1607 23.2944L1.70837 11.7944L0.291226 13.2056L11.7436 24.7056L13.1607 23.2944ZM1.70837 13.2056L13.1607 1.70564L11.7436 0.294363L0.291226 11.7944L1.70837 13.2056Z" fill="#CC5600"/>
</svg>
