<svg width="11" height="19" viewBox="0 0 11 19" fill="none" xmlns="http://www.w3.org/2000/svg">
<path d="M1.98201 0.794363C1.5923 0.403029 0.959135 0.401714 0.5678 0.791427C0.176466 1.18114 0.175151 1.8143 0.564864 2.20564L1.98201 0.794363ZM9.08186 9.34091L9.79043 10.0465C10.179 9.65636 10.179 9.02546 9.79043 8.63527L9.08186 9.34091ZM0.564864 16.4762C0.175151 16.8675 0.176466 17.5007 0.5678 17.8904C0.959135 18.2801 1.5923 18.2788 1.98201 17.8875L0.564864 16.4762ZM0.564864 2.20564L8.37328 10.0465L9.79043 8.63527L1.98201 0.794363L0.564864 2.20564ZM8.37328 8.63527L0.564864 16.4762L1.98201 17.8875L9.79043 10.0465L8.37328 8.63527Z" fill="white"/>
</svg>
