<svg width="11" height="19" viewBox="0 0 11 19" fill="none" xmlns="http://www.w3.org/2000/svg">
<path d="M8.32854 17.8873C8.71825 18.2786 9.35141 18.2799 9.74275 17.8902C10.1341 17.5005 10.1354 16.8673 9.74568 16.476L8.32854 17.8873ZM1.22869 9.34073L0.520117 8.6351C0.131548 9.02528 0.131548 9.65618 0.520117 10.0464L1.22869 9.34073ZM9.74568 2.20546C10.1354 1.81412 10.1341 1.18096 9.74275 0.791248C9.35141 0.401537 8.71825 0.402851 8.32853 0.794186L9.74568 2.20546ZM9.74568 16.476L1.93726 8.6351L0.520117 10.0464L8.32854 17.8873L9.74568 16.476ZM1.93726 10.0464L9.74568 2.20546L8.32853 0.794186L0.520117 8.6351L1.93726 10.0464Z" fill="white"/>
</svg>
