<svg width="48" height="48" viewBox="0 0 48 48" fill="none" xmlns="http://www.w3.org/2000/svg">
<g clip-path="url(#clip0_390_896)">
<path fill-rule="evenodd" clip-rule="evenodd" d="M0 0V37.3333H29.8493V34.6667H2.66667V2.66667H38.6667V5.49333H41.3333V0H0ZM41.3333 13.3333C41.3333 14.0406 41.0524 14.7189 40.5523 15.219C40.0522 15.719 39.3739 16 38.6667 16C37.9594 16 37.2812 15.719 36.7811 15.219C36.281 14.7189 36 14.0406 36 13.3333C36 12.6261 36.281 11.9478 36.7811 11.4477C37.2812 10.9476 37.9594 10.6667 38.6667 10.6667C39.3739 10.6667 40.0522 10.9476 40.5523 11.4477C41.0524 11.9478 41.3333 12.6261 41.3333 13.3333ZM44 13.3333C44 14.7478 43.4381 16.1044 42.4379 17.1046C41.4377 18.1048 40.0812 18.6667 38.6667 18.6667C37.2522 18.6667 35.8956 18.1048 34.8954 17.1046C33.8952 16.1044 33.3333 14.7478 33.3333 13.3333C33.3333 11.9188 33.8952 10.5623 34.8954 9.5621C35.8956 8.5619 37.2522 8 38.6667 8C40.0812 8 41.4377 8.5619 42.4379 9.5621C43.4381 10.5623 44 11.9188 44 13.3333Z" fill="#803400"/>
<path fill-rule="evenodd" clip-rule="evenodd" d="M32.1259 21.1067C32.8695 20.3968 33.8579 20.0005 34.8859 20H40.3285C42.2805 20 44.0979 20.664 45.4979 21.9867C46.8446 23.2587 47.5459 24.8893 47.8326 26.4347C48.2832 28.864 47.8165 31.5187 46.6685 33.872V44.6667C46.6686 45.5032 46.3541 46.3091 45.7876 46.9245C45.221 47.5399 44.4438 47.9198 43.6102 47.9888C42.7765 48.0578 41.9474 47.8108 41.2874 47.2969C40.6274 46.783 40.1847 46.0398 40.0472 45.2147L39.3352 40.9427L38.6232 45.2147C38.4857 46.0398 38.043 46.783 37.383 47.2969C36.723 47.8108 35.8939 48.0578 35.0603 47.9888C34.2266 47.9198 33.4494 47.5399 32.8829 46.9245C32.3163 46.3091 32.0019 45.5032 32.0019 44.6667V36.672V32.124C31.3938 32.4751 30.704 32.66 30.0019 32.66H23.1992C22.1384 32.66 21.1209 32.2386 20.3708 31.4884C19.6206 30.7383 19.1992 29.7209 19.1992 28.66C19.1992 27.5991 19.6206 26.5817 20.3708 25.8316C21.1209 25.0814 22.1384 24.66 23.1992 24.66H28.3992L32.1259 21.1053V21.1067ZM34.6686 36.6333V44.6667C34.669 44.8337 34.7321 44.9944 34.8454 45.1171C34.9587 45.2398 35.1139 45.3155 35.2804 45.3293C35.4468 45.343 35.6123 45.2938 35.7442 45.1913C35.8761 45.0889 35.9647 44.9407 35.9925 44.776L37.3832 36.4347C37.435 36.1233 37.5955 35.8405 37.8362 35.6364C38.077 35.4322 38.3823 35.3202 38.6979 35.32H39.9726C40.2882 35.3202 40.5935 35.4322 40.8342 35.6364C41.0749 35.8405 41.2355 36.1233 41.2872 36.4347L42.6779 44.776C42.7057 44.9407 42.7944 45.0889 42.9262 45.1913C43.0581 45.2938 43.2236 45.343 43.3901 45.3293C43.5565 45.3155 43.7117 45.2398 43.825 45.1171C43.9383 44.9944 44.0014 44.8337 44.0019 44.6667V33.5547C44.0018 33.3412 44.0531 33.1309 44.1512 32.9413C45.1805 30.9547 45.5552 28.7773 45.2112 26.9213C45.0019 25.7933 44.5126 24.724 43.6672 23.9253C42.8046 23.1107 41.6605 22.6667 40.3285 22.6667H34.8872C34.5446 22.6667 34.2139 22.7987 33.9659 23.0347L29.8539 26.9573C29.6061 27.1941 29.2766 27.3264 28.9339 27.3267H23.1992C22.8456 27.3267 22.5065 27.4671 22.2564 27.7172C22.0064 27.9672 21.8659 28.3064 21.8659 28.66C21.8659 29.0136 22.0064 29.3528 22.2564 29.6028C22.5065 29.8529 22.8456 29.9933 23.1992 29.9933H30.0019C30.3446 29.993 30.6741 29.8608 30.9219 29.624L32.4152 28.2C32.6041 28.0199 32.8418 27.8992 33.0986 27.8529C33.3555 27.8066 33.6203 27.8367 33.8603 27.9395C34.1002 28.0423 34.3047 28.2132 34.4484 28.4311C34.592 28.649 34.6686 28.9043 34.6686 29.1653V36.6347V36.6333Z" fill="#803400"/>
</g>
<defs>
<clipPath id="clip0_390_896">
<rect width="48" height="48" fill="white"/>
</clipPath>
</defs>
</svg>
