<svg width="40" height="35" viewBox="0 0 40 35" fill="none" xmlns="http://www.w3.org/2000/svg">
<path d="M0.089649 1.21862C0.213033 0.818969 0.453527 0.49934 0.758254 0.330011C1.06298 0.160681 1.40699 0.155515 1.71465 0.315648L6.10715 2.59907C7.00106 3.06355 7.99823 3.06355 8.89215 2.59907L11.4271 1.28034C12.9173 0.505911 14.5795 0.505911 16.0696 1.28034L18.6071 2.59907C19.5011 3.06355 20.4982 3.06355 21.3922 2.59907L23.9272 1.28034C25.4173 0.505911 27.0795 0.505911 28.5697 1.28034L31.1071 2.59907C32.0011 3.06355 32.9982 3.06355 33.8922 2.59907L38.2846 0.315648C38.4377 0.231084 38.6023 0.187066 38.7686 0.186171C38.9349 0.185276 39.0997 0.227524 39.2533 0.310438C39.4069 0.393353 39.5463 0.515266 39.6632 0.669034C39.78 0.822803 39.8721 1.00533 39.934 1.20593C39.9959 1.40653 40.0264 1.62116 40.0236 1.83724C40.0208 2.05333 39.9849 2.26652 39.9179 2.46433C39.8509 2.66214 39.7542 2.84059 39.6334 2.98922C39.5127 3.13785 39.3703 3.25367 39.2146 3.32989L34.8196 5.61331C33.3295 6.38773 31.6673 6.38773 30.1772 5.61331L27.6422 4.29458C26.7482 3.8301 25.7511 3.8301 24.8571 4.29458L22.3197 5.61331C20.8295 6.38773 19.1673 6.38773 17.6772 5.61331L15.1421 4.29458C14.2482 3.8301 13.2511 3.8301 12.3571 4.29458L9.81965 5.61331C8.32955 6.38773 6.66725 6.38773 5.17715 5.61331L0.784649 3.32989C0.477045 3.16958 0.231032 2.85712 0.100703 2.46121C-0.0296259 2.0653 -0.0336021 1.61834 0.089649 1.21862ZM0.089649 10.9629C0.213033 10.5633 0.453527 10.2437 0.758254 10.0743C1.06298 9.905 1.40699 9.89983 1.71465 10.06L6.10715 12.3434C7.00106 12.8079 7.99823 12.8079 8.89215 12.3434L11.4271 11.0247C12.9173 10.2502 14.5795 10.2502 16.0696 11.0247L18.6071 12.3434C19.5011 12.8079 20.4982 12.8079 21.3922 12.3434L23.9272 11.0247C25.4173 10.2502 27.0795 10.2502 28.5697 11.0247L31.1071 12.3434C32.0011 12.8079 32.9982 12.8079 33.8922 12.3434L38.2846 10.06C38.4377 9.9754 38.6023 9.93138 38.7686 9.93049C38.9349 9.92959 39.0997 9.97184 39.2533 10.0548C39.4069 10.1377 39.5463 10.2596 39.6632 10.4134C39.78 10.5671 39.8721 10.7497 39.934 10.9502C39.9959 11.1508 40.0264 11.3655 40.0236 11.5816C40.0208 11.7976 39.9849 12.0108 39.9179 12.2086C39.8509 12.4065 39.7542 12.5849 39.6334 12.7335C39.5127 12.8822 39.3703 12.998 39.2146 13.0742L34.8196 15.3576C33.3295 16.1321 31.6673 16.1321 30.1772 15.3576L27.6422 14.0389C26.7482 13.5744 25.7511 13.5744 24.8571 14.0389L22.3197 15.3576C20.8295 16.1321 19.1673 16.1321 17.6772 15.3576L15.1421 14.0389C14.2482 13.5744 13.2511 13.5744 12.3571 14.0389L9.81965 15.3576C8.32955 16.1321 6.66725 16.1321 5.17715 15.3576L0.784649 13.0742C0.477045 12.9139 0.231032 12.6014 0.100703 12.2055C-0.0296259 11.8096 -0.0336021 11.3627 0.089649 10.9629ZM0.089649 20.7073C0.213033 20.3076 0.453527 19.988 0.758254 19.8186C1.06298 19.6493 1.40699 19.6442 1.71465 19.8043L6.10715 22.0877C7.00106 22.5522 7.99823 22.5522 8.89215 22.0877L11.4271 20.769C12.9173 19.9945 14.5795 19.9945 16.0696 20.769L18.6071 22.0877C19.5011 22.5522 20.4982 22.5522 21.3922 22.0877L23.9272 20.769C25.4173 19.9945 27.0795 19.9945 28.5697 20.769L31.1071 22.0877C32.0011 22.5522 32.9982 22.5522 33.8922 22.0877L38.2846 19.8043C38.4377 19.7197 38.6023 19.6757 38.7686 19.6748C38.9349 19.6739 39.0997 19.7162 39.2533 19.7991C39.4069 19.882 39.5463 20.0039 39.6632 20.1577C39.78 20.3114 39.8721 20.494 39.934 20.6946C39.9959 20.8952 40.0264 21.1098 40.0236 21.3259C40.0208 21.542 39.9849 21.7552 39.9179 21.953C39.8509 22.1508 39.7542 22.3292 39.6334 22.4778C39.5127 22.6265 39.3703 22.7423 39.2146 22.8185L34.8196 25.1019C33.3295 25.8764 31.6673 25.8764 30.1772 25.1019L27.6422 23.7832C26.7482 23.3187 25.7511 23.3187 24.8571 23.7832L22.3197 25.1019C20.8295 25.8764 19.1673 25.8764 17.6772 25.1019L15.1421 23.7832C14.2482 23.3187 13.2511 23.3187 12.3571 23.7832L9.81965 25.1019C8.32955 25.8764 6.66725 25.8764 5.17715 25.1019L0.784649 22.8185C0.477045 22.6582 0.231032 22.3458 0.100703 21.9498C-0.0296259 21.5539 -0.0336021 21.107 0.089649 20.7073ZM0.089649 30.4516C0.213033 30.0519 0.453527 29.7323 0.758254 29.563C1.06298 29.3936 1.40699 29.3885 1.71465 29.5486L6.10715 31.832C7.00106 32.2965 7.99823 32.2965 8.89215 31.832L11.4271 30.5133C12.9173 29.7389 14.5795 29.7389 16.0696 30.5133L18.6071 31.832C19.5011 32.2965 20.4982 32.2965 21.3922 31.832L23.9272 30.5133C25.4173 29.7389 27.0795 29.7389 28.5697 30.5133L31.1071 31.832C32.0011 32.2965 32.9982 32.2965 33.8922 31.832L38.2846 29.5486C38.4377 29.464 38.6023 29.42 38.7686 29.4191C38.9349 29.4182 39.0997 29.4605 39.2533 29.5434C39.4069 29.6263 39.5463 29.7482 39.6632 29.902C39.78 30.0558 39.8721 30.2383 39.934 30.4389C39.9959 30.6395 40.0264 30.8541 40.0236 31.0702C40.0208 31.2863 39.9849 31.4995 39.9179 31.6973C39.8509 31.8951 39.7542 32.0735 39.6334 32.2222C39.5127 32.3708 39.3703 32.4866 39.2146 32.5628L34.8196 34.8463C33.3295 35.6207 31.6673 35.6207 30.1772 34.8463L27.6422 33.5275C26.7482 33.063 25.7511 33.063 24.8571 33.5275L22.3197 34.8463C20.8295 35.6207 19.1673 35.6207 17.6772 34.8463L15.1421 33.5275C14.2482 33.063 13.2511 33.063 12.3571 33.5275L9.81965 34.8463C8.32955 35.6207 6.66725 35.6207 5.17715 34.8463L0.784649 32.5628C0.477045 32.4025 0.231032 32.0901 0.100703 31.6942C-0.0296259 31.2982 -0.0336021 30.8513 0.089649 30.4516Z" fill="#803400"/>
</svg>
