<svg width="45" height="50" fill="none" xmlns="http://www.w3.org/2000/svg"><path fill-rule="evenodd" clip-rule="evenodd" d="M18.09.194a8.986 8.986 0 00-2.858 1.31c-.81.578-1.874 1.73-2.348 2.543-.236.405-.46.67-.588.699-2.517.551-3.39.87-4.08 1.491-.264.237-.526.579-.588.767-.39 1.183.81 2.172 3.4 2.804l.877.214.183.646c.101.355.36.988.573 1.407.214.419.371.775.35.791-.022.017-.437.31-.922.654-2.125 1.501-3.455 2.602-5.135 4.249-2.485 2.436-4.45 4.972-6.163 7.954-.648 1.127-.85 1.895-.777 2.944.098 1.4.638 2.417 1.65 3.112.905.62 1.144.656 4.513.657h3.007l.031 1.48c.03 1.418.041 1.487.263 1.666.343.277.836.245 1.085-.07.184-.235.203-.391.203-1.667v-1.408h2.006c2.453 0 2.816-.095 3.69-.97.733-.732 1-1.424.952-2.46-.06-1.255-.686-2.206-1.822-2.766l-.656-.322-4.868-.03-4.868-.028-.262.225c-.343.296-.366.774-.051 1.11l.228.242H9.73c2.722 0 4.752.04 4.95.096.377.108.837.506 1.045.904.368.705.023 1.799-.697 2.206l-.39.221-5.664.002c-6.182.002-6.06.012-6.671-.567-.613-.582-.871-1.588-.661-2.576.217-1.02 2.166-4.073 3.969-6.216 2.166-2.576 4.215-4.452 7.127-6.526l1.238-.881 5.54.005c6.141.005 6.303.02 7.584.673.984.502 1.668 1.165 3.603 3.493 1.03 1.24 1.982 2.309 2.117 2.376.185.091 1.342.122 4.684.123 4.86.002 4.853.001 5.34.58.748.89.509 2.115-.513 2.632-.436.22-.444.22-5.496.22h-5.059l-2.672-2.818c-1.47-1.55-2.803-2.874-2.963-2.943-.361-.155-.75-.002-.937.37-.097.192-.125 1.997-.126 8.263-.001 8.505-.003 8.462.444 8.634.326.124.7.056.91-.166l.212-.226.025-7.095.025-7.095 2.097 2.2c1.153 1.21 2.19 2.253 2.303 2.319.149.085.992.12 2.995.122l2.789.004-.424.416c-.962.946-1.281 1.786-1.281 3.366 0 1.076.006 1.11.258 1.307.352.277.733.26 1.022-.047.211-.226.24-.363.287-1.349.046-.968.084-1.151.323-1.559 1.031-1.76 3.654-1.634 4.52.218.2.428.207.594.234 5.486.028 5.002.03 5.048.238 5.269.305.325.878.308 1.148-.035.2-.254.203-.348.202-5.22-.001-5.373-.011-5.496-.544-6.474a4.213 4.213 0 00-.705-.901c-.237-.218-.416-.409-.399-.423.018-.015.347-.12.731-.236 1.657-.496 2.662-2.218 2.247-3.85-.286-1.13-1-1.926-2.101-2.344-.472-.18-.776-.192-4.813-.192h-4.309l-1.701-2.034c-2.216-2.648-3.006-3.363-4.375-3.951-.273-.118-.497-.227-.497-.243 0-.016.191-.397.424-.846.234-.449.507-1.107.607-1.462l.183-.646.877-.214c2.577-.629 3.79-1.618 3.408-2.777-.287-.87-1.366-1.49-3.51-2.018l-1.391-.343-.372-.646c-.486-.842-1.648-2.057-2.532-2.649C23.782.806 22.688.338 21.745.14c-.981-.207-2.698-.181-3.655.054zm3.595 1.56c1.44.369 2.81 1.273 3.68 2.433.272.362.495.687.495.724.001.093-.935.355-2.153.602-.902.183-1.364.21-3.678.21-2.315 0-2.776-.027-3.678-.21-1.141-.231-2.154-.507-2.154-.587 0-.028.097-.19.216-.36 1.006-1.44 2.34-2.393 3.937-2.811.958-.252 2.353-.252 3.334 0zM13.31 6.312c1.127.583 4.049 1.032 6.719 1.032 2.674 0 5.591-.448 6.722-1.033.263-.137.383-.123 1.633.186 1.343.331 2.476.755 2.476.926 0 .276-2.21.953-4.019 1.232-2.317.357-3.116.404-6.812.404s-4.495-.047-6.813-.404c-1.768-.273-4.018-.956-4.018-1.22 0-.165 1.186-.625 2.401-.93 1.537-.386 1.372-.368 1.711-.192zm6.719 4.353c1.817 0 3.349-.056 4.533-.166 1.586-.148 1.789-.15 1.787-.02-.003.227-.343.926-.739 1.523l-.356.537H14.89l-.207-.22c-.291-.31-.865-1.356-.935-1.703l-.058-.29 1.797.17c1.21.114 2.693.17 4.542.17zm-7.744 26.87c-.886.124-2.076.535-2.83.977-1.748 1.026-5.391 3.398-5.52 3.596-.187.283-.089.765.195.964.447.313.69.205 3.39-1.508 1.435-.91 2.785-1.742 3-1.85a6.26 6.26 0 014.883-.284c.334.122 1.621.761 2.862 1.42 1.749.929 2.309 1.184 2.499 1.138.135-.032 1.071-.585 2.08-1.229 1.01-.644 1.95-1.214 2.09-1.266 1.36-.518 2.74.938 2.164 2.283-.194.454-.528.726-2.07 1.686-.755.47-1.45.944-1.544 1.052-.401.46-.049 1.253.558 1.253.18 0 .815-.343 1.85-1 1.896-1.203 2.117-1.39 2.48-2.09.267-.514.382-.61 2.115-1.76 2.238-1.486 2.305-1.52 2.897-1.52 1.353 0 2.17 1.625 1.355 2.694-.293.383-6.224 4.178-7.604 4.865-1.977.983-4.05 1.458-6.356 1.458-2.508-.001-3.929-.362-7.37-1.873-1.216-.533-2.31-.97-2.43-.97-.24 0-3.096 1.76-3.374 2.08-.424.487.02 1.327.648 1.225.173-.028.878-.411 1.567-.852l1.252-.801 1.93.856c1.061.471 2.393 1.006 2.959 1.188 3.831 1.235 8.283.894 11.87-.907 1.3-.652 7.405-4.521 7.885-4.996.982-.973 1.243-2.576.618-3.8-.312-.613-1.077-1.298-1.724-1.544-.67-.255-1.64-.285-2.25-.07-.225.08-1.142.62-2.037 1.2-.894.582-1.635 1.04-1.647 1.02l-.303-.603c-.502-1.004-1.522-1.65-2.717-1.721-.875-.052-1.442.188-3.435 1.458l-1.588 1.01-.89-.463c-3.003-1.565-3.795-1.939-4.468-2.11-.9-.228-2.201-.318-2.99-.207z" fill="#803400"/></svg>