<svg width="50" height="50" fill="none" xmlns="http://www.w3.org/2000/svg"><path fill-rule="evenodd" clip-rule="evenodd" d="M34.878.153c-1.97.518-3.577 2.141-4.081 4.121-.419 1.643-.006 3.538 1.065 4.893l.396.5-8.293.028c-8.286.028-8.293.028-8.7.246-.415.222-1.256 1.053-1.256 1.241 0 .057-.237.103-.533.103-2.373 0-4.657 1.877-5.275 4.335-.216.86-.145 2.331.153 3.168.372 1.046 1.254 2.234 2 2.696l.354.218-.39.2c-.702.358-1.876 1.643-2.323 2.54-.221.445-.43.919-.466 1.055-.036.136-.084.226-.107.201-.023-.025-.41-.665-.859-1.423-.903-1.521-1.342-1.98-2.203-2.302-2.119-.793-4.376.788-4.36 3.053.003.344.064.792.136.995.165.462 6.171 10.688 6.8 11.578 1.001 1.417 2.732 2.802 4.358 3.488 1.24.522 2.31.764 3.647.823l1.185.052v3.179l-1.336.037c-1.26.035-1.373.056-1.998.36-.812.394-1.612 1.207-1.985 2.017-.21.457-.276.777-.309 1.512l-.042.933H39.54l-.042-.933c-.033-.735-.098-1.055-.309-1.512-.37-.804-1.169-1.618-1.98-2.018-.628-.31-.73-.328-2-.361l-1.338-.035v-3.207h6.75c6.665 0 6.759-.002 7.332-.217 1.2-.45 2.048-1.694 2.048-3.009 0-1.723-1.45-3.226-3.114-3.226h-.484l.182-.53c.725-2.097-.812-4.31-2.994-4.31-.494 0-.615-.045-1.105-.415l-.55-.415V25.02l1.033-.043c1.177-.047 1.595-.21 2.207-.854.755-.795.739-.699.772-4.528.035-3.988-.017-4.406-.727-5.84-.722-1.46-1.773-2.54-3.175-3.26-.42-.217-.947-.45-1.169-.516-.222-.066-.46-.138-.528-.16-.078-.024.057-.278.36-.68.865-1.142 1.227-2.174 1.227-3.5 0-1.55-.552-2.87-1.663-3.982C39.144.529 37.826-.013 36.242 0c-.445.004-1.06.073-1.364.153zm2.74 1.71c.653.229 1.451.818 1.858 1.373 1.201 1.635 1.048 3.805-.369 5.222-2.3 2.3-6.193 1.038-6.762-2.192-.358-2.034 1.085-4.126 3.142-4.555.564-.118 1.562-.046 2.131.153zm-5.02 12.598c.435 1.747.819 3.176.853 3.176.035 0 .687-.623 1.45-1.385l1.388-1.385 1.388 1.385c.763.762 1.415 1.385 1.45 1.385.033 0 .391-1.327.794-2.949.403-1.622.745-2.963.758-2.98.014-.018.314.112.666.29.862.433 1.947 1.54 2.371 2.42.548 1.134.638 1.85.638 5.055 0 3.21-.036 3.4-.705 3.734-.32.16-.756.176-4.537.176-4.733 0-4.716.003-5.082-.747-.175-.358-.18-.432-.05-.797.078-.222.27-.498.426-.614.274-.203.414-.212 3.907-.24l3.622-.028v-4.832h-1.613v3.215l-3.05.03c-2.908.03-3.069.041-3.46.25-.225.121-.469.292-.541.379-.107.128-.367.159-1.375.159h-1.242l-.03-2.403-.03-2.403-.306-.493a2.612 2.612 0 00-.799-.799l-.493-.305-6.428-.05c-6.322-.05-6.432-.054-6.712-.261-.156-.116-.348-.392-.427-.614-.129-.365-.124-.439.05-.797.385-.787-.07-.747 8.613-.747h7.714l.791 3.175zm4.403-3a4.91 4.91 0 01-.407.53l-.305.353-.305-.353c-.609-.705-.608-.706.305-.706.747 0 .805.015.712.177zm-2.25 2.624l-.426.433-.326-1.289c-.18-.708-.327-1.328-.328-1.377-.002-.049.336.336.75.855l.755.945-.426.433zm3.828-.856l-.326 1.29-.425-.434-.425-.433.729-.918c.4-.505.738-.89.75-.855.013.034-.124.642-.303 1.35zm-24.724.166c.2.603.839 1.352 1.401 1.643.3.155.66.228 1.286.26l.87.044.106.366c.435 1.496.07 2.977-.994 4.041-2.3 2.3-6.192 1.04-6.761-2.191-.359-2.035 1.102-4.15 3.142-4.55.768-.15.772-.148.95.387zm14.88 2.218l.295.295v4.249h-2.719l-1.633 1.172c-1.342.963-1.662 1.152-1.791 1.057-.77-.568-2.022-.766-2.932-.464-.287.096-.762.37-1.055.608l-.534.434-.286-.298a5.125 5.125 0 00-.767-.608c-.445-.285-.608-.49-.391-.49.197 0 1.116-.937 1.507-1.538.665-1.02.85-1.655.863-2.948.005-.61-.023-1.256-.063-1.436l-.073-.328h9.285l.295.295zm.295 8.879v2.72l-2.569 1.716c-1.413.943-2.627 1.714-2.697 1.713-.098-.002-1.64-2.193-1.767-2.51-.015-.038.134-.126.331-.197.197-.072.599-.365.893-.652.717-.7 1.006-1.444.945-2.436-.024-.389-.072-.774-.108-.857-.047-.11.326-.43 1.37-1.18l1.435-1.028 1.084-.005 1.083-.005v2.72zm3.25-2.088c.06.747.319 1.296.85 1.8.786.746.746.739 4.142.773l3.05.03v1.76c0 .967-.026 1.759-.057 1.759-.03 0-.421-.279-.868-.619-1.162-.884-2.014-1.357-3.108-1.724-.913-.306-1.03-.32-2.52-.32-1.414 0-1.637.025-2.344.262l-.782.262V21.77h1.586l.05.633zm-16.991.482c.767.264 1.45.718 1.997 1.326.39.434.453.565.453.943 0 .732.369 1.54.971 2.127.294.287.684.576.866.642.277.1.567.473 1.733 2.226l1.4 2.106h21.109l.44.232c1.16.614 1.137 2.215-.04 2.785-.428.207-.51.209-11.542.209h-11.11l.078-.277c.042-.153.075-.618.073-1.034-.005-.878-.204-1.346-.819-1.93-.724-.686-.889-.73-2.962-.79-1.501-.042-1.919-.085-2.117-.217-.136-.091-.678-.895-1.205-1.787-.527-.892-.989-1.623-1.026-1.625-.09-.003-1.284.71-1.34.8-.024.038.389.793.917 1.675 1.574 2.63 1.672 2.692 4.34 2.765 2.084.058 2.279.125 2.544.875.13.365.125.439-.05.797-.33.677-.6.748-2.835.748-2.063 0-2.704-.084-3.512-.462-.896-.42-1.347-.996-3.065-3.92-1.819-3.093-1.863-3.223-1.577-4.588.43-2.052 1.848-3.45 3.89-3.836.627-.118 1.71-.023 2.389.21zm-11.21.785c.232.135 1.05 1.445 3.533 5.666 3.577 6.078 3.784 6.362 5.137 7.07 1.41.737.131.688 18.12.688h16.176l.439.232c1.16.614 1.138 2.215-.04 2.785-.43.209-.455.21-16.371.21-10.918 0-16.189-.035-16.73-.11-2.066-.287-3.698-1.107-5.173-2.601-.956-.968-.965-.983-4.153-6.414-1.757-2.994-3.245-5.578-3.307-5.742a1.517 1.517 0 01-.05-.664c.197-1.167 1.388-1.718 2.418-1.12zm17.733.009c1.041.643.927 2.187-.202 2.733-.782.379-1.66.059-2.049-.746-.267-.55-.263-.823.018-1.38.427-.847 1.412-1.114 2.233-.607zm13.628 3.99c.948.242 1.904.772 3.402 1.886l1.393 1.036-3.276.027a500.97 500.97 0 01-6.625 0l-3.348-.027 1.616-1.076c2.241-1.494 2.85-1.784 4.209-2.005.654-.106 1.873-.032 2.629.16zm-3.183 15.878v1.613H17.739v-3.227h14.518v1.614zm4.284 3.528c.455.228 1.16.968 1.16 1.218 0 .056-5.016.093-12.703.093-7.688 0-12.703-.037-12.703-.093 0-.051.148-.287.33-.525.355-.465.812-.778 1.317-.9.176-.042 5.219-.07 11.207-.06l10.888.015.504.252z" fill="#803400"/></svg>