<svg width="43" height="50" fill="none" xmlns="http://www.w3.org/2000/svg"><path d="M25.155 35.123c-.473 0-.833.011-1.189 0-.774-.026-1.098-.346-1.101-1.123v-6.179c-.648-.062-.767.25-.765.79.013 6.606.013 13.213 0 19.821 0 .245 0 .493-.016.736a.85.85 0 01-.544.786.867.867 0 01-.332.06c-.516.029-.855-.259-.955-.762a4.118 4.118 0 01-.042-.8V28.127h-2.315c-.013.227-.036.46-.036.695v8.367c0 1.238-.238 1.468-1.505 1.47h-.832v10c0 1.113-.267 1.366-1.4 1.368H7.845c-1.045 0-1.327-.272-1.327-1.295V38.697c-.29-.013-.526-.033-.763-.034h-4.52c-.815 0-1.151-.33-1.151-1.134 0-4.822-.013-9.643.012-14.465.023-1.499.35-2.979.961-4.35.15-.342.153-.56-.097-.884-1.058-1.36-1.19-2.88-.462-4.408.727-1.53 2.033-2.188 3.706-2.22 1.14-.022 2.247.044 3.22.74a.562.562 0 00.43.053c.75-.227 1.492-.477 2.29-.738-1.588-1.552-2.338-3.427-2.07-5.625A6.296 6.296 0 0110.32 1.49a6.632 6.632 0 014.375-1.548 6.629 6.629 0 014.319 1.695c2.105 1.903 3.384 5.93.158 9.521h9.19c-1.594-1.675-2.274-3.605-1.9-5.837a6.293 6.293 0 012.391-3.99 6.59 6.59 0 018.48.304 6.369 6.369 0 011.576 2.145c.368.817.558 1.701.558 2.596.023 1.875-.72 3.457-2.064 4.832.475.134.881.227 1.274.357 2.5.85 4.267 3.145 4.287 5.761.041 5.557.02 11.114.014 16.67 0 .762-.343 1.093-1.113 1.121-.36.013-.72 0-1.177 0v13.526c0 1.102-.277 1.373-1.398 1.373H26.474c-1.036 0-1.317-.278-1.317-1.305V35.923c-.002-.234-.002-.473-.002-.8zM8.815 13.67c.05.198.096.368.133.535.626 2.784-1.185 5.079-4.05 5.11a8.34 8.34 0 01-1.477-.083c-.422-.071-.655.05-.732.447-.248 1.26-.67 2.521-.694 3.789-.089 4.237-.035 8.477-.033 12.716 0 .191.025.38.036.536h13.913v-8.654c-.45 0-.85.013-1.26 0-2.326-.084-4.317-1.932-4.443-4.23-.09-1.714-.034-3.436-.024-5.152 0-.57.31-.923.9-.955.558-.03.932.357.973.964.013.178 0 .357 0 .536 0 1.428-.02 2.857 0 4.285.02 1.429 1.163 2.643 2.586 2.679 2.202.045 4.406.032 6.608 0a1.79 1.79 0 001.165-.468c.318-.291.518-.687.564-1.114a1.774 1.774 0 00-.242-1.19 1.796 1.796 0 00-.953-.762 3.603 3.603 0 00-.995-.121c-.942-.03-1.892.026-2.826-.075-1.276-.14-2.024-1.056-2.024-2.322v-7.198c-2.425.05-4.816-.264-7.125.727zm9.088-.593v4.359h5.435c1.126 0 1.4.273 1.403 1.37v2.439c1.046-.674 2.11-.599 3.163-.597h7.557c0-.757-.015-1.44 0-2.127.014-.685.37-1.07.944-1.07s.923.369.936 1.062c.014.848 0 1.694 0 2.542 0 1.25-.225 1.466-1.504 1.466H27.2a3.65 3.65 0 00-1.064.117 1.825 1.825 0 00-.954.758 1.803 1.803 0 00-.26 1.186c.142.96.884 1.607 1.927 1.607 3.619.011 7.237.011 10.856 0 2.057 0 3.36-1.307 3.368-3.351v-4.886c0-3.036-1.855-4.884-4.902-4.886H18.64l-.737.01zM33.842 48.11h4.911V35.179H27.087v12.944h4.873v-8.846a2.93 2.93 0 01.075-.793c.135-.47.518-.757.966-.613.32.104.594.452.805.75.108.154.04.434.04.656v8.098l-.004.736zm-9.045-20.588v5.679h16.256V27.1c-2.012.975-2.012.975-4.35.975h-8.425c-1.174-.002-2.37.14-3.48-.552zM14.56 11.072a4.688 4.688 0 002.593-.768 4.636 4.636 0 001.728-2.068 4.596 4.596 0 00.279-2.672 4.617 4.617 0 00-1.263-2.376 4.674 4.674 0 00-2.38-1.28 4.696 4.696 0 00-2.694.248 4.656 4.656 0 00-2.103 1.691 4.604 4.604 0 00-.802 2.566 4.583 4.583 0 001.343 3.29 4.651 4.651 0 003.299 1.369zm13.699-4.674c-.01.915.255 1.812.76 2.578a4.654 4.654 0 002.073 1.726 4.695 4.695 0 005.09-.948 4.619 4.619 0 001.303-2.355 4.595 4.595 0 00-.234-2.675 4.635 4.635 0 00-1.691-2.097 4.688 4.688 0 00-2.58-.81 4.666 4.666 0 00-3.323 1.308 4.571 4.571 0 00-1.396 3.267l-.002.006zM8.455 38.693v9.402h5.114v-9.402H8.455zM4.562 13.075c-1.72 0-2.618.782-2.593 2.263.02 1.146.78 1.964 1.945 2.092 1.778.197 2.87-.326 3.187-1.528.444-1.679-.585-2.825-2.539-2.827zm18.25 7.709v-1.418h-4.918c-.094 1.25-.072 1.263 1.105 1.286 1.264.025 2.53.086 3.814.132z" fill="#803400"/></svg>