<svg width="56" height="50" fill="none" xmlns="http://www.w3.org/2000/svg"><path fill-rule="evenodd" clip-rule="evenodd" d="M26.703.112c-.31.058-.974.3-1.475.54-1.769.843-3.112 2.6-3.442 4.505-.203 1.168-.082 3.983.205 4.767.474 1.3 1.083 2.17 2.077 2.965l.526.42-.434.343a5.17 5.17 0 00-1.431 1.821l-.275.586h-3.08c-4.148 0-5.373.213-7.536 1.307-2.247 1.137-4.037 2.936-5.198 5.225-.218.43-.463 1.002-.545 1.272-.119.394-.247.549-.646.782-2.53 1.478-4.31 3.796-5.127 6.673-.244.86-.249 1.017-.285 9.332L0 49.107h1.816v-7.973c0-8.722.007-8.824.666-10.512.19-.487.531-1.162.757-1.5.41-.611 1.935-2.233 2.101-2.233.049 0 .088 4.195.088 9.323v9.322h1.798l.032-9.741c.024-7.205.067-9.8.165-9.97.143-.245.912-.52 2.004-.713.401-.071 2.515-.119 5.268-.119h4.598l-.515 1.424c-.283.783-.57 1.611-.635 1.84-.17.592.048 2.149.48 3.424.307.906.348 1.178.348 2.278 0 1.419-.097 1.868-.537 2.505-.17.246-1.412 1.383-2.76 2.527l-2.452 2.08h-1.814c-1.776 0-1.82.005-2.091.273l-.277.274v6.942l.29.288c.278.275.334.285 1.337.241 1.736-.075 2.837-.757 3.456-2.142.24-.535.296-.567 1.18-.687.738-.099 2.223-.565 2.935-.92.978-.488 1.856-1.138 3.663-2.71 2.518-2.19 2.87-2.62 3.207-3.927.083-.319.206-.599.274-.62.067-.023.265.171.44.432l.316.473.057 5.294.056 5.293.267.214c.25.2.496.213 4.209.213h3.943l.29-.287c.278-.275.288-.33.243-1.312-.076-1.675-.761-2.792-2.078-3.389l-.595-.269-.04-4.824c-.04-4.683-.048-4.847-.301-5.605-.432-1.297-1.083-2.389-2.227-3.74a360.052 360.052 0 01-1.488-1.767l-.401-.483.324-1.666.325-1.667h8.591c5.574 0 8.827.042 9.261.119 1.092.194 1.861.468 2.004.714.098.168.141 2.764.165 9.969l.033 9.741h1.798v-9.322c0-5.19.043-9.323.097-9.323.195 0 1.782 1.75 2.191 2.416.231.376.551 1.029.712 1.45.599 1.57.61 1.771.61 10.379v7.973H56l-.038-8.402c-.037-8.285-.041-8.414-.29-9.345-.783-2.922-2.543-5.181-5.331-6.844-.18-.107-.345-.356-.437-.658-.398-1.316-1.408-2.918-2.65-4.202-1.04-1.074-1.909-1.715-3.17-2.338-2.115-1.043-3.373-1.259-7.363-1.259h-2.988l-1.503-1.184-1.502-1.185.809-.535c1.196-.792 1.936-1.759 2.474-3.23.286-.785.407-3.6.204-4.768-.593-3.42-3.989-5.7-7.512-5.045zm2.223 1.782c.74.155 1.353.452 1.996.969.446.358 1.142 1.269 1.142 1.496 0 .049-1.196.09-2.658.09H26.75l-.277.273c-.263.26-.277.342-.277 1.593v1.32l-1.132 1.114c-.855.842-1.156 1.076-1.23.96-.246-.392-.371-1.521-.329-2.989.042-1.458.064-1.589.402-2.299.918-1.932 2.958-2.96 5.02-2.527zm3.562 5.764c-.061 1.604-.223 2.162-.876 3.016-.92 1.205-2.076 1.758-3.668 1.756-.91-.002-1.092-.038-1.75-.357-1.36-.658-1.384-.492.317-2.192l1.49-1.488V6.235h4.54l-.053 1.423zm-3.681 6.933c.27.131 2.101 1.511 4.069 3.067 3.613 2.857 4.456 3.405 5.536 3.598l.423.076v1.905l-1.156-.063c-2.133-.115-2.855-.446-6.349-2.918-3.029-2.143-3.057-2.136-3.664.967l-.388 1.982h-2.686c-1.477 0-2.686-.039-2.686-.086 0-.24 2.425-6.847 2.66-7.247.818-1.39 2.785-1.985 4.24-1.28zm-7.034 3.402c-.02.08-.442 1.286-.939 2.68l-.902 2.532-4.966.004c-3.629.004-5.195.045-5.814.154-.465.082-.864.134-.885.115-.104-.09.739-1.425 1.366-2.163 1.46-1.719 3.493-2.879 5.783-3.3 1.132-.208 6.408-.226 6.357-.022zm18.755.013c2.455.44 4.67 1.762 6.12 3.655.579.754 1.17 1.746 1.083 1.82-.02.017-.417-.036-.882-.118a12.724 12.724 0 00-1.773-.154l-.925-.004.066-.556c.093-.776-.133-1.47-.68-2.084-.675-.76-.983-.856-3.009-.937-2.078-.083-2.577-.238-3.77-1.172l-.781-.61 1.853.004c1.053.002 2.217.07 2.698.155zm-9.572 4.166l1.382.977-1.564.031c-.86.017-1.585.01-1.612-.017-.052-.052.312-1.968.374-1.968.02 0 .66.44 1.42.977zm11.214-.48a.895.895 0 01.277.62c0 .57-.427.893-1.18.893h-.626v-1.786h.626c.514 0 .676.049.903.274zm-15.332 3.606c-.034.17-.152.772-.261 1.34l-.2 1.033h-6.128l.366-1.033c.202-.568.42-1.17.487-1.34l.121-.307H26.9l-.062.307zm1.205 5.767c1.574 1.875 1.973 2.471 2.337 3.495.264.745.27.84.306 5.42l.037 4.661h-2.709l-.035-2.93-.035-2.931-.316-.67c-.398-.845-1.169-1.628-1.922-1.953-2.112-.913-2.49-1.144-3.465-2.114-.661-.658-1.09-1.202-1.371-1.739-.436-.833-.883-2.139-.883-2.58v-.267l3.358.006 3.358.006 1.34 1.596zm-5.23 5.716l.7.428-.062.587c-.11 1.05-.49 1.543-2.587 3.352-1.051.908-2.123 1.793-2.382 1.968-1.041.703-2.174 1.157-3.489 1.398l-.536.098.003-1.13.004-1.13 2.322-1.954c3.243-2.728 3.537-3.09 3.927-4.83l.07-.31.665.548c.365.302.98.74 1.365.975zm-10.182 7.74c-.032 1.477-.063 1.703-.269 1.975-.324.43-.72.698-1.15.781l-.367.071v-4.493h1.822l-.036 1.667zm19.954 2.192c.434.321.705.712.79 1.138l.071.363h-5.445v-1.8l2.136.034c1.951.032 2.164.055 2.448.265z" fill="#803400"/></svg>