<svg width="44" height="50" fill="none" xmlns="http://www.w3.org/2000/svg"><path d="M22 50a1.562 1.562 0 01-1.563-1.563v-4.04l-2.019 2.022a1.564 1.564 0 01-2.21-2.213l4.229-4.228V27.706L9.812 33.841l-1.55 5.78a1.563 1.563 0 01-3.019-.812l.74-2.756-3.5 2.019a1.563 1.563 0 01-1.562-2.706l3.5-2.02-2.762-.74a1.565 1.565 0 01-.374-2.864 1.564 1.564 0 011.186-.155l5.775 1.547L18.874 25 8.25 18.866l-5.781 1.547a1.563 1.563 0 01-.806-3.02l2.76-.74-3.5-2.019a1.563 1.563 0 111.562-2.706l3.5 2.019-.741-2.76a1.562 1.562 0 113.019-.806l1.547 5.778 10.628 6.135V10.022L16.21 5.794a1.563 1.563 0 112.209-2.213l2.019 2.022v-4.04a1.562 1.562 0 113.125 0v4.04l2.022-2.022a1.563 1.563 0 112.209 2.213l-4.231 4.228v12.272l10.625-6.135 1.55-5.78a1.563 1.563 0 013.018.812l-.737 2.756 3.5-2.019a1.562 1.562 0 011.563 2.706l-3.5 2.02 2.759.74a1.563 1.563 0 01-.813 3.019l-5.775-1.547L25.124 25l10.625 6.134 5.778-1.547a1.563 1.563 0 01.81 3.02l-2.76.74 3.5 2.019a1.563 1.563 0 01-1.562 2.706l-3.5-2.019.737 2.76a1.56 1.56 0 01-1.714 1.976 1.56 1.56 0 01-1.304-1.17l-1.547-5.778-10.625-6.135v12.272l4.228 4.228a1.564 1.564 0 01-2.21 2.213l-2.021-2.022v4.04A1.562 1.562 0 0121.996 50H22z" fill="#803400"/></svg>