<svg width="444" height="70" fill="none" xmlns="http://www.w3.org/2000/svg"><g clip-path="url(#clip0_333_1254)" fill="#fff"><path d="M213.929 67.091c-7.424-.012-14.57-2.863-20.009-7.983-5.439-5.12-8.77-12.133-9.327-19.634-.557-7.501 1.7-14.94 6.321-20.827 4.622-5.888 11.266-9.791 18.604-10.93l.248-.038.135.137.199.103v.219h1.993v2.014h.118l1.562 1.31a.261.261 0 00.334 0l1.578-1.294h.092V8.143h1.987v-.125l.232-.213.161-.115.194.027c7.34 1.139 13.985 5.043 18.606 10.932a30.13 30.13 0 016.319 20.83c-.559 7.503-3.892 14.515-9.333 19.634-5.441 5.12-12.589 7.969-20.014 7.978zM209.082 8.81c-7.024 1.23-13.337 5.086-17.691 10.805a29.116 29.116 0 00-5.823 20.082c.609 7.197 3.861 13.9 9.113 18.785 5.251 4.884 12.12 7.594 19.248 7.594 7.129 0 13.998-2.71 19.249-7.594 5.252-4.885 8.503-11.588 9.113-18.785a29.116 29.116 0 00-5.823-20.082c-4.354-5.72-10.667-9.575-17.691-10.805v.344h-1.988v2.014h-.737l-1.299 1.091a1.26 1.26 0 01-1.615 0l-1.298-1.091h-.76v-2.01h-1.993l-.005-.35z"/><path d="M213.929 70c-8.153.065-16.029-2.997-22.049-8.57-6.02-5.572-9.738-13.245-10.409-21.48-.671-8.234 1.754-16.42 6.79-22.919 5.036-6.498 12.31-10.827 20.363-12.119l1.304-.218-1.126 1.402a.267.267 0 000 .339l1.109 1.392.178.098v.218h1.993v2.014h.129l1.562 1.304a.261.261 0 00.334 0l1.578-1.293h.092V8.143h1.987v-.125l.135-.131 1.163-1.452a.265.265 0 000-.333l-1.131-1.408 1.282.218c8.054 1.292 15.327 5.621 20.363 12.12 5.036 6.498 7.461 14.684 6.79 22.919-.671 8.234-4.389 15.907-10.409 21.48-6.019 5.572-13.896 8.634-22.049 8.57h.021zm-6.177-63.898c-7.621 1.553-14.4 5.921-19.02 12.256a32.066 32.066 0 00-5.982 22.02c.771 7.837 4.388 15.105 10.151 20.392 5.762 5.286 13.258 8.214 21.031 8.214s15.269-2.928 21.031-8.214c5.763-5.287 9.381-12.555 10.151-20.392a32.066 32.066 0 00-5.982-22.02c-4.62-6.335-11.399-10.703-19.019-12.256.021.172.008.347-.039.514a1.272 1.272 0 01-.236.457l-1.077 1.316v.758h-1.988v2.014h-.738l-1.298 1.092a1.26 1.26 0 01-1.616 0l-1.298-1.092h-.743V9.158h-1.993v-.753l-1.077-1.332a1.29 1.29 0 01-.258-.971z"/><path d="M214.365 48.983a.495.495 0 01-.317-.115c-6.394-5.397-10.326-8.88-10.616-12.258v-1.135a6.796 6.796 0 01.77-2.729 8.26 8.26 0 01-.77-2.729v-1.162c.063-.85.282-1.682.646-2.45a8.084 8.084 0 01-.641-2.49v-1.14c.318-3.64 2.892-5.496 5.154-5.698.367-.032.69-.049.992-.049a5.964 5.964 0 012.63.513 6.03 6.03 0 012.152 1.616 6.042 6.042 0 012.158-1.616 5.966 5.966 0 012.636-.507c.302 0 .63 0 .986.049 2.262.202 4.847 2.057 5.154 5.654v1.14a8.125 8.125 0 01-.646 2.538c.357.756.574 1.572.641 2.407v1.135a8.267 8.267 0 01-.76 2.79c.434.82.697 1.723.77 2.652v1.168c-.242 2.86-2.655 5.048-7.454 9.409a428.98 428.98 0 00-3.145 2.876.497.497 0 01-.34.13zm-9.156-15.931a5.67 5.67 0 00-.765 2.461v1.054c.226 2.816 3.889 6.145 9.921 11.237a414.799 414.799 0 012.828-2.582c4.605-4.18 6.921-6.281 7.126-8.699v-1.048a5.717 5.717 0 00-.797-2.423 4.755 4.755 0 00-2.559-2.08 4.202 4.202 0 00-.921-.19 10.835 10.835 0 00-.899-.044c-2.252 0-3.232.911-4.428 2.183a.495.495 0 01-.732 0c-1.174-1.283-2.154-2.183-4.427-2.183-.275 0-.571 0-.905.044a4.21 4.21 0 00-.916.19 4.742 4.742 0 00-2.526 2.063v.017zm4.379-3.33a5.966 5.966 0 012.636.508 6.05 6.05 0 012.158 1.616 6.038 6.038 0 012.157-1.616 5.966 5.966 0 012.636-.507c.302 0 .63 0 .986.049.388.037.771.117 1.142.24a5.697 5.697 0 012.574 1.768c.234-.6.383-1.23.442-1.872v-1.026a5.81 5.81 0 00-.636-2.21 4.684 4.684 0 00-1.496-1.7 4.606 4.606 0 00-2.107-.789 11.18 11.18 0 00-.9-.043c-2.251 0-3.231.911-4.427 2.183a.503.503 0 01-.366.163.494.494 0 01-.366-.163c-1.175-1.283-2.155-2.183-4.428-2.183-.269 0-.565 0-.905.043a4.611 4.611 0 00-2.104.791 4.686 4.686 0 00-1.493 1.698 5.778 5.778 0 00-.641 2.238v1.053a6.84 6.84 0 00.441 1.828 5.701 5.701 0 012.548-1.774 5.2 5.2 0 011.136-.24 9.682 9.682 0 011.002-.054h.011zm9.587-6.609c.302 0 .625 0 .986.05a5.53 5.53 0 012.144.69c.661.376 1.24.883 1.701 1.493.162-.488.267-.994.313-1.507v-1.064c-.264-2.969-2.386-4.524-4.244-4.688a11.087 11.087 0 00-.9-.044c-2.251 0-3.232.912-4.427 2.183a.507.507 0 01-.366.164.494.494 0 01-.367-.164c-1.174-1.282-2.154-2.183-4.427-2.183-.275 0-.571 0-.905.044-1.858.164-3.98 1.72-4.239 4.732v1.048c.047.496.15.985.307 1.457a5.608 5.608 0 011.702-1.492 5.53 5.53 0 012.144-.691c.366-.033.689-.05.991-.05a5.965 5.965 0 012.636.508 6.05 6.05 0 012.158 1.616 6.038 6.038 0 012.155-1.602 5.966 5.966 0 012.627-.5h.011z"/><path d="M207.805 60.17a.493.493 0 01-.231-.06c-.081-.043-8.338-4.469-11.747-6.346a11.38 11.38 0 01-4.309-4.29 5.12 5.12 0 01-.63-2.461V23.332a.585.585 0 01.177-.426.58.58 0 01.426-.158c.656.05 1.291.252 1.858.59v-.765c0-.15.057-.296.159-.406a.578.578 0 01.39-.183c2.203.065 3.286 2.26 3.808 3.312.06.126.114.23.157.312l.032.043a3.602 3.602 0 011.4.823c.399.378.709.843.905 1.36.068.174.103.36.103.546v1.61c.64.3 1.89 1.037 1.89 1.96v9.277c.017.279.132.542.323.743 1.077 1.206 3.577 3.678 4.982 5.048a2.733 2.733 0 01.819 1.948v10.697a.511.511 0 01-.147.36.497.497 0 01-.354.148h-.011zm-15.937-36.347v23.19c.002.687.176 1.363.506 1.964a10.478 10.478 0 003.932 3.892c2.801 1.544 8.898 4.819 11.004 5.948v-9.85a1.727 1.727 0 00-.539-1.218c-1.416-1.375-3.953-3.87-5.036-5.103a2.196 2.196 0 01-.538-1.457v-9.278c0-.19-.464-.546-.894-.824v8.525a.511.511 0 01-.147.359.499.499 0 01-.855-.36V28.38a.49.49 0 00-.033-.17 2.667 2.667 0 00-1.255-1.402v11.063a.51.51 0 01-.146.359.499.499 0 01-.855-.36V26.165l-.027-.049a14.152 14.152 0 01-.178-.35c-.393-.796-1.174-2.368-2.494-2.695v1.2c.266.382.407.838.404 1.305v7.94c.609.4 2.09 1.48 2.155 2.582v4.666c.123.584 2.957 2.637 5.924 4.803l.62.448c1.335.971 1.54 3.11 1.54 4.944v2.102a.511.511 0 01-.147.358.497.497 0 01-.708 0 .511.511 0 01-.147-.358v-2.113c0-1.599-.161-3.405-1.125-4.104l-.588-.453c-4.734-3.427-6.366-4.66-6.366-5.627V36.13c0-.453-1.029-1.397-1.89-1.894l-.539-.284v11.172s.286 2.45 1.815 3.275a.506.506 0 01.245.698.498.498 0 01-.703.202c-2.019-1.059-2.343-3.973-2.353-4.099V33.221a.548.548 0 01.237-.437c.194-.125.328-.174 1.077.186v-7.417a1.264 1.264 0 00-.253-.764.471.471 0 01-.081-.104 2.961 2.961 0 00-1.567-.862h.005zm29.154 36.347a.499.499 0 01-.354-.148.511.511 0 01-.147-.359V48.966a2.734 2.734 0 01.846-1.948c1.406-1.365 3.916-3.82 4.982-5.049.188-.215.292-.492.291-.78v-9.278c0-.922 1.271-1.67 1.891-1.96V28.38a1.477 1.477 0 01.102-.546c.194-.517.502-.982.901-1.36a3.58 3.58 0 011.399-.823l.032-.05c.043-.08.097-.19.162-.31.538-1.053 1.615-3.275 3.77-3.313a.581.581 0 01.546.362c.03.072.046.15.046.227v.765a4.27 4.27 0 011.864-.59.563.563 0 01.42.158.604.604 0 01.183.426v23.686a5.145 5.145 0 01-.63 2.456 11.922 11.922 0 01-4.309 4.28c-3.328 2.046-11.693 6.32-11.779 6.363a.493.493 0 01-.216.06zm1.013-12.42a1.71 1.71 0 00-.539 1.216v9.873c2.112-1.091 8.263-4.279 10.983-5.954a10.923 10.923 0 003.969-3.908c.328-.601.5-1.277.501-1.965v-23.19a2.938 2.938 0 00-1.557.89l-.043.055c-.175.223-.27.5-.269.786v7.417c.727-.355.873-.311 1.077-.186a.542.542 0 01.237.437v11.903c0 .175-.339 3.089-2.359 4.153a.498.498 0 01-.757-.401.506.506 0 01.299-.5c1.541-.807 1.821-3.274 1.821-3.307V33.952l-.539.284c-.856.491-1.858 1.419-1.89 1.894v4.628c0 .966-1.616 2.183-6.372 5.627l-.614.447c-.964.699-1.126 2.51-1.126 4.11v2.112a.5.5 0 11-1.002 0v-2.102c0-1.833.205-3.972 1.541-4.944l.614-.447c2.995-2.183 5.828-4.22 5.952-4.82V36.13c.037-1.125 1.529-2.216 2.154-2.614v-7.958a2.27 2.27 0 01.404-1.304v-1.2c-1.32.321-2.101 1.899-2.494 2.695-.07.142-.129.257-.178.35l-.027.049v11.706a.51.51 0 01-.146.36.499.499 0 01-.855-.36V26.792a2.67 2.67 0 00-1.255 1.408.489.489 0 00-.033.169v11.243a.5.5 0 11-1.001 0v-8.503c-.426.262-.889.633-.895.824v9.278a2.196 2.196 0 01-.538 1.457c-1.077 1.239-3.625 3.728-5.036 5.103l-.027-.022zm-8.095-35.23c-.291 0-.573-.103-.798-.29l-1.298-1.09h-.264a.496.496 0 01-.462-.314.517.517 0 01-.038-.194V9.158h-1.492a.5.5 0 01-.501-.507v-.246l-1.077-1.332a1.295 1.295 0 010-1.637l1.077-1.332v-.213a.5.5 0 01.501-.508h1.492v-1.51a.517.517 0 01.146-.36.505.505 0 01.354-.148h.237l1.315-1.092a1.265 1.265 0 011.615 0l1.315 1.092h.237c.132 0 .26.053.354.148a.511.511 0 01.147.36v1.51h1.486a.511.511 0 01.501.508v.235l1.077 1.337c.19.23.293.52.293.819 0 .3-.103.589-.293.819l-1.077 1.337v.234a.511.511 0 01-.147.36.497.497 0 01-.354.148H216.8v1.506a.511.511 0 01-.147.36.499.499 0 01-.354.148h-.237l-1.298 1.091a1.25 1.25 0 01-.824.235zm-1.864-2.363c.093.012.18.05.253.109l1.444 1.195a.261.261 0 00.334 0l1.438-1.179a.498.498 0 01.231-.103V8.65c0-.135.053-.264.147-.36a.497.497 0 01.354-.148h1.497a.514.514 0 01.119-.246l1.169-1.457a.265.265 0 000-.333l-1.169-1.468a.386.386 0 01-.124-.245h-1.492a.497.497 0 01-.354-.15.511.511 0 01-.147-.358V2.374a.498.498 0 01-.269-.142l-1.411-1.14a.27.27 0 00-.334 0L212.34 2.26a.501.501 0 01-.259.13v1.501a.5.5 0 01-.501.508h-1.524a.501.501 0 01-.14.273L208.78 6.09a.267.267 0 000 .338l1.158 1.447a.516.516 0 01.129.261h1.497a.511.511 0 01.501.508l.011 1.512zM10.379 29.051c-.909-.04-2.435-.06-4.578-.06-2.56 0-4.494.02-5.801.06v-.404a3.933 3.933 0 001.05-.163.715.715 0 00.453-.464c.093-.356.133-.724.118-1.092v-10.08a3.708 3.708 0 00-.118-1.092.734.734 0 00-.453-.474A3.949 3.949 0 000 15.107v-.404c1.307.022 3.24.033 5.8.033 1.961 0 3.355-.02 4.18-.06a23.158 23.158 0 00-.14 2.39c-.005.42.014.839.06 1.256h-.458a9.572 9.572 0 00-.361-1.949 1.633 1.633 0 00-.738-.933 3.312 3.312 0 00-1.578-.295H5.1a3.582 3.582 0 00-1.05.11.688.688 0 00-.453.458 3.709 3.709 0 00-.119 1.091v4.781H4.8c.387.024.77-.095 1.077-.333a1.64 1.64 0 00.512-.791c.1-.376.17-.76.21-1.146l.06-.404h.457c-.04.567-.06 1.202-.06 1.905v1.015c0 .687.04 1.646.12 2.876h-.459c0-.095-.04-.422-.118-.982a2.01 2.01 0 00-.539-1.267 1.746 1.746 0 00-1.25-.425H3.48v4.862c-.015.368.025.736.119 1.092a.7.7 0 00.452.459c.343.088.697.125 1.05.109h1.46a4.258 4.258 0 001.89-.333A2 2 0 009.4 27.13a8.215 8.215 0 00.441-2.183h.458c-.049.502-.07 1.007-.065 1.512 0 .768.049 1.632.146 2.592zm11.101-.731c.208.167.458.273.721.306v.425c-.8-.054-1.339-.081-1.615-.081-.36 0-1.1.027-2.22.081v-.425a.81.81 0 00.453-.11.32.32 0 00.172-.272.462.462 0 00-.118-.306l-2.3-3.405a2.1 2.1 0 00-.652-.677 2.095 2.095 0 00-.84-.219v3.526c-.043.405.06.812.29 1.146a1.369 1.369 0 001.03.317v.425a57.946 57.946 0 00-2.22-.081c-.358 0-1.165.027-2.418.081v-.425c.413.037.825-.075 1.164-.317a1.517 1.517 0 00.339-1.146v-11.57a2.205 2.205 0 00-.34-1.36 1.44 1.44 0 00-1.179-.425v-.425c.427.04.84.06 1.239.06a6.447 6.447 0 002.095-.284v10.053c.335-.04.662-.131.97-.273.277-.139.53-.323.748-.546l1.481-1.56c.335-.276.562-.663.641-1.092a.55.55 0 00-.409-.519 2.804 2.804 0 00-1.077-.175v-.436c.933.055 1.687.082 2.262.082.574 0 1.154-.027 1.74-.082v.404a2.774 2.774 0 00-1.8.955l-2.455 2.598 3.619 5.004c.196.276.424.527.679.748zm10.524-1.457c-.048.475.062.954.312 1.359a1.436 1.436 0 001.18.425v.426a12.81 12.81 0 00-1.239-.06 6.443 6.443 0 00-2.079.284V26.9a3.724 3.724 0 01-1.363 1.845 3.388 3.388 0 01-1.885.589 2.698 2.698 0 01-2.079-.77 2.347 2.347 0 01-.511-1.031 7.19 7.19 0 01-.151-1.637V20.82a2.206 2.206 0 00-.34-1.359 1.442 1.442 0 00-1.18-.426v-.425c.414.04.827.06 1.24.06a6.449 6.449 0 002.079-.284v7.968a6.96 6.96 0 00.091 1.244c.05.3.195.575.415.78.288.227.65.336 1.013.307.5.002.987-.17 1.378-.486.432-.35.766-.806.97-1.326.238-.589.358-1.22.35-1.856V20.82a2.205 2.205 0 00-.34-1.359 1.441 1.441 0 00-1.179-.426v-.425c.413.04.826.06 1.239.06a6.45 6.45 0 002.079-.284v8.476zm18.237 1.446c.343.245.762.358 1.18.317v.425a70.28 70.28 0 00-2.402-.082c-.374 0-1.12.028-2.24.082v-.425a1.362 1.362 0 001.028-.317c.23-.334.333-.741.29-1.146v-5.878a6.969 6.969 0 00-.09-1.244c-.051-.3-.2-.575-.421-.78a1.452 1.452 0 00-1.013-.306 2.18 2.18 0 00-1.378.485c-.432.35-.766.806-.97 1.326a4.787 4.787 0 00-.35 1.856v4.52a1.53 1.53 0 00.34 1.145c.342.246.76.358 1.179.317v.425a70.19 70.19 0 00-2.402-.081c-.374 0-1.12.027-2.24.081v-.425a1.36 1.36 0 001.028-.317 1.71 1.71 0 00.29-1.146v-5.856a6.969 6.969 0 00-.059-1.223c-.05-.3-.198-.574-.42-.78a1.452 1.452 0 00-1.007-.306 2.18 2.18 0 00-1.379.486 3.2 3.2 0 00-.97 1.337 4.859 4.859 0 00-.35 1.867v4.497c-.042.405.062.812.291 1.146a1.375 1.375 0 001.03.317v.425a57.58 57.58 0 00-2.241-.082c-.374 0-1.175.028-2.403.082v-.425c.418.04.837-.072 1.18-.317a1.523 1.523 0 00.34-1.146V20.82a2.205 2.205 0 00-.34-1.359 1.441 1.441 0 00-1.18-.426v-.425c.428.04.84.06 1.24.06a6.449 6.449 0 002.078-.284v2.39a3.817 3.817 0 011.363-1.855 3.346 3.346 0 011.917-.6 2.698 2.698 0 012.063.78 2.75 2.75 0 01.62 1.637 3.442 3.442 0 011.266-1.754 3.368 3.368 0 012.051-.636 2.698 2.698 0 012.085.753c.253.295.429.65.512 1.031a7.19 7.19 0 01.15 1.638v5.414a1.531 1.531 0 00.334 1.124zm10.741-1.692a4.032 4.032 0 01-1.352 1.916 3.684 3.684 0 01-2.392.802 4.5 4.5 0 01-2.461-.66 4.23 4.23 0 01-1.616-1.845 6.46 6.46 0 01-.538-2.729 7.676 7.676 0 01.538-3.062c.325-.806.873-1.5 1.578-1.997a4.108 4.108 0 012.38-.699 3.475 3.475 0 011.504.235c.479.189.91.481 1.265.857.647.727.97 1.846.97 3.356h-6.216a12.49 12.49 0 00-.059 1.3c-.017.798.13 1.591.43 2.33a3.707 3.707 0 001.143 1.528 2.43 2.43 0 001.492.545 3.12 3.12 0 001.702-.463c.554-.387.985-.93 1.239-1.561l.393.147zm-5.505-6.97a5.51 5.51 0 00-.85 2.73h4.362a5.885 5.885 0 00-.453-2.637 1.575 1.575 0 00-.564-.74 1.543 1.543 0 00-.879-.286 1.975 1.975 0 00-1.616.934zm15.786-.545c.261.287.447.636.538 1.015.121.537.176 1.087.162 1.637v5.414a1.534 1.534 0 00.34 1.147c.342.245.761.357 1.179.316v.426a70.271 70.271 0 00-2.402-.082c-.374 0-1.12.027-2.24.082v-.426a1.362 1.362 0 001.028-.316 1.71 1.71 0 00.29-1.147v-5.883a3.753 3.753 0 00-.317-1.736 1.346 1.346 0 00-.564-.49 1.326 1.326 0 00-.734-.11 2.35 2.35 0 00-1.46.486 3.14 3.14 0 00-.99 1.326 4.84 4.84 0 00-.35 1.878v4.497c-.043.405.06.812.29 1.146a1.373 1.373 0 001.029.316v.426a57.714 57.714 0 00-2.24-.082c-.374 0-1.175.027-2.403.082v-.426c.418.042.837-.07 1.18-.316a1.524 1.524 0 00.339-1.146V20.82a2.205 2.205 0 00-.34-1.359 1.442 1.442 0 00-1.18-.425v-.426c.428.04.841.06 1.24.06a6.452 6.452 0 002.079-.284v2.39c.253-.76.74-1.418 1.39-1.877a3.61 3.61 0 012.008-.578 2.757 2.757 0 012.128.78zm6.42 8.067a1.533 1.533 0 00.34 1.146c.342.245.761.357 1.179.316v.426a70.07 70.07 0 00-2.418-.082c-.385 0-1.19.027-2.419.082v-.426c.418.041.837-.07 1.18-.316a1.525 1.525 0 00.34-1.146V20.82a2.206 2.206 0 00-.34-1.359 1.441 1.441 0 00-1.18-.425v-.426c.428.04.84.06 1.239.06a6.446 6.446 0 002.079-.284v8.782zm-.124-13.235a1.28 1.28 0 01-.55 2.105 1.24 1.24 0 01-.843-.05 1.262 1.262 0 01-.62-.58 1.287 1.287 0 01.319-1.577 1.245 1.245 0 011.694.102zm9.986 5.042a1.83 1.83 0 01.943 1.561 1.14 1.14 0 01-.302.83 1.025 1.025 0 01-.76.305 1.16 1.16 0 01-.78-.272.917.917 0 01-.318-.743 1.101 1.101 0 01.242-.72c.155-.19.364-.328.598-.393a1.513 1.513 0 00-.71-.606 2.498 2.498 0 00-1.078-.245 2.264 2.264 0 00-1.379.474c-.5.413-.874.962-1.077 1.583a8.343 8.343 0 00-.42 2.91c0 1.673.267 2.892.803 3.656.222.353.53.644.893.845.364.2.772.304 1.186.3A2.92 2.92 0 0087 27.955a3.691 3.691 0 001.271-1.582l.383.141a4.224 4.224 0 01-1.271 1.987 3.482 3.482 0 01-2.413.83 4.08 4.08 0 01-2.252-.65 4.387 4.387 0 01-1.615-1.877 6.584 6.584 0 01-.582-2.85 6.883 6.883 0 01.592-2.92 4.771 4.771 0 011.649-1.997 4.21 4.21 0 012.418-.72 4.107 4.107 0 012.364.66zm4.82 9.77h2.198a2.458 2.458 0 001.939-.78 4.194 4.194 0 00.84-2.484h.458c0 1.768.027 2.983.08 3.646a73.048 73.048 0 00-3.721-.082c-1.268 0-2.614.034-4.04.103l5.78-10.233h-2.182a2.465 2.465 0 00-1.993.759 4.406 4.406 0 00-.792 2.505h-.447c0-1.768-.026-2.983-.08-3.646 1.052.055 2.292.082 3.721.082a83.64 83.64 0 004.04-.104l-5.8 10.234zm15.938-9.644c.261.287.447.636.539 1.015.12.537.175 1.087.161 1.637v5.414a1.521 1.521 0 00.339 1.146c.343.246.762.358 1.18.317v.426a70.306 70.306 0 00-2.402-.082c-.374 0-1.121.027-2.241.082v-.426a1.36 1.36 0 001.029-.316c.23-.335.333-.742.291-1.147v-5.883a3.761 3.761 0 00-.318-1.736 1.347 1.347 0 00-.564-.49 1.324 1.324 0 00-.734-.11 2.352 2.352 0 00-1.46.486 3.14 3.14 0 00-.991 1.326 4.843 4.843 0 00-.35 1.878v4.497a1.71 1.71 0 00.291 1.146 1.374 1.374 0 001.029.316v.426a57.739 57.739 0 00-2.241-.082c-.373 0-1.174.027-2.402.082v-.426c.418.042.837-.07 1.18-.316a1.526 1.526 0 00.339-1.146V20.82a2.211 2.211 0 00-.339-1.359 1.428 1.428 0 00-1.18-.426v-.425c.427.04.84.06 1.239.06a6.456 6.456 0 002.079-.284v2.39c.253-.76.74-1.418 1.389-1.877a3.612 3.612 0 012.009-.578 2.752 2.752 0 012.128.78zm12.221-.492v.405a1.12 1.12 0 00-.711.365 3.23 3.23 0 00-.593 1.054l-3.28 8.732-.678 1.752a3.623 3.623 0 01-.862 1.419c-.205.191-.453.33-.722.404-.273.08-.556.12-.84.12a1.455 1.455 0 01-.98-.322 1.103 1.103 0 01-.367-.884 1.104 1.104 0 01.28-.78 1.036 1.036 0 01.798-.312c.266-.01.527.079.732.251a.87.87 0 01.291.699.976.976 0 01-.539.911c.039.009.08.009.119 0 .718 0 1.285-.527 1.702-1.582l.7-1.845-3.646-8.803a2.313 2.313 0 00-.679-.912c-.2-.14-.436-.218-.679-.224v-.447c.65.085 1.305.125 1.961.12.668 0 1.535-.04 2.601-.12v.425a3.292 3.292 0 00-1.05.12.554.554 0 00-.329.59c.015.344.097.682.243.993l2.402 6.042 2.219-5.856a3 3 0 00.221-.933.761.761 0 00-.361-.688 2.662 2.662 0 00-1.142-.284v-.41c.718.04 1.279.06 1.681.06.581.004 1.084-.016 1.508-.06zm16.282-2.117c1.174 1.197 1.761 2.936 1.761 5.218a8.316 8.316 0 01-.861 3.87 6.039 6.039 0 01-2.489 2.564 7.914 7.914 0 01-3.888.9h-1.158a53.608 53.608 0 00-1.616-.037c-1.077 0-1.903.02-2.478.06v-.404a3.924 3.924 0 001.05-.164.719.719 0 00.453-.464c.093-.356.133-.724.118-1.091V16.848a3.717 3.717 0 00-.118-1.092.724.724 0 00-.453-.464 3.94 3.94 0 00-1.05-.163v-.404c.467.04 1.113.06 1.939.06h1.702a79.97 79.97 0 011.821-.038c2.326-.03 4.082.553 5.267 1.746zm-6.732-1.288a.8.8 0 00-.431.508 3.752 3.752 0 00-.119 1.091v10.14c-.014.368.026.736.119 1.092a.802.802 0 00.431.508c.303.11.625.159.948.142a6.158 6.158 0 003.339-.78 4.13 4.13 0 001.697-2.255 12.58 12.58 0 00.49-3.82 11.218 11.218 0 00-.539-3.82 4.129 4.129 0 00-1.75-2.184 6.308 6.308 0 00-3.27-.731 2.34 2.34 0 00-.932.115l.017-.006zm18.344 4.492c.833.913 1.25 2.294 1.25 4.142 0 1.849-.417 3.228-1.25 4.137a4.675 4.675 0 01-3.291 1.36 4.673 4.673 0 01-3.29-1.36c-.841-.906-1.261-2.285-1.261-4.137 0-1.852.417-3.232 1.25-4.142a4.654 4.654 0 013.291-1.368c1.231 0 2.414.491 3.291 1.368h.01zm-5.192.284c-.467.83-.7 2.115-.7 3.858 0 1.743.233 3.027.7 3.853.166.37.434.683.771.903a2.07 2.07 0 002.261 0c.337-.22.604-.533.771-.903.466-.822.7-2.106.7-3.853 0-1.746-.23-3.032-.69-3.858a2.096 2.096 0 00-.769-.908 2.063 2.063 0 00-2.264 0 2.11 2.11 0 00-.769.908h-.011zm23.661 8.328c.343.245.762.358 1.179.317v.425a70.225 70.225 0 00-2.402-.082c-.373 0-1.12.028-2.24.082v-.425a1.365 1.365 0 001.028-.317c.23-.334.334-.741.291-1.146v-5.878a7.005 7.005 0 00-.091-1.244 1.382 1.382 0 00-.42-.78 1.454 1.454 0 00-1.013-.306 2.18 2.18 0 00-1.379.485 3.209 3.209 0 00-.969 1.326 4.772 4.772 0 00-.35 1.856v4.52c-.024.204-.006.41.053.608.058.197.155.38.286.537.343.246.762.358 1.179.317v.425a70.127 70.127 0 00-2.402-.081c-.373 0-1.12.027-2.24.081v-.425a1.361 1.361 0 001.028-.317c.23-.334.334-.74.291-1.146v-5.856a7.005 7.005 0 00-.091-1.244 1.382 1.382 0 00-.42-.78 1.453 1.453 0 00-1.008-.306 2.18 2.18 0 00-1.378.485 3.2 3.2 0 00-.97 1.337 4.865 4.865 0 00-.35 1.867v4.497a1.71 1.71 0 00.291 1.146 1.377 1.377 0 001.029.317v.425a57.594 57.594 0 00-2.241-.081c-.373 0-1.174.027-2.402.081v-.425a1.73 1.73 0 001.179-.317 1.526 1.526 0 00.34-1.146v-6.32a2.205 2.205 0 00-.34-1.359 1.433 1.433 0 00-1.179-.426v-.425c.427.04.84.06 1.239.06a6.453 6.453 0 002.079-.284v2.39a3.818 3.818 0 011.362-1.855 3.348 3.348 0 011.918-.6 2.7 2.7 0 012.095.78c.384.46.608 1.035.635 1.637a3.447 3.447 0 011.267-1.754 3.368 3.368 0 012.051-.636 2.697 2.697 0 012.069.753c.253.295.428.65.511 1.031a7.15 7.15 0 01.151 1.638v5.414a1.54 1.54 0 00.334 1.124zM3.48 47.575v3.645c-.019.371.036.742.161 1.092a.867.867 0 00.539.464c.425.103.86.158 1.298.163v.404a54.61 54.61 0 00-2.941-.06c-1.146 0-1.998.02-2.558.06v-.404a3.934 3.934 0 001.05-.163.715.715 0 00.452-.464c.094-.356.134-.724.119-1.092V41.173a3.71 3.71 0 00-.119-1.092.733.733 0 00-.452-.464A3.955 3.955 0 000 39.427v-.404c.56.04 1.374.06 2.44.06h3.016c1.559 0 2.752.363 3.582 1.091a3.68 3.68 0 011.239 2.909c0 .742-.167 1.474-.49 2.14a4.025 4.025 0 01-1.66 1.713 6.1 6.1 0 01-3.107.688l-1.54-.05zm.538-8.007a.793.793 0 00-.43.508 3.736 3.736 0 00-.12 1.091v6.004h1.353c1.307 0 2.204-.355 2.693-1.065.538-.846.8-1.843.748-2.848 0-1.31-.256-2.276-.77-2.898-.513-.623-1.357-.934-2.531-.934a2.343 2.343 0 00-.932.142h-.01zm15.372 4.448c.833.913 1.25 2.294 1.25 4.142 0 1.849-.417 3.228-1.25 4.137a4.318 4.318 0 01-1.5 1.04 4.26 4.26 0 01-1.791.32 4.26 4.26 0 01-1.79-.32 4.308 4.308 0 01-1.5-1.04c-.834-.906-1.25-2.285-1.25-4.137 0-1.852.416-3.232 1.25-4.142a4.27 4.27 0 011.497-1.048 4.222 4.222 0 011.793-.322 4.222 4.222 0 011.793.322 4.269 4.269 0 011.498 1.048zm-5.192.284c-.467.83-.7 2.116-.7 3.858 0 1.743.233 3.028.7 3.854.166.37.434.682.77.902a2.07 2.07 0 002.261 0 2.11 2.11 0 00.771-.902c.467-.823.7-2.107.7-3.854 0-1.746-.233-3.032-.7-3.858a2.104 2.104 0 00-.769-.908 2.064 2.064 0 00-2.264 0 2.104 2.104 0 00-.77.908zm23.682 8.334c.343.245.762.358 1.18.316v.426a70.271 70.271 0 00-2.403-.082c-.373 0-1.12.027-2.24.082v-.437a1.364 1.364 0 001.029-.316c.23-.334.333-.741.29-1.146v-5.845a6.96 6.96 0 00-.091-1.245c-.05-.3-.199-.575-.42-.78a1.452 1.452 0 00-1.013-.306 2.18 2.18 0 00-1.379.486 3.212 3.212 0 00-.97 1.326 4.787 4.787 0 00-.35 1.856v4.519a1.531 1.531 0 00.34 1.146c.343.245.762.358 1.18.316v.426a70.271 70.271 0 00-2.403-.082c-.373 0-1.12.027-2.24.082v-.437a1.364 1.364 0 001.029-.316c.23-.334.333-.741.29-1.146v-5.845a6.963 6.963 0 00-.086-1.25c-.05-.3-.198-.575-.42-.78a1.451 1.451 0 00-1.007-.306c-.5-.002-.987.169-1.379.485a3.202 3.202 0 00-.964 1.343 4.859 4.859 0 00-.35 1.866v4.498c-.043.405.06.812.29 1.146a1.373 1.373 0 001.03.305v.426a57.58 57.58 0 00-2.241-.082c-.374 0-1.174.027-2.402.082v-.426c.418.042.836-.07 1.18-.316a1.523 1.523 0 00.339-1.146V45.14a2.205 2.205 0 00-.34-1.359 1.44 1.44 0 00-1.18-.425v-.426c.428.04.84.06 1.24.06a6.446 6.446 0 002.078-.284v2.39a3.816 3.816 0 011.363-1.855 3.346 3.346 0 011.918-.6 2.7 2.7 0 012.079.77 2.75 2.75 0 01.619 1.637 3.442 3.442 0 011.267-1.755 3.368 3.368 0 012.05-.636 2.726 2.726 0 012.08.77c.253.295.429.65.512 1.031.112.538.163 1.088.15 1.637v5.414a1.53 1.53 0 00.345 1.125zm10.255-8.618c.833.913 1.25 2.294 1.25 4.143 0 1.848-.417 3.227-1.25 4.136a4.675 4.675 0 01-3.29 1.36 4.675 4.675 0 01-3.292-1.36c-.833-.906-1.25-2.284-1.25-4.136 0-1.852.417-3.233 1.25-4.143a4.655 4.655 0 013.291-1.368c1.232 0 2.414.492 3.291 1.368zm-5.192.284c-.467.83-.7 2.116-.7 3.859 0 1.742.233 3.027.7 3.853.166.37.434.682.771.902a2.07 2.07 0 002.26 0 2.11 2.11 0 00.771-.902c.467-.823.7-2.107.7-3.853 0-1.747-.233-3.033-.7-3.859a2.104 2.104 0 00-.769-.908 2.064 2.064 0 00-2.264 0 2.104 2.104 0 00-.77.908zm15.28-.999c.278.154.512.379.677.653.166.274.257.587.266.908a1.138 1.138 0 01-.302.83 1.029 1.029 0 01-.76.305 1.159 1.159 0 01-.78-.273.915.915 0 01-.318-.742 1.1 1.1 0 01.242-.72c.154-.191.363-.329.598-.393a1.513 1.513 0 00-.71-.606 2.498 2.498 0 00-1.078-.246 2.265 2.265 0 00-1.379.475 3.43 3.43 0 00-1.077 1.583 8.341 8.341 0 00-.42 2.909c0 1.673.267 2.892.802 3.656.223.354.53.645.894.845.364.2.771.304 1.185.301a2.919 2.919 0 001.616-.507 3.69 3.69 0 001.271-1.583l.383.142a4.224 4.224 0 01-1.271 1.987 3.482 3.482 0 01-2.413.83 4.08 4.08 0 01-2.252-.65 4.387 4.387 0 01-1.616-1.878 6.585 6.585 0 01-.581-2.849 6.883 6.883 0 01.592-2.92 4.763 4.763 0 011.648-1.997 4.21 4.21 0 012.419-.72 4.107 4.107 0 012.364.66zm11.699-.366v.404a1.12 1.12 0 00-.711.366c-.262.31-.463.667-.593 1.053l-3.28 8.733-.678 1.762a3.615 3.615 0 01-.862 1.42c-.205.19-.453.33-.722.403-.273.08-.556.12-.84.12a1.458 1.458 0 01-.98-.322 1.092 1.092 0 01-.383-.89 1.1 1.1 0 01.28-.78 1.033 1.033 0 01.781-.294c.267-.011.528.078.733.25a.872.872 0 01.29.7.992.992 0 01-.137.535.975.975 0 01-.401.376c.039.008.08.008.118 0 .719 0 1.286-.528 1.702-1.583l.7-1.845-3.619-8.858a2.307 2.307 0 00-.678-.911c-.2-.14-.436-.218-.68-.224v-.425c.65.085 1.306.125 1.961.12.668 0 1.535-.04 2.602-.12v.425a3.292 3.292 0 00-1.05.12.542.542 0 00-.329.59c.015.344.097.682.242.993l2.403 6.042 2.219-5.856c.122-.297.197-.612.22-.934a.761.761 0 00-.36-.687 2.663 2.663 0 00-1.142-.284v-.404c.718.04 1.278.06 1.68.06.585.004 1.09-.015 1.514-.055zm11.171-3.945c.37.14.722.323 1.05.545.198.153.432.25.679.284a.31.31 0 00.28-.213 2.45 2.45 0 00.161-.676h.458c-.068.782-.102 2.16-.102 4.136h-.458a5.29 5.29 0 00-.932-2.767 2.74 2.74 0 00-1.034-.863 2.7 2.7 0 00-1.314-.26 2.418 2.418 0 00-1.783.665 2.24 2.24 0 00-.679 1.692c-.01.47.11.934.35 1.337.233.378.535.708.89.972.358.269.872.613 1.54 1.031l.581.366c.692.42 1.357.884 1.993 1.386.48.387.884.863 1.19 1.403.304.551.457 1.175.442 1.806a3.522 3.522 0 01-.27 1.567 3.48 3.48 0 01-.931 1.282 4.575 4.575 0 01-3.038 1.004 5.086 5.086 0 01-1.572-.202 5.547 5.547 0 01-1.17-.545 1.438 1.438 0 00-.678-.284.304.304 0 00-.28.212c-.086.217-.14.445-.161.677h-.458c.053-.727.08-2.348.08-4.863h.458a6.683 6.683 0 001.002 3.324c.294.425.692.767 1.154.99a2.94 2.94 0 001.485.287 2.668 2.668 0 001.842-.715 2.579 2.579 0 00.76-2.014 2.705 2.705 0 00-.76-1.926 11.99 11.99 0 00-2.37-1.785 22.238 22.238 0 01-1.912-1.299 4.647 4.647 0 01-1.18-1.337 3.696 3.696 0 01-.457-1.877 3.22 3.22 0 01.238-1.43 3.18 3.18 0 01.84-1.173 4.626 4.626 0 014.072-.71l-.006-.027zm13.163 4.246a3.852 3.852 0 011.33 1.724c.342.867.505 1.796.48 2.73a8.534 8.534 0 01-.49 2.919 5.006 5.006 0 01-1.519 2.183c-.73.582-1.64.884-2.57.852a3.09 3.09 0 01-1.378-.306 2.458 2.458 0 01-.959-.791v2.592a1.275 1.275 0 00.48 1.146c.44.239.939.348 1.438.317v.425h-.458a97.717 97.717 0 00-2.418-.06c-.374 0-1.092.028-2.155.082v-.426c.364.038.73-.058 1.029-.273a1.32 1.32 0 00.29-.982V45.14a2.205 2.205 0 00-.339-1.358 1.435 1.435 0 00-1.18-.426v-.426c.414.04.827.06 1.24.06a6.446 6.446 0 002.079-.284v2.15a3.605 3.605 0 011.282-1.637 3.447 3.447 0 013.83 0l-.012.017zm-.129 4.72c0-3.132-.774-4.7-2.321-4.704a2.338 2.338 0 00-1.616.66 3.774 3.774 0 00-1.04 1.894v6.086c.175.383.45.71.797.944.39.244.84.368 1.299.355 1.92 0 2.881-1.743 2.881-5.229v-.005zm11.65-3.94c.833.913 1.249 2.294 1.249 4.143 0 1.848-.416 3.227-1.249 4.136a4.677 4.677 0 01-3.291 1.36 4.675 4.675 0 01-3.291-1.36c-.833-.906-1.25-2.284-1.25-4.136 0-1.852.417-3.233 1.25-4.143a4.655 4.655 0 013.291-1.368c1.232 0 2.414.492 3.291 1.368zm-5.193.284c-.466.83-.7 2.116-.7 3.859 0 1.742.234 3.027.7 3.853.167.37.434.682.772.902a2.069 2.069 0 002.26 0c.337-.22.605-.533.771-.902.467-.823.7-2.107.7-3.853 0-1.747-.233-3.033-.7-3.859a2.109 2.109 0 00-.769-.908 2.062 2.062 0 00-2.264 0 2.104 2.104 0 00-.77.908zm13.18-1.648v.605l-3.14 2.778v-.19l-3.178 2.8v-.618l3.178-2.794v.202l3.14-2.783zm-2.24 8.836c-.024.204-.006.411.053.608.058.197.155.38.286.538a1.73 1.73 0 001.179.316v.426a69.901 69.901 0 00-2.418-.082c-.384 0-1.19.027-2.418.082v-.437c.418.042.836-.07 1.179-.316a1.523 1.523 0 00.34-1.146V39.912a2.205 2.205 0 00-.34-1.36 1.434 1.434 0 00-1.179-.425v-.425c.413.04.826.06 1.239.06a6.453 6.453 0 002.079-.284v14.01zm11.025-.546a4.035 4.035 0 01-1.363 1.91 3.684 3.684 0 01-2.391.802 4.505 4.505 0 01-2.457-.66 4.229 4.229 0 01-1.615-1.845 6.444 6.444 0 01-.539-2.729 7.664 7.664 0 01.539-3.061 4.507 4.507 0 011.615-2.009 4.11 4.11 0 012.381-.698 3.48 3.48 0 011.504.235c.478.188.91.48 1.265.856.646.728.969 1.847.969 3.357h-6.253c-.042.431-.062.865-.059 1.299a5.826 5.826 0 00.43 2.33 3.708 3.708 0 001.142 1.528c.424.345.949.537 1.492.546a3.11 3.11 0 001.702-.464c.555-.386.985-.93 1.239-1.56l.399.163zm-5.521-6.975a5.508 5.508 0 00-.84 2.756h4.362a5.875 5.875 0 00-.452-2.636 1.577 1.577 0 00-.561-.758 1.543 1.543 0 00-.888-.295 1.981 1.981 0 00-1.621.933zm14.279-.666a1.826 1.826 0 01.942 1.561 1.13 1.13 0 01-.301.83 1.034 1.034 0 01-.76.305 1.16 1.16 0 01-.781-.273.92.92 0 01-.318-.742 1.097 1.097 0 01.254-.72 1.17 1.17 0 01.597-.393 1.512 1.512 0 00-.711-.606 2.493 2.493 0 00-1.077-.245 2.268 2.268 0 00-1.379.474c-.5.413-.874.962-1.077 1.583a8.346 8.346 0 00-.42 2.909c0 1.674.268 2.892.803 3.657.222.353.529.644.893.845.364.2.772.304 1.186.3a2.916 2.916 0 001.615-.507 3.692 3.692 0 001.272-1.583l.382.142a4.226 4.226 0 01-1.271 1.987 3.483 3.483 0 01-2.429.83 4.082 4.082 0 01-2.252-.65 4.39 4.39 0 01-1.615-1.877 6.572 6.572 0 01-.582-2.85 6.881 6.881 0 01.592-2.92 4.765 4.765 0 011.702-1.986 4.21 4.21 0 012.419-.72 4.108 4.108 0 012.316.65zm4.821 9.764h2.197a2.483 2.483 0 001.939-.78c.54-.712.839-1.58.851-2.478h.458c0 1.768.027 2.983.081 3.646a73.064 73.064 0 00-3.722-.082c-1.267 0-2.614.034-4.039.103l5.779-10.233h-2.198a2.462 2.462 0 00-1.08.153 2.494 2.494 0 00-.913.606 4.407 4.407 0 00-.791 2.505h-.458c0-1.768-.027-2.984-.081-3.646a72.59 72.59 0 003.722.082c1.267 0 2.614-.035 4.039-.104l-5.784 10.228zm15.942-9.644c.262.287.447.636.539 1.016.121.536.175 1.086.162 1.637v5.414c-.024.204-.006.411.053.608.058.197.155.38.286.538.343.245.762.358 1.18.316v.426a70.514 70.514 0 00-2.403-.082c-.373 0-1.12.028-2.24.082v-.436a1.361 1.361 0 001.028-.317c.23-.334.334-.741.291-1.146v-5.845a3.747 3.747 0 00-.317-1.736 1.353 1.353 0 00-.564-.49 1.325 1.325 0 00-.734-.11 2.35 2.35 0 00-1.46.486 3.14 3.14 0 00-.991 1.326 4.842 4.842 0 00-.35 1.877v4.497c-.043.405.061.812.291 1.146a1.37 1.37 0 001.028.317v.426a57.569 57.569 0 00-2.24-.082c-.374 0-1.174.027-2.402.082v-.431c.417.04.836-.072 1.179-.317a1.523 1.523 0 00.339-1.146V45.14a2.197 2.197 0 00-.339-1.36 1.44 1.44 0 00-1.179-.425v-.426c.427.04.84.06 1.238.06a6.446 6.446 0 002.079-.284v2.39c.253-.76.74-1.418 1.39-1.877a3.612 3.612 0 012.009-.578 2.774 2.774 0 012.127.78zm11.78 7.521a4.033 4.033 0 01-1.352 1.916 3.684 3.684 0 01-2.391.802 4.503 4.503 0 01-2.462-.66 4.23 4.23 0 01-1.616-1.845 6.458 6.458 0 01-.538-2.729 7.682 7.682 0 01.538-3.062c.326-.806.874-1.5 1.578-1.997a4.11 4.11 0 012.381-.699 3.48 3.48 0 012.768 1.092c.647.727.97 1.846.97 3.356h-6.216a12.52 12.52 0 00-.059 1.3 5.827 5.827 0 00.431 2.33 3.707 3.707 0 001.142 1.528c.424.344.949.536 1.492.545a3.12 3.12 0 001.702-.464 3.49 3.49 0 001.239-1.56l.393.147zm-5.499-6.975a5.519 5.519 0 00-.841 2.756h4.363a5.876 5.876 0 00-.452-2.636 1.575 1.575 0 00-.563-.76 1.543 1.543 0 00-.891-.293 1.969 1.969 0 00-1.616.933zm5.837 12.913a2.166 2.166 0 001.068-.3c.324-.191.595-.464.785-.791a5.323 5.323 0 00.63-2.817v-7.831a2.198 2.198 0 00-.339-1.36 1.43 1.43 0 00-1.179-.425v-.426c.413.04.825.06 1.238.06a6.443 6.443 0 002.079-.284v8.334c0 2.242-.479 3.879-1.438 4.912-.363.38-.794.686-1.271.9a3.727 3.727 0 01-1.573.334v-.306zm4.099-18.627a1.285 1.285 0 01.133 1.604 1.257 1.257 0 01-.684.501 1.24 1.24 0 01-.842-.05 1.265 1.265 0 01-.62-.58 1.29 1.29 0 01-.118-.846c.058-.287.212-.546.437-.73a1.243 1.243 0 011.694.101zm101.065-23.146l-7.982 13.475h3.921a4.023 4.023 0 001.89-.355c.445-.25.782-.659.948-1.146a9.222 9.222 0 00.442-2.292h.458c-.04.418-.059.964-.059 1.637 0 .772.046 1.636.14 2.593-.988-.04-2.649-.06-4.983-.06-2.333 0-3.98.02-4.939.06v-.404l8.042-13.475h-3.9a4.028 4.028 0 00-1.89.354c-.445.251-.782.66-.948 1.147a9.176 9.176 0 00-.442 2.292h-.441c.039-.433.059-.979.059-1.637 0-.772-.047-1.636-.14-2.593.987.04 2.648.06 4.982.06 2.266 0 3.881-.02 4.847-.06l-.005.404zm9.689 5.087a.952.952 0 01-.248-.71c.013-.32.082-.634.205-.928a2.922 2.922 0 00-.819.497 2.899 2.899 0 00-.538.677c.324.541.483 1.168.458 1.8.032.449-.038.898-.204 1.314a2.925 2.925 0 01-.755 1.088 3.838 3.838 0 01-2.542.802 5.484 5.484 0 00-1.002.71.99.99 0 00-.361.753c0 .433.32.65.959.65h2.499a3.957 3.957 0 012.251.6 2 2 0 01.682.777c.156.315.227.666.207 1.018a2.953 2.953 0 01-.619 1.807 4.28 4.28 0 01-1.832 1.304 7.448 7.448 0 01-2.897.508 6.976 6.976 0 01-2.909-.546 1.69 1.69 0 01-.835-.608 1.729 1.729 0 01-.334-.986 1.585 1.585 0 01.539-1.195 3.75 3.75 0 011.53-.791l.118.322c-.291.09-.54.283-.7.546a1.792 1.792 0 00-.259.955 1.585 1.585 0 00.83 1.43 4.326 4.326 0 002.23.496 5.46 5.46 0 002.639-.6c.338-.17.619-.436.811-.766.191-.33.283-.708.266-1.09a1.372 1.372 0 00-.49-1.102 3.001 3.001 0 00-1.81-.404h-1.481a4.885 4.885 0 01-1.891-.306 1.18 1.18 0 01-.553-.49 1.207 1.207 0 01-.158-.727 1.9 1.9 0 01.453-1.195 4.66 4.66 0 011.492-1.092 3.39 3.39 0 01-2.112-.933 3.004 3.004 0 01-.791-2.227 2.962 2.962 0 01.958-2.4 3.84 3.84 0 012.543-.803c1.253 0 2.179.35 2.779 1.053.254-.365.58-.672.959-.9a2.207 2.207 0 011.158-.355c.308-.014.61.096.84.306a1.138 1.138 0 01.318.873 1.108 1.108 0 01-.313.851.998.998 0 01-.689.284.841.841 0 01-.582-.267zm-3.232 3.536a4.29 4.29 0 00.41-2.183 4.29 4.29 0 00-.41-2.183 1.462 1.462 0 00-2.418 0 4.3 4.3 0 00-.409 2.183 4.3 4.3 0 00.409 2.183 1.48 1.48 0 001.209.638 1.46 1.46 0 001.209-.638zm13.094-4.934a1.48 1.48 0 01.512 1.135c.007.329-.104.649-.313.9a1.023 1.023 0 01-.829.378 1.071 1.071 0 01-.749-.284.992.992 0 01-.312-.77 1.253 1.253 0 01.679-1.091.484.484 0 00-.421-.202 1.99 1.99 0 00-1.421.616 4.29 4.29 0 00-1.002 1.512 4.496 4.496 0 00-.361 1.681v4.29a1.476 1.476 0 00.538 1.299 2.815 2.815 0 001.616.365v.426h-.479c-1.361-.04-2.228-.06-2.602-.06-.373 0-1.159.027-2.359.082v-.426c.418.042.837-.07 1.18-.316a1.52 1.52 0 00.339-1.146V20.82a2.204 2.204 0 00-.339-1.359 1.43 1.43 0 00-1.18-.426v-.425c.428.04.841.06 1.239.06a6.443 6.443 0 002.079-.284v2.532a4.804 4.804 0 011.126-1.817 2.439 2.439 0 011.772-.775 1.87 1.87 0 011.287.47zm9.162.901c.833.913 1.249 2.294 1.249 4.142 0 1.849-.416 3.228-1.249 4.137a4.677 4.677 0 01-3.291 1.36 4.677 4.677 0 01-3.291-1.36c-.833-.906-1.25-2.285-1.25-4.137 0-1.852.417-3.232 1.25-4.142a4.654 4.654 0 013.291-1.368c1.232 0 2.414.491 3.291 1.368zm-5.192.284c-.467.83-.701 2.115-.701 3.858 0 1.743.234 3.027.701 3.853.166.37.434.683.771.903a2.068 2.068 0 002.26 0c.337-.22.605-.533.771-.903.467-.822.7-2.106.7-3.853 0-1.746-.233-3.032-.7-3.858a2.11 2.11 0 00-.769-.908 2.063 2.063 0 00-2.264 0 2.096 2.096 0 00-.769.908zm23.661 8.329c.343.245.761.357 1.179.316v.425a70.225 70.225 0 00-2.402-.082c-.373 0-1.12.028-2.24.082v-.425a1.356 1.356 0 001.028-.317 1.7 1.7 0 00.291-1.146v-5.878a7.005 7.005 0 00-.091-1.244 1.383 1.383 0 00-.42-.78 1.453 1.453 0 00-1.008-.306c-.5-.002-.987.169-1.379.485a3.217 3.217 0 00-.969 1.327 4.772 4.772 0 00-.35 1.855v4.52a1.52 1.52 0 00.339 1.146c.343.245.762.357 1.18.316v.425a70.306 70.306 0 00-2.402-.081c-.374 0-1.121.027-2.241.081v-.425a1.356 1.356 0 001.029-.317 1.71 1.71 0 00.291-1.146v-5.856a7.006 7.006 0 00-.092-1.244 1.383 1.383 0 00-.42-.78 1.452 1.452 0 00-1.007-.306 2.178 2.178 0 00-1.379.485 3.2 3.2 0 00-.97 1.337 4.864 4.864 0 00-.35 1.867v4.497c-.043.405.061.812.291 1.146a1.37 1.37 0 001.029.317v.425a57.531 57.531 0 00-2.241-.081c-.373 0-1.174.027-2.402.081v-.425c.418.041.837-.071 1.18-.317a1.52 1.52 0 00.339-1.146v-6.32a2.211 2.211 0 00-.339-1.359 1.42 1.42 0 00-1.18-.426v-.425c.427.04.84.06 1.239.06a6.447 6.447 0 002.079-.284v2.39a3.814 3.814 0 011.363-1.855 3.342 3.342 0 011.922-.6 2.72 2.72 0 012.085.78c.378.462.596 1.037.619 1.637a3.445 3.445 0 011.268-1.772 3.368 3.368 0 012.066-.64 2.7 2.7 0 012.068.775c.254.295.43.65.512 1.032a7.2 7.2 0 01.151 1.637v5.414a1.521 1.521 0 00.334 1.124zm2.859.245a2.439 2.439 0 01-.479-.826 2.444 2.444 0 01-.129-.948 2.26 2.26 0 01.49-1.501 3.699 3.699 0 011.196-.933 14.325 14.325 0 011.772-.732 9.267 9.267 0 001.658-.71.974.974 0 00.539-.872v-1.256a2.107 2.107 0 00-.49-1.637 1.992 1.992 0 00-1.368-.437 2.402 2.402 0 00-1.982.731 1.225 1.225 0 01.937 1.239 1.022 1.022 0 01-.318.802 1.16 1.16 0 01-.819.296 1 1 0 01-.84-.355 1.345 1.345 0 01-.28-.862c-.01-.29.071-.575.232-.814.185-.247.409-.463.662-.638a4.111 4.111 0 011.218-.546 5.593 5.593 0 011.615-.224 3.331 3.331 0 012.37.77c.321.292.553.67.668 1.091.127.568.185 1.149.172 1.73v5.65c-.019.251.03.504.14.73a.546.546 0 00.48.224.945.945 0 00.447-.109 2.6 2.6 0 00.452-.316l.221.343a4.79 4.79 0 01-.889.579 2.206 2.206 0 01-.931.175 1.598 1.598 0 01-1.358-.492 2.088 2.088 0 01-.382-1.315 3.507 3.507 0 01-1.379 1.408 3.84 3.84 0 01-1.761.393 2.466 2.466 0 01-1.864-.638zm5.009-1.714v-3.973a1.386 1.386 0 01-.501.464c-.211.12-.538.282-.98.485-.424.175-.834.38-1.228.617a2.71 2.71 0 00-.808.802 2.274 2.274 0 00-.339 1.3c-.037.5.122.996.442 1.38a1.521 1.521 0 001.158.464c.886 0 1.642-.513 2.267-1.54h-.011zm13.595 1.359a1.425 1.425 0 001.18.426v.425c-.413-.04-.826-.06-1.239-.06a6.443 6.443 0 00-2.079.284V27.47a2.872 2.872 0 01-1.077 1.386 3.12 3.12 0 01-1.762.475 3.585 3.585 0 01-1.672-.33 3.632 3.632 0 01-1.338-1.067c-.719-.932-1.078-2.296-1.078-4.094a6.796 6.796 0 01.609-3.007 4.27 4.27 0 011.587-1.842 4.187 4.187 0 012.323-.663 3.25 3.25 0 011.39.295c.418.192.77.505 1.012.9v-3.93a2.197 2.197 0 00-.339-1.358 1.44 1.44 0 00-1.179-.426v-.425c.427.04.84.06 1.238.06a6.446 6.446 0 002.079-.284v13.68c-.035.48.086.957.345 1.359zm-2.984-.082c.45-.475.75-1.076.862-1.724v-6.037a2.18 2.18 0 00-.847-1.183 2.132 2.132 0 00-1.394-.377 2.25 2.25 0 00-1.177.359 2.29 2.29 0 00-.821.928c-.506.86-.752 2.113-.738 3.76.015 1.649.241 2.868.679 3.657.191.38.485.695.846.913.361.217.775.326 1.195.315a1.943 1.943 0 001.395-.61zm7.584.628h2.197a2.483 2.483 0 001.939-.78 4.181 4.181 0 00.84-2.484h.458c0 1.768.027 2.983.081 3.646a73.064 73.064 0 00-3.722-.082c-1.267 0-2.614.034-4.039.103l5.779-10.233h-2.198a2.464 2.464 0 00-1.08.153 2.495 2.495 0 00-.913.606 4.407 4.407 0 00-.791 2.505h-.458c0-1.768-.027-2.983-.081-3.646a72.59 72.59 0 003.722.082 83.62 83.62 0 004.039-.104l-5.773 10.234zm15.781-2.129a4.025 4.025 0 01-1.352 1.916 3.678 3.678 0 01-2.391.802 4.502 4.502 0 01-2.462-.66 4.231 4.231 0 01-1.615-1.845 6.444 6.444 0 01-.539-2.729 7.664 7.664 0 01.539-3.062 4.51 4.51 0 011.578-1.997 4.105 4.105 0 012.38-.699 3.475 3.475 0 011.504.235c.478.189.91.481 1.265.857.646.727.969 1.846.969 3.356h-6.215c-.043.432-.062.865-.059 1.3a5.826 5.826 0 00.43 2.33 3.719 3.719 0 001.142 1.528c.424.344.949.536 1.492.545.6.013 1.19-.148 1.702-.463.555-.387.986-.93 1.239-1.561l.393.147zm-5.521-6.97a5.514 5.514 0 00-.84 2.73h4.363a5.903 5.903 0 00-.452-2.637 1.577 1.577 0 00-.561-.757 1.543 1.543 0 00-.888-.296 1.96 1.96 0 00-.931.273c-.283.167-.52.404-.691.688zm15.803-.545c.262.287.447.636.539 1.015.121.537.175 1.087.162 1.637v5.414a1.51 1.51 0 00.053.609c.058.197.155.38.286.538.343.245.761.357 1.179.316v.426a70.225 70.225 0 00-2.402-.082c-.373 0-1.12.027-2.24.082v-.426a1.363 1.363 0 001.028-.316c.23-.335.334-.742.291-1.147v-5.883a3.761 3.761 0 00-.318-1.736 1.327 1.327 0 00-1.298-.6 2.349 2.349 0 00-1.459.486 3.13 3.13 0 00-.991 1.326 4.807 4.807 0 00-.35 1.878v4.497c-.043.405.06.812.29 1.146a1.37 1.37 0 001.029.316v.426a57.71 57.71 0 00-2.24-.082c-.374 0-1.175.027-2.403.082v-.426c.418.042.837-.07 1.18-.316.131-.158.228-.34.286-.538.059-.197.077-.404.053-.608V20.82a2.204 2.204 0 00-.339-1.359 1.43 1.43 0 00-1.18-.425v-.426c.428.04.841.06 1.239.06a6.449 6.449 0 002.079-.284v2.39a3.756 3.756 0 011.39-1.877 3.61 3.61 0 012.009-.578 2.774 2.774 0 012.127.78zm6.421 8.067c-.024.204-.006.41.053.608.058.197.155.38.286.538.343.245.761.357 1.179.316v.426a70.076 70.076 0 00-2.418-.082c-.384 0-1.19.027-2.418.082v-.426a1.73 1.73 0 001.179-.316 1.523 1.523 0 00.34-1.146V20.82a2.205 2.205 0 00-.34-1.359 1.433 1.433 0 00-1.179-.425v-.426c.427.04.84.06 1.239.06a6.45 6.45 0 002.079-.284v8.782zm-.141-13.235a1.285 1.285 0 01.133 1.604 1.257 1.257 0 01-.684.5 1.24 1.24 0 01-.842-.05 1.265 1.265 0 01-.62-.58 1.29 1.29 0 01-.118-.845c.058-.288.213-.546.437-.731a1.245 1.245 0 011.694.102zm3.49 14.621a2.463 2.463 0 01-.608-1.774 2.26 2.26 0 01.49-1.5c.32-.388.714-.705 1.158-.934a14.325 14.325 0 011.772-.732 9.276 9.276 0 001.659-.709.99.99 0 00.538-.873v-1.255a2.106 2.106 0 00-.49-1.638 1.99 1.99 0 00-1.368-.436 2.376 2.376 0 00-1.074.134 2.41 2.41 0 00-.908.597c.262.066.496.215.668.426.185.228.28.517.269.813a1.034 1.034 0 01-.317.802c-.226.2-.519.306-.819.295a1.002 1.002 0 01-.84-.355 1.34 1.34 0 01-.28-.862c-.011-.29.07-.574.231-.813.187-.249.413-.465.668-.639a4.12 4.12 0 011.217-.546 5.6 5.6 0 011.616-.224 3.33 3.33 0 012.386.77c.323.291.557.67.673 1.091.128.568.186 1.149.173 1.73v5.65a1.42 1.42 0 00.14.73.539.539 0 00.479.224.942.942 0 00.447-.109c.162-.089.313-.195.453-.316l.22.343c-.274.226-.572.42-.888.579a2.213 2.213 0 01-.932.175 1.595 1.595 0 01-1.341-.486 2.083 2.083 0 01-.383-1.315 3.503 3.503 0 01-1.378 1.408 3.845 3.845 0 01-1.762.393 2.464 2.464 0 01-1.869-.644zm5.009-1.714v-3.973a1.391 1.391 0 01-.5.464c-.212.12-.539.282-.981.485-.424.175-.834.38-1.228.617-.322.207-.597.48-.808.802-.24.388-.359.841-.339 1.3-.037.5.122.996.442 1.38a1.521 1.521 0 001.158.464c.876 0 1.628-.513 2.256-1.539zm14.812-12.171a5.16 5.16 0 011.05.546c.198.152.432.25.679.284a.305.305 0 00.28-.213c.086-.217.14-.444.161-.677h.458c-.068.783-.102 2.162-.102 4.137h-.458a5.28 5.28 0 00-.932-2.767 2.732 2.732 0 00-1.033-.863 2.701 2.701 0 00-1.315-.261 2.416 2.416 0 00-1.761.66 2.244 2.244 0 00-.679 1.692c-.011.47.11.935.35 1.337.233.378.535.708.889.972.359.269.872.613 1.54 1.031l.582.366c.691.421 1.357.884 1.993 1.386.47.38.866.844 1.169 1.37.303.551.456 1.175.441 1.806a3.52 3.52 0 01-.27 1.568 3.484 3.484 0 01-.931 1.281 4.574 4.574 0 01-3.037 1.005 5.084 5.084 0 01-1.573-.202 5.563 5.563 0 01-1.169-.546 1.437 1.437 0 00-.679-.284.309.309 0 00-.28.213c-.086.216-.14.444-.161.677h-.458c.054-.728.081-2.349.081-4.863h.457a6.685 6.685 0 001.002 3.324c.294.425.692.766 1.154.99a2.94 2.94 0 001.485.287 2.67 2.67 0 001.842-.677 2.552 2.552 0 00.76-2.014 2.695 2.695 0 00-.749-1.926 11.977 11.977 0 00-2.37-1.785 22.145 22.145 0 01-1.912-1.299 4.646 4.646 0 01-1.19-1.37 3.7 3.7 0 01-.458-1.877 3.22 3.22 0 01.238-1.43 3.19 3.19 0 01.839-1.174 4.626 4.626 0 014.072-.71l-.005.006zm8.187 12.499a1.52 1.52 0 00.339 1.146c.343.245.762.357 1.18.316v.426a70.028 70.028 0 00-2.419-.082c-.384 0-1.19.027-2.418.082v-.426c.418.041.837-.07 1.18-.316a1.52 1.52 0 00.339-1.146V20.82a2.21 2.21 0 00-.339-1.359 1.42 1.42 0 00-1.18-.426v-.425c.427.04.84.06 1.239.06a6.447 6.447 0 002.079-.284v8.782zm-.14-13.235c.201.21.324.486.348.778a1.28 1.28 0 01-.216.826 1.24 1.24 0 01-1.525.45 1.257 1.257 0 01-.62-.58 1.285 1.285 0 01.318-1.576 1.247 1.247 0 011.695.102zm10.874 5.763c.833.913 1.25 2.294 1.25 4.142 0 1.849-.417 3.227-1.25 4.137a4.675 4.675 0 01-3.291 1.36 4.677 4.677 0 01-3.291-1.36c-.833-.906-1.249-2.285-1.249-4.137 0-1.852.416-3.233 1.249-4.142a4.654 4.654 0 013.291-1.368c1.232 0 2.414.491 3.291 1.368zm-5.192.284c-.467.83-.7 2.115-.7 3.858 0 1.743.233 3.027.7 3.853a2.1 2.1 0 00.771.902 2.071 2.071 0 002.26 0 2.11 2.11 0 00.772-.902c.466-.822.7-2.106.7-3.853 0-1.746-.226-3.032-.679-3.858a2.11 2.11 0 00-.769-.908 2.063 2.063 0 00-2.264 0 2.096 2.096 0 00-.769.908h-.022zm4.363-6.839c-.02.253-.118.494-.28.688a7.66 7.66 0 01-1.142 1.091c-.094.08-.338.306-.733.677a20.64 20.64 0 00-1.271 1.32l-.221-.18a34.55 34.55 0 001.379-2.45 9.97 9.97 0 01.803-1.397.927.927 0 01.759-.447c.16-.01.317.04.442.141a.74.74 0 01.264.557zm8.456 5.414c.329.128.633.312.899.546a.67.67 0 00.361.164c.241 0 .388-.297.442-.89h.457c-.053.662-.08 1.81-.08 3.444h-.458a5.152 5.152 0 00-.851-2.183 2.164 2.164 0 00-.825-.678 2.13 2.13 0 00-1.044-.195 1.695 1.695 0 00-1.18.414 1.478 1.478 0 00-.458 1.146 1.608 1.608 0 00.48 1.185c.474.434.99.818 1.54 1.146.119.07.298.184.539.344a17.23 17.23 0 011.481 1.091c.366.306.674.675.91 1.092.238.425.359.908.35 1.397a2.477 2.477 0 01-.991 2.091 3.91 3.91 0 01-2.429.747 3.193 3.193 0 01-2.402-.83.25.25 0 00-.178-.081c-.091 0-.177.065-.247.201a1.837 1.837 0 00-.173.546h-.458c.054-.771.081-2.123.081-4.055h.458c.067.997.34 1.967.802 2.85.225.309.525.553.872.707a2.13 2.13 0 001.105.17 1.84 1.84 0 001.239-.463 1.825 1.825 0 00.539-1.457 1.852 1.852 0 00-.539-1.337c-.518-.5-1.087-.943-1.697-1.321a23.305 23.305 0 01-1.508-1.032 3.601 3.601 0 01-.888-.993 2.574 2.574 0 01-.361-1.375 2.334 2.334 0 01.84-1.943c.61-.464 1.36-.7 2.122-.672a3.44 3.44 0 011.25.224zm7.303.077h2.962v.403h-2.962v7.848c-.039.464.077.927.329 1.316a1.166 1.166 0 00.948.404 1.35 1.35 0 001.077-.508 4.198 4.198 0 00.738-1.637l.398.104c-.334 1.862-1.201 2.796-2.601 2.8a3.3 3.3 0 01-1.12-.164 2.092 2.092 0 01-.781-.508 2.383 2.383 0 01-.609-1.091 7.076 7.076 0 01-.172-1.742v-6.822h-1.923v-.404h1.923v-3.1a6.14 6.14 0 001.799-.283l-.006 3.383zm11.392.163a1.48 1.48 0 01.512 1.135 1.37 1.37 0 01-.313.9 1.022 1.022 0 01-.829.378 1.071 1.071 0 01-.749-.284.99.99 0 01-.312-.77 1.261 1.261 0 01.678-1.091.473.473 0 00-.42-.202 1.989 1.989 0 00-.771.164c-.244.106-.465.26-.651.452a4.302 4.302 0 00-1.001 1.512 4.496 4.496 0 00-.361 1.681v4.29a1.476 1.476 0 00.538 1.299 2.815 2.815 0 001.616.365v.426h-.479c-1.361-.04-2.228-.06-2.602-.06-.373 0-1.159.027-2.359.082v-.426c.418.042.837-.07 1.18-.316a1.52 1.52 0 00.339-1.146V20.82a2.21 2.21 0 00-.339-1.359 1.437 1.437 0 00-1.18-.426v-.425c.428.04.84.06 1.239.06a6.443 6.443 0 002.079-.284v2.532a4.797 4.797 0 011.12-1.817 2.412 2.412 0 011.767-.775 1.87 1.87 0 011.298.47zM264.86 38.99c.369.14.722.323 1.05.545.202.164.444.27.7.306a.304.304 0 00.28-.213c.086-.216.14-.444.162-.676h.458c-.069.782-.103 2.16-.103 4.136h-.457a5.297 5.297 0 00-.932-2.767 2.743 2.743 0 00-1.034-.863 2.701 2.701 0 00-1.315-.26 2.409 2.409 0 00-1.777.643 2.256 2.256 0 00-.668 1.692 2.5 2.5 0 00.35 1.337c.234.378.535.707.889.972.359.269.873.613 1.54 1.031l.582.366c.691.42 1.357.884 1.993 1.386.467.39.858.866 1.153 1.403.303.551.456 1.175.441 1.806a3.519 3.519 0 01-.27 1.567 3.483 3.483 0 01-.931 1.282 4.575 4.575 0 01-3.054.971 5.087 5.087 0 01-1.573-.202 5.532 5.532 0 01-1.168-.545 1.44 1.44 0 00-.679-.284.306.306 0 00-.28.213 2.46 2.46 0 00-.162.677h-.447c.054-.728.081-2.35.081-4.863h.458a6.675 6.675 0 001.002 3.324 2.98 2.98 0 001.154.99c.462.223.974.322 1.485.287a2.672 2.672 0 001.842-.677 2.572 2.572 0 00.759-2.014 2.683 2.683 0 00-.748-1.926 12.036 12.036 0 00-2.37-1.785 22.014 22.014 0 01-1.912-1.3 4.642 4.642 0 01-1.212-1.342 3.7 3.7 0 01-.458-1.877 3.22 3.22 0 01.238-1.43c.187-.451.474-.853.839-1.173a4.624 4.624 0 014.072-.71l.022-.027zm10.292 3.662v.605l-3.156 2.778v-.19l-3.178 2.8v-.618l3.178-2.794v.202l3.156-2.783zm-2.24 8.836a1.52 1.52 0 00.339 1.146c.343.245.762.358 1.18.316v.426a69.853 69.853 0 00-2.419-.082c-.384 0-1.19.027-2.418.082v-.437c.418.042.837-.07 1.18-.316a1.52 1.52 0 00.339-1.146V39.912a2.211 2.211 0 00-.339-1.36 1.42 1.42 0 00-1.18-.426v-.425c.413.04.826.06 1.239.06a6.453 6.453 0 002.079-.283v14.01zm11.623-.306c-.038.478.082.956.339 1.359a1.425 1.425 0 001.18.426v.425c-.413-.04-.826-.06-1.239-.06a6.443 6.443 0 00-2.079.284V51.22a3.723 3.723 0 01-1.357 1.845 3.393 3.393 0 01-1.923.59c-.38.024-.76-.031-1.117-.163a2.73 2.73 0 01-.957-.607 2.344 2.344 0 01-.538-1.037 7.145 7.145 0 01-.151-1.637v-5.07a2.205 2.205 0 00-.34-1.36 1.436 1.436 0 00-1.179-.425v-.426c.413.04.826.06 1.239.06a6.453 6.453 0 002.079-.284v7.968c-.007.417.023.834.091 1.245.051.3.199.575.42.78.288.227.65.336 1.013.306.501.002.987-.17 1.379-.486a3.22 3.22 0 00.969-1.326c.239-.588.358-1.22.35-1.856V45.14a2.204 2.204 0 00-.339-1.358 1.44 1.44 0 00-1.18-.426v-.426c.413.04.826.06 1.239.06a6.446 6.446 0 002.079-.284l.022 8.476zm4.96 1.883h2.198a2.46 2.46 0 001.938-.78 4.189 4.189 0 00.841-2.484h.458c0 1.769.026 2.984.08 3.646a73.15 73.15 0 00-3.721-.082 83.81 83.81 0 00-4.04.104l5.779-10.233h-2.181a2.486 2.486 0 00-1.993.759 4.408 4.408 0 00-.792 2.504h-.447c0-1.768-.027-2.983-.081-3.645 1.053.054 2.293.082 3.722.082a83.81 83.81 0 004.04-.104l-5.801 10.233zm2.968-14.812a1.285 1.285 0 01.132 1.604 1.254 1.254 0 01-.683.501 1.24 1.24 0 01-.842-.05 1.256 1.256 0 01-.62-.58 1.285 1.285 0 01.318-1.577 1.247 1.247 0 011.695.102zm12.814 12.689a4.032 4.032 0 01-1.352 1.916 3.682 3.682 0 01-2.392.802 4.5 4.5 0 01-2.461-.66 4.233 4.233 0 01-1.616-1.845 6.474 6.474 0 01-.539-2.729 7.682 7.682 0 01.539-3.062 4.51 4.51 0 011.578-1.997 4.11 4.11 0 012.381-.699 3.472 3.472 0 011.503.235c.479.189.91.481 1.265.857.647.727.97 1.846.97 3.356h-6.227a12.52 12.52 0 00-.059 1.3c-.017.798.13 1.591.431 2.33a3.71 3.71 0 001.142 1.528c.424.344.949.536 1.492.545a3.12 3.12 0 001.702-.464c.552-.4.976-.956 1.217-1.599l.426.186zm-5.521-6.975a5.513 5.513 0 00-.83 2.756h4.363a5.903 5.903 0 00-.452-2.636 1.577 1.577 0 00-.561-.758 1.542 1.542 0 00-.888-.295 1.958 1.958 0 00-.932.258 1.982 1.982 0 00-.7.675zm15.646.103c.701.947 1.06 2.311 1.078 4.094a6.84 6.84 0 01-.598 3.002 4.353 4.353 0 01-1.616 1.866 4.176 4.176 0 01-2.251.628 3.572 3.572 0 01-1.441-.308 3.614 3.614 0 01-1.199-.865l-1.421 1.217-.34-.142a4.42 4.42 0 00.14-1.174V39.934a2.204 2.204 0 00-.339-1.36 1.426 1.426 0 00-1.18-.426v-.424c.428.04.841.06 1.239.06a6.449 6.449 0 002.079-.284v7.319a3.582 3.582 0 011.271-1.6 3.203 3.203 0 011.853-.545 3.245 3.245 0 011.533.357c.475.244.884.6 1.192 1.04zm-1.562 7.893c.446-.82.668-2.093.668-3.82a8.672 8.672 0 00-.598-3.69 1.963 1.963 0 00-.735-.897 1.932 1.932 0 00-1.107-.32 2.206 2.206 0 00-1.54.66 3.718 3.718 0 00-1.002 1.856v6.445a3.12 3.12 0 001.077.742c.393.167.814.252 1.239.252a2.14 2.14 0 001.181-.315 2.17 2.17 0 00.823-.913h-.006zm12.976-8.542c.261.287.446.636.538 1.016.121.536.175 1.086.162 1.637v5.414a1.52 1.52 0 00.339 1.146c.343.245.762.358 1.18.317v.425a70.254 70.254 0 00-2.403-.082c-.373 0-1.12.028-2.24.082v-.436a1.363 1.363 0 001.029-.317 1.71 1.71 0 00.29-1.146v-5.845a3.748 3.748 0 00-.317-1.736 1.347 1.347 0 00-.564-.49 1.324 1.324 0 00-.734-.11 2.348 2.348 0 00-1.46.486 3.138 3.138 0 00-.991 1.326 4.842 4.842 0 00-.35 1.877v4.497a1.7 1.7 0 00.291 1.147 1.361 1.361 0 001.039.31v.426a57.71 57.71 0 00-2.24-.082c-.374 0-1.175.028-2.403.082v-.425c.418.04.837-.072 1.18-.317.131-.158.228-.34.286-.538.059-.197.077-.404.053-.608V45.14a2.204 2.204 0 00-.339-1.36 1.43 1.43 0 00-1.18-.425v-.426c.428.04.841.06 1.239.06a6.443 6.443 0 002.079-.284v2.39a3.757 3.757 0 011.39-1.877 3.61 3.61 0 012.009-.578 2.755 2.755 0 012.117.78zm6.42 8.067a1.52 1.52 0 00.339 1.146c.343.245.762.358 1.18.317v.425a69.853 69.853 0 00-2.419-.082c-.384 0-1.19.028-2.418.082v-.436c.418.04.837-.072 1.18-.317a1.52 1.52 0 00.339-1.146V45.14a2.211 2.211 0 00-.339-1.36 1.42 1.42 0 00-1.18-.426v-.425c.427.04.84.06 1.239.06a6.45 6.45 0 002.079-.284v8.782zm-.14-13.235a1.285 1.285 0 01.132 1.604 1.254 1.254 0 01-.683.501 1.24 1.24 0 01-.842-.05 1.256 1.256 0 01-.62-.58 1.285 1.285 0 01.318-1.577 1.247 1.247 0 011.695.102zm9.996 5.048c.278.154.512.379.677.653.166.274.257.587.266.908a1.13 1.13 0 01-.302.83 1.03 1.03 0 01-.759.305 1.158 1.158 0 01-.781-.273.923.923 0 01-.318-.742 1.104 1.104 0 01.242-.72c.154-.191.363-.329.598-.393a1.51 1.51 0 00-.7-.611 2.498 2.498 0 00-1.077-.246 2.263 2.263 0 00-1.379.475 3.43 3.43 0 00-1.077 1.582 8.345 8.345 0 00-.42 2.91c0 1.673.267 2.892.802 3.656.223.354.53.644.894.845.363.2.771.304 1.185.301a2.92 2.92 0 001.616-.508 3.689 3.689 0 001.271-1.582l.383.142a4.22 4.22 0 01-1.272 1.986 3.482 3.482 0 01-2.407.83 4.082 4.082 0 01-2.252-.65 4.39 4.39 0 01-1.615-1.877c-.4-.89-.597-1.86-.577-2.838a6.882 6.882 0 01.593-2.92c.356-.808.926-1.5 1.648-1.997a4.21 4.21 0 012.418-.72 4.107 4.107 0 012.343.654zm20.203-3.875a2.77 2.77 0 00-1.04.213.89.89 0 00-.458.546 4.251 4.251 0 00-.118 1.168v12.132h-.458l-8.402-13.153v10.686c-.016.396.027.792.129 1.174a.903.903 0 00.512.546c.378.14.777.211 1.179.212v.404c-.481-.04-1.161-.06-2.041-.06-.801 0-1.42.02-1.858.06v-.414a2.751 2.751 0 001.039-.213.894.894 0 00.458-.546 4.29 4.29 0 00.119-1.168v-9.824a3.719 3.719 0 00-.119-1.091.725.725 0 00-.447-.464 3.946 3.946 0 00-1.077-.164v-.447c.442.04 1.061.06 1.858.06.6 0 1.12-.02 1.562-.06l7.061 11.024v-8.672a3.967 3.967 0 00-.129-1.174.917.917 0 00-.512-.545 3.464 3.464 0 00-1.179-.213v-.42c.481.04 1.161.06 2.041.06.801 0 1.42-.02 1.858-.06l.022.403zm5.042 8.149v3.645c-.018.371.037.742.161 1.092a.866.866 0 00.539.464c.425.103.861.158 1.298.163v.404c-.693-.04-1.673-.06-2.941-.06-1.145 0-1.998.02-2.558.06v-.404a3.93 3.93 0 001.077-.163.715.715 0 00.447-.464c.094-.356.134-.724.119-1.092V41.173a3.686 3.686 0 00-.119-1.092.724.724 0 00-.447-.464 3.946 3.946 0 00-1.077-.163v-.431c.56.04 1.373.06 2.44.06h3.016c1.558 0 2.752.363 3.582 1.091.409.36.733.807.947 1.311.215.504.314 1.05.292 1.598 0 .742-.168 1.474-.491 2.14a4.022 4.022 0 01-1.658 1.713 6.11 6.11 0 01-3.108.688l-1.519-.05zm.538-8.007a.805.805 0 00-.43.508 3.752 3.752 0 00-.119 1.091v6.004h1.341c1.307 0 2.205-.355 2.693-1.065.538-.846.8-1.843.749-2.848 0-1.31-.257-2.276-.77-2.898-.514-.623-1.363-.934-2.548-.934a2.345 2.345 0 00-.905.142h-.011zm22.374.022a.72.72 0 00-.453.464 3.717 3.717 0 00-.118 1.091V51.22c-.015.368.025.736.118 1.092a.719.719 0 00.453.464c.341.102.694.157 1.05.164v.403c-.614-.04-1.461-.06-2.542-.06-1.145 0-1.998.02-2.558.06v-.404a3.936 3.936 0 001.077-.163.73.73 0 00.447-.464c.093-.356.133-.724.118-1.092V40.387l-4.82 13.098h-.318l-5.063-13.164v10.697c-.016.396.028.792.129 1.174a.917.917 0 00.512.546c.378.14.777.211 1.18.212v.404c-.482-.04-1.162-.06-2.042-.06-.8 0-1.42.02-1.858.06v-.414c.357-.003.71-.076 1.04-.213a.891.891 0 00.457-.546 4.29 4.29 0 00.119-1.168v-9.824a3.685 3.685 0 00-.119-1.091.725.725 0 00-.447-.464 3.946 3.946 0 00-1.077-.164v-.447c.442.04 1.061.06 1.858.06.693 0 1.261-.02 1.702-.06l4.422 11.733 4.309-11.673h.943c1.077 0 1.924-.02 2.542-.06v.403a3.943 3.943 0 00-1.061.164z"/></g><defs><clipPath id="clip0_333_1254"><path fill="#fff" d="M0 0h444v70H0z"/></clipPath></defs></svg>