<svg width="50" height="50" fill="none" xmlns="http://www.w3.org/2000/svg"><path fill-rule="evenodd" clip-rule="evenodd" d="M.027 8.088l.027 8.08 2.09 6.248 2.088 6.25 3.172 4.98c1.744 2.738 3.348 5.163 3.564 5.388.551.575 1.216.846 2.086.85.597.004.784-.04 1.303-.308l.607-.313.502.516c.277.284.674.661.882.837l.38.321-.054 2.359c-.057 2.484-.184 3.517-.619 5.021-.293 1.017-.292 1.053.053 1.398l.285.285h17.214l.285-.285c.345-.345.346-.38.053-1.398-.435-1.504-.562-2.537-.619-5.021l-.054-2.359.38-.32c.209-.177.605-.554.882-.838l.502-.516.606.313a2.887 2.887 0 003.429-.58c.194-.204 1.78-2.612 3.525-5.35l3.172-4.98 2.089-6.25 2.089-6.248.027-8.08L50 .008h-1.665V15.67l-2.05 6.156-2.05 6.156-3.15 4.922c-1.731 2.707-3.267 5.01-3.413 5.118-.57.421-1.535.153-1.885-.523-.326-.63-.272-.763 2.004-4.922l2.148-3.927.433-1.554c.238-.855.985-3.288 1.66-5.406.676-2.118 1.195-3.88 1.154-3.918-.16-.144-1.414-.499-1.484-.42-.04.047-.677 1.996-1.415 4.332-1.2 3.8-1.376 4.282-1.663 4.576a1.39 1.39 0 01-1.467.35c-.48-.165-.696-.379-.885-.872-.156-.409-.15-.454.527-3.87l.685-3.455.048-2.197c.034-1.536.097-2.417.21-2.929.553-2.487 1.56-4.484 3.168-6.286.43-.482.703-.878.738-1.072.03-.169.043-1.559.027-3.09L41.647.057 40.84.028 40.036 0v5.469l-.453.51c-.248.28-.609.727-.8.994-.325.452-.356.472-.477.299-1.833-2.62-3.984-4.51-6.474-5.689-4.512-2.135-9.539-2.085-13.928.137-2.45 1.24-4.437 3.017-6.21 5.552-.12.173-.152.153-.477-.3a15.005 15.005 0 00-.8-.993l-.453-.51V0L9.16.028l-.806.029-.028 2.782c-.016 1.531-.004 2.921.027 3.09.035.194.308.59.74 1.074a13.002 13.002 0 012.715 4.673c.522 1.575.61 2.18.661 4.54l.048 2.197.688 3.476.688 3.475-.197.446c-.426.962-1.595 1.188-2.32.449-.286-.292-.464-.782-1.662-4.575-.738-2.336-1.37-4.281-1.407-4.323-.065-.075-1.352.277-1.492.408-.04.039.478 1.803 1.154 3.921.675 2.118 1.422 4.55 1.66 5.406l.433 1.554 2.148 3.927c2.32 4.24 2.358 4.336 1.958 4.993a1.79 1.79 0 01-.447.48c-.356.233-1.058.219-1.392-.028-.146-.107-1.682-2.41-3.414-5.118l-3.149-4.922-2.05-6.156-2.05-6.156V.008H0l.027 8.08zm24.094-5.362v.961l-1.034.141-1.035.141-.428-.853c-.236-.469-.396-.872-.357-.895.073-.044 1.334-.32 1.78-.39.134-.022.431-.045.66-.052l.414-.014v.961zm3.857-.715c.43.09.795.176.811.192.017.017-.165.42-.405.898l-.436.868-1.035-.14-1.034-.142v-1.95l.659.056c.362.031 1.01.13 1.44.218zM20.007 3.59l.4.799-.51.166c-.281.092-.794.294-1.14.45l-.63.281-.563-.557-.563-.557.363-.247c.355-.243 2.192-1.194 2.226-1.154.01.011.197.38.417.82zm12.23.1l.775.46-.568.57-.569.568-.63-.283c-.347-.156-.86-.358-1.14-.45l-.508-.165.404-.815.404-.814.528.233c.29.129.877.441 1.303.695zm-16.2 2.796a20.95 20.95 0 00-1.005.762l-.448.37-.316-.326-.315-.326.853-.896.853-.896.467.46.466.46-.555.392zm19.701.799l-.318.328-.504-.409c-.277-.225-.73-.563-1.006-.75l-.501-.343.458-.469.457-.469.867.891.866.892-.319.329zm-7.895-1.62c3.514.751 6.298 2.537 8.565 5.493.105.137.085.334-.123 1.172a15.295 15.295 0 00-.325 1.788c-.087.899 0 .862-1.207.506-1.08-.318-2.644-.5-3.593-.417-.98.086-1.99.256-2.094.352-.046.043-.004.416.093.829l.177.75.395-.063c2.32-.374 3.91-.23 5.528.495l.578.26v.708c0 .39-.087 1.135-.195 1.657a27.86 27.86 0 00-.195 1c0 .062-4.265-.052-4.887-.13l-.445-.056-.117.75c-.064.412-.095.783-.07.825.082.133 2.198.318 3.687.323.971.003 1.441.04 1.441.111 0 .059-.135.788-.3 1.62-.326 1.643-.325 2.105.006 2.877.454 1.06 1.608 1.82 2.797 1.846.342.007.61.038.597.07a777.56 777.56 0 01-2.074 3.806l-2.05 3.748-.005.963-.005.963-.713.731a11.588 11.588 0 01-16.55.061l-.77-.778-.01-.968-.01-.969-2.05-3.749a382.696 382.696 0 01-2.087-3.842c-.02-.054.082-.067.244-.031.378.082 1.236-.09 1.77-.357.663-.331 1.254-1.048 1.487-1.803.25-.812.249-.87-.098-2.617-.16-.805-.29-1.531-.291-1.613 0-.129.13-.139.951-.072 1.27.103 4.665-.105 4.985-.305.088-.055-.108-1.44-.219-1.551-.022-.023-.519.012-1.104.076-1.093.121-4.833.105-4.959-.021-.143-.143-.428-1.815-.432-2.53l-.004-.743.579-.26c1.618-.726 3.208-.868 5.528-.495l.395.063.177-.75c.097-.413.14-.786.093-.829-.124-.114-1.272-.292-2.303-.355-1.069-.066-2.486.125-3.633.489-.425.135-.802.227-.838.204-.037-.022-.096-.39-.131-.817a13.46 13.46 0 00-.315-1.766l-.25-.99.422-.556c.656-.864 1.91-2.056 2.896-2.752 1.887-1.331 3.805-2.11 6.128-2.49 1.215-.197 3.68-.128 4.933.14zM13.237 8.602c.175.193.171.206-.151.538-.283.292-.343.318-.418.184-.089-.158.179-.919.323-.919.037 0 .148.089.246.197zm24.012.184c.114.253.142.433.083.538-.075.134-.135.108-.418-.184-.322-.332-.325-.345-.15-.538.244-.27.288-.253.485.184zM24.145 21.269l.025 4.565h1.66l.025-4.565.026-4.564H24.12l.025 4.564zm-.024 7.113c-1.081.121-1.908.286-2.706.541l-.9.287.203.509c.112.28.247.632.302.783.07.197.143.257.257.213.64-.248 1.91-.542 2.737-.633 1.437-.158 3.323.096 4.709.633.114.044.187-.016.258-.213a31.6 31.6 0 01.3-.78l.202-.506-.753-.251a13.901 13.901 0 00-1.485-.39c-.776-.148-2.553-.257-3.124-.193zm-4.846 14.13c1.81.88 3.583 1.274 5.725 1.274 2.415 0 4.188-.452 6.566-1.674.04-.02.073.505.073 1.167 0 1.786.235 3.883.546 4.89.05.162-.337.171-7.185.171-6.849 0-7.235-.01-7.185-.17.311-1.008.546-3.105.546-4.89 0-.663.033-1.19.073-1.173.04.018.418.2.84.405z" fill="#803400"/></svg>