<svg width="11" height="20" fill="none" xmlns="http://www.w3.org/2000/svg"><path d="M9.408 1.538V.77a.77.77 0 00-1.539 0v.77H1.715A1.538 1.538 0 00.177 3.076v15.385A1.538 1.538 0 001.715 20h7.693a1.539 1.539 0 001.538-1.538V3.077a1.539 1.539 0 00-1.538-1.539zM3.254 18.462H1.715v-1.539h1.539v1.539zm0-3.077H1.715v-1.539h1.539v1.539zm0-3.077H1.715v-1.539h1.539v1.539zm3.077 6.154H4.792v-1.539h1.539v1.539zm0-3.077H4.792v-1.539h1.539v1.539zm0-3.077H4.792v-1.539h1.539v1.539zm3.077 6.154H7.869v-1.539h1.539v1.539zm0-3.077H7.869v-1.539h1.539v1.539zm0-3.077H7.869v-1.539h1.539v1.539zm0-3.846a.77.77 0 01-.77.769H2.484a.77.77 0 01-.769-.77V3.847a.77.77 0 01.77-.77h6.153a.77.77 0 01.77.77v4.616z" fill="#8E6C53"/></svg>