<svg width="57" height="50" fill="none" xmlns="http://www.w3.org/2000/svg"><path d="M56.525 48.638l-2.568-8.752-2.498-8.518-.002-.006-3.381-11.525-.536-1.828-.001-.003-.824-2.807a1.058 1.058 0 00-.53-.642 2.548 2.548 0 00-.3-.37c-1.696-1.696-5.222-.579-9.126 1.952a10.328 10.328 0 01-2.68-6.97c0-2.778 1.082-5.39 3.047-7.356A1.062 1.062 0 1035.624.311C30.957 4.977 30.752 12.437 35 17.354c-2 1.466-4.043 3.235-5.942 5.135l-.003.003c-3.78-2.294-8.135-3.472-12.683-3.365a1.062 1.062 0 10.05 2.124c3.969-.094 7.78.89 11.119 2.814a49.49 49.49 0 00-3.762 4.551c-4.467-1.688-9.712-.74-13.303 2.85a1.062 1.062 0 001.503 1.503 10.336 10.336 0 017.356-3.047c1.107 0 2.187.174 3.211.505a28.05 28.05 0 00-.997 1.688c-2.321 4.286-1.713 6.28-.794 7.2.116.116.242.216.375.306.13.244.352.439.638.523l2.807.824 5.82 1.709h.002l12.305 3.61.83.245h.002l11.672 3.425a1.066 1.066 0 001.05-.268c.274-.275.377-.678.268-1.051zm-4.575-8.044a4.065 4.065 0 01-2.18-7.43l2.046 6.972.134.458zm-4.864-16.58c-1.49 2.803-4.099 6.162-7.22 9.285-3.115 3.116-6.474 5.726-9.28 7.219L26.37 39.28c3.396-1.452 7.566-4.623 11.211-8.268 3.647-3.646 6.817-7.817 8.269-11.214l.415 1.414.821 2.802zm-23.668 9.113c.32-.591.689-1.203 1.095-1.828.787.453 1.52 1.01 2.18 1.67a1.06 1.06 0 001.502 0 1.062 1.062 0 000-1.503 12.504 12.504 0 00-2.465-1.915 48.273 48.273 0 013.624-4.314 21.74 21.74 0 012.667 2.265 1.06 1.06 0 001.503 0 1.062 1.062 0 000-1.502 23.963 23.963 0 00-2.667-2.3c5.967-5.885 10.897-8.222 12.807-8.222.336 0 .58.072.718.21.936.937-1.145 6.664-8.303 13.822-7.157 7.157-12.884 9.24-13.821 8.302-.31-.309-.464-1.686 1.16-4.685zm15.37 9.467l1.45.057c.348.01.683-.145.892-.425l.87-1.164.394 1.396c.095.336.35.604.68.717l1.378.468-.98.656-4.39-1.29-.294-.415zm7.339 2.484l1.294-.866a1.062 1.062 0 00-.249-1.889l-2.885-.98-.828-2.931a1.062 1.062 0 00-1.874-.347l-1.823 2.441-3.042-.12a1.062 1.062 0 00-.917 1.662l-2.422-.71c2.556-1.623 5.363-3.912 7.989-6.537 2.627-2.63 4.915-5.437 6.537-7.99l1.247 4.251a6.168 6.168 0 00-3.298 5.473 6.192 6.192 0 006.184 6.185c.176 0 .352-.01.527-.025l1.371 4.675-7.811-2.292zM7.428 21.119A23.247 23.247 0 00.311 26a1.063 1.063 0 001.503 1.501 21.131 21.131 0 016.47-4.437 1.062 1.062 0 00-.856-1.945z" fill="#803400"/><path d="M15.612 10.014l2.731 1.348.439 3.014a1.062 1.062 0 001.812.589l2.126-2.182 3.002.515a1.064 1.064 0 001.12-1.541L25.425 9.06l1.418-2.696a1.062 1.062 0 00-1.12-1.542l-3.003.515-2.126-2.18a1.062 1.062 0 00-1.813.588l-.438 3.014-2.731 1.348a1.063 1.063 0 000 1.907zm4.172-1.596c.314-.155.531-.454.582-.8l.209-1.437 1.013 1.04c.244.25.595.365.94.306l1.431-.246-.675 1.285c-.163.31-.163.68 0 .99l.675 1.284-1.43-.245a1.063 1.063 0 00-.941.305l-1.014 1.04-.208-1.437a1.062 1.062 0 00-.582-.8l-1.302-.642 1.302-.643zm-5.73 27.532a3.095 3.095 0 00-3.091 3.091 3.095 3.095 0 003.091 3.091 3.095 3.095 0 003.092-3.091 3.095 3.095 0 00-3.092-3.091zm0 4.058a.968.968 0 010-1.934.968.968 0 010 1.934zM7.486 15.286c2.2 0 3.99-1.79 3.99-3.99s-1.79-3.991-3.99-3.991-3.99 1.79-3.99 3.99 1.79 3.99 3.99 3.99zm0-5.857c1.029 0 1.866.837 1.866 1.866a1.868 1.868 0 01-1.866 1.866 1.868 1.868 0 01-1.865-1.866c0-1.029.837-1.866 1.865-1.866z" fill="#803400"/></svg>