<svg width="85" height="66" fill="none" xmlns="http://www.w3.org/2000/svg"><path d="M77.422 6.447c4.85 5.15 7.453 10.928 7.453 20.293 0 16.479-11.568 31.249-28.391 38.552l-4.205-6.489c15.702-8.493 18.772-19.516 19.996-26.465-2.528 1.309-5.838 1.765-9.082 1.464-8.494-.786-15.189-7.76-15.189-16.427A16.48 16.48 0 0164.484.895a18.226 18.226 0 0112.938 5.552zm-47.084 0c4.85 5.15 7.454 10.928 7.454 20.293 0 16.479-11.569 31.249-28.392 38.552l-4.204-6.489c15.702-8.493 18.772-19.516 19.996-26.465-2.528 1.309-5.838 1.765-9.082 1.464C7.616 33.016.92 26.042.92 17.375A16.48 16.48 0 0117.4.895a18.226 18.226 0 0112.938 5.552z" fill="#8E6C53"/></svg>