<svg width="46" height="49" fill="none" xmlns="http://www.w3.org/2000/svg"><path d="M45.263 38.984l-1.89-3.275.304-1.136a4.07 4.07 0 00-.403-3.098l-8.839-15.372c-.699-1.206-2.272-1.605-3.512-.887a2.639 2.639 0 00-1.077 1.177l-.83-1.436c-.34-.588-.868-1.04-1.56-1.169a2.641 2.641 0 00-1.779.19 2.657 2.657 0 00-1.254 1.28l-4.899-8.521a7.377 7.377 0 00-4.244-3.371l-1.212-2.1a.539.539 0 00-.985.133.542.542 0 00.05.409l1.315 2.286a.538.538 0 00.328.25 6.302 6.302 0 013.813 2.934l4.394 7.632a2.654 2.654 0 00-1.724.461 2.67 2.67 0 00-1.046 1.45 2.493 2.493 0 00.228 1.942l.433.752a2.642 2.642 0 00-1.57.355c-.474.278-.85.698-1.076 1.2l-1.386-2.409a.539.539 0 00-.985.133.542.542 0 00.05.41l5.619 9.768c.4.695.135 1.604-.596 2.024-.731.42-1.644.2-2.044-.493l-5.62-9.773a.544.544 0 00-.945.16.548.548 0 00.01.383l4.955 8.614a1.424 1.424 0 01.128 1.104 1.572 1.572 0 01-.726.92c-.728.422-1.644.2-2.043-.494l-5.648-9.82a.555.555 0 00-.063-.087l-.147-.254c3.434-3.326 1.006-8.064.981-8.116a.54.54 0 10-.954.505c.023.043 2.212 4.311-1.058 7.088a.548.548 0 00-.12.684l2.917 5.07a2.53 2.53 0 01.252 1.924 2.54 2.54 0 01-1.18 1.54l-.268.154a.176.176 0 01-.244-.065l-5.601-9.733a4.576 4.576 0 01-.485-3.363l.906-3.764a.56.56 0 00.01-.212l-.278-1.752a.602.602 0 00-.064-.185L2.005 8.258a.539.539 0 00-.986.134.542.542 0 00.05.408l1.546 2.686.244 1.547-.88 3.66a5.662 5.662 0 00.597 4.156l5.601 9.74a1.26 1.26 0 001.719.46l.267-.155a3.587 3.587 0 001.678-2.18l1.87 3.25a2.483 2.483 0 001.517 1.157c.62.163 1.277.095 1.851-.19a2.665 2.665 0 001.274-1.362c.31.307.693.527 1.113.638l.048.013a2.645 2.645 0 001.792-.196c.556-.273 1-.732 1.255-1.299l3.123 5.43c-.504.23-1.624.417-3.544-.844-1.858-1.222-3.453-1.31-5.02-.272-.401.266-1.005.903-1.023 1.566a.985.985 0 00.414.839l8.208 5.565a7.212 7.212 0 003.394 1.362l2.479.31 1.647 2.865a.546.546 0 10.935-.542l-1.781-3.095a.521.521 0 00-.4-.264l-2.746-.345a6.13 6.13 0 01-2.901-1.175l-8.172-5.492c-.002-.114.224-.484.54-.696.841-.557 1.956-.959 3.835.276 2.384 1.57 3.913 1.265 4.675.878l1.622 2.82a.535.535 0 00.328.25.538.538 0 00.679-.487.54.54 0 00-.072-.306l-9.517-16.555c-.4-.692-.136-1.6.594-2.02.73-.418 1.641-.204 2.038.493l4.543 7.898a.539.539 0 00.985-.134.542.542 0 00-.05-.408l-3.017-5.247a.063.063 0 00-.007-.01l-2.97-5.166a1.401 1.401 0 01-.128-1.1 1.58 1.58 0 01.722-.914 1.573 1.573 0 011.149-.17c.32.08.603.267.802.531l.23.402a.484.484 0 00.056.078l5.916 10.293a.544.544 0 00.737.197.548.548 0 00.198-.74l-5.62-9.771c-.399-.691-.136-1.6.595-2.02.35-.204.765-.262 1.157-.163.407.043.696.33.885.662l2.97 5.16 2.607 4.515a.538.538 0 00.985-.133.542.542 0 00-.05-.409l-3.72-6.467c-.399-.692-.137-1.598.594-2.017.73-.419 1.642-.2 2.039.492l8.835 15.372a2.98 2.98 0 01.293 2.276l-.361 1.348a.547.547 0 00.053.411l2.002 3.48a.548.548 0 00.557.341.545.545 0 00.479-.673.547.547 0 00-.101-.21l.002-.006z" fill="#803400" stroke="#803400" stroke-width=".5"/></svg>