<svg width="45" height="50" fill="none" xmlns="http://www.w3.org/2000/svg"><path fill-rule="evenodd" clip-rule="evenodd" d="M30.792.376c-1.44.696-2.345 1.999-2.493 3.584-.076.822.262 3.346.544 4.049.08.202-.18.399-1.026.772-1.565.69-3.075 2.113-3.86 3.638-.344.668-.923 2.164-1.288 3.324-.547 1.743-.628 2.183-.466 2.543.284.63-.08 2.359-.55 2.613-.307.166-.56-.02-2.024-1.502-1.574-1.593-1.66-1.718-1.452-2.111.243-.46.56-3.293.59-5.26.013-.959-.066-1.396-.342-1.873-.518-.898-1.68-1.725-2.749-1.957-.654-.142-1.132-.398-1.656-.886-.913-.852-1.789-1.156-3.028-1.052-1.095.092-2.19.758-2.833 1.723-.75 1.124-.74 3.055.02 4.188.22.327.443.911.497 1.298.055.387.151.835.215.995.088.22-.182.493-1.086 1.101-.662.446-1.725 1.36-2.363 2.032-2.987 3.146-4.41 6.582-4.653 11.23-.23 4.398-.63 12.04-.736 14.041-.144 2.706-.18 2.666 2.41 2.666h1.931v1.954c0 2.063.158 2.514.883 2.514s.883-.45.883-2.514v-1.953h2.65v1.953c0 2.063.158 2.514.883 2.514s.883-.45.883-2.514v-1.953h2.649v1.953c0 2.063.159 2.514.883 2.514.725 0 .883-.45.883-2.514v-1.953h1.048c1.712 0 1.602.554 1.602-8.055v-7.493l.686-.627c.619-.566.825-.913 1.15-1.928.095-.298.159-.288.87.134.423.251.928.456 1.123.456.195 0 .828-.31 1.407-.688l1.052-.688 1.712 1.269 1.712 1.268.001 10.129c0 8.969.033 10.16.278 10.41.355.358.857.358 1.212 0 .244-.248.277-1.307.277-8.936V32.13h8.831v8.654c0 7.63.033 8.688.278 8.935.153.155.425.281.605.281s.453-.126.606-.28c.244-.248.277-1.242.277-8.224v-7.943l.486.137c.972.275 2.223.159 2.804-.26 1.157-.836 1.152-.792 1.086-9.658-.058-7.744-.072-8.026-.452-9.05-1.092-2.944-3.394-5.298-5.992-6.126-.822-.262-.942-.357-.855-.671.394-1.413.2-3.964-.405-5.349C36.02 1.728 35.161.8 34.365.382 34.064.225 33.337.062 32.75.02c-.867-.061-1.236.006-1.958.356zm3.353 2.08c.657.644.914 1.373 1.083 3.064.093.933.054 1.315-.19 1.837-.382.812-.996 1.318-1.783 1.468-.82.155-1.371-.015-2.076-.64-.725-.645-1.034-1.643-1.064-3.438-.02-1.105.04-1.388.4-1.899.877-1.242 2.576-1.426 3.63-.392zM12.918 8.748c.275.329.579.698.675.821.097.123.471.225.831.228 1.502.008 2.687 1.028 2.687 2.31 0 .449-.071.545-.404.545-.372 0-.682-.137-2.143-.946-.649-.359-1.07-.16-1.41.665-.297.718-1.466 2.068-1.791 2.068-.445 0-.96-.903-.933-1.632.019-.478-.085-.82-.333-1.095-.802-.892-.957-1.725-.49-2.639.38-.745 1.076-1.088 2.023-.999.63.06.89.196 1.288.674zm18.41 1.648c1.15.446 2.036.364 3.692-.34.816-.348-.32 1.926-1.618 3.24l-.8.81-.872-.861c-.818-.808-1.51-1.915-1.81-2.896-.118-.381-.087-.416.285-.328.23.055.735.223 1.124.375zm6.995.492c1.377.743 2.511 2.007 3.29 3.665.607 1.293.641 1.468.72 3.66l.082 2.302h-2.697v-1.06c0-1.126-.27-1.62-.883-1.62-.18 0-.453.125-.605.28-.241.244-.278 1.062-.278 6.254v5.974h-8.831v-.58c.001-.488.107-.64.658-.939a3.627 3.627 0 001.075-.983c.349-.522.406-.794.347-1.646-.204-.82-.469-1.266-2.194-2.933l-1.438-1.14.184-.732c.142-.566.3-.774.688-.911.277-.098.504-.198.504-.221 0-.024.243-.755.54-1.623.575-1.679.572-2.311-.01-2.499-.663-.212-1.025.069-1.335 1.036-.164.512-.364 1.002-.444 1.09-.187.206-3.355-.787-3.469-1.087-.145-.382 1.012-3.595 1.614-4.482.514-.758 1.88-2.007 2.193-2.007.067 0 .259.391.426.87.168.478.64 1.327 1.05 1.886.782 1.068 2.645 2.605 3.156 2.605.424 0 2.074-1.42 2.849-2.452.655-.872 1.55-2.624 1.552-3.043.003-.315.091-.292 1.256.336zM15.919 14.31l.839.213-.001.807c-.002 2.443-2.843 3.416-4.06 1.392l-.336-.56 1.006-1.122c.755-.842 1.094-1.1 1.36-1.033l1.192.303zm-5.134 2.496c.29.988 1.626 2.361 2.55 2.62.9.254 1.77.234 2.577-.058.361-.13.699-.193.751-.14.052.052.094.383.094.736-.001 1.386-1.296 2.5-2.615 2.25-.757-.144-1.59-.953-1.735-1.684-.059-.299-.212-.632-.34-.74-.319-.267-1.151-.143-1.366.204-.496.802.614 2.772 2.003 3.556 1.44.813 3.6.487 4.665-.705.326-.364.355-.368.474-.064.195.501.171 3.283-.035 4.032-.28 1.024-.839 1.57-1.729 1.69-.67.091-.82.046-1.199-.368-.49-.536-.971-.603-1.377-.192-.433.438-.33.952.317 1.608.402.407.831.64 1.325.72l.73.118v13.356H1.765l.08-1.206c.045-.663.199-3.538.343-6.388.144-2.85.311-6.107.372-7.238.06-1.13.26-2.658.444-3.395.658-2.64 2.326-5.483 4.238-7.223.867-.789 2.94-2.248 3.193-2.248.07 0 .227.342.35.76zm14.76 2.832c.412.12.75.306.748.413-.001.108-.158.698-.348 1.312-.19.613-.302 1.23-.249 1.371.054.141.926.913 1.938 1.715 1.579 1.25 1.84 1.531 1.84 1.974 0 .628-.677 1.152-1.288.997-.604-.154-4.83-3.424-4.931-3.816-.073-.28.54-3.312.834-4.13.047-.129.225-.194.395-.145l1.06.309zm-19.99 1.157c-.411.416-.411 6.17 0 6.587.153.154.351.28.441.28.091 0 .164.858.164 1.922v1.92l1.263 1.904c1.396 2.103 2.14 2.698 3.409 2.726 1.967.045 3.48-1.72 2.717-3.167-.113-.215-.63-.96-1.148-1.657-.919-1.235-.942-1.296-.942-2.457 0-.655.074-1.19.164-1.19.09 0 .289-.127.442-.281.389-.394.389-2.619 0-3.013-.631-.638-1.49-.123-1.49.894v.612H7.044v-2.4c0-2.538-.125-2.96-.883-2.96-.18 0-.452.126-.605.28zm15.475 2.221c.298 0 .496.354.496.884 0 .174.197.61.436.967l.436.65-.452.3c-.425.282-.487.281-1.01-.008-1.09-.603-1.112-.645-1.229-2.33l-.11-1.592.576.565c.316.31.702.564.857.564zm21.338 3.92c0 3.973-.04 4.672-.278 4.913-.331.336-.777.357-1.405.067-.891-.41-.967-.833-.967-5.406v-4.208h2.65v4.633zM9.693 29.153v1.492l1.16 1.557c1.29 1.73 1.304 2.071.085 2.071-.758 0-.99-.217-2.193-2.053l-.818-1.249v-3.309h1.766v1.491zm23.238 5.937c-.243.246-.277 1.159-.277 7.314 0 6.156.034 7.068.277 7.314.153.155.425.281.606.281.18 0 .453-.126.605-.28.243-.247.278-1.16.278-7.315s-.035-7.068-.278-7.314c-.152-.154-.425-.28-.605-.28s-.453.126-.606.28z" fill="#803400"/></svg>