<svg width="40" height="35" fill="none" xmlns="http://www.w3.org/2000/svg"><path d="M.09 1.219C.213.819.454.499.758.33a.987.987 0 01.957-.014l4.392 2.283a2.957 2.957 0 002.785 0l2.535-1.319c1.49-.774 3.152-.774 4.643 0l2.537 1.32a2.958 2.958 0 002.785 0l2.535-1.32c1.49-.774 3.152-.774 4.643 0l2.537 1.32a2.958 2.958 0 002.785 0L38.285.315c.153-.085.317-.129.484-.13.166 0 .33.042.484.124.154.083.293.205.41.359.117.154.21.336.271.537a2.059 2.059 0 01-.016 1.258 1.692 1.692 0 01-.285.525c-.12.149-.263.265-.418.34L34.82 5.614c-1.49.775-3.153.775-4.643 0l-2.535-1.318a2.958 2.958 0 00-2.785 0L22.32 5.613c-1.49.775-3.153.775-4.643 0l-2.535-1.318a2.957 2.957 0 00-2.785 0L9.82 5.613c-1.49.775-3.153.775-4.643 0L.785 3.33C.477 3.17.23 2.857.1 2.46a2.077 2.077 0 01-.01-1.24zm0 9.744c.123-.4.364-.72.668-.889a.987.987 0 01.957-.014l4.392 2.283a2.957 2.957 0 002.785 0l2.535-1.318c1.49-.775 3.152-.775 4.643 0l2.537 1.318a2.957 2.957 0 002.785 0l2.535-1.318c1.49-.775 3.152-.775 4.643 0l2.537 1.318a2.957 2.957 0 002.785 0l4.393-2.283c.153-.085.317-.129.484-.13.166 0 .33.042.484.125.154.083.293.205.41.358.117.154.21.337.271.537a2.059 2.059 0 01-.016 1.259 1.69 1.69 0 01-.285.524c-.12.15-.263.265-.418.341l-4.395 2.284c-1.49.774-3.153.774-4.643 0l-2.535-1.32a2.957 2.957 0 00-2.785 0l-2.537 1.32c-1.49.774-3.153.774-4.643 0l-2.535-1.32a2.957 2.957 0 00-2.785 0l-2.537 1.32c-1.49.774-3.153.774-4.643 0L.785 13.074c-.308-.16-.554-.473-.684-.868a2.077 2.077 0 01-.011-1.243zm0 9.744c.123-.4.364-.719.668-.888a.988.988 0 01.957-.015l4.392 2.284a2.957 2.957 0 002.785 0l2.535-1.319c1.49-.774 3.152-.774 4.643 0l2.537 1.319a2.957 2.957 0 002.785 0l2.535-1.319c1.49-.774 3.152-.774 4.643 0l2.537 1.319a2.957 2.957 0 002.785 0l4.393-2.284c.153-.084.317-.128.484-.13.166 0 .33.042.484.125.154.083.293.205.41.359.117.153.21.336.271.537a2.058 2.058 0 01-.016 1.258 1.692 1.692 0 01-.285.525c-.12.148-.263.264-.418.34l-4.395 2.284c-1.49.774-3.153.774-4.643 0l-2.535-1.319a2.957 2.957 0 00-2.785 0l-2.537 1.319c-1.49.774-3.153.774-4.643 0l-2.535-1.319a2.957 2.957 0 00-2.785 0L9.82 25.102c-1.49.774-3.153.774-4.643 0L.785 22.818c-.308-.16-.554-.472-.684-.868a2.077 2.077 0 01-.011-1.243zm0 9.745c.123-.4.364-.72.668-.889a.987.987 0 01.957-.014l4.392 2.283a2.957 2.957 0 002.785 0l2.535-1.319c1.49-.774 3.152-.774 4.643 0l2.537 1.319a2.957 2.957 0 002.785 0l2.535-1.319c1.49-.774 3.152-.774 4.643 0l2.537 1.319a2.957 2.957 0 002.785 0l4.393-2.283c.153-.085.317-.129.484-.13.166 0 .33.041.484.124.154.083.293.205.41.359.117.154.21.336.271.537a2.058 2.058 0 01-.016 1.258 1.693 1.693 0 01-.285.525c-.12.149-.263.265-.418.34l-4.395 2.284c-1.49.775-3.153.775-4.643 0l-2.535-1.318a2.957 2.957 0 00-2.785 0l-2.537 1.318c-1.49.775-3.153.775-4.643 0l-2.535-1.318a2.957 2.957 0 00-2.785 0L9.82 34.846c-1.49.775-3.153.775-4.643 0L.785 32.563c-.308-.16-.554-.473-.684-.869a2.077 2.077 0 01-.011-1.242z" fill="#803400"/></svg>